<svg width="24" height="24" viewBox="0 0 24 24" fill="none" xmlns="http://www.w3.org/2000/svg">
<path d="M14.5759 17.2714L9.46576 14.484C8.83312 15.112 7.96187 15.5 7 15.5C5.067 15.5 3.5 13.933 3.5 12C3.5 10.067 5.067 8.5 7 8.5C7.96181 8.5 8.83301 8.88796 9.46564 9.51593L14.5759 6.72855C14.5262 6.49354 14.5 6.24983 14.5 6C14.5 4.067 16.067 2.5 18 2.5C19.933 2.5 21.5 4.067 21.5 6C21.5 7.933 19.933 9.5 18 9.5C17.0381 9.5 16.1669 9.11201 15.5343 8.48399L10.424 11.2713C10.4738 11.5064 10.5 11.7501 10.5 12C10.5 12.2498 10.4738 12.4935 10.4241 12.7285L15.5343 15.516C16.167 14.888 17.0382 14.5 18 14.5C19.933 14.5 21.5 16.067 21.5 18C21.5 19.933 19.933 21.5 18 21.5C16.067 21.5 14.5 19.933 14.5 18C14.5 17.7502 14.5262 17.5064 14.5759 17.2714Z" fill="black"/>
</svg>
