<svg width="24" height="24" viewBox="0 0 24 24" fill="none" xmlns="http://www.w3.org/2000/svg">
<path d="M19.3283 9.26758L20.5496 8.04622C21.8153 6.7806 21.8153 4.7181 20.5496 3.44987C19.9351 2.83789 19.12 2.50195 18.2502 2.50195C17.3804 2.50195 16.5653 2.83789 15.9507 3.45247L14.7319 4.67122L19.3283 9.26758Z" fill="#1C2024"/>
<path d="M13.6721 5.73145L4.63828 14.7653C4.44557 14.958 4.29714 15.195 4.2138 15.4528L2.53932 20.5153C2.44818 20.7835 2.51849 21.0804 2.71901 21.2809C2.86224 21.4242 3.05495 21.4997 3.25026 21.4997C3.32839 21.4997 3.40911 21.4867 3.48724 21.4606L8.54453 19.7861C8.80495 19.7002 9.04193 19.5544 9.23464 19.3617L18.2685 10.3278L13.6721 5.73145Z" fill="#1C2024"/>
</svg>
