<svg width="32" height="32" viewBox="0 0 32 32" fill="none" xmlns="http://www.w3.org/2000/svg">
<path d="M10 24C10 25.1042 9.10417 26 8 26C6.89583 26 6 25.1042 6 24C6 22.8958 6.89583 22 8 22C9.10417 22 10 22.8958 10 24Z" fill="#1C2024"/>
<path d="M18 24C18 25.1042 17.1042 26 16 26C14.8958 26 14 25.1042 14 24C14 22.8958 14.8958 22 16 22C17.1042 22 18 22.8958 18 24Z" fill="#1C2024"/>
<path d="M26 24C26 25.1042 25.1042 26 24 26C22.8958 26 22 25.1042 22 24C22 22.8958 22.8958 22 24 22C25.1042 22 26 22.8958 26 24Z" fill="#1C2024"/>
<path d="M10 16C10 17.1042 9.10417 18 8 18C6.89583 18 6 17.1042 6 16C6 14.8958 6.89583 14 8 14C9.10417 14 10 14.8958 10 16Z" fill="#1C2024"/>
<path d="M18 16C18 17.1042 17.1042 18 16 18C14.8958 18 14 17.1042 14 16C14 14.8958 14.8958 14 16 14C17.1042 14 18 14.8958 18 16Z" fill="#1C2024"/>
<path d="M26 16C26 17.1042 25.1042 18 24 18C22.8958 18 22 17.1042 22 16C22 14.8958 22.8958 14 24 14C25.1042 14 26 14.8958 26 16Z" fill="#1C2024"/>
<path d="M10 8C10 9.10417 9.10417 10 8 10C6.89583 10 6 9.10417 6 8C6 6.89583 6.89583 6 8 6C9.10417 6 10 6.89583 10 8Z" fill="#1C2024"/>
<path d="M18 8C18 9.10417 17.1042 10 16 10C14.8958 10 14 9.10417 14 8C14 6.89583 14.8958 6 16 6C17.1042 6 18 6.89583 18 8Z" fill="#1C2024"/>
<path d="M26 8C26 9.10417 25.1042 10 24 10C22.8958 10 22 9.10417 22 8C22 6.89583 22.8958 6 24 6C25.1042 6 26 6.89583 26 8Z" fill="#1C2024"/>
</svg>
