<svg width="24" height="24" viewBox="0 0 24 24" fill="none" xmlns="http://www.w3.org/2000/svg">
<path d="M16 3H8C5.23958 3 3 5.23958 3 8V16C3 18.7604 5.23958 21 8 21H16C18.7604 21 21 18.7604 21 16V8C21 5.23958 18.7604 3 16 3ZM12 17C9.23958 17 7 14.7604 7 12C7 9.23958 9.23958 7 12 7C14.7604 7 17 9.23958 17 12C17 14.7604 14.7604 17 12 17ZM18 7C17.4479 7 17 6.55208 17 6C17 5.44792 17.4479 5 18 5C18.5521 5 19 5.44792 19 6C19 6.55208 18.5521 7 18 7Z" fill="black"/>
<path d="M15 12C15 13.6563 13.6563 15 12 15C10.3437 15 9 13.6563 9 12C9 10.3437 10.3437 9 12 9C13.6563 9 15 10.3437 15 12Z" fill="black"/>
</svg>
