<svg width="20" height="20" viewBox="0 0 20 20" fill="none" xmlns="http://www.w3.org/2000/svg">
<path fill-rule="evenodd" clip-rule="evenodd" d="M3.33398 3.54199C3.33398 2.50671 4.1737 1.66699 5.20898 1.66699H10.6257C10.9708 1.66699 11.2507 1.94681 11.2507 2.29199V6.45866C11.2507 6.80359 11.5307 7.08366 11.8757 7.08366H16.0423C16.3875 7.08366 16.6673 7.36348 16.6673 7.70866V16.4587C16.6673 17.4939 15.8276 18.3337 14.7923 18.3337H5.20898C4.1737 18.3337 3.33398 17.4939 3.33398 16.4587V3.54199ZM5.20898 2.91699C4.86406 2.91699 4.58398 3.19707 4.58398 3.54199V16.4587C4.58398 16.8036 4.86406 17.0837 5.20898 17.0837H14.7923C15.1372 17.0837 15.4173 16.8036 15.4173 16.4587V8.33366H11.8757C10.8404 8.33366 10.0007 7.49394 10.0007 6.45866V2.91699H5.20898Z" fill="#1C2024"/>
<path fill-rule="evenodd" clip-rule="evenodd" d="M11.0675 1.84961L16.4841 7.26628L15.6003 8.15016L10.1836 2.73349L11.0675 1.84961Z" fill="#1C2024"/>
<path fill-rule="evenodd" clip-rule="evenodd" d="M6.25 10.625C6.25 10.2798 6.52982 10 6.875 10H8.95833C9.30351 10 9.58333 10.2798 9.58333 10.625C9.58333 10.9702 9.30351 11.25 8.95833 11.25H6.875C6.52982 11.25 6.25 10.9702 6.25 10.625Z" fill="#1C2024"/>
<path fill-rule="evenodd" clip-rule="evenodd" d="M6.25 14.792C6.25 14.4468 6.52982 14.167 6.875 14.167H8.95833C9.30351 14.167 9.58333 14.4468 9.58333 14.792C9.58333 15.1372 9.30351 15.417 8.95833 15.417H6.875C6.52982 15.417 6.25 15.1372 6.25 14.792Z" fill="#1C2024"/>
<path fill-rule="evenodd" clip-rule="evenodd" d="M10.418 14.792C10.418 14.4468 10.6978 14.167 11.043 14.167H13.1263C13.4715 14.167 13.7513 14.4468 13.7513 14.792C13.7513 15.1372 13.4715 15.417 13.1263 15.417H11.043C10.6978 15.417 10.418 15.1372 10.418 14.792Z" fill="#1C2024"/>
<path fill-rule="evenodd" clip-rule="evenodd" d="M10.418 10.625C10.418 10.2798 10.6978 10 11.043 10H13.1263C13.4715 10 13.7513 10.2798 13.7513 10.625C13.7513 10.9702 13.4715 11.25 13.1263 11.25H11.043C10.6978 11.25 10.418 10.9702 10.418 10.625Z" fill="#1C2024"/>
<path fill-rule="evenodd" clip-rule="evenodd" d="M10.418 12.709C10.418 12.3638 10.6978 12.084 11.043 12.084H13.1263C13.4715 12.084 13.7513 12.3638 13.7513 12.709C13.7513 13.0542 13.4715 13.334 13.1263 13.334H11.043C10.6978 13.334 10.418 13.0542 10.418 12.709Z" fill="#1C2024"/>
<path fill-rule="evenodd" clip-rule="evenodd" d="M6.25 12.709C6.25 12.3638 6.52982 12.084 6.875 12.084H8.95833C9.30351 12.084 9.58333 12.3638 9.58333 12.709C9.58333 13.0542 9.30351 13.334 8.95833 13.334H6.875C6.52982 13.334 6.25 13.0542 6.25 12.709Z" fill="#1C2024"/>
</svg>
