<svg width="24" height="24" viewBox="0 0 24 24" fill="none" xmlns="http://www.w3.org/2000/svg">
<g clip-path="url(#clip0_3466_14717)">
<path fill-rule="evenodd" clip-rule="evenodd" d="M6.10767 6.00006L2.35651 12L6.10767 17.9999C6.10815 18 6.10874 18 6.10945 18H21.0001V6H6.10945C6.10874 6 6.10815 6.00002 6.10767 6.00006ZM4.41257 4.93863C4.77803 4.35398 5.41654 4 6.10945 4H21.0001C22.1044 4 23.0001 4.89563 23.0001 6V18C23.0001 19.1044 22.1044 20 21.0001 20H6.10945C5.41654 20 4.77803 19.646 4.41257 19.0614C4.41254 19.0613 4.41259 19.0614 4.41257 19.0614L-0.00219727 12L4.41257 4.93863C4.41259 4.93859 4.41254 4.93867 4.41257 4.93863Z" fill="black"/>
<path fill-rule="evenodd" clip-rule="evenodd" d="M16.293 16.7071L8.29297 8.70706L9.70718 7.29285L17.7072 15.2928L16.293 16.7071Z" fill="black"/>
<path fill-rule="evenodd" clip-rule="evenodd" d="M8.29297 15.2928L16.293 7.29285L17.7072 8.70706L9.70718 16.7071L8.29297 15.2928Z" fill="black"/>
</g>
<defs>
<clipPath id="clip0_3466_14717">
<rect width="24" height="24" fill="white"/>
</clipPath>
</defs>
</svg>
