<svg width="12" height="12" viewBox="0 0 12 12" fill="none" xmlns="http://www.w3.org/2000/svg">
<g clip-path="url(#clip0_426_2395)">
<path d="M6.75 0.75V5.25H11.25V0.75H6.75ZM9.75 3.75H8.25V2.25H9.75V3.75Z" fill="#B9BBC6"/>
<path d="M6.75 6.75H8.25V8.25H6.75V6.75Z" fill="#B9BBC6"/>
<path d="M8.25 8.25H9.75V9.75H8.25V8.25Z" fill="#B9BBC6"/>
<path d="M9.75 6.75H11.25V8.25H9.75V6.75Z" fill="#B9BBC6"/>
<path d="M9.75 9.75H11.25V11.25H9.75V9.75Z" fill="#B9BBC6"/>
<path d="M6.75 9.75H8.25V11.25H6.75V9.75Z" fill="#B9BBC6"/>
<path d="M0.75 0.75V5.25H5.25V0.75H0.75ZM3.75 3.75H2.25V2.25H3.75V3.75Z" fill="#B9BBC6"/>
<path d="M0.75 6.75V11.25H5.25V6.75H0.75ZM3.75 9.75H2.25V8.25H3.75V9.75Z" fill="#B9BBC6"/>
</g>
<defs>
<clipPath id="clip0_426_2395">
<rect width="12" height="12" fill="white"/>
</clipPath>
</defs>
</svg>
