<svg width="36" height="36" viewBox="0 0 36 36" fill="none" xmlns="http://www.w3.org/2000/svg">
<path d="M24.5948 1.5C22.8325 1.61172 20.7992 2.66875 19.5951 4.01797C18.5106 5.24688 17.6494 7.06875 18.0003 8.83047C19.922 8.89062 21.8438 7.79922 23 6.43281C24.0765 5.14375 24.8898 3.34766 24.5948 1.5Z" fill="#F3F3F3"/>
<path d="M24.6982 8.83008C21.9312 8.83008 20.775 10.6691 18.8532 10.6691C16.8836 10.6691 15.0735 8.9418 12.6893 8.9418C9.43591 8.95039 4.5 12.1902 4.5 19.8301C4.5 26.7824 10.345 34.4996 13.6462 34.4996C15.6477 34.5168 16.1341 33.1418 18.8532 33.1246C21.5724 33.1074 22.1624 34.5168 24.1719 34.4996C26.4285 34.4824 28.1988 31.8098 29.4826 29.6871C30.4076 28.166 30.7903 27.3926 31.5 25.6738C26.1893 24.2215 25.1288 14.9832 31.5 13.0668C30.3039 10.8582 26.7874 8.83008 24.6982 8.83008Z" fill="#F3F3F3"/>
</svg>
