<svg width="21" height="20" viewBox="0 0 21 20" fill="none" xmlns="http://www.w3.org/2000/svg">
<path d="M12.7916 1.66602C10.2396 1.66602 8.0564 3.2589 7.17316 5.50282C7.5117 5.45074 7.85458 5.41602 8.20831 5.41602C8.33201 5.41602 8.45354 5.42904 8.57507 5.43555C9.3867 3.93598 10.9709 2.91602 12.7916 2.91602C15.4327 2.91602 17.5833 5.06662 17.5833 7.70768C17.5833 9.52843 16.5633 11.1126 15.0638 11.9243C15.0703 12.0458 15.0833 12.1673 15.0833 12.291C15.0833 12.6447 15.0486 12.9876 14.9965 13.3262C17.2404 12.4429 18.8333 10.2598 18.8333 7.70768C18.8333 4.37652 16.1228 1.66602 12.7916 1.66602Z" fill="#1C2024"/>
<path d="M14.2724 5.34699C14.5179 5.14694 14.8798 5.16136 15.1086 5.39012C15.3373 5.61889 15.3517 5.98083 15.1517 6.22631L15.1086 6.27391L7.60856 13.7739C7.36449 14.018 6.96885 14.018 6.72478 13.7739C6.4807 13.5298 6.4807 13.1342 6.72478 12.8901L14.2248 5.39012L14.2724 5.34699Z" fill="#1C2024"/>
<path d="M14.25 8.54167V6.25H11.9583C11.6131 6.25 11.3333 5.97018 11.3333 5.625C11.3333 5.27982 11.6131 5 11.9583 5H14.875L14.9389 5.00326C15.254 5.03525 15.5 5.30139 15.5 5.625V8.54167C15.5 8.88684 15.2202 9.16667 14.875 9.16667C14.5298 9.16667 14.25 8.88684 14.25 8.54167Z" fill="#1C2024"/>
<path d="M6.33331 10.625C6.33331 10.2798 6.61314 10 6.95831 10C7.30349 10 7.58331 10.2798 7.58331 10.625V12.9167H9.87498C10.2202 12.9167 10.5 13.1965 10.5 13.5417C10.5 13.8868 10.2202 14.1667 9.87498 14.1667H6.95831C6.61314 14.1667 6.33331 13.8868 6.33331 13.5417V10.625Z" fill="#1C2024"/>
<path d="M12.464 10.0977C12.8047 10.7574 13 11.5017 13 12.2917C13 14.9327 10.8494 17.0833 8.20832 17.0833C5.56726 17.0833 3.41666 14.9327 3.41666 12.2917C3.41666 9.65061 5.56726 7.5 8.20832 7.5C8.99825 7.5 9.74261 7.69531 10.4023 8.03602L11.3181 7.12023C10.4067 6.57118 9.34548 6.25 8.20832 6.25C4.87716 6.25 2.16666 8.9605 2.16666 12.2917C2.16666 15.6228 4.87716 18.3333 8.20832 18.3333C11.5395 18.3333 14.25 15.6228 14.25 12.2917C14.25 11.1545 13.9288 10.0933 13.3798 9.18186L12.464 10.0977Z" fill="#1C2024"/>
</svg>
