<svg width="17" height="18" viewBox="0 0 17 18" fill="none" xmlns="http://www.w3.org/2000/svg">
<g id="surface221376">
<path id="Vector (Stroke)" d="M0.666504 12.1253V5.87533C0.666504 4.37997 1.87949 3.16699 3.37484 3.16699H3.99984V4.41699H3.37484C2.56984 4.41699 1.9165 5.07033 1.9165 5.87533V12.1253C1.9165 12.9303 2.56984 13.5837 3.37484 13.5837H3.99984V14.8337H3.37484C1.87949 14.8337 0.666504 13.6207 0.666504 12.1253Z" fill="#1C2024"/>
<path id="Vector (Stroke)_2" d="M15.6665 12.1253V5.87533C15.6665 5.07033 15.0132 4.41699 14.2082 4.41699H6.9165V3.16699H14.2082C15.7035 3.16699 16.9165 4.37997 16.9165 5.87533V12.1253C16.9165 13.6207 15.7035 14.8337 14.2082 14.8337H6.9165V13.5837H14.2082C15.0132 13.5837 15.6665 12.9303 15.6665 12.1253Z" fill="#1C2024"/>
<path id="Vector (Stroke)_3" d="M4.83301 16.709V1.70898C4.83301 1.36381 5.11283 1.08398 5.45801 1.08398C5.80319 1.08398 6.08301 1.36381 6.08301 1.70898V16.709C6.08301 17.0542 5.80319 17.334 5.45801 17.334C5.11283 17.334 4.83301 17.0542 4.83301 16.709Z" fill="#1C2024"/>
<path id="Vector (Stroke)_4" d="M7.12484 0.666992C7.47002 0.666992 7.74984 0.946814 7.74984 1.29199C7.74984 1.63717 7.47002 1.91699 7.12484 1.91699H3.7915C3.44633 1.91699 3.1665 1.63717 3.1665 1.29199C3.1665 0.946814 3.44633 0.666992 3.7915 0.666992H7.12484Z" fill="#1C2024"/>
<path id="Vector (Stroke)_5" d="M7.12484 16.084C7.47002 16.084 7.74984 16.3638 7.74984 16.709C7.74984 17.0542 7.47002 17.334 7.12484 17.334H3.7915C3.44633 17.334 3.1665 17.0542 3.1665 16.709C3.1665 16.3638 3.44633 16.084 3.7915 16.084H7.12484Z" fill="#1C2024"/>
</g>
</svg>
