<svg width="20" height="20" viewBox="0 0 20 20" fill="none" xmlns="http://www.w3.org/2000/svg">
<path fill-rule="evenodd" clip-rule="evenodd" d="M10.8333 8.78636C10.1633 8.78636 9.61936 9.33026 9.61936 10.0003C9.61936 10.6703 10.1633 11.2142 10.8333 11.2142C11.5033 11.2142 12.0472 10.6703 12.0472 10.0003C12.0472 9.33026 11.5033 8.78636 10.8333 8.78636ZM7.9668 10.0003C7.9668 8.41757 9.25058 7.13379 10.8333 7.13379C12.416 7.13379 13.6998 8.41757 13.6998 10.0003C13.6998 11.583 12.416 12.8668 10.8333 12.8668C9.25058 12.8668 7.9668 11.583 7.9668 10.0003Z" fill="#444444"/>
<path fill-rule="evenodd" clip-rule="evenodd" d="M10.8333 6.23606C8.75528 6.23606 7.06907 7.92227 7.06907 10.0002C7.06907 12.0782 8.75528 13.7644 10.8333 13.7644H13.3833L13.3835 15.417H10.8333C7.84259 15.417 5.4165 12.9909 5.4165 10.0002C5.4165 7.00958 7.84259 4.5835 10.8333 4.5835C13.8239 4.5835 16.25 7.00958 16.25 10.0002V10.7653C16.25 11.9256 15.3089 12.8667 14.1486 12.8667C12.9883 12.8667 12.0472 11.9256 12.0472 10.7653V10.0002H13.6997V10.7653C13.6997 11.013 13.901 11.2142 14.1486 11.2142C14.3962 11.2142 14.5974 11.013 14.5974 10.7653V10.0002C14.5974 7.92227 12.9112 6.23606 10.8333 6.23606Z" fill="#444444"/>
<path d="M2.9165 4.58366H1.24984C0.789768 4.58366 0.416504 4.21039 0.416504 3.75033C0.416504 3.29026 0.789768 2.91699 1.24984 2.91699H2.9165V4.58366Z" fill="#444444"/>
<path d="M2.9165 8.75016H1.24984C0.789768 8.75016 0.416504 8.3769 0.416504 7.91683C0.416504 7.45676 0.789768 7.0835 1.24984 7.0835H2.9165V8.75016Z" fill="#444444"/>
<path d="M2.9165 12.9167H1.24984C0.789768 12.9167 0.416504 12.5434 0.416504 12.0833C0.416504 11.6233 0.789768 11.25 1.24984 11.25H2.9165V12.9167Z" fill="#444444"/>
<path d="M2.9165 17.0837H1.24984C0.789768 17.0837 0.416504 16.7104 0.416504 16.2503C0.416504 15.7903 0.789768 15.417 1.24984 15.417H2.9165V17.0837Z" fill="#444444"/>
<path fill-rule="evenodd" clip-rule="evenodd" d="M2.5 2.87053C2.5 1.74571 3.32929 0.833496 4.35185 0.833496H17.3148C18.3374 0.833496 19.1667 1.74571 19.1667 2.87053V17.1298C19.1667 18.2546 18.3374 19.1668 17.3148 19.1668H4.35185C3.32929 19.1668 2.5 18.2546 2.5 17.1298V2.87053ZM17.3148 2.87053H4.35185V17.1298H17.3148V2.87053Z" fill="#444444"/>
</svg>
