<svg width="20" height="20" viewBox="0 0 20 20" fill="none" xmlns="http://www.w3.org/2000/svg">
<path fill-rule="evenodd" clip-rule="evenodd" d="M10.0001 2.91669C6.08745 2.91669 2.91675 6.08739 2.91675 10C2.91675 13.9127 6.08745 17.0834 10.0001 17.0834C13.9127 17.0834 17.0834 13.9127 17.0834 10C17.0834 6.08739 13.9127 2.91669 10.0001 2.91669ZM1.66675 10C1.66675 5.39703 5.39709 1.66669 10.0001 1.66669C14.6031 1.66669 18.3334 5.39703 18.3334 10C18.3334 14.603 14.6031 18.3334 10.0001 18.3334C5.39709 18.3334 1.66675 14.603 1.66675 10Z" fill="#46A758"/>
<path d="M13.5641 7.22334C13.8096 7.02329 14.1715 7.03771 14.4003 7.26647C14.6291 7.49523 14.6435 7.85717 14.4434 8.10265L14.4003 8.15026L9.4003 13.1503C9.17154 13.379 8.8096 13.3934 8.56412 13.1934L8.51651 13.1503L5.59984 10.2336L5.55671 10.186C5.35666 9.9405 5.37108 9.57856 5.59984 9.3498C5.8286 9.12104 6.19054 9.10662 6.43602 9.30667L6.48363 9.3498L8.9584 11.8246L13.5165 7.26647L13.5641 7.22334Z" fill="#46A758"/>
</svg>
