<svg width="20" height="20" viewBox="0 0 20 20" fill="none" xmlns="http://www.w3.org/2000/svg">
<path d="M7.48763 13.5377C7.04709 13.9283 6.46766 14.167 5.83398 14.167C4.45595 14.167 3.33398 13.045 3.33398 11.667V9.37534C3.33398 9.26032 3.4273 9.167 3.54232 9.167H7.09484C7.09484 9.167 7.09484 8.33711 7.29342 7.91699C6.46009 7.91698 3.54232 7.917 3.54232 7.917C2.7372 7.917 2.08398 8.57022 2.08398 9.37534V11.667C2.08398 13.7351 3.76584 15.417 5.83398 15.417C6.71072 15.417 7.51584 15.1132 8.15603 14.6075C7.88477 14.2842 7.66124 13.9239 7.48763 13.5377Z" fill="black"/>
<path fill-rule="evenodd" clip-rule="evenodd" d="M5.83398 2.70801C5.14401 2.70801 4.58398 3.26803 4.58398 3.95801C4.58398 4.64799 5.14401 5.20801 5.83398 5.20801C6.52396 5.20801 7.08398 4.64799 7.08398 3.95801C7.08398 3.26803 6.52396 2.70801 5.83398 2.70801ZM3.33398 3.95801C3.33398 2.57767 4.45365 1.45801 5.83398 1.45801C7.21432 1.45801 8.33398 2.57767 8.33398 3.95801C8.33398 5.33834 7.21432 6.45801 5.83398 6.45801C4.45365 6.45801 3.33398 5.33834 3.33398 3.95801Z" fill="black"/>
<path fill-rule="evenodd" clip-rule="evenodd" d="M12.084 2.5C11.394 2.5 10.834 3.06002 10.834 3.75C10.834 4.43998 11.394 5 12.084 5C12.774 5 13.334 4.43998 13.334 3.75C13.334 3.06002 12.774 2.5 12.084 2.5ZM9.58398 3.75C9.58398 2.36967 10.7037 1.25 12.084 1.25C13.4643 1.25 14.584 2.36967 14.584 3.75C14.584 5.13033 13.4643 6.25 12.084 6.25C10.7037 6.25 9.58398 5.13033 9.58398 3.75Z" fill="black"/>
<path fill-rule="evenodd" clip-rule="evenodd" d="M14.8614 11.396L14.8414 11.5813C14.8414 11.5813 14.8414 11.5812 14.8414 11.5813C14.7919 12.0392 14.5295 12.4486 14.1316 12.681C13.7331 12.9148 13.247 12.942 12.8249 12.7537C12.8248 12.7537 12.825 12.7538 12.8249 12.7537C12.8248 12.7537 12.8246 12.7536 12.8245 12.7536L12.6669 12.6834C12.5271 12.8748 12.408 13.0819 12.313 13.3017L12.4629 13.4131C12.833 13.6884 13.0492 14.1239 13.0492 14.5837C13.0492 15.0434 12.8332 15.4788 12.4631 15.7541L12.313 15.8656C12.408 16.0855 12.5271 16.2925 12.6669 16.4839L12.8245 16.4138C12.8244 16.4138 12.8245 16.4137 12.8245 16.4138C13.2469 16.2253 13.7336 16.2525 14.1323 16.4868C14.5298 16.7192 14.792 17.1284 14.8414 17.586C14.8414 17.586 14.8414 17.5861 14.8414 17.586L14.8614 17.7713C14.9761 17.7849 15.0917 17.792 15.2084 17.792C15.325 17.792 15.4407 17.7849 15.5553 17.7713L15.5753 17.5861C15.5753 17.5861 15.5753 17.5861 15.5753 17.5861C15.6248 17.1281 15.8872 16.7187 16.2851 16.4863C16.6837 16.2525 17.1699 16.2253 17.5921 16.4137C17.592 16.4137 17.5921 16.4137 17.5921 16.4137L17.7498 16.4839C17.8896 16.2925 18.0087 16.0855 18.1038 15.8656L17.9539 15.7543C17.5837 15.4789 17.3675 15.0434 17.3675 14.5837C17.3675 14.1239 17.5835 13.6886 17.9537 13.4132L18.1038 13.3017C18.0088 13.0819 17.8897 12.8748 17.7499 12.6831L17.5923 12.7536C17.1698 12.9421 16.6832 12.9148 16.2844 12.6805C15.8883 12.4479 15.6249 12.0406 15.5753 11.5813C15.5753 11.5813 15.5753 11.5813 15.5753 11.5813L15.5553 11.396C15.4407 11.3825 15.325 11.3753 15.2084 11.3753C15.0917 11.3753 14.9761 11.3825 14.8614 11.396ZM14.2412 10.408C14.5489 10.3349 14.8724 10.292 15.2084 10.292C15.5443 10.292 15.8678 10.3349 16.1756 10.408C16.3986 10.4611 16.5642 10.6488 16.5888 10.8768L16.6524 11.4649C16.6653 11.5841 16.7332 11.6878 16.8331 11.7465C16.9303 11.8035 17.0479 11.8101 17.1505 11.7644C17.1505 11.7644 17.1506 11.7643 17.1505 11.7644L17.6838 11.5258C17.896 11.431 18.145 11.482 18.3028 11.6526C18.7411 12.1269 19.0778 12.7004 19.2691 13.3413C19.3342 13.5595 19.2559 13.7952 19.0731 13.931L18.6003 14.2824C18.6003 14.2824 18.6003 14.2824 18.6003 14.2824C18.5078 14.3512 18.4508 14.4628 18.4508 14.5837C18.4508 14.7045 18.5078 14.816 18.6002 14.8849C18.6002 14.8848 18.6002 14.8849 18.6002 14.8849L19.0731 15.2363C19.2559 15.3722 19.3342 15.6078 19.2691 15.826C19.0778 16.4668 18.7411 17.0406 18.3023 17.5141C18.1447 17.6842 17.8964 17.7351 17.6847 17.6408L17.1507 17.403C17.0481 17.3572 16.9303 17.3637 16.8331 17.4208L16.8317 17.4217C16.734 17.4787 16.6654 17.5821 16.6524 17.7025L16.5888 18.2905C16.5642 18.5185 16.3986 18.7063 16.1756 18.7593C15.8678 18.8324 15.5443 18.8753 15.2084 18.8753C14.8724 18.8753 14.5489 18.8324 14.2412 18.7593C14.0181 18.7063 13.8526 18.5185 13.8279 18.2905L13.7644 17.7025C13.7514 17.5821 13.6827 17.4787 13.5851 17.4217L13.5836 17.4208C13.4864 17.3637 13.3687 17.3572 13.266 17.403L12.7321 17.6408C12.5203 17.7351 12.272 17.6842 12.1144 17.5141C11.6756 17.0406 11.339 16.4668 11.1477 15.826C11.0825 15.6078 11.1608 15.3722 11.3436 15.2363L11.8164 14.8849C11.9089 14.8161 11.9659 14.7045 11.9659 14.5837C11.9659 14.4628 11.9089 14.3512 11.8164 14.2824L11.3436 13.931C11.1608 13.7952 11.0825 13.5595 11.1477 13.3413C11.339 12.7005 11.6756 12.1267 12.1144 11.6532C12.272 11.4832 12.5203 11.4322 12.7321 11.5265L13.266 11.7643C13.3687 11.8101 13.4864 11.8036 13.5836 11.7465L13.5851 11.7456C13.6827 11.6887 13.7514 11.5852 13.7644 11.4649L13.8279 10.8768C13.8526 10.6488 14.0181 10.4611 14.2412 10.408Z" fill="black"/>
<path d="M16.2513 14.5837C16.2513 15.159 15.7849 15.6253 15.2096 15.6253C14.6343 15.6253 14.168 15.159 14.168 14.5837C14.168 14.0084 14.6343 13.542 15.2096 13.542C15.7849 13.542 16.2513 14.0084 16.2513 14.5837Z" fill="black"/>
<path d="M10.0013 13.7497C10.0013 13.6781 10.01 13.6064 10.0122 13.5348C9.49566 13.0769 9.16797 12.4107 9.16797 11.6663V8.54134C9.16797 8.42632 9.26128 8.33301 9.3763 8.33301H14.793C14.908 8.33301 15.0013 8.42632 15.0013 8.54134V9.31825C15.1944 9.27051 15.3898 9.23579 15.5894 9.21191C15.6024 9.20974 15.6111 9.20757 15.6241 9.2054C15.8303 9.18153 16.0386 9.16634 16.2513 9.16634V8.54134C16.2513 7.73622 15.5981 7.08301 14.793 7.08301H9.3763C8.57118 7.08301 7.91797 7.73622 7.91797 8.54134V11.6663C7.91797 13.205 8.85113 14.5288 10.1793 15.106C10.0664 14.672 10.0013 14.2184 10.0013 13.7497Z" fill="black"/>
</svg>
