<svg width="25" height="24" viewBox="0 0 25 24" fill="none" xmlns="http://www.w3.org/2000/svg">
<path fill-rule="evenodd" clip-rule="evenodd" d="M5.34115 18.5C4.83519 18.5 4.5 18.8774 4.5 19.25C4.5 19.6226 4.83519 20 5.34115 20H19.6589C20.1648 20 20.5 19.6226 20.5 19.25C20.5 18.8774 20.1648 18.5 19.6589 18.5H5.34115ZM3 19.25C3 17.9663 4.09189 17 5.34115 17H19.6589C20.9081 17 22 17.9663 22 19.25C22 20.5337 20.9081 21.5 19.6589 21.5H5.34115C4.09189 21.5 3 20.5337 3 19.25Z" fill="#1C2024"/>
<path d="M6.0171 8L11.6941 3.78221C12.1734 3.42709 12.8267 3.42724 13.306 3.78221C13.8824 4.20898 14.5022 4.67092 14.5022 4.67092V2.79267L14.1993 2.57717C13.1892 1.82844 11.8109 1.82844 10.8008 2.57717L3.30276 8.14797C3.04313 8.34087 2.93641 8.67848 3.038 8.98556C3.13959 9.29264 3.4266 9.5 3.75005 9.5H14.5V8H6.0171Z" fill="#1C2024"/>
<path fill-rule="evenodd" clip-rule="evenodd" d="M11.25 10.5V17.75H9.75V10.5H11.25Z" fill="#1C2024"/>
<path fill-rule="evenodd" clip-rule="evenodd" d="M7.25 10.5V17.75H5.75V10.5H7.25Z" fill="#1C2024"/>
<path fill-rule="evenodd" clip-rule="evenodd" d="M15.25 10.5V17.75H13.75V10.5H15.25Z" fill="#1C2024"/>
<path fill-rule="evenodd" clip-rule="evenodd" d="M19.25 10.5V17.75H17.75V10.5H19.25Z" fill="#1C2024"/>
<path d="M13.5 6C13.5 6.55208 13.0521 7 12.5 7C11.9479 7 11.5 6.55208 11.5 6C11.5 5.44792 11.9479 5 12.5 5C13.0521 5 13.5 5.44792 13.5 6Z" fill="#1C2024"/>
<path fill-rule="evenodd" clip-rule="evenodd" d="M17.5 4.5C17.5 4.08579 17.8358 3.75 18.25 3.75H22.75C23.1642 3.75 23.5 4.08579 23.5 4.5C23.5 4.91421 23.1642 5.25 22.75 5.25H18.25C17.8358 5.25 17.5 4.91421 17.5 4.5Z" fill="#1C2024"/>
</svg>
