<svg width="24" height="24" viewBox="0 0 24 24" fill="none" xmlns="http://www.w3.org/2000/svg">
<path fill-rule="evenodd" clip-rule="evenodd" d="M17 6V3H19V6H17Z" fill="#F3F3F3"/>
<path d="M7 13C3.69792 13 1 10.3021 1 7C1 3.69792 3.69792 1 7 1C10.3021 1 13 3.69792 13 7C13 10.3021 10.3021 13 7 13ZM7 3C4.80208 3 3 4.80208 3 7C3 9.19792 4.80208 11 7 11C9.19792 11 11 9.19792 11 7C11 4.80208 9.19792 3 7 3ZM9.30208 8.30208L7.80208 6.90104L9 4.80208L7.90104 4.19792L6.19792 7.09896L8.40104 9.30208L9.30208 8.30208Z" fill="#F3F3F3"/>
<path d="M20 5H14.7396C14.901 5.64063 15 6.30729 15 7C15 8.0625 14.7865 9.07292 14.4115 10H20V21H6V14.9323C5.30208 14.8437 4.63021 14.6667 4 14.4115V21C4 22.1042 4.89583 23 6 23H20C21.1042 23 22 22.1042 22 21V7C22 5.89583 21.1042 5 20 5Z" fill="#F3F3F3"/>
</svg>
