<svg width="24" height="24" viewBox="0 0 24 24" fill="none" xmlns="http://www.w3.org/2000/svg">
<path fill-rule="evenodd" clip-rule="evenodd" d="M2.54655 14.3956C3.47865 13.2793 4.96115 12 6.91425 12C7.71941 12 8.21566 12.1095 8.70379 12.2172C8.77878 12.2338 8.85357 12.2503 8.92927 12.2663C9.46876 12.3808 10.1594 12.5 11.5549 12.5H13.7502C14.9925 12.5 16.0002 13.5077 16.0002 14.75C16.0002 15.9923 14.9925 17 13.7502 17H10.2502C9.83597 17 9.50018 16.6642 9.50018 16.25C9.50018 15.8358 9.83597 15.5 10.2502 15.5H13.7502C14.1641 15.5 14.5002 15.1639 14.5002 14.75C14.5002 14.3361 14.1641 14 13.7502 14H11.5549C10.0519 14 9.25686 13.8692 8.61797 13.7337C8.53173 13.7154 8.45062 13.6976 8.37282 13.6805C7.90035 13.5769 7.54997 13.5 6.91425 13.5C5.64078 13.5 4.54124 14.347 3.69796 15.357C3.28833 15.8476 2.96888 16.342 2.75153 16.7154C2.64334 16.9013 2.56168 17.055 2.50792 17.1605C2.48106 17.2132 2.46125 17.2537 2.44864 17.2799C2.44233 17.293 2.43784 17.3025 2.43517 17.3082L2.43269 17.3136C2.26083 17.6902 1.81604 17.8568 1.43923 17.6851C1.0623 17.5134 0.895947 17.0686 1.06768 16.6917L1.72615 16.9917C1.06768 16.6916 1.06778 16.6914 1.06789 16.6912L1.06881 16.6892L1.07065 16.6852L1.07651 16.6726C1.08137 16.6622 1.08815 16.6478 1.09682 16.6298C1.11417 16.5937 1.13913 16.5428 1.17156 16.4792C1.23635 16.3521 1.33127 16.1737 1.45514 15.9608C1.7019 15.5369 2.06849 14.9682 2.54655 14.3956Z" fill="#1C2024"/>
<path fill-rule="evenodd" clip-rule="evenodd" d="M20.8066 11.0098C21.3858 11.0052 21.9167 11.2364 22.3404 11.6601C23.1987 12.5184 23.2188 13.8956 22.4006 14.7781C22.3897 14.7905 22.3783 14.8027 22.3665 14.8145L22.3413 14.8397C22.341 14.84 22.3407 14.8403 22.3404 14.8406C22.3079 14.8731 22.2732 14.902 22.2367 14.9273C21.0996 15.8834 20.1408 16.7055 19.325 17.405C18.2376 18.3374 17.4042 19.052 16.7415 19.5755C15.5785 20.4942 14.7398 21.0004 13.7502 21.0004C12.7356 21.0004 11.7118 20.8727 10.7336 20.7507L10.6847 20.7446C9.67505 20.6187 8.7091 20.5004 7.75018 20.5004C7.04482 20.5004 6.62281 20.8369 6.35018 21.2004C6.20925 21.3883 6.11277 21.5801 6.05186 21.7263C6.02182 21.7984 6.00157 21.8567 5.98959 21.8939C5.98362 21.9125 5.97979 21.9256 5.97788 21.9324L5.97655 21.9371C5.87403 22.3361 5.4685 22.578 5.06828 22.478C4.66643 22.3775 4.42211 21.9703 4.52257 21.5685L5.25018 21.7504C4.52257 21.5685 4.52266 21.5681 4.52274 21.5678L4.52293 21.567L4.52334 21.5654L4.52432 21.5616L4.5269 21.5518C4.52891 21.5442 4.53149 21.5347 4.53469 21.5235C4.54107 21.5009 4.54993 21.4711 4.56155 21.4349C4.58472 21.3628 4.61916 21.2648 4.66724 21.1494C4.76258 20.9206 4.91611 20.6125 5.15018 20.3004C5.62754 19.6639 6.45553 19.0004 7.75018 19.0004C8.8173 19.0004 9.87478 19.132 10.8703 19.2561L10.8728 19.2564C11.8841 19.3825 12.8293 19.5004 13.7502 19.5004C14.1747 19.5004 14.6497 19.3164 15.8116 18.3985C16.4568 17.8888 17.2515 17.2072 18.3096 16.2997C19.1335 15.593 20.1171 14.7493 21.3141 13.7432C21.5723 13.4486 21.5608 13.0019 21.2797 12.7208C21.1176 12.5586 20.9649 12.5086 20.8187 12.5098C20.6564 12.5111 20.4244 12.5782 20.1393 12.7912L20.137 12.793C19.7606 13.072 18.5055 14.0085 17.3427 14.8764C16.7617 15.3102 16.2043 15.7264 15.7921 16.0342L15.1138 16.5408L15.1133 16.5412C15.1132 16.5412 15.1131 16.5414 14.6642 15.9405C14.2154 15.3396 14.2154 15.3396 14.2155 15.3396L14.8946 14.8323C15.3068 14.5245 15.8643 14.1082 16.4454 13.6744C17.6058 12.8082 18.8624 11.8706 19.2426 11.5888C19.7098 11.2399 20.2443 11.0144 20.8066 11.0098ZM14.6642 15.9405L14.2155 15.3396C13.8836 15.5874 13.8155 16.0574 14.0634 16.3893C14.3112 16.7212 14.7814 16.7891 15.1133 16.5412L14.6642 15.9405Z" fill="#1C2024"/>
<path fill-rule="evenodd" clip-rule="evenodd" d="M15.7803 2.71967C16.0732 3.01256 16.0732 3.48744 15.7803 3.78033L9.28033 10.2803C8.98744 10.5732 8.51256 10.5732 8.21967 10.2803C7.92678 9.98744 7.92678 9.51256 8.21967 9.21967L14.7197 2.71967C15.0126 2.42678 15.4874 2.42678 15.7803 2.71967Z" fill="#1C2024"/>
<path d="M10.5 3.75C10.5 4.4401 9.9401 5 9.25 5C8.5599 5 8 4.4401 8 3.75C8 3.0599 8.5599 2.5 9.25 2.5C9.9401 2.5 10.5 3.0599 10.5 3.75Z" fill="#1C2024"/>
<path d="M16 9.25C16 9.9401 15.4401 10.5 14.75 10.5C14.0599 10.5 13.5 9.9401 13.5 9.25C13.5 8.5599 14.0599 8 14.75 8C15.4401 8 16 8.5599 16 9.25Z" fill="#1C2024"/>
</svg>
