<svg width="24" height="24" viewBox="0 0 24 24" fill="none" xmlns="http://www.w3.org/2000/svg">
<path d="M14.1202 17.0228L9.92129 14.7324C9.19135 15.5125 8.15261 16 7 16C4.79086 16 3 14.2091 3 12C3 9.79086 4.79086 8 7 8C8.15255 8 9.19125 8.48746 9.92118 9.26746L14.1202 6.97713C14.0417 6.66441 14 6.33707 14 6C14 3.79086 15.7909 2 18 2C20.2091 2 22 3.79086 22 6C22 8.20914 20.2091 10 18 10C16.8474 10 15.8087 9.51251 15.0787 8.73246L10.8798 11.0228C10.9583 11.3355 11 11.6629 11 12C11 12.3371 10.9583 12.6644 10.8798 12.9771L15.0788 15.2675C15.8087 14.4875 16.8474 14 18 14C20.2091 14 22 15.7909 22 18C22 20.2091 20.2091 22 18 22C15.7909 22 14 20.2091 14 18C14 17.6629 14.0417 17.3355 14.1202 17.0228ZM7 14C8.10457 14 9 13.1046 9 12C9 10.8954 8.10457 10 7 10C5.89543 10 5 10.8954 5 12C5 13.1046 5.89543 14 7 14ZM18 8C19.1046 8 20 7.10457 20 6C20 4.89543 19.1046 4 18 4C16.8954 4 16 4.89543 16 6C16 7.10457 16.8954 8 18 8ZM18 20C19.1046 20 20 19.1046 20 18C20 16.8954 19.1046 16 18 16C16.8954 16 16 16.8954 16 18C16 19.1046 16.8954 20 18 20Z" fill="black"/>
</svg>
