<svg width="24" height="24" viewBox="0 0 24 24" fill="none" xmlns="http://www.w3.org/2000/svg">
<path d="M21.333 7.66699V9.33301H2.66699V7.66699H21.333Z" fill="#444444" stroke="#444444" stroke-width="1.33333"/>
<path d="M17 15.667C19.3515 15.667 20.9484 16.5854 21.9629 17.4961C22.4735 17.9545 22.8381 18.4131 23.0732 18.7539C23.1363 18.8453 23.189 18.9285 23.2334 19C23.189 19.0715 23.1363 19.1547 23.0732 19.2461C22.8381 19.5869 22.4735 20.0455 21.9629 20.5039C20.9484 21.4146 19.3515 22.333 17 22.333C14.6485 22.333 13.0516 21.4146 12.0371 20.5039C11.5265 20.0455 11.1619 19.5869 10.9268 19.2461C10.8636 19.1545 10.81 19.0716 10.7656 19C10.81 18.9284 10.8636 18.8455 10.9268 18.7539C11.1619 18.4131 11.5265 17.9545 12.0371 17.4961C13.0516 16.5854 14.6485 15.667 17 15.667ZM17 16.333C15.5276 16.333 14.333 17.5276 14.333 19C14.333 20.4724 15.5276 21.667 17 21.667C18.4724 21.667 19.667 20.4724 19.667 19C19.667 17.5276 18.4724 16.333 17 16.333Z" fill="#444444" stroke="#444444" stroke-width="1.33333"/>
<path d="M8.91146 17H4V5H20V13.4219C20.7448 13.6406 21.4115 13.9323 22 14.2656V5C22 3.89583 21.1042 3 20 3H4C2.89583 3 2 3.89583 2 5V17C2 18.1042 2.89583 19 4 19H7.78646L8.19271 18.1406C8.22396 18.0781 8.45313 17.6146 8.91146 17Z" fill="#444444"/>
</svg>
