<svg width="20" height="20" viewBox="0 0 20 20" fill="none" xmlns="http://www.w3.org/2000/svg">
<path fill-rule="evenodd" clip-rule="evenodd" d="M1.34755 5.71691C6.38167 1.4277 13.6181 1.4277 18.6522 5.71691C19.2667 6.24104 19.3417 7.19329 18.8166 7.8092L10.8886 17.0808C10.4152 17.6399 9.58453 17.6399 9.11122 17.0808L1.18316 7.8092C0.658088 7.19329 0.733115 6.24104 1.34755 5.71691ZM13.0891 5.66076C12.7636 5.33532 12.2361 5.33532 11.9107 5.66076L9.99989 7.57157L8.08908 5.66076C7.76365 5.33532 7.23613 5.33532 6.9107 5.66076C6.58526 5.9862 6.58526 6.51371 6.9107 6.83914L8.8215 8.74995L6.9107 10.6608C6.58526 10.9862 6.58526 11.5137 6.9107 11.8391C7.23613 12.1646 7.76365 12.1646 8.08908 11.8391L9.99989 9.92834L11.9107 11.8391C12.2361 12.1646 12.7636 12.1646 13.0891 11.8391C13.4145 11.5137 13.4145 10.9862 13.0891 10.6608L11.1783 8.74995L13.0891 6.83914C13.4145 6.51371 13.4145 5.9862 13.0891 5.66076Z" fill="#E5484D"/>
</svg>
