<svg width="20" height="20" viewBox="0 0 20 20" fill="none" xmlns="http://www.w3.org/2000/svg">
<path fill-rule="evenodd" clip-rule="evenodd" d="M13.6089 11.1621C12.4011 11.1621 11.25 12.3635 11.25 14.0788C11.25 15.794 12.4011 16.9954 13.6089 16.9954C14.1465 16.9954 14.4763 16.8927 14.7113 16.7671C14.959 16.6347 15.1436 16.4569 15.3936 16.2094C15.6389 15.9666 16.0346 15.9685 16.2775 16.2138C16.5203 16.4591 16.5183 16.8548 16.2731 17.0977C16.2673 17.1034 16.2615 17.1091 16.2557 17.1149C16.02 17.3483 15.7207 17.6449 15.3006 17.8695C14.8574 18.1064 14.3192 18.2454 13.6089 18.2454C11.5182 18.2454 10 16.2746 10 14.0788C10 11.883 11.5182 9.91211 13.6089 9.91211C14.3192 9.91211 14.8574 10.0511 15.3006 10.2881C15.7207 10.5127 16.02 10.8092 16.2557 11.0426C16.2615 11.0484 16.2673 11.0542 16.2731 11.0599C16.5183 11.3027 16.5203 11.6985 16.2775 11.9437C16.0346 12.189 15.6389 12.191 15.3936 11.9481C15.1436 11.7006 14.959 11.5229 14.7113 11.3904C14.4763 11.2648 14.1465 11.1621 13.6089 11.1621Z" fill="#1C2024"/>
<path fill-rule="evenodd" clip-rule="evenodd" d="M8.95898 13.0361C8.95898 12.691 9.23881 12.4111 9.58398 12.4111H12.709C13.0542 12.4111 13.334 12.691 13.334 13.0361C13.334 13.3813 13.0542 13.6611 12.709 13.6611H9.58398C9.23881 13.6611 8.95898 13.3813 8.95898 13.0361Z" fill="#1C2024"/>
<path fill-rule="evenodd" clip-rule="evenodd" d="M8.95898 15.1221C8.95898 14.7769 9.23881 14.4971 9.58398 14.4971H12.709C13.0542 14.4971 13.334 14.7769 13.334 15.1221C13.334 15.4672 13.0542 15.7471 12.709 15.7471H9.58398C9.23881 15.7471 8.95898 15.4672 8.95898 15.1221Z" fill="#1C2024"/>
<path fill-rule="evenodd" clip-rule="evenodd" d="M8.05486 2.53613C9.0918 2.53613 10.0509 3.12629 10.3817 4.05166C10.4979 4.3767 10.3285 4.73438 10.0035 4.85056C9.67846 4.96674 9.32078 4.79742 9.2046 4.47239C9.07981 4.12325 8.65326 3.7871 8.05743 3.78614L7.43668 3.79171C6.57053 3.80307 6.04314 4.38652 6.04314 4.91638C6.04314 5.45031 6.5841 6.04101 7.45915 6.04101H8.37712C9.75397 6.04101 11.0431 7.0168 11.0431 8.41283C11.0431 9.80321 9.7677 10.7771 8.3981 10.7874L7.15317 10.7959C6.12109 10.7959 5.16669 10.2132 4.83117 9.29592C4.7126 8.97175 4.87927 8.61283 5.20345 8.49426C5.52762 8.37569 5.88654 8.54237 6.00511 8.86654C6.13169 9.21263 6.55671 9.54516 7.1512 9.54589L8.3887 9.53748L8.38915 9.53748C9.25887 9.53073 9.79314 8.94331 9.79314 8.41283C9.79314 7.88231 9.25288 7.29101 8.37712 7.29101H7.45915C6.08161 7.29101 4.79314 6.31463 4.79314 4.91638C4.79314 3.53113 6.05569 2.55898 7.422 2.5418L7.42424 2.54177L8.05486 2.53613Z" fill="#1C2024"/>
<path fill-rule="evenodd" clip-rule="evenodd" d="M7.60547 1.45801C7.95065 1.45801 8.23047 1.73783 8.23047 2.08301V3.16143C8.23047 3.50661 7.95065 3.78643 7.60547 3.78643C7.26029 3.78643 6.98047 3.50661 6.98047 3.16143V2.08301C6.98047 1.73783 7.26029 1.45801 7.60547 1.45801Z" fill="#1C2024"/>
<path fill-rule="evenodd" clip-rule="evenodd" d="M7.60547 9.5459C7.95065 9.5459 8.23047 9.82572 8.23047 10.1709V11.2493C8.23047 11.5945 7.95065 11.8743 7.60547 11.8743C7.26029 11.8743 6.98047 11.5945 6.98047 11.2493V10.1709C6.98047 9.82572 7.26029 9.5459 7.60547 9.5459Z" fill="#1C2024"/>
<path d="M16.6673 7.4831V3.14062C16.6673 3.05561 16.6184 2.97684 16.5411 2.93941C16.4637 2.90119 16.3706 2.91055 16.3019 2.96202L13.4232 5.13326C13.3671 5.17616 13.334 5.24167 13.334 5.31186C13.334 5.38205 13.3671 5.44756 13.4232 5.49046L16.3019 7.6617C16.3706 7.71317 16.4637 7.72253 16.5411 7.68431C16.6184 7.64688 16.6673 7.56811 16.6673 7.4831Z" fill="#1C2024"/>
<path d="M3.33398 17.0671V12.7246C3.33398 12.6396 3.38291 12.5608 3.46025 12.5234C3.53758 12.4852 3.6307 12.4945 3.69936 12.546L6.57814 14.7172C6.63417 14.7601 6.66732 14.8257 6.66732 14.8958C6.66732 14.966 6.63417 15.0315 6.57814 15.0744L3.69936 17.2457C3.6307 17.2972 3.53758 17.3065 3.46025 17.2683C3.38291 17.2309 3.33398 17.1521 3.33398 17.0671Z" fill="#1C2024"/>
</svg>
