<svg width="37" height="36" viewBox="0 0 37 36" fill="none" xmlns="http://www.w3.org/2000/svg">
<path d="M18.5 19.6484C19.4141 19.6484 20.1484 18.9141 20.1484 18C20.1484 17.0859 19.4141 16.3516 18.5 16.3516C17.5859 16.3516 16.8516 17.0859 16.8516 18C16.8516 18.9141 17.5859 19.6484 18.5 19.6484Z" fill="#444444"/>
<path d="M18.5 3C10.2188 3 3.5 9.71875 3.5 18C3.5 26.2812 10.2188 33 18.5 33C26.7812 33 33.5 26.2812 33.5 18C33.5 9.71875 26.7812 3 18.5 3ZM21.7812 21.2812L9.5 27L15.2188 14.7188L27.5 9L21.7812 21.2812Z" fill="#444444"/>
</svg>
