<svg width="20" height="20" viewBox="0 0 20 20" fill="none" xmlns="http://www.w3.org/2000/svg">
<path d="M11.6692 12.7093V19.166H2.5C2.5 15.4841 5.48477 12.4993 9.16667 12.4993C9.74217 12.4993 11.1365 12.5723 11.6692 12.7093ZM9.16667 11.666C6.40417 11.666 4.16667 9.42852 4.16667 6.66602C4.16667 3.90352 6.40417 1.66602 9.16667 1.66602C11.9292 1.66602 14.1667 3.90352 14.1667 6.66602C14.1667 9.42852 11.9292 11.666 9.16667 11.666Z" fill="#444444"/>
<path d="M16.6668 16.0981C17.6347 15.7509 18.3335 14.8351 18.3335 13.75C18.3335 12.3741 17.2094 11.25 15.8335 11.25C14.4576 11.25 13.3335 12.3741 13.3335 13.75C13.3335 14.8351 14.0323 15.7509 15.0002 16.0981V19.5833H18.3335V17.9167H16.6668V16.0981ZM15.8335 14.5833C15.3734 14.5833 15.0002 14.2101 15.0002 13.75C15.0002 13.2899 15.3734 12.9167 15.8335 12.9167C16.2936 12.9167 16.6668 13.2899 16.6668 13.75C16.6668 14.2101 16.2936 14.5833 15.8335 14.5833Z" fill="#444444"/>
</svg>
