<svg width="20" height="16" viewBox="0 0 20 16" fill="none" xmlns="http://www.w3.org/2000/svg">
<path d="M8.33301 4.01738L5.50202 6.33366H2.49967V9.667H5.50202L8.33301 11.9832V4.01738ZM4.90708 11.3337H1.66634C1.20611 11.3337 0.833008 10.9606 0.833008 10.5003V5.5003C0.833008 5.04006 1.20611 4.66697 1.66634 4.66697H4.90708L9.31917 1.05709C9.49726 0.911369 9.75976 0.937619 9.90551 1.11572C9.96642 1.19016 9.99967 1.28339 9.99967 1.37957V14.621C9.99967 14.8512 9.81309 15.0377 9.58301 15.0377C9.48684 15.0377 9.39359 15.0044 9.31917 14.9435L4.90708 11.3337ZM17.0115 8.00033L19.9578 10.9466L18.7793 12.1251L15.833 9.17883L12.8868 12.1251L11.7083 10.9466L14.6545 8.00033L11.7083 5.05403L12.8868 3.87551L15.833 6.82183L18.7793 3.87551L19.9578 5.05403L17.0115 8.00033Z" fill="#EDEEF0"/>
</svg>
