<svg width="24" height="24" viewBox="0 0 24 24" fill="none" xmlns="http://www.w3.org/2000/svg">
<path d="M2 11H12" stroke="black" stroke-width="2" stroke-miterlimit="10"/>
<path d="M11 8V14L14 11L11 8Z" fill="black"/>
<path d="M12.0001 1C7.53133 1 3.73967 3.94792 2.46362 8H4.60425C5.33862 6.19792 6.70321 4.71354 8.43758 3.84375C7.86987 4.97396 7.448 6.39063 7.21362 8H9.24487C9.77092 4.88021 11.0522 3 12.0001 3C13.224 3 15.0001 6.11458 15.0001 11C15.0001 15.8854 13.224 19 12.0001 19C11.0522 19 9.77092 17.1198 9.24487 14H7.21362C7.448 15.6094 7.87508 17.026 8.43758 18.1563C6.70321 17.2865 5.33862 15.8021 4.60425 14H2.46362C3.73967 18.0521 7.53133 21 12.0001 21C17.5157 21 22.0001 16.5156 22.0001 11C22.0001 5.48437 17.5157 1 12.0001 1ZM15.5626 18.1563C16.4584 16.3646 17.0001 13.8594 17.0001 11C17.0001 8.14063 16.4584 5.63542 15.5626 3.84375C18.1876 5.16146 20.0001 7.86979 20.0001 11C20.0001 14.1302 18.1876 16.8385 15.5626 18.1563Z" fill="black"/>
<path d="M16 11H21" stroke="black" stroke-width="2" stroke-miterlimit="10"/>
</svg>
