<svg width="20" height="20" viewBox="0 0 20 20" fill="none" xmlns="http://www.w3.org/2000/svg">
<path fill-rule="evenodd" clip-rule="evenodd" d="M14.791 1.25C15.1362 1.25 15.416 1.52982 15.416 1.875V4.375C15.416 4.72018 15.1362 5 14.791 5C14.4458 5 14.166 4.72018 14.166 4.375V1.875C14.166 1.52982 14.4458 1.25 14.791 1.25Z" fill="#1C2024"/>
<path fill-rule="evenodd" clip-rule="evenodd" d="M12.916 3.125C12.916 2.77982 13.1958 2.5 13.541 2.5H16.041C16.3862 2.5 16.666 2.77982 16.666 3.125C16.666 3.47018 16.3862 3.75 16.041 3.75H13.541C13.1958 3.75 12.916 3.47018 12.916 3.125Z" fill="#1C2024"/>
<path fill-rule="evenodd" clip-rule="evenodd" d="M16.875 6.66699C17.2202 6.66699 17.5 6.94681 17.5 7.29199V9.79199C17.5 10.1372 17.2202 10.417 16.875 10.417C16.5298 10.417 16.25 10.1372 16.25 9.79199V7.29199C16.25 6.94681 16.5298 6.66699 16.875 6.66699Z" fill="#1C2024"/>
<path fill-rule="evenodd" clip-rule="evenodd" d="M15 8.54199C15 8.19681 15.2798 7.91699 15.625 7.91699H18.125C18.4702 7.91699 18.75 8.19681 18.75 8.54199C18.75 8.88717 18.4702 9.16699 18.125 9.16699H15.625C15.2798 9.16699 15 8.88717 15 8.54199Z" fill="#1C2024"/>
<path fill-rule="evenodd" clip-rule="evenodd" d="M1.25 10.625C1.25 6.13703 4.88703 2.5 9.375 2.5C9.4605 2.5 9.5807 2.50741 9.65709 2.51212C9.68504 2.51384 9.70712 2.51521 9.7195 2.51571C9.92793 2.52422 10.1184 2.63615 10.2272 2.81412C10.336 2.99208 10.3489 3.21261 10.2615 3.40202C9.83045 4.33634 9.58333 5.36715 9.58333 6.45833C9.58333 10.1788 12.3729 13.2437 15.9727 13.6874C16.1798 13.7129 16.3605 13.8401 16.4544 14.0264C16.5483 14.2128 16.543 14.4337 16.4403 14.6153C15.0479 17.0785 12.4126 18.75 9.375 18.75C4.88703 18.75 1.25 15.113 1.25 10.625ZM8.77056 3.77619C5.25614 4.08216 2.5 7.03106 2.5 10.625C2.5 14.4226 5.57738 17.5 9.375 17.5C11.6187 17.5 13.6058 16.4216 14.8593 14.7534C11.1166 13.8484 8.33333 10.4821 8.33333 6.45833C8.33333 5.51839 8.48957 4.61827 8.77056 3.77619Z" fill="#1C2024"/>
</svg>
