<svg width="20" height="20" viewBox="0 0 20 20" fill="none" xmlns="http://www.w3.org/2000/svg">
<path d="M4.375 3.33594C4.72018 3.33594 5 3.61576 5 3.96094C5 4.30612 4.72018 4.58594 4.375 4.58594H2.91667V16.2526H17.0833V4.58594H15.625C15.2798 4.58594 15 4.30612 15 3.96094C15 3.61576 15.2798 3.33594 15.625 3.33594H17.7083L17.7722 3.33919C18.0874 3.37119 18.3333 3.63733 18.3333 3.96094V16.8776C18.3333 17.2228 18.0535 17.5026 17.7083 17.5026H2.29167C1.94649 17.5026 1.66667 17.2228 1.66667 16.8776V3.96094L1.66992 3.89705C1.70192 3.58189 1.96806 3.33594 2.29167 3.33594H4.375Z" fill="#77AA00"/>
<path d="M15.625 2.08594L15.6889 2.08919C16.0041 2.12119 16.25 2.38733 16.25 2.71094V14.7943C16.25 15.1394 15.9702 15.4193 15.625 15.4193H12.5C11.6539 15.4193 10.9377 15.9793 10.7043 16.7498L10.6832 16.8251C10.6069 17.1214 10.3308 17.3124 10.0362 17.2922C10.0242 17.2929 10.0122 17.2943 10 17.2943C9.65482 17.2943 9.375 17.0144 9.375 16.6693V5.21094C9.375 3.48555 10.7746 2.08594 12.5 2.08594H15.625ZM10.625 14.7943C11.1472 14.4021 11.7961 14.1693 12.5 14.1693H15V3.33594H12.5C11.465 3.33594 10.625 4.17591 10.625 5.21094V14.7943Z" fill="#77AA00"/>
<path d="M9.375 5.21094C9.375 4.17591 8.53503 3.33594 7.5 3.33594H5V14.1693H7.5C8.91181 14.1693 10.1032 15.1041 10.4919 16.3881L10.5269 16.5134L10.54 16.5761C10.5876 16.8893 10.3911 17.1936 10.0777 17.2743C9.7643 17.3551 9.44509 17.1834 9.33553 16.8861L9.31681 16.8251L9.29565 16.7498C9.06225 15.9793 8.34606 15.4193 7.5 15.4193H4.375C4.02982 15.4193 3.75 15.1394 3.75 14.7943V2.71094L3.75326 2.64705C3.78525 2.33189 4.05139 2.08594 4.375 2.08594H7.5C9.22539 2.08594 10.625 3.48555 10.625 5.21094C10.625 5.55612 10.3452 5.83594 10 5.83594C9.65482 5.83594 9.375 5.55612 9.375 5.21094Z" fill="#77AA00"/>
<path d="M12.0833 11.8802V8.54688C12.0833 8.2017 12.3632 7.92188 12.7083 7.92188C13.0535 7.92188 13.3333 8.2017 13.3333 8.54688V11.8802C13.3333 12.2254 13.0535 12.5052 12.7083 12.5052C12.3632 12.5052 12.0833 12.2254 12.0833 11.8802Z" fill="#77AA00"/>
<path d="M13.5417 6.25521C13.5417 6.71528 13.1684 7.08854 12.7083 7.08854C12.2483 7.08854 11.875 6.71528 11.875 6.25521C11.875 5.79514 12.2483 5.42188 12.7083 5.42188C13.1684 5.42188 13.5417 5.79514 13.5417 6.25521Z" fill="#77AA00"/>
</svg>
