<svg width="20" height="20" viewBox="0 0 20 20" fill="none" xmlns="http://www.w3.org/2000/svg">
<path fill-rule="evenodd" clip-rule="evenodd" d="M12.709 3.95801C11.3289 3.95801 10.209 5.07793 10.209 6.45801C10.209 7.83809 11.3289 8.95801 12.709 8.95801C14.0891 8.95801 15.209 7.83809 15.209 6.45801C15.209 5.07793 14.0891 3.95801 12.709 3.95801ZM8.95898 6.45801C8.95898 4.38757 10.6385 2.70801 12.709 2.70801C14.7794 2.70801 16.459 4.38757 16.459 6.45801C16.459 8.52845 14.7794 10.208 12.709 10.208C10.6385 10.208 8.95898 8.52845 8.95898 6.45801Z" fill="#1C2024"/>
<path fill-rule="evenodd" clip-rule="evenodd" d="M6.875 12.916C6.875 11.971 7.55365 11.041 8.57759 11.041H16.8391C17.863 11.041 18.5417 11.971 18.5417 12.916V13.4151C18.5417 14.6173 17.8813 15.7056 16.846 16.4716C15.8088 17.2389 14.3716 17.7077 12.7083 17.7077C11.0451 17.7077 9.60784 17.2389 8.57067 16.4716C7.53533 15.7056 6.875 14.6173 6.875 13.4151V12.916ZM8.57759 12.291C8.41169 12.291 8.125 12.4808 8.125 12.916V13.4151C8.125 14.1335 8.5198 14.879 9.31411 15.4667C10.1066 16.053 11.2735 16.4577 12.7083 16.4577C14.1431 16.4577 15.3101 16.053 16.1026 15.4667C16.8969 14.879 17.2917 14.1335 17.2917 13.4151V12.916C17.2917 12.4808 17.005 12.291 16.8391 12.291H8.57759Z" fill="#1C2024"/>
<path fill-rule="evenodd" clip-rule="evenodd" d="M5.41602 6.25C4.72604 6.25 4.16602 6.81002 4.16602 7.5C4.16602 8.18998 4.72604 8.75 5.41602 8.75C6.10599 8.75 6.66602 8.18998 6.66602 7.5C6.66602 6.81002 6.10599 6.25 5.41602 6.25ZM2.91602 7.5C2.91602 6.11967 4.03568 5 5.41602 5C6.79635 5 7.91602 6.11967 7.91602 7.5C7.91602 8.88033 6.79635 10 5.41602 10C4.03568 10 2.91602 8.88033 2.91602 7.5Z" fill="#1C2024"/>
<path fill-rule="evenodd" clip-rule="evenodd" d="M3.12435 12.083C3.00946 12.083 2.91602 12.1764 2.91602 12.2913V13.333C2.91602 13.5542 3.07341 13.856 3.49905 14.1373C3.91066 14.4093 4.46797 14.583 4.99935 14.583C5.2032 14.583 5.40102 14.5697 5.59041 14.5448C5.93263 14.4997 6.24661 14.7406 6.29169 15.0828C6.33678 15.425 6.0959 15.739 5.75368 15.7841C5.50971 15.8162 5.25734 15.833 4.99935 15.833C4.22213 15.833 3.42528 15.5868 2.80987 15.1801C2.20849 14.7827 1.66602 14.147 1.66602 13.333V12.2913C1.66602 11.4861 2.3191 10.833 3.12435 10.833H5.62435C5.96953 10.833 6.24935 11.1128 6.24935 11.458C6.24935 11.8032 5.96953 12.083 5.62435 12.083H3.12435Z" fill="#1C2024"/>
</svg>
