<svg width="24" height="24" viewBox="0 0 24 24" fill="none" xmlns="http://www.w3.org/2000/svg">
<path d="M17.0943 7.1479C17.6874 6.9327 17.9818 6.85525 18.1449 6.82755C18.1461 6.8797 18.1449 6.92198 18.1422 6.94972C17.9096 9.39364 16.8906 15.4063 16.3672 18.2041C16.2447 18.8593 16.1507 19.1712 15.5179 18.7995C15.1014 18.5547 14.7245 18.2467 14.3207 17.982C12.9961 17.1136 11.1 15.8204 11.2557 15.8982C9.95162 15.0388 10.4975 14.5126 11.2255 13.8108C11.3434 13.6972 11.466 13.579 11.5863 13.454C11.64 13.3982 11.9027 13.1539 12.2731 12.8096C13.4612 11.705 15.7571 9.57049 15.8151 9.32348C15.8246 9.28296 15.8334 9.13192 15.7436 9.05215C15.6539 8.97239 15.5215 8.99967 15.4259 9.02136C15.2904 9.0521 13.1326 10.4784 8.95243 13.3001C8.33994 13.7207 7.78517 13.9257 7.28811 13.9149L7.29256 13.9171C6.63781 13.6862 5.9849 13.4874 5.32855 13.2875C4.89736 13.1561 4.46469 13.0243 4.02904 12.8827C3.92249 12.8481 3.81853 12.8152 3.72083 12.7845C8.24781 10.8124 11.263 9.5139 12.7739 8.88547C14.9684 7.97271 16.2701 7.44698 17.0943 7.1479ZM19.5169 5.21953C19.2635 5.01391 18.985 4.91954 18.7915 4.87332C18.5917 4.82559 18.4018 4.81023 18.2578 4.81277C17.7814 4.82116 17.2697 4.95665 16.4121 5.26784C15.5373 5.58529 14.193 6.1291 12.0058 7.03883C10.4638 7.68021 7.39388 9.00262 2.80365 11.0025C2.40046 11.1637 2.03086 11.3466 1.73884 11.5634C1.46919 11.7637 1.09173 12.122 1.02268 12.6729C0.970516 13.0889 1.09182 13.4729 1.33782 13.7753C1.55198 14.0385 1.82635 14.1984 2.03529 14.2996C2.34545 14.4498 2.76276 14.5806 3.12952 14.6956C3.70264 14.8752 4.27444 15.0587 4.84879 15.2345C6.62691 15.7788 8.09066 16.2268 9.7012 17.2881C10.8825 18.0666 12.041 18.879 13.2243 19.6546C13.6559 19.9375 14.0593 20.2622 14.5049 20.5239C14.9916 20.8099 15.6104 21.0707 16.3636 21.0013C17.5019 20.8966 18.0941 19.8494 18.3331 18.5718C18.8552 15.7811 19.8909 9.68498 20.1332 7.13921C20.1648 6.80691 20.1278 6.43447 20.097 6.25465C20.0653 6.06947 19.9684 5.58595 19.5169 5.21953Z" fill="black"/>
</svg>
