<svg width="24" height="24" viewBox="0 0 24 24" fill="none" xmlns="http://www.w3.org/2000/svg">
<path d="M11.75 2.5H3.75C3.0599 2.5 2.5 3.0599 2.5 3.75V20.25C2.5 20.9401 3.0599 21.5 3.75 21.5H10.7604C10.4245 21.0651 10.1901 20.5547 10.0755 20H4V4H11.5V7.26042C11.9593 6.72898 12.4802 6.27257 13 6V3.75C13 3.0599 12.4401 2.5 11.75 2.5Z" fill="#1C2024"/>
<path fill-rule="evenodd" clip-rule="evenodd" d="M8.27431 7.85156H8.28125C9.27614 7.85156 10.1167 8.51067 10.3897 9.41297C10.5097 9.80942 10.2856 10.2281 9.88912 10.3481C9.49266 10.468 9.07401 10.2439 8.95403 9.84745C8.86823 9.56396 8.60208 9.35409 8.28697 9.35159L7.87326 9.35925L7.87031 9.3593C7.3869 9.36634 7 9.759 7 10.2422C7 10.729 7.39598 11.125 7.88281 11.125H8.61719C9.93244 11.125 11 12.1926 11 13.5078C11 14.816 9.94354 15.8792 8.63675 15.8906L7.70573 15.8985C6.71728 15.8985 5.88231 15.2467 5.60219 14.355C5.47804 13.9598 5.69775 13.5388 6.09292 13.4147C6.48809 13.2905 6.90908 13.5103 7.03323 13.9054C7.12265 14.1901 7.3906 14.3973 7.70312 14.3984L8.62367 14.3907C8.6236 14.3907 8.62374 14.3907 8.62367 14.3907C9.10845 14.3863 9.5 13.9912 9.5 13.5078C9.5 13.021 9.10402 12.625 8.61719 12.625H7.88281C6.56756 12.625 5.5 11.5574 5.5 10.2422C5.5 8.93946 6.54453 7.87933 7.84683 7.85948L8.27431 7.85156Z" fill="#1C2024"/>
<path fill-rule="evenodd" clip-rule="evenodd" d="M8 6.875C8.41421 6.875 8.75 7.21079 8.75 7.625V8.375C8.75 8.78921 8.41421 9.125 8 9.125C7.58579 9.125 7.25 8.78921 7.25 8.375V7.625C7.25 7.21079 7.58579 6.875 8 6.875Z" fill="#1C2024"/>
<path fill-rule="evenodd" clip-rule="evenodd" d="M8 14.5273C8.41421 14.5273 8.75 14.8631 8.75 15.2773V16.1263C8.75 16.5405 8.41421 16.8763 8 16.8763C7.58579 16.8763 7.25 16.5405 7.25 16.1263V15.2773C7.25 14.8631 7.58579 14.5273 8 14.5273Z" fill="#1C2024"/>
<path fill-rule="evenodd" clip-rule="evenodd" d="M14.25 12.5C13.8361 12.5 13.5 12.8361 13.5 13.25V17.75C13.5 18.1639 13.8361 18.5 14.25 18.5H19.75C20.1639 18.5 20.5 18.1639 20.5 17.75V13.25C20.5 12.8361 20.1639 12.5 19.75 12.5H14.25ZM12 13.25C12 12.0077 13.0077 11 14.25 11H19.75C20.9923 11 22 12.0077 22 13.25V17.75C22 18.9923 20.9923 20 19.75 20H14.25C13.0077 20 12 18.9923 12 17.75V13.25Z" fill="#1C2024"/>
<path d="M16.25 14.5C16.25 14.0858 16.5858 13.75 17 13.75C17.4142 13.75 17.75 14.0858 17.75 14.5V16.5C17.75 16.9142 17.4142 17.25 17 17.25C16.5858 17.25 16.25 16.9142 16.25 16.5V14.5Z" fill="#1C2024"/>
<path fill-rule="evenodd" clip-rule="evenodd" d="M17 8.375C15.758 8.375 14.75 9.38296 14.75 10.625V11.625H13.25V10.625C13.25 8.55454 14.9295 6.875 17 6.875C19.0705 6.875 20.75 8.55454 20.75 10.625V11.625H19.25V10.625C19.25 9.38296 18.242 8.375 17 8.375Z" fill="#1C2024"/>
</svg>
