<svg width="24" height="24" viewBox="0 0 24 24" fill="none" xmlns="http://www.w3.org/2000/svg">
<path fill-rule="evenodd" clip-rule="evenodd" d="M9.7689 3.2795C10.2716 3.15051 10.7315 3.07349 11.2683 3.02842C12.2329 2.94741 13.3011 3.04106 14.2567 3.29043C16.39 3.84713 18.2435 5.16778 19.4669 7.00281C20.3293 8.2964 20.8703 9.87065 20.9568 11.3381C20.9637 11.4542 20.9762 11.5448 20.9846 11.5396C20.9931 11.5343 21 11.7326 21 11.9801C21 12.2275 20.9931 12.4343 20.9847 12.4395C20.9763 12.4447 20.9638 12.5444 20.9569 12.6611C20.9293 13.1283 20.8384 13.6896 20.7052 14.2152C20.1533 16.3925 18.8187 18.269 16.9361 19.5147C14.3047 21.2559 10.9327 21.4824 8.09347 20.1086C7.15754 19.6557 6.36089 19.0902 5.63436 18.363C2.60037 15.3261 2.13244 10.5767 4.51512 7.00281C5.74793 5.15365 7.6113 3.83309 9.7689 3.2795ZM7.0729 6.34966C8.34734 5.23626 9.97258 4.58554 11.6583 4.51374C11.8265 4.50658 12.0085 4.50314 12.0629 4.50609C12.1173 4.50905 12.2758 4.51576 12.415 4.52103C13.8274 4.5744 15.4042 5.15897 16.5529 6.05495C16.9261 6.34608 17.3882 6.78476 17.6773 7.12231C18.649 8.25678 19.2614 9.6701 19.4362 11.1812C19.485 11.6029 19.485 12.3974 19.4362 12.8192C19.2614 14.3302 18.649 15.7436 17.6773 16.878C17.5084 17.0752 17.116 17.4699 16.9091 17.6507C15.6284 18.7696 13.9855 19.4243 12.3057 19.4852C11.3745 19.519 10.5323 19.4057 9.70136 19.1347C8.51253 18.747 7.52736 18.1383 6.65669 17.2533C6.0391 16.6256 5.61087 16.0146 5.23235 15.2211C4.7938 14.3017 4.55243 13.329 4.51332 12.3236C4.4996 11.9712 4.51429 11.4552 4.54594 11.1773C4.71632 9.68106 5.33512 8.25433 6.30467 7.12231C6.47356 6.9251 6.86596 6.53046 7.0729 6.34966ZM3.0134 12.2297C3.01031 12.3559 3.00779 12.2526 3.00779 12.0002C3.00779 11.7477 3.01031 11.6445 3.0134 11.7707C3.01649 11.8969 3.01649 12.1035 3.0134 12.2297ZM15.1868 15.335H11.3397V15.3207L13.4498 13.1244C14.6987 11.8324 15.0863 10.885 15.0863 9.79405C15.0863 7.98534 13.6221 6.89438 12 6.89438C10.3923 6.89438 9.37307 7.69825 8.81323 8.7605L10.0047 9.60744C10.4497 8.83228 11.0956 8.4447 11.8852 8.4447C12.7752 8.4447 13.3924 9.10502 13.3924 9.98066C13.3924 10.8276 12.8039 11.5597 12 12.4066L8.82759 15.7513L8.8563 16.8566H15.1868V15.335Z" fill="black"/>
</svg>
