<svg width="20" height="20" viewBox="0 0 20 20" fill="none" xmlns="http://www.w3.org/2000/svg">
<path fill-rule="evenodd" clip-rule="evenodd" d="M5.20837 2.91663C4.86345 2.91663 4.58337 3.1967 4.58337 3.54163V15H15.8334V3.54163C15.8334 3.1967 15.5533 2.91663 15.2084 2.91663H5.20837ZM4.58337 16.25H16.4584C16.8036 16.25 17.0834 15.9701 17.0834 15.625V3.54163C17.0834 2.50634 16.2437 1.66663 15.2084 1.66663H5.20837C4.17309 1.66663 3.33337 2.50634 3.33337 3.54163V16.4583C3.33337 17.4936 4.17309 18.3333 5.20837 18.3333H16.4584C16.8036 18.3333 17.0834 18.0535 17.0834 17.7083C17.0834 17.3631 16.8036 17.0833 16.4584 17.0833H5.20837C4.86345 17.0833 4.58337 16.8032 4.58337 16.4583V16.25Z" fill="#77AA00"/>
<path fill-rule="evenodd" clip-rule="evenodd" d="M10.2084 7.91663C9.95036 7.91663 9.58337 8.19616 9.58337 8.74996C9.58337 9.30376 9.95036 9.58329 10.2084 9.58329C10.4664 9.58329 10.8334 9.30376 10.8334 8.74996C10.8334 8.19616 10.4664 7.91663 10.2084 7.91663ZM8.33337 8.74996C8.33337 7.69352 9.08618 6.66663 10.2084 6.66663C11.3306 6.66663 12.0834 7.69352 12.0834 8.74996C12.0834 9.8064 11.3306 10.8333 10.2084 10.8333C9.08618 10.8333 8.33337 9.8064 8.33337 8.74996Z" fill="#77AA00"/>
<path fill-rule="evenodd" clip-rule="evenodd" d="M13.4614 5.44691C14.2341 6.26266 14.5834 7.36768 14.5834 8.54166V8.95832C14.5834 9.9936 13.7437 10.8333 12.7084 10.8333C11.6731 10.8333 10.8334 9.9936 10.8334 8.95832V7.29166C10.8334 6.94648 11.1132 6.66666 11.4584 6.66666C11.8036 6.66666 12.0834 6.94648 12.0834 7.29166V8.95832C12.0834 9.30325 12.3635 9.58332 12.7084 9.58332C13.0533 9.58332 13.3334 9.30325 13.3334 8.95832V8.54166C13.3334 7.60842 13.0577 6.83844 12.5539 6.30654C12.0562 5.78112 11.2695 5.41785 10.1026 5.41883L10.1021 5.41883C8.52112 5.41883 7.08557 6.77131 7.08557 8.74999L7.08557 8.75058C7.08371 10.7216 8.47088 12.0833 10.2084 12.0833H12.7084C13.0536 12.0833 13.3334 12.3631 13.3334 12.7083C13.3334 13.0535 13.0536 13.3333 12.7084 13.3333H10.2084C7.73162 13.3333 5.83325 11.3619 5.83557 8.74971C5.83571 6.14529 7.76803 4.16897 10.1018 4.16883C11.5411 4.16768 12.6825 4.62473 13.4614 5.44691ZM10.1018 4.16883C10.1019 4.16883 10.102 4.16883 10.1021 4.16883V4.79383L10.1015 4.16883C10.1016 4.16883 10.1017 4.16883 10.1018 4.16883ZM5.83557 8.74971C5.83557 8.74961 5.83557 8.7495 5.83557 8.7494L6.46057 8.74999H5.83557C5.83557 8.7499 5.83557 8.74981 5.83557 8.74971Z" fill="#77AA00"/>
</svg>
