<svg width="20" height="20" viewBox="0 0 20 20" fill="none" xmlns="http://www.w3.org/2000/svg">
<path fill-rule="evenodd" clip-rule="evenodd" d="M3.61841 2.18395C3.79581 2.06867 4.01949 2.05095 4.21282 2.13688L5.84678 2.86308L7.6852 2.12771C7.83421 2.06811 8.00043 2.06811 8.14944 2.12771L10.0007 2.8682L11.8519 2.12771C12.0009 2.06811 12.1671 2.06811 12.3161 2.12771L14.1545 2.86308L15.7885 2.13688C15.9818 2.05095 16.2055 2.06867 16.3829 2.18395C16.5603 2.29924 16.6673 2.49644 16.6673 2.70801V15.6247C16.6673 16.89 15.641 17.9163 14.3757 17.9163H5.62565C4.36033 17.9163 3.33398 16.89 3.33398 15.6247V2.70801C3.33398 2.49644 3.44102 2.29924 3.61841 2.18395ZM7.91732 3.38116L6.0661 4.12164C5.90952 4.18428 5.73426 4.18097 5.58015 4.11248L4.58398 3.66974V15.6247C4.58398 16.1996 5.05069 16.6663 5.62565 16.6663H14.3757C14.9506 16.6663 15.4173 16.1996 15.4173 15.6247V3.66974L14.4212 4.11248C14.267 4.18097 14.0918 4.18428 13.9352 4.12164L12.084 3.38116L10.2328 4.12164C10.0838 4.18124 9.91754 4.18124 9.76853 4.12164L7.91732 3.38116Z" fill="#1C2024"/>
<path fill-rule="evenodd" clip-rule="evenodd" d="M5.83398 7.70801C5.83398 7.36283 6.11381 7.08301 6.45898 7.08301H13.5423C13.8875 7.08301 14.1673 7.36283 14.1673 7.70801C14.1673 8.05319 13.8875 8.33301 13.5423 8.33301H6.45898C6.11381 8.33301 5.83398 8.05319 5.83398 7.70801Z" fill="#1C2024"/>
<path fill-rule="evenodd" clip-rule="evenodd" d="M5.83398 11.458C5.83398 11.1128 6.11381 10.833 6.45898 10.833H10.209C10.5542 10.833 10.834 11.1128 10.834 11.458C10.834 11.8032 10.5542 12.083 10.209 12.083H6.45898C6.11381 12.083 5.83398 11.8032 5.83398 11.458Z" fill="#1C2024"/>
<path fill-rule="evenodd" clip-rule="evenodd" d="M12.084 11.458C12.084 11.1128 12.3638 10.833 12.709 10.833H13.5423C13.8875 10.833 14.1673 11.1128 14.1673 11.458C14.1673 11.8032 13.8875 12.083 13.5423 12.083H12.709C12.3638 12.083 12.084 11.8032 12.084 11.458Z" fill="#1C2024"/>
<path fill-rule="evenodd" clip-rule="evenodd" d="M5.83398 13.958C5.83398 13.6128 6.11381 13.333 6.45898 13.333H10.209C10.5542 13.333 10.834 13.6128 10.834 13.958C10.834 14.3032 10.5542 14.583 10.209 14.583H6.45898C6.11381 14.583 5.83398 14.3032 5.83398 13.958Z" fill="#1C2024"/>
<path fill-rule="evenodd" clip-rule="evenodd" d="M12.084 13.958C12.084 13.6128 12.3638 13.333 12.709 13.333H13.5423C13.8875 13.333 14.1673 13.6128 14.1673 13.958C14.1673 14.3032 13.8875 14.583 13.5423 14.583H12.709C12.3638 14.583 12.084 14.3032 12.084 13.958Z" fill="#1C2024"/>
</svg>
