<svg width="24" height="24" viewBox="0 0 24 24" fill="none" xmlns="http://www.w3.org/2000/svg">
<path d="M12 8.00006C9.79168 8.00006 8 9.79174 8 12.0001C8 14.2084 9.79168 16.0001 12 16.0001C14.2084 16.0001 16 14.2084 16 12.0001C16 9.79174 14.2084 8.00006 12 8.00006ZM12 14.0001C10.8958 14.0001 10 13.1043 10 12.0001C10 10.8959 10.8958 10.0001 12 10.0001C13.1042 10.0001 14 10.8959 14 12.0001C14 13.1043 13.1042 14.0001 12 14.0001Z" fill="black"/>
<path d="M12.0001 4C4.00002 4 1 12 1 12C1 12 4.00002 20.0001 12.0001 20.0001C20.0001 20.0001 23.0001 12 23.0001 12C23.0001 12 20.0001 4 12.0001 4ZM12.0001 18.0001C6.72399 18.0001 4.05731 13.7344 3.19272 12.0052C4.05731 10.2865 6.74482 6.00001 12.0001 6.00001C17.2761 6.00001 19.9428 10.2657 20.8074 11.9948C19.9428 13.7136 17.2553 18.0001 12.0001 18.0001Z" fill="black"/>
</svg>
