<svg width="20" height="20" viewBox="0 0 20 20" fill="none" xmlns="http://www.w3.org/2000/svg">
<path fill-rule="evenodd" clip-rule="evenodd" d="M9.58268 2.91699C7.97257 2.91699 6.66602 4.22354 6.66602 5.83366C6.66602 7.44378 7.97257 8.75033 9.58268 8.75033C11.1928 8.75033 12.4993 7.44378 12.4993 5.83366C12.4993 4.22354 11.1928 2.91699 9.58268 2.91699ZM5.41602 5.83366C5.41602 3.53319 7.28221 1.66699 9.58268 1.66699C11.8832 1.66699 13.7493 3.53319 13.7493 5.83366C13.7493 8.13413 11.8832 10.0003 9.58268 10.0003C7.28221 10.0003 5.41602 8.13413 5.41602 5.83366Z" fill="#1C2024"/>
<path fill-rule="evenodd" clip-rule="evenodd" d="M10 15.001C10 14.6558 10.2798 14.376 10.625 14.376H16.875C17.2202 14.376 17.5 14.6558 17.5 15.001C17.5 15.3462 17.2202 15.626 16.875 15.626H10.625C10.2798 15.626 10 15.3462 10 15.001Z" fill="#1C2024"/>
<path fill-rule="evenodd" clip-rule="evenodd" d="M14.3491 11.642C14.5932 11.398 14.9889 11.398 15.233 11.642L18.1496 14.5587C18.3937 14.8028 18.3937 15.1985 18.1496 15.4426L15.233 18.3593C14.9889 18.6033 14.5932 18.6033 14.3491 18.3593C14.105 18.1152 14.105 17.7195 14.3491 17.4754L16.8238 15.0007L14.3491 12.5259C14.105 12.2818 14.105 11.8861 14.3491 11.642Z" fill="#1C2024"/>
<path d="M9.36133 17.0793C6.99588 17.0294 5.62435 16.2178 4.88867 15.532C4.4286 15.1045 4.16602 14.4947 4.16602 13.8588V13.542C4.16602 13.1969 4.44596 12.917 4.79102 12.917H9.01411C9.15733 12.4721 9.35916 12.0533 9.60655 11.667H4.79102C3.75803 11.667 2.91602 12.509 2.91602 13.542V13.8588C2.91602 14.8397 3.324 15.7837 4.03581 16.4456C4.96029 17.3072 6.67253 18.3337 9.58268 18.3337C9.81055 18.3337 10.0297 18.325 10.2446 18.3141C9.89518 17.9452 9.59787 17.5329 9.36133 17.0793Z" fill="#1C2024"/>
</svg>
