<svg width="20" height="20" viewBox="0 0 20 20" fill="none" xmlns="http://www.w3.org/2000/svg">
<path fill-rule="evenodd" clip-rule="evenodd" d="M2.91797 8.125C3.26315 8.125 3.54297 8.40482 3.54297 8.75V15.8333H4.16797C4.51315 15.8333 4.79297 16.1132 4.79297 16.4583C4.79297 16.8035 4.51315 17.0833 4.16797 17.0833H2.91797C2.57279 17.0833 2.29297 16.8035 2.29297 16.4583V8.75C2.29297 8.40482 2.57279 8.125 2.91797 8.125ZM16.668 8.125C17.0131 8.125 17.293 8.40482 17.293 8.75V16.4583C17.293 16.8035 17.0131 17.0833 16.668 17.0833H15.418C15.0728 17.0833 14.793 16.8035 14.793 16.4583C14.793 16.1132 15.0728 15.8333 15.418 15.8333H16.043V8.75C16.043 8.40482 16.3228 8.125 16.668 8.125Z" fill="#1C2024"/>
<path d="M12.709 4.58301C12.709 4.92806 12.429 5.20801 12.084 5.20801C11.7389 5.20801 11.459 4.92806 11.459 4.58301C11.459 4.23796 11.7389 3.95801 12.084 3.95801C12.429 3.95801 12.709 4.23796 12.709 4.58301Z" fill="#1C2024"/>
<path d="M14.793 4.58301C14.793 4.92806 14.513 5.20801 14.168 5.20801C13.8229 5.20801 13.543 4.92806 13.543 4.58301C13.543 4.23796 13.8229 3.95801 14.168 3.95801C14.513 3.95801 14.793 4.23796 14.793 4.58301Z" fill="#1C2024"/>
<path fill-rule="evenodd" clip-rule="evenodd" d="M2.29232 3.33333C2.29232 2.52809 2.94541 1.875 3.75065 1.875H15.834C16.6392 1.875 17.2923 2.52809 17.2923 3.33333V4.46297L18.081 6.43455C18.1324 6.56325 18.139 6.70342 18.103 6.83352C17.9135 8.72599 16.3218 10.2083 14.3757 10.2083C13.5417 10.2083 12.7707 9.93619 12.1474 9.47443C11.4789 9.93554 10.6678 10.2083 9.79232 10.2083C8.9168 10.2083 8.10572 9.93554 7.43719 9.47443C6.81392 9.93619 6.04296 10.2083 5.20899 10.2083C3.26357 10.2083 1.66866 8.7265 1.48145 6.83275C1.44567 6.70288 1.45231 6.563 1.50369 6.43455L2.29232 4.46297V3.33333ZM2.72841 6.73848C2.86652 7.98673 3.92388 8.95833 5.20899 8.95833C5.90032 8.95833 6.52399 8.67959 6.97757 8.22427C7.21312 7.98782 7.59288 7.97816 7.84014 8.20232C8.35806 8.67185 9.04142 8.95833 9.79232 8.95833C10.5432 8.95833 11.2266 8.67185 11.7445 8.20232C11.9918 7.97816 12.3715 7.98782 12.6071 8.22427C13.0607 8.67959 13.6843 8.95833 14.3757 8.95833C15.6599 8.95833 16.7162 7.98745 16.8561 6.73814L16.087 4.81545C16.0575 4.74163 16.0423 4.66285 16.0423 4.58333V3.33333C16.0423 3.21844 15.9489 3.125 15.834 3.125H3.75065C3.63576 3.125 3.54232 3.21844 3.54232 3.33333V4.58333C3.54232 4.66285 3.52715 4.74163 3.49762 4.81545L2.72841 6.73848Z" fill="#1C2024"/>
<path fill-rule="evenodd" clip-rule="evenodd" d="M8.95898 12.083C8.95898 11.7378 9.23881 11.458 9.58398 11.458H12.9173C13.2625 11.458 13.5423 11.7378 13.5423 12.083V15.4163C13.5423 15.7615 13.2625 16.0413 12.9173 16.0413C12.5721 16.0413 12.2923 15.7615 12.2923 15.4163V12.708H9.58398C9.23881 12.708 8.95898 12.4282 8.95898 12.083Z" fill="#1C2024"/>
<path fill-rule="evenodd" clip-rule="evenodd" d="M13.3283 11.6127C13.5881 11.84 13.6144 12.2348 13.3871 12.4946L10.4704 15.8279C10.316 16.0043 10.0759 16.0795 9.84846 16.0227L8.59463 15.7092L6.75863 18.2796C6.558 18.5605 6.16766 18.6256 5.88677 18.4249C5.60589 18.2243 5.54083 17.834 5.74147 17.5531L7.8248 14.6364C7.97404 14.4275 8.23587 14.3311 8.48497 14.3933L9.78116 14.7174L12.4464 11.6715C12.6737 11.4117 13.0685 11.3854 13.3283 11.6127Z" fill="#1C2024"/>
</svg>
