<svg width="24" height="24" viewBox="0 0 24 24" fill="none" xmlns="http://www.w3.org/2000/svg">
<path fill-rule="evenodd" clip-rule="evenodd" d="M14.7929 11.7929C15.1834 11.4024 15.8166 11.4024 16.2071 11.7929L20.2071 15.7929C20.5976 16.1834 20.5976 16.8166 20.2071 17.2071L16.2071 21.2071C15.8166 21.5976 15.1834 21.5976 14.7929 21.2071C14.4024 20.8166 14.4024 20.1834 14.7929 19.7929L17.0858 17.5H6.5C5.94772 17.5 5.5 17.0523 5.5 16.5C5.5 15.9477 5.94772 15.5 6.5 15.5H17.0858L14.7929 13.2071C14.4024 12.8166 14.4024 12.1834 14.7929 11.7929Z" fill="#1C2024"/>
<path fill-rule="evenodd" clip-rule="evenodd" d="M9.20711 2.79289C9.59763 3.18342 9.59763 3.81658 9.20711 4.20711L6.91421 6.5H17.5C18.0523 6.5 18.5 6.94772 18.5 7.5C18.5 8.05228 18.0523 8.5 17.5 8.5H6.91421L9.20711 10.7929C9.59763 11.1834 9.59763 11.8166 9.20711 12.2071C8.81658 12.5976 8.18342 12.5976 7.79289 12.2071L3.79289 8.20711C3.40237 7.81658 3.40237 7.18342 3.79289 6.79289L7.79289 2.79289C8.18342 2.40237 8.81658 2.40237 9.20711 2.79289Z" fill="#1C2024"/>
</svg>
