<svg width="24" height="24" viewBox="0 0 24 24" fill="none" xmlns="http://www.w3.org/2000/svg">
<path fill-rule="evenodd" clip-rule="evenodd" d="M10.33 12.4995C9.30659 11.6928 7 10 5 10H2C1.44772 10 1 10.4477 1 11V20C1 20.5523 1.44772 21 2 21H5C7.28648 21 10.1063 22 13 22C17.3219 22 21.1513 19.972 23.5161 16.8514C22.7124 15.1653 20.9923 14 19 14L15.8539 13.9997C15.0299 13.0793 13.8326 12.5 12.5 12.5L10.33 12.4995ZM21 9C21 7.34314 19.6568 6 18 6C16.3431 6 15 7.34314 15 9C15 10.6568 16.3431 12 18 12C19.6568 12 21 10.6568 21 9ZM17 9C17 8.44771 17.4477 8 18 8C18.5523 8 19 8.44771 19 9C19 9.55228 18.5523 10 18 10C17.4477 10 17 9.55228 17 9ZM14 6C14 4.34314 12.6568 3 11 3C9.34315 3 8 4.34314 8 6C8 7.65685 9.34315 9 11 9C12.6568 9 14 7.65685 14 6ZM10 6C10 5.44771 10.4477 5 11 5C11.5523 5 12 5.44771 12 6C12 6.55228 11.5523 7 11 7C10.4477 7 10 6.55228 10 6ZM20.8351 16.8706C18.7986 18.8444 16.004 20 13 20C11.728 20 7 19 5.99512 19L2.99512 18.9972V11.9972C2.99512 11.9972 4.5 12 4.99512 11.9972C7 11.9858 9.57059 14.4999 9.57059 14.4999L12.5 14.5L12.6644 14.5053C13.5881 14.5653 14.3751 15.1269 14.7556 15.9205L14.79 15.999L8 16V18H17V17C17 16.6563 16.9615 16.3216 16.8885 16H19L19.205 16.0069C19.8156 16.0484 20.3848 16.2736 20.8488 16.6366L20.968 16.737L20.8351 16.8706Z" fill="black"/>
</svg>
