<svg width="24" height="24" viewBox="0 0 24 24" fill="none" xmlns="http://www.w3.org/2000/svg">
<path d="M16.3966 1C15.2217 1.07448 13.8662 1.77917 13.0634 2.67865C12.3405 3.49792 11.7663 4.7125 12.0002 5.88698C13.2814 5.92708 14.5626 5.19948 15.3334 4.28854C16.051 3.42917 16.5933 2.23177 16.3966 1Z" fill="black"/>
<path d="M16.4654 5.88698C14.6208 5.88698 13.85 7.11302 12.5688 7.11302C11.2558 7.11302 10.049 5.96146 8.45954 5.96146C6.29061 5.96719 3 8.12708 3 13.2203C3 17.8552 6.89663 23 9.09746 23C10.4318 23.0115 10.7561 22.0948 12.5688 22.0833C14.3816 22.0719 14.775 23.0115 16.1146 23C17.619 22.9885 18.7992 21.2068 19.6551 19.7917C20.2717 18.7776 20.5269 18.262 21 17.1161C17.4595 16.1479 16.7525 9.98906 21 8.71146C20.2026 7.23906 17.8582 5.88698 16.4654 5.88698Z" fill="black"/>
</svg>
