<svg width="37" height="36" viewBox="0 0 37 36" fill="none" xmlns="http://www.w3.org/2000/svg">
<path d="M21.2255 32.7529C21.0659 32.7576 20.9074 32.76 20.75 32.76C19.1397 32.76 17.1896 31.8286 15.6209 30.1224C14.0671 28.4323 12.9501 26.0445 12.9501 23.25C12.9501 21.1222 13.7275 19.402 14.7516 18.1413C14.8369 21.8694 18.2882 26.55 25.25 26.55C27.7668 26.55 29.3258 25.8714 30.1691 25.5043C30.4817 25.3683 30.6959 25.275 30.8242 25.275C31.1 25.275 31.25 25.425 31.25 25.725C31.25 26.0049 31.098 26.2068 30.6113 26.8534L30.501 27C28.2834 29.9523 25.0018 32.0598 21.2255 32.7529ZM16.5524 32.8747C9.18824 31.9198 3.5 25.6242 3.5 18C3.5 16.0803 4.6108 14.5069 6.34624 13.3788C8.08762 12.2469 10.3801 11.625 12.5 11.625C15.9146 11.625 17.9521 12.7727 19.1426 14.0955C19.2177 14.179 19.2898 14.2635 19.3588 14.3488C19.0831 14.2842 18.7955 14.25 18.5 14.25H18.494C17.8412 14.251 17.2277 14.4188 16.6934 14.713C16.5757 14.7676 16.4577 14.8263 16.3405 14.8888C15.5848 15.2913 14.7938 15.8805 14.0741 16.6407C12.6317 18.1644 11.4501 20.4051 11.4501 23.25C11.4501 26.4555 12.733 29.1976 14.5167 31.1376C15.1374 31.8127 15.8267 32.3986 16.5524 32.8747ZM21.2772 20.3934C21.6767 19.9726 22.25 19.3684 22.25 18C22.25 16.7091 21.7437 14.7435 20.2574 13.092C18.748 11.4148 16.2854 10.125 12.5 10.125C10.1199 10.125 7.53738 10.8156 5.52876 12.1212C5.10904 12.394 4.71101 12.6963 4.3439 13.0273C6.39534 7.1871 11.9587 3 18.5 3C26.7842 3 33.5 9 33.5 15.75C33.5 19.95 30.2 23.025 26 23.025C23 23.025 20.9 22.05 20.9 21C20.9 20.791 21.0638 20.6184 21.2772 20.3934Z" fill="#444444"/>
</svg>
