<svg width="20" height="20" viewBox="0 0 20 20" fill="none" xmlns="http://www.w3.org/2000/svg">
<path d="M10 2.70801C10 2.70801 10 3.18761 10 3.33301C10 4.02528 9.44227 4.58301 8.75 4.58301C8.6046 4.58301 8.125 4.58301 8.125 4.58301V3.54134C8.125 3.08344 8.50043 2.70801 8.95833 2.70801H10Z" fill="#1C2024"/>
<path d="M11.2507 7.08333C11.2507 7.5434 10.8774 7.91667 10.4173 7.91667C9.95725 7.91667 9.58398 7.5434 9.58398 7.08333C9.58398 6.62326 9.95725 6.25 10.4173 6.25C10.8774 6.25 11.2507 6.62326 11.2507 7.08333Z" fill="#1C2024"/>
<path fill-rule="evenodd" clip-rule="evenodd" d="M15.418 5.41602C14.8394 5.41602 14.168 6.03955 14.168 7.08268C14.168 8.12581 14.8394 8.74935 15.418 8.74935C15.9965 8.74935 16.668 8.12581 16.668 7.08268C16.668 6.03955 15.9965 5.41602 15.418 5.41602ZM12.918 7.08268C12.918 5.59543 13.9262 4.16602 15.418 4.16602C16.9097 4.16602 17.918 5.59543 17.918 7.08268C17.918 8.56994 16.9097 9.99935 15.418 9.99935C13.9262 9.99935 12.918 8.56994 12.918 7.08268Z" fill="#1C2024"/>
<path fill-rule="evenodd" clip-rule="evenodd" d="M7.5 3.54134C7.5 2.73609 8.15309 2.08301 8.95833 2.08301H18.5417C18.8868 2.08301 19.1667 2.36283 19.1667 2.70801C19.1667 3.05319 18.8868 3.33301 18.5417 3.33301H8.95833C8.84344 3.33301 8.75 3.42645 8.75 3.54134V10.6247C8.75 10.6551 8.75889 10.6937 8.78623 10.7398C8.96234 11.0367 8.86445 11.4201 8.56757 11.5962C8.2707 11.7723 7.88727 11.6745 7.71116 11.3776C7.5866 11.1676 7.5 10.9111 7.5 10.6247V3.54134Z" fill="#1C2024"/>
<path fill-rule="evenodd" clip-rule="evenodd" d="M11.8086 11.458C11.8086 11.1128 12.0884 10.833 12.4336 10.833H18.5425C18.8877 10.833 19.1675 11.1128 19.1675 11.458C19.1675 11.8032 18.8877 12.083 18.5425 12.083H12.4336C12.0884 12.083 11.8086 11.8032 11.8086 11.458Z" fill="#1C2024"/>
<path fill-rule="evenodd" clip-rule="evenodd" d="M11.8894 10.2028C11.6681 9.98151 11.3259 9.94535 11.0671 10.1113C11.0611 10.1151 11.0551 10.1188 11.049 10.1224L7.19485 12.4119C6.89808 12.5882 6.5146 12.4905 6.33831 12.1938C6.16202 11.897 6.25969 11.5135 6.55645 11.3372L10.4024 9.05264C11.1579 8.57474 12.1423 8.68792 12.7733 9.31892C13.5342 10.0797 13.5178 11.3197 12.7381 12.0607L12.7322 12.0662L7.57327 16.8433C6.8391 17.5328 5.87077 17.9162 4.86393 17.9162H1.45898C1.11381 17.9162 0.833984 17.6364 0.833984 17.2912C0.833984 16.9461 1.11381 16.6662 1.45898 16.6662H4.86393C5.55332 16.6662 6.21617 16.4036 6.71877 15.931L6.72226 15.9277L6.72227 15.9277L11.8794 11.1522C12.1476 10.8947 12.1521 10.4655 11.8894 10.2028Z" fill="#1C2024"/>
<path fill-rule="evenodd" clip-rule="evenodd" d="M8.72317 6.47869C8.82456 6.80864 8.63928 7.15831 8.30933 7.2597L5.80933 8.02793C5.37567 8.16112 5.00388 8.44842 4.76695 8.83528L1.99474 13.447C1.81691 13.7428 1.43291 13.8385 1.13707 13.6606C0.841234 13.4828 0.745574 13.0988 0.923412 12.8029L3.69915 8.18541C4.09594 7.53587 4.71767 7.0556 5.44216 6.83308C5.44213 6.83308 5.44219 6.83307 5.44216 6.83308L7.94216 6.06485C8.27211 5.96346 8.62178 6.14874 8.72317 6.47869Z" fill="#1C2024"/>
</svg>
