<svg width="20" height="20" viewBox="0 0 20 20" fill="none" xmlns="http://www.w3.org/2000/svg">
<path d="M18.3333 2.5L15 5.41667L18.3333 8.33333V2.5Z" fill="#B9BBC6"/>
<path d="M1.66699 11.668L5.00033 14.5846L1.66699 17.5013V11.668Z" fill="#B9BBC6"/>
<path d="M12.8521 16.726C12.7129 16.726 11.8083 16.7969 11.8083 15.136H9.86523C9.86523 17.9463 12.0224 18.1742 12.3436 18.2147V19.1667H13.3713V18.2147C13.7193 18.1742 15.6837 17.8653 15.6837 15.6069C15.6837 12.4877 12.1295 13.0852 12.1295 11.1712C12.1295 10.0774 12.7665 10.042 12.9056 10.042C13.1572 10.042 13.7567 10.2546 13.7567 11.5864H15.6998C15.6998 9.03429 13.8531 8.63426 13.5212 8.5735V7.5H12.4881V8.54818C12.1402 8.58869 10.1864 8.93808 10.1864 11.161C10.1864 14.4119 13.746 13.4498 13.746 15.617C13.746 16.7007 13.002 16.726 12.8521 16.726Z" fill="#B9BBC6"/>
<path d="M9.16634 10.7604H3.33301V9.11481H4.66475C5.06984 8.69467 5.28252 7.61893 5.27239 7.34679C5.26733 7.26085 5.24707 7.17491 5.22682 7.09375H3.33301V6.17708H4.83185C4.8116 6.14366 4.7964 6.11024 4.77615 6.0816C4.53309 5.64236 4.30523 4.77344 4.30523 4.34375C4.30523 2.51042 5.27745 1.59375 7.23709 1.59375H8.19412V3.33142H7.70801C6.38639 3.33142 6.24967 3.88542 6.24967 4.34375C6.24967 4.54427 6.43197 5.33681 6.60919 5.65668C6.70034 5.81901 6.79655 5.99566 6.88263 6.17708H8.19412V7.09375H7.18139C7.18139 7.09375 7.21177 7.2322 7.21177 7.30382C7.23202 7.66667 7.09531 8.71377 6.84719 9.11481H8.19412V8.65648H9.16634V10.7604Z" fill="#B9BBC6"/>
</svg>
