<svg width="20" height="20" viewBox="0 0 20 20" fill="none" xmlns="http://www.w3.org/2000/svg">
<path fill-rule="evenodd" clip-rule="evenodd" d="M4.79167 6.66797C4.21671 6.66797 3.75 7.13467 3.75 7.70964V15.6263C3.75 16.2013 4.21671 16.668 4.79167 16.668H11.0417C11.6166 16.668 12.0833 16.2013 12.0833 15.6263V7.70964C12.0833 7.13467 11.6166 6.66797 11.0417 6.66797H4.79167ZM2.5 7.70964C2.5 6.44432 3.52635 5.41797 4.79167 5.41797H11.0417C12.307 5.41797 13.3333 6.44432 13.3333 7.70964V15.6263C13.3333 16.8916 12.307 17.918 11.0417 17.918H4.79167C3.52635 17.918 2.5 16.8916 2.5 15.6263V7.70964Z" fill="#7E808A"/>
<path fill-rule="evenodd" clip-rule="evenodd" d="M8.95829 3.33398C8.38333 3.33398 7.91663 3.80069 7.91663 4.37565H6.66663C6.66663 3.11033 7.69298 2.08398 8.95829 2.08398H15.2083C16.4736 2.08398 17.5 3.11033 17.5 4.37565V12.2923C17.5 13.5576 16.4736 14.584 15.2083 14.584H14.375V13.334H15.2083C15.7833 13.334 16.25 12.8673 16.25 12.2923V4.37565C16.25 3.80069 15.7833 3.33398 15.2083 3.33398H8.95829Z" fill="#7E808A"/>
</svg>
