<svg width="20" height="20" viewBox="0 0 20 20" fill="none" xmlns="http://www.w3.org/2000/svg">
<path fill-rule="evenodd" clip-rule="evenodd" d="M5.625 2.91699C5.28007 2.91699 5 3.19707 5 3.54199V16.4587C5 16.8036 5.28007 17.0837 5.625 17.0837H11.875C12.2199 17.0837 12.5 16.8036 12.5 16.4587V15.0003H13.75V16.4587C13.75 17.4939 12.9103 18.3337 11.875 18.3337H5.625C4.58972 18.3337 3.75 17.4939 3.75 16.4587V3.54199C3.75 2.50671 4.58972 1.66699 5.625 1.66699H11.875C12.9103 1.66699 13.75 2.50671 13.75 3.54199V5.00033H12.5V3.54199C12.5 3.19707 12.2199 2.91699 11.875 2.91699H5.625Z" fill="#1C2024"/>
<path d="M9.375 15.209C9.375 15.554 9.09505 15.834 8.75 15.834C8.40495 15.834 8.125 15.554 8.125 15.209C8.125 14.8639 8.40495 14.584 8.75 14.584C9.09505 14.584 9.375 14.8639 9.375 15.209Z" fill="#1C2024"/>
<path fill-rule="evenodd" clip-rule="evenodd" d="M16.041 7.29232C16.041 7.17848 15.9465 7.08398 15.8327 7.08398H9.58268V5.83398H15.8327C16.6347 5.83398 17.291 6.48601 17.291 7.29232V12.709C17.291 13.5121 16.6358 14.1673 15.8327 14.1673H9.58268V12.9173H15.8327C15.9454 12.9173 16.041 12.8217 16.041 12.709V7.29232Z" fill="#1C2024"/>
<path fill-rule="evenodd" clip-rule="evenodd" d="M11.1457 8.38906C11.6189 8.75758 11.875 9.31507 11.875 10.0003C11.875 10.6849 11.6187 11.242 11.146 11.6106C10.6977 11.9601 10.1272 12.0837 9.58333 12.0837V10.8337C9.95957 10.8337 10.2225 10.7456 10.3774 10.6248C10.508 10.523 10.625 10.351 10.625 10.0003C10.625 9.64826 10.5078 9.47658 10.3777 9.37527C10.223 9.25479 9.96021 9.16699 9.58333 9.16699V7.91699C10.1266 7.91699 10.6971 8.03969 11.1457 8.38906Z" fill="#1C2024"/>
<path d="M16.041 7.91699C15.3487 7.91699 14.791 7.3571 14.791 6.66699C14.791 6.43696 14.854 6.22428 14.9581 6.04199H15.8327C16.2906 6.04199 16.666 6.41526 16.666 6.87533V7.74989C16.4837 7.85406 16.2711 7.91699 16.041 7.91699Z" fill="#1C2024"/>
<path d="M15.8327 13.959H14.9581C14.854 13.7745 14.791 13.5618 14.791 13.334C14.791 12.6417 15.3487 12.084 16.041 12.084C16.2711 12.084 16.4837 12.1447 16.666 12.2489V13.1257C16.666 13.5836 16.2906 13.959 15.8327 13.959Z" fill="#1C2024"/>
<path fill-rule="evenodd" clip-rule="evenodd" d="M14.3737 10.8337C13.9136 10.8337 13.5404 10.4604 13.5404 10.0003C13.5404 9.54026 13.9136 9.16699 14.3737 9.16699C14.8338 9.16699 15.207 9.54026 15.207 10.0003C15.207 10.4604 14.8338 10.8337 14.3737 10.8337Z" fill="#1C2024"/>
</svg>
