<svg width="20" height="20" viewBox="0 0 20 20" fill="none" xmlns="http://www.w3.org/2000/svg">
<path d="M15.0042 5.83312H17.5042C17.7252 5.83312 17.9372 5.92092 18.0935 6.0772C18.2498 6.23348 18.3376 6.44544 18.3376 6.66645V16.6665C18.3376 16.8875 18.2498 17.0994 18.0935 17.2557C17.9372 17.412 17.7252 17.4998 17.5042 17.4998H2.50423C2.28322 17.4998 2.07126 17.412 1.91498 17.2557C1.7587 17.0994 1.6709 16.8875 1.6709 16.6665V3.33312C1.6709 3.11211 1.7587 2.90014 1.91498 2.74386C2.07126 2.58758 2.28322 2.49979 2.50423 2.49979H15.0042V5.83312ZM3.33757 7.49979V15.8331H16.6709V7.49979H3.33757ZM3.33757 4.16645V5.83312H13.3376V4.16645H3.33757ZM12.5042 10.8331H15.0042V12.4998H12.5042V10.8331Z" fill="#1C2024"/>
</svg>
