<svg width="28" height="28" viewBox="0 0 28 28" fill="none" xmlns="http://www.w3.org/2000/svg">
<path d="M23.2297 17.2667C23.6552 17.2667 24.6105 16.6651 24.8342 16.226C25.0885 15.7269 25.0885 15.0735 25.0885 13.7667C25.0885 12.0565 25.0885 10.5318 25.0885 8.98345C25.0885 7.67666 25.0885 7.02327 24.8342 6.52415C24.6105 6.0851 24.2536 5.72815 23.8145 5.50444C23.3154 5.25012 22.662 5.25012 21.3552 5.25012C18.0108 5.2501 14.6663 5.25012 11.3219 5.25012C10.0151 5.25012 9.36169 5.25012 8.86256 5.50444C8.42352 5.72814 8.06656 6.08509 7.84286 6.52414C7.58854 7.00012 7.58854 7.58345 7.58854 7.58345M21.5885 14.5834V13.0667C21.5885 11.7599 21.5885 11.1065 21.3342 10.6074C21.1105 10.1683 20.7536 9.81139 20.3145 9.58768C19.8154 9.33336 19.162 9.33336 17.8552 9.33336H6.65521C5.34842 9.33336 4.69502 9.33336 4.1959 9.58768C3.75685 9.81139 3.3999 10.1683 3.17619 10.6074C2.92188 11.1065 2.92188 11.7599 2.92188 13.0667V14.5834M21.5885 14.5834V19.6C21.5885 20.9068 21.5885 21.5602 21.3342 22.0593C21.1105 22.4984 20.7536 22.8553 20.3145 23.079C19.8154 23.3334 19.162 23.3334 17.8552 23.3334H6.65521C5.34842 23.3334 4.69502 23.3334 4.1959 23.079C3.75685 22.8553 3.3999 22.4984 3.17619 22.0593C2.92188 21.5602 2.92188 20.9068 2.92188 19.6V14.5834M21.5885 14.5834H2.92188" stroke="#1C2024" stroke-width="1.75"/>
<path d="M19.2526 18.083H14.2526L13.6719 19.833H18.6719L19.2526 18.083Z" fill="#1C2024"/>
</svg>
