<svg width="20" height="20" viewBox="0 0 20 20" fill="none" xmlns="http://www.w3.org/2000/svg">
<path fill-rule="evenodd" clip-rule="evenodd" d="M3.95833 5C3.15334 5 2.5 5.65334 2.5 6.45833V13.5417C2.5 14.3467 3.15334 15 3.95833 15H16.0417C16.8467 15 17.5 14.3467 17.5 13.5417V6.45833C17.5 5.65334 16.8467 5 16.0417 5H3.95833ZM1.25 6.45833C1.25 4.96298 2.46298 3.75 3.95833 3.75H16.0417C17.537 3.75 18.75 4.96298 18.75 6.45833V13.5417C18.75 15.037 17.537 16.25 16.0417 16.25H3.95833C2.46298 16.25 1.25 15.037 1.25 13.5417V6.45833Z" fill="#1C2024"/>
<path d="M6.25 10H4.58333C4.12326 10 3.75 9.62674 3.75 9.16667V8.33333C3.75 7.87326 4.12326 7.5 4.58333 7.5H6.25C6.71007 7.5 7.08333 7.87326 7.08333 8.33333V9.16667C7.08333 9.62674 6.71007 10 6.25 10Z" fill="#1C2024"/>
<path fill-rule="evenodd" clip-rule="evenodd" d="M3.75 12.293C3.75 11.9478 4.02982 11.668 4.375 11.668H5.625C5.97018 11.668 6.25 11.9478 6.25 12.293C6.25 12.6381 5.97018 12.918 5.625 12.918H4.375C4.02982 12.918 3.75 12.6381 3.75 12.293Z" fill="#1C2024"/>
<path fill-rule="evenodd" clip-rule="evenodd" d="M7.08398 12.293C7.08398 11.9478 7.36381 11.668 7.70898 11.668H8.95898C9.30416 11.668 9.58398 11.9478 9.58398 12.293C9.58398 12.6381 9.30416 12.918 8.95898 12.918H7.70898C7.36381 12.918 7.08398 12.6381 7.08398 12.293Z" fill="#1C2024"/>
<path fill-rule="evenodd" clip-rule="evenodd" d="M10.416 12.293C10.416 11.9478 10.6958 11.668 11.041 11.668H12.291C12.6362 11.668 12.916 11.9478 12.916 12.293C12.916 12.6381 12.6362 12.918 12.291 12.918H11.041C10.6958 12.918 10.416 12.6381 10.416 12.293Z" fill="#1C2024"/>
<path fill-rule="evenodd" clip-rule="evenodd" d="M13.75 12.293C13.75 11.9478 14.0298 11.668 14.375 11.668H15.625C15.9702 11.668 16.25 11.9478 16.25 12.293C16.25 12.6381 15.9702 12.918 15.625 12.918H14.375C14.0298 12.918 13.75 12.6381 13.75 12.293Z" fill="#1C2024"/>
</svg>
