<svg width="24" height="24" viewBox="0 0 24 24" fill="none" xmlns="http://www.w3.org/2000/svg">
<path d="M19.2292 6.01042C18.3281 5.28126 17.2135 4.76563 16.3594 4.43751C16.0521 4.32292 15.7031 4.36459 15.4323 4.55209C15.1615 4.73959 15 5.04688 15 5.37501C15 5.71876 14.7188 6.00001 14.375 6.00001C12.8021 6.00001 11.1979 6.00001 9.625 6.00001C9.28125 6.00001 9 5.71876 9 5.37501C9 5.04688 8.83854 4.73959 8.56771 4.55209C8.29687 4.36459 7.94792 4.32292 7.64063 4.44271C6.78125 4.77084 5.66667 5.29167 4.75 6.03126C3.83333 6.88021 2 11.8594 2 16.1667C2 16.2396 2.02083 16.3125 2.05729 16.3802C3.32292 18.6146 6.77083 19.1979 7.55729 19.224C7.5625 19.224 7.5625 19.224 7.56771 19.224C7.70833 19.224 7.85417 19.1667 7.92187 19.0417L8.70313 17.5573C8.05729 17.3958 7.39063 17.1979 6.66146 16.9427C6.14063 16.7552 5.86979 16.1875 6.05729 15.6667C6.23958 15.1458 6.8125 14.875 7.33333 15.0573C10.8594 16.3125 12.9583 16.3125 16.6771 15.0521C17.2031 14.8802 17.7708 15.1563 17.9479 15.6823C18.125 16.2031 17.8438 16.7708 17.3177 16.9479C16.5938 17.1927 15.9271 17.3802 15.2865 17.5417L16.0781 19.0469C16.1406 19.1667 16.2917 19.224 16.4271 19.224C16.4323 19.224 16.4375 19.224 16.4427 19.224C17.2292 19.1979 20.6771 18.6146 21.9427 16.3802C21.9792 16.3125 22 16.2396 22 16.1615C22 11.8594 20.1667 6.88021 19.2292 6.01042ZM9.04167 13.9896C8.21354 13.9896 7.54167 13.0938 7.54167 11.9896C7.54167 10.8906 8.21354 9.9948 9.04167 9.9948C9.86979 9.88542 10.5208 10.8906 10.5417 11.9896C10.5417 13.0938 9.86979 13.9896 9.04167 13.9896ZM14.9948 14.0104C14.1667 14.0104 13.4948 13.1146 13.4948 12.0104C13.4948 10.9063 14.1667 10.0104 14.9948 10.0104C15.8229 10.0104 16.4948 10.9063 16.4948 12.0104C16.4948 13.1146 15.8229 14.0104 14.9948 14.0104Z" fill="black"/>
</svg>
