<svg width="24" height="24" viewBox="0 0 24 24" fill="none" xmlns="http://www.w3.org/2000/svg">
<path d="M7.41667 7.41667C9.94227 7.41667 12 9.4744 12 12C12 14.5256 9.94227 16.5833 7.41667 16.5833C4.89106 16.5833 2.83333 14.5256 2.83333 12C2.83333 9.4744 4.89106 7.41667 7.41667 7.41667ZM7.41667 5.58334C3.87413 5.58334 1 8.45747 1 12C1 15.5425 3.87413 18.4167 7.41667 18.4167C10.9592 18.4167 13.8333 15.5425 13.8333 12C13.8333 8.45747 10.9592 5.58334 7.41667 5.58334Z" fill="black"/>
<path d="M17.5 8.05165C17.8772 8.58638 18.4167 9.96138 18.4167 12C18.4167 14.0386 17.8772 15.4136 17.5 15.9484C17.1228 15.4136 16.5833 14.0386 16.5833 12C16.5833 9.96138 17.1228 8.58638 17.5 8.05165ZM17.5 6.04167C15.9818 6.04167 14.75 8.71051 14.75 12C14.75 15.2895 15.9818 17.9583 17.5 17.9583C19.0182 17.9583 20.25 15.2895 20.25 12C20.25 8.71051 19.0182 6.04167 17.5 6.04167Z" fill="black"/>
<path d="M23 12C23 14.5304 22.5894 16.5833 22.0833 16.5833C21.5772 16.5833 21.1666 14.5304 21.1666 12C21.1666 9.46962 21.5772 7.41667 22.0833 7.41667C22.5894 7.41667 23 9.46962 23 12Z" fill="black"/>
</svg>
