<svg width="20" height="20" viewBox="0 0 20 20" fill="none" xmlns="http://www.w3.org/2000/svg">
<path d="M15.9657 1.76942C15.7878 1.65658 15.5621 1.63704 15.3711 1.72385L13.737 2.44868L11.901 1.71517C11.7491 1.65224 11.5842 1.65224 11.4323 1.71517L9.58332 2.45302L7.73436 1.71517C7.58246 1.65224 7.41752 1.65224 7.26561 1.71517L5.42968 2.44868L3.79556 1.72385C3.60459 1.63704 3.3789 1.65658 3.20094 1.76942C3.02516 1.88661 2.91666 2.08192 2.91666 2.2946V15.2113C2.91666 16.4743 3.9453 17.5029 5.20832 17.5029H9.4835C9.18402 17.1232 8.93662 16.7021 8.74999 16.2529H5.20832C4.63324 16.2529 4.16666 15.7863 4.16666 15.2113V3.25814L5.16275 3.69868C5.31683 3.77029 5.49261 3.77029 5.65103 3.70736L7.49999 2.96951L9.34895 3.70736C9.50086 3.77029 9.66579 3.77029 9.8177 3.70736L11.6667 2.96951L13.5156 3.70736C13.674 3.77029 13.8498 3.77029 14.0039 3.69868L15 3.25814V8.3992C15.4384 8.46864 15.855 8.58583 16.25 8.75293V2.2946C16.25 2.08192 16.1415 1.88661 15.9657 1.76942Z" fill="#1C2024"/>
<path d="M13.125 6.66797C13.4702 6.66797 13.75 6.94779 13.75 7.29297C13.75 7.63815 13.4702 7.91797 13.125 7.91797H6.04166C5.69648 7.91797 5.41666 7.63815 5.41666 7.29297C5.41666 6.94779 5.69648 6.66797 6.04166 6.66797H13.125Z" fill="#1C2024"/>
<path d="M9.73306 10.5352C9.4249 10.8759 9.15798 11.2556 8.9453 11.668H6.04166C5.6966 11.668 5.41666 11.388 5.41666 11.043C5.41666 10.6979 5.6966 10.418 6.04166 10.418H9.37499C9.50737 10.418 9.63324 10.4592 9.73306 10.5352Z" fill="#1C2024"/>
<path d="M8.47872 12.918C8.38324 13.3173 8.33332 13.7383 8.33332 14.168H6.04166C5.6966 14.168 5.41666 13.888 5.41666 13.543C5.41666 13.1979 5.6966 12.918 6.04166 12.918H8.47872Z" fill="#1C2024"/>
<path d="M18.125 14.5846C18.125 12.6295 16.5385 11.043 14.5833 11.043C12.6282 11.043 11.0417 12.6295 11.0417 14.5846C11.0417 16.5398 12.6282 18.1263 14.5833 18.1263C16.5385 18.1263 18.125 16.5398 18.125 14.5846ZM19.375 14.5846C19.375 17.2302 17.2288 19.3763 14.5833 19.3763C11.9378 19.3763 9.79166 17.2302 9.79166 14.5846C9.79166 11.9391 11.9378 9.79297 14.5833 9.79297C17.2288 9.79297 19.375 11.9391 19.375 14.5846Z" fill="#1C2024"/>
<path d="M13.9583 12.5C13.9583 12.1548 14.2381 11.875 14.5833 11.875C14.9285 11.875 15.2083 12.1548 15.2083 12.5V14.375H16.25C16.5952 14.375 16.875 14.6548 16.875 15C16.875 15.3452 16.5952 15.625 16.25 15.625H14.5833C14.2381 15.625 13.9583 15.3452 13.9583 15V12.5Z" fill="#1C2024"/>
</svg>
