<svg width="24" height="24" viewBox="0 0 24 24" fill="none" xmlns="http://www.w3.org/2000/svg">
<path d="M13.8333 12C13.8333 15.5425 10.9592 18.4167 7.41667 18.4167C3.87413 18.4167 1 15.5425 1 12C1 8.45747 3.87413 5.58333 7.41667 5.58333C10.9592 5.58333 13.8333 8.45747 13.8333 12Z" fill="black"/>
<path d="M20.25 12C20.25 15.2895 19.0182 17.9583 17.5 17.9583C15.9818 17.9583 14.75 15.2895 14.75 12C14.75 8.71051 15.9818 6.04167 17.5 6.04167C19.0182 6.04167 20.25 8.71051 20.25 12Z" fill="black"/>
<path d="M23 12C23 14.5304 22.5894 16.5833 22.0833 16.5833C21.5772 16.5833 21.1666 14.5304 21.1666 12C21.1666 9.46962 21.5772 7.41667 22.0833 7.41667C22.5894 7.41667 23 9.46962 23 12Z" fill="black"/>
</svg>
