<svg width="24" height="24" viewBox="0 0 24 24" fill="none" xmlns="http://www.w3.org/2000/svg">
<path fill-rule="evenodd" clip-rule="evenodd" d="M14.6028 4.46344C15.0963 4.12178 15.7258 4.04803 16.2807 4.25492L16.2891 4.25805C17.1018 4.57026 18.2168 5.07979 19.1439 5.82997L19.1677 5.8493L19.1903 5.87021C19.5465 6.20069 19.8724 6.78017 20.1501 7.38038C20.4471 8.02202 20.7495 8.82445 21.0208 9.716C21.5614 11.4928 22 13.6942 22 15.7649C22 16.0042 21.9347 16.2174 21.8392 16.3947L21.8346 16.4033L21.8298 16.4118C21.102 17.6967 19.7972 18.4381 18.7006 18.8581C17.5933 19.2822 16.5314 19.4422 16.0689 19.4576L16.0539 19.458H16.0297C15.7052 19.458 15.1845 19.3267 14.908 18.8162L14.9035 18.8078L13.9234 16.9517L15.5312 16.1027L16.3264 17.6086C16.7214 17.5536 17.3686 17.4213 18.0503 17.1602C18.9403 16.8194 19.7408 16.3156 20.1811 15.6265C20.162 13.8238 19.7744 11.8657 19.2813 10.2453C19.0294 9.41753 18.7554 8.69563 18.5001 8.14394C18.2427 7.58777 18.049 7.30441 17.9682 7.21777C17.2618 6.65506 16.3664 6.23552 15.6371 5.95535L15.9631 5.10673L15.6454 5.95853C15.645 5.95838 15.6429 5.95779 15.6397 5.95818C15.6385 5.95833 15.6376 5.95856 15.6372 5.95871C15.6368 5.95904 15.6366 5.95931 15.6364 5.9595C15.6361 6.77381 14.9735 7.43627 14.1591 7.43627H9.84091C9.02661 7.43627 8.36409 6.77402 8.36364 5.95983L8.36712 5.95847C8.36647 5.95872 8.36622 5.95889 8.36576 5.959C8.36453 5.95929 8.36339 5.9598 8.36364 5.95983C8.36363 5.95982 8.36364 5.95983 8.36364 5.95983L8.36121 5.96077C7.63338 6.23867 6.73677 6.66216 6.01477 7.23523C6.02296 7.22616 6.02701 7.22239 6.02681 7.22257L5.40909 6.55559L5.97993 7.26311C5.9915 7.25378 6.00311 7.24449 6.01477 7.23523C6.01352 7.23662 6.01216 7.23814 6.01071 7.23978C5.99998 7.25197 5.98576 7.26918 5.9682 7.29235C5.93264 7.33927 5.88904 7.40312 5.83833 7.48619C5.73647 7.65304 5.61931 7.87529 5.49272 8.15033C5.23984 8.69974 4.96738 9.42031 4.71656 10.2474C4.22601 11.8651 3.83864 13.8227 3.81897 15.6265C3.79568 15.5901 3.77341 15.5532 3.75218 15.5157L2.96117 15.9637L3.7616 15.5327C3.78792 15.5816 3.81818 15.6623 3.81818 15.7696C3.81818 15.722 3.81844 15.6743 3.81897 15.6265C4.25929 16.3157 5.0597 16.8194 5.94968 17.1602C6.63244 17.4217 7.2807 17.554 7.67548 17.6089L7.48828 17.9643L7.96117 18.2134V18.549L7.9721 18.2192L8.29261 18.388L7.9725 18.207L7.99126 17.6404C7.92489 17.6382 7.81631 17.6285 7.67548 17.6089L8.46839 16.1035L10.0771 16.9508L9.09067 18.8236L9.08404 18.8353C8.80402 19.3307 8.29063 19.458 7.97064 19.458H7.94613L7.93109 19.4576C7.46856 19.4422 6.40667 19.2822 5.29937 18.8581C4.20279 18.4381 2.89801 17.6967 2.17017 16.4118L2.16537 16.4033L2.16075 16.3947C2.06814 16.2228 2 16.0095 2 15.7696C2 13.6968 2.43851 11.4944 2.97662 9.71981C3.24664 8.82937 3.54709 8.02886 3.84109 7.39012C4.1152 6.79459 4.43796 6.21591 4.79137 5.8886L4.81412 5.86754L4.83825 5.84807C5.77612 5.09137 6.88749 4.57742 7.71016 4.26313C7.70902 4.26357 7.70788 4.26401 7.70674 4.26445L8.03693 5.11146L7.71266 4.26217C7.71182 4.26249 7.71099 4.26281 7.71016 4.26313C8.27135 4.04566 8.90456 4.12238 9.3972 4.46344C9.79273 4.73727 10.0608 5.15342 10.1496 5.61809H9.84091C10.0305 5.61809 10.1818 5.76942 10.1818 5.959C10.1818 5.84344 10.1708 5.72937 10.1496 5.61809H13.8504C13.8292 5.72937 13.8182 5.84344 13.8182 5.959C13.8182 5.76942 13.9695 5.61809 14.1591 5.61809H13.8504C13.9392 5.15342 14.2073 4.73727 14.6028 4.46344ZM7.96117 18.2006V17.64C7.90887 17.6411 7.84352 17.652 7.77064 17.6862C7.69084 17.7236 7.58036 17.8006 7.50119 17.9407L7.96117 18.2006Z" fill="black"/>
<path d="M9.31066 13.7904C8.55782 13.7904 7.94702 12.976 7.94702 11.9723C7.94702 10.9732 8.55782 10.1588 9.31066 10.1588C10.0635 10.0594 10.6554 10.9732 10.6743 11.9723C10.6743 12.976 10.0635 13.7904 9.31066 13.7904Z" fill="black"/>
<path d="M16.0862 11.9912C16.0862 12.995 15.4754 13.8094 14.7225 13.8094C13.9697 13.8094 13.3589 12.995 13.3589 11.9912C13.3589 10.9874 13.9697 10.173 14.7225 10.173C15.4754 10.173 16.0862 10.9874 16.0862 11.9912Z" fill="black"/>
<path fill-rule="evenodd" clip-rule="evenodd" d="M6.59781 15.3139C6.76581 14.8408 7.28555 14.5934 7.75868 14.7614C9.41045 15.3479 10.6788 15.6181 11.936 15.6181C13.1962 15.6181 14.5103 15.3466 16.2542 14.7569C16.7298 14.5961 17.2458 14.8512 17.4066 15.3269C17.5674 15.8025 17.3123 16.3184 16.8366 16.4793C14.9963 17.1016 13.4718 17.4363 11.936 17.4363C10.3973 17.4363 8.91239 17.1004 7.15033 16.4748C6.67719 16.3068 6.42982 15.787 6.59781 15.3139Z" fill="black"/>
</svg>
