<svg width="24" height="24" viewBox="0 0 24 24" fill="none" xmlns="http://www.w3.org/2000/svg">
<path fill-rule="evenodd" clip-rule="evenodd" d="M11.2683 3.02842C10.7315 3.07349 10.2716 3.15051 9.7689 3.2795C7.6113 3.83309 5.74793 5.15365 4.51512 7.00281C2.13244 10.5767 2.60037 15.3261 5.63436 18.363C6.36089 19.0902 7.15754 19.6557 8.09347 20.1086C10.9327 21.4824 14.3047 21.2559 16.9361 19.5147C18.8187 18.269 20.1533 16.3925 20.7052 14.2152C20.8384 13.6896 20.9293 13.1283 20.9569 12.6611C20.9638 12.5444 20.9763 12.4447 20.9847 12.4395C20.9931 12.4343 21 12.2275 21 11.9801C21 11.7326 20.9931 11.5343 20.9846 11.5396C20.9762 11.5448 20.9637 11.4542 20.9568 11.3381C20.8703 9.87065 20.3293 8.2964 19.4669 7.00281C18.2435 5.16777 16.39 3.84713 14.2567 3.29043C13.3011 3.04106 12.2329 2.94741 11.2683 3.02842ZM11.6583 4.51374C9.97258 4.58554 8.34734 5.23626 7.0729 6.34966C6.86596 6.53046 6.47356 6.9251 6.30467 7.12231C5.33512 8.25433 4.71632 9.68106 4.54594 11.1773C4.51429 11.4552 4.4996 11.9712 4.51332 12.3236C4.55243 13.329 4.7938 14.3017 5.23235 15.2211C5.61087 16.0146 6.0391 16.6256 6.65669 17.2533C7.52736 18.1383 8.51253 18.747 9.70136 19.1347C10.5323 19.4057 11.3745 19.519 12.3057 19.4852C13.9855 19.4243 15.6284 18.7696 16.9091 17.6507C17.116 17.4699 17.5084 17.0752 17.6773 16.878C18.649 15.7436 19.2614 14.3302 19.4362 12.8192C19.485 12.3974 19.485 11.6029 19.4362 11.1812C19.2614 9.6701 18.649 8.25678 17.6773 7.12231C17.3882 6.78476 16.9261 6.34608 16.5529 6.05495C15.4042 5.15897 13.8274 4.5744 12.415 4.52103C12.2758 4.51576 12.1173 4.50905 12.0629 4.50609C12.0085 4.50314 11.8265 4.50658 11.6583 4.51374ZM12.9789 11.0115L10.9941 13.4951L9.9865 12.4867C9.43231 11.932 8.97076 11.4782 8.96084 11.4782C8.93735 11.4782 7.90907 12.5078 7.90907 12.5313C7.90907 12.5507 11.0933 15.7441 11.1126 15.7441C11.129 15.7441 16.1271 9.48818 16.126 9.46898C16.1255 9.46032 15.9065 9.2791 15.6394 9.06625C15.3722 8.85341 15.111 8.64521 15.0587 8.60359L14.9638 8.52792L12.9789 11.0115ZM3.00779 12.0002C3.00779 12.2526 3.01031 12.3559 3.0134 12.2297C3.01649 12.1035 3.01649 11.8969 3.0134 11.7707C3.01031 11.6445 3.00779 11.7477 3.00779 12.0002Z" fill="black"/>
</svg>
