<svg width="24" height="24" viewBox="0 0 24 24" fill="none" xmlns="http://www.w3.org/2000/svg">
<path fill-rule="evenodd" clip-rule="evenodd" d="M11.2686 3.02844C12.2332 2.94747 13.3014 3.04082 14.2568 3.29016C16.3901 3.84687 18.2434 5.16802 19.4668 7.00305C20.3292 8.29656 20.8705 9.87062 20.957 11.338C20.9638 11.4525 20.9759 11.5428 20.9844 11.5402C20.9928 11.5349 21 11.7331 21 11.9806C21 12.2279 20.9928 12.4344 20.9844 12.4396C20.976 12.4461 20.9639 12.5455 20.957 12.6613C20.9295 13.1284 20.8383 13.6895 20.7051 14.215C20.1532 16.3921 18.8189 18.269 16.9365 19.5148C14.3052 21.2559 10.9329 21.4822 8.09375 20.1085C7.15797 19.6557 6.3612 19.0905 5.63477 18.3634C2.60087 15.3266 2.1322 10.5769 4.51465 7.00305C5.74741 5.15397 7.61108 3.83305 9.76856 3.27942C10.2712 3.15043 10.7318 3.07351 11.2686 3.02844ZM9.54688 7.38196L9.2666 12.422L10.1484 12.7306C10.6104 12.3526 11.1288 12.2257 11.7168 12.2257C12.6267 12.2257 13.5789 12.814 13.5791 13.8917C13.5791 14.8717 12.8645 15.6144 11.6885 15.6144C10.8346 15.6143 10.1345 15.2082 9.72852 14.6202L8.55274 15.5577C9.30874 16.5657 10.5131 17.1124 11.8291 17.1124C13.873 17.1123 15.2305 15.81 15.2305 13.92C15.2304 11.9881 13.8584 10.8263 12.1924 10.8263C11.8565 10.8264 11.395 10.8964 10.9473 11.0363L11.0732 8.86633H14.7549V7.38196H9.54688ZM3.01368 11.7706C3.01058 11.6447 3.00782 11.7479 3.00782 12.0001C3.00782 12.2526 3.01058 12.3558 3.01368 12.2296C3.01676 12.1034 3.01677 11.8968 3.01368 11.7706Z"  fill="black"/>
</svg>

