<svg width="24" height="24" viewBox="0 0 24 24" fill="none" xmlns="http://www.w3.org/2000/svg">
<path d="M8 14L12 18L16 14H8Z" fill="#444444"/>
<path d="M20 8V19H4V8H2V19C2 20.1042 2.89583 21 4 21H20C21.1042 21 22 20.1042 22 19V8H20Z" fill="#444444"/>
<path d="M12 2C9.23958 2 7 4.23958 7 7C7 9.76042 9.23958 12 12 12C14.7604 12 17 9.76042 17 7C17 4.23958 14.7604 2 12 2ZM12 10C10.3437 10 9 8.65625 9 7C9 5.34375 10.3437 4 12 4C13.6563 4 15 5.34375 15 7C15 8.65625 13.6563 10 12 10Z" fill="#444444"/>
<path d="M12.4063 5L10.5104 5.77604V6.8125L11.3021 6.50521V9H12.6615V5H12.4063Z" fill="#444444"/>
</svg>
