<svg width="24" height="24" viewBox="0 0 24 24" fill="none" xmlns="http://www.w3.org/2000/svg">
<path d="M19.75 2.5H4.25C2.73437 2.5 1.5 3.73437 1.5 5.25V12.25C1.5 13.7656 2.73437 15 4.25 15H19.75C21.2656 15 22.5 13.7656 22.5 12.25V5.25C22.5 3.73437 21.2656 2.5 19.75 2.5ZM12.5 6C12.5 5.72396 12.724 5.5 13 5.5H13.5C13.776 5.5 14 5.72396 14 6V6.5C14 6.77604 13.776 7 13.5 7H13C12.724 7 12.5 6.77604 12.5 6.5V6ZM12.5 8.5C12.5 8.22396 12.724 8 13 8H13.5C13.776 8 14 8.22396 14 8.5V9C14 9.27604 13.776 9.5 13.5 9.5H13C12.724 9.5 12.5 9.27604 12.5 9V8.5ZM10 6C10 5.72396 10.224 5.5 10.5 5.5H11C11.276 5.5 11.5 5.72396 11.5 6V6.5C11.5 6.77604 11.276 7 11 7H10.5C10.224 7 10 6.77604 10 6.5V6ZM10 8.5C10 8.22396 10.224 8 10.5 8H11C11.276 8 11.5 8.22396 11.5 8.5V9C11.5 9.27604 11.276 9.5 11 9.5H10.5C10.224 9.5 10 9.27604 10 9V8.5ZM7.5 6C7.5 5.72396 7.72396 5.5 8 5.5H8.5C8.77604 5.5 9 5.72396 9 6V6.5C9 6.77604 8.77604 7 8.5 7H8C7.72396 7 7.5 6.77604 7.5 6.5V6ZM7.5 8.5C7.5 8.22396 7.72396 8 8 8H8.5C8.77604 8 9 8.22396 9 8.5V9C9 9.27604 8.77604 9.5 8.5 9.5H8C7.72396 9.5 7.5 9.27604 7.5 9V8.5ZM6.5 11.5C6.5 11.776 6.27604 12 6 12H5.5C5.22396 12 5 11.776 5 11.5V11C5 10.724 5.22396 10.5 5.5 10.5H6C6.27604 10.5 6.5 10.724 6.5 11V11.5ZM6.5 9C6.5 9.27604 6.27604 9.5 6 9.5H5.5C5.22396 9.5 5 9.27604 5 9V8.5C5 8.22396 5.22396 8 5.5 8H6C6.27604 8 6.5 8.22396 6.5 8.5V9ZM6.5 6.5C6.5 6.77604 6.27604 7 6 7H5.5C5.22396 7 5 6.77604 5 6.5V6C5 5.72396 5.22396 5.5 5.5 5.5H6C6.27604 5.5 6.5 5.72396 6.5 6V6.5ZM15.75 12H8.25C7.83594 12 7.5 11.6641 7.5 11.25C7.5 10.8359 7.83594 10.5 8.25 10.5H15.75C16.1641 10.5 16.5 10.8359 16.5 11.25C16.5 11.6641 16.1641 12 15.75 12ZM16.5 9C16.5 9.27604 16.276 9.5 16 9.5H15.5C15.224 9.5 15 9.27604 15 9V8.5C15 8.22396 15.224 8 15.5 8H16C16.276 8 16.5 8.22396 16.5 8.5V9ZM16.5 6.5C16.5 6.77604 16.276 7 16 7H15.5C15.224 7 15 6.77604 15 6.5V6C15 5.72396 15.224 5.5 15.5 5.5H16C16.276 5.5 16.5 5.72396 16.5 6V6.5ZM19 11.5C19 11.776 18.776 12 18.5 12H18C17.724 12 17.5 11.776 17.5 11.5V11C17.5 10.724 17.724 10.5 18 10.5H18.5C18.776 10.5 19 10.724 19 11V11.5ZM19 9C19 9.27604 18.776 9.5 18.5 9.5H18C17.724 9.5 17.5 9.27604 17.5 9V8.5C17.5 8.22396 17.724 8 18 8H18.5C18.776 8 19 8.22396 19 8.5V9ZM19 6.5C19 6.77604 18.776 7 18.5 7H18C17.724 7 17.5 6.77604 17.5 6.5V6C17.5 5.72396 17.724 5.5 18 5.5H18.5C18.776 5.5 19 5.72396 19 6V6.5Z" fill="#7E808A"/>
<path d="M15.625 17H8.37499C8.23306 17 8.10155 17.0734 8.03905 17.1894C7.97525 17.3054 7.99087 17.4451 8.07681 17.5481L11.7018 21.8662C11.7734 21.9503 11.8828 22 12 22C12.1172 22 12.2266 21.9503 12.2982 21.8662L15.9232 17.5481C16.0091 17.4451 16.0248 17.3054 15.961 17.1894C15.8985 17.0734 15.7669 17 15.625 17Z" fill="#7E808A"/>
</svg>
