<svg width="24" height="24" viewBox="0 0 24 24" fill="none" xmlns="http://www.w3.org/2000/svg">
<path d="M12 17C12.5652 17 13.0234 17.4477 13.0234 18V21C13.0234 21.5523 12.5652 22 12 22C11.4348 22 10.9766 21.5523 10.9766 21V18C10.9766 17.4477 11.4348 17 12 17ZM20.8627 6.99999C21.1453 7.47828 20.9776 8.08987 20.4881 8.36601L17.8293 9.86601C17.3398 10.1422 16.7139 9.97828 16.4314 9.49999C16.1488 9.0217 16.3164 8.41011 16.8059 8.13397L19.4648 6.63396C19.9542 6.35782 20.5801 6.5217 20.8627 6.99999ZM7.56864 14.5C7.85124 14.9783 7.68353 15.5899 7.19405 15.866L4.53524 17.366C4.04576 17.6422 3.41987 17.4783 3.13728 17C2.85468 16.5217 3.02238 15.9101 3.51186 15.634L6.17067 14.134C6.66015 13.8578 7.28603 14.0217 7.56864 14.5ZM20.8627 17C20.5801 17.4783 19.9542 17.6422 19.4648 17.366L16.8059 15.866C16.3164 15.5899 16.1488 14.9783 16.4314 14.5C16.7139 14.0217 17.3398 13.8578 17.8293 14.134L20.4881 15.634C20.9776 15.9101 21.1453 16.5217 20.8627 17ZM7.56864 9.49999C7.28603 9.97828 6.66015 10.1422 6.17067 9.86601L3.51186 8.36601C3.02238 8.08987 2.85468 7.47828 3.13728 6.99999C3.41987 6.5217 4.04576 6.35782 4.53524 6.63396L7.19405 8.13397C7.68353 8.41011 7.85124 9.0217 7.56864 9.49999Z" fill="black"/>
</svg>
