<svg width="20" height="20" viewBox="0 0 20 20" fill="none" xmlns="http://www.w3.org/2000/svg">
<path fill-rule="evenodd" clip-rule="evenodd" d="M7.91667 3.75C5.9615 3.75 4.375 5.3365 4.375 7.29167C4.375 7.79648 4.48029 8.27539 4.66965 8.70744C4.80822 9.02358 4.66426 9.3922 4.34812 9.53076C4.03197 9.66933 3.66336 9.52537 3.52479 9.20923C3.26711 8.62131 3.125 7.97175 3.125 7.29167C3.125 4.64614 5.27114 2.5 7.91667 2.5C10.5622 2.5 12.7083 4.64614 12.7083 7.29167C12.7083 7.61945 12.676 7.93861 12.6135 8.24852C12.5453 8.58689 12.2157 8.80589 11.8773 8.73767C11.539 8.66945 11.32 8.33985 11.3882 8.00148C11.4342 7.7732 11.4583 7.5368 11.4583 7.29167C11.4583 5.3365 9.87184 3.75 7.91667 3.75Z" fill="#1C2024"/>
<path fill-rule="evenodd" clip-rule="evenodd" d="M7.91602 6.66699C7.5711 6.66699 7.29102 6.94707 7.29102 7.29199V12.0837C7.29102 12.2922 7.18701 12.487 7.01373 12.603C6.84044 12.719 6.62071 12.741 6.4279 12.6615L5.20611 12.158C4.56346 11.8932 3.85833 12.2251 3.61906 12.8324L7.10878 15.0582C7.10912 15.0584 7.10946 15.0586 7.1098 15.0588C7.5261 15.3225 7.88217 15.6706 8.1542 16.0798C8.15428 16.0799 8.15437 16.0801 8.15445 16.0802L8.76095 16.9899C8.76089 16.9899 8.761 16.99 8.76095 16.9899C8.80902 17.0616 8.89076 17.0945 8.9685 17.0805L8.97101 17.0801L11.1923 16.6896C11.1925 16.6896 11.1927 16.6896 11.1928 16.6895C11.429 16.6475 11.623 16.4705 11.6869 16.2356L12.679 12.4167C12.8362 11.8302 12.4581 11.2337 11.8605 11.1253L9.05426 10.6153C8.75706 10.5612 8.54102 10.3024 8.54102 10.0003V7.29199C8.54102 6.94707 8.26095 6.66699 7.91602 6.66699ZM6.04102 7.29199C6.04102 6.25671 6.88074 5.41699 7.91602 5.41699C8.9513 5.41699 9.79102 6.25671 9.79102 7.29199V9.47868L12.0836 9.89535C13.3992 10.134 14.2318 11.4457 13.8871 12.7378L12.8947 16.5578C12.7063 17.2593 12.1283 17.7932 11.4105 17.9204L9.18994 18.3108C9.18949 18.3108 9.18903 18.3109 9.18858 18.311C8.61582 18.4135 8.04276 18.1642 7.72214 17.6852L7.11336 16.772C6.93859 16.509 6.70917 16.2846 6.44028 16.1144L6.43845 16.1132L2.57994 13.6523C2.38415 13.5274 2.27374 13.3043 2.29323 13.0729C2.43276 11.416 4.14237 10.3677 5.68236 11.0023C5.68235 11.0023 5.68236 11.0023 5.68236 11.0023L6.04102 11.1501V7.29199Z" fill="#1C2024"/>
<path fill-rule="evenodd" clip-rule="evenodd" d="M15.9207 2.70801H15.924C16.748 2.70801 17.4489 3.24969 17.6801 3.99953C17.7818 4.32938 17.5969 4.67923 17.267 4.78095C16.9372 4.88267 16.5873 4.69773 16.4856 4.36788C16.4133 4.13327 16.1909 3.95918 15.9267 3.95801L15.5153 3.9623C15.1091 3.9688 14.7912 4.29526 14.7912 4.68934C14.7912 5.08679 15.1173 5.41634 15.5269 5.41634H16.1388C17.2303 5.41634 18.1245 6.29708 18.1245 7.39117C18.1245 8.48086 17.2402 9.35868 16.1551 9.36814L15.3229 9.37469C14.5032 9.37469 13.805 8.83991 13.5702 8.09574C13.4663 7.76656 13.6489 7.41551 13.9781 7.31163C14.3073 7.20776 14.6583 7.3904 14.7622 7.71958C14.8354 7.95138 15.0563 8.1238 15.3208 8.12467L16.1442 8.11819C16.1442 8.11819 16.1443 8.11819 16.1442 8.11819C16.5521 8.11452 16.8745 7.78578 16.8745 7.39117C16.8745 6.99654 16.5491 6.66634 16.1388 6.66634H15.5269C14.4347 6.66634 13.5412 5.78495 13.5412 4.68934C13.5412 3.60375 14.4162 2.72819 15.4982 2.71241L15.5008 2.71238L15.9207 2.70801Z" fill="#1C2024"/>
<path fill-rule="evenodd" clip-rule="evenodd" d="M15.625 1.875C15.9702 1.875 16.25 2.15482 16.25 2.5V3.33333C16.25 3.67851 15.9702 3.95833 15.625 3.95833C15.2798 3.95833 15 3.67851 15 3.33333V2.5C15 2.15482 15.2798 1.875 15.625 1.875Z" fill="#1C2024"/>
<path fill-rule="evenodd" clip-rule="evenodd" d="M15.625 8.125C15.9702 8.125 16.25 8.40482 16.25 8.75V9.58333C16.25 9.92851 15.9702 10.2083 15.625 10.2083C15.2798 10.2083 15 9.92851 15 9.58333V8.75C15 8.40482 15.2798 8.125 15.625 8.125Z" fill="#1C2024"/>
</svg>
