<svg width="20" height="20" viewBox="0 0 20 20" fill="none" xmlns="http://www.w3.org/2000/svg">
<path fill-rule="evenodd" clip-rule="evenodd" d="M2.91663 10.2083C2.91663 9.86307 3.19645 9.58325 3.54163 9.58325H7.29163C7.6368 9.58325 7.91663 9.86307 7.91663 10.2083V14.7916C7.91663 15.1368 7.6368 15.4166 7.29163 15.4166H5.20829C3.94298 15.4166 2.91663 14.3902 2.91663 13.1249V10.2083ZM4.16663 10.8333V13.1249C4.16663 13.6999 4.63333 14.1666 5.20829 14.1666H6.66663V10.8333H4.16663Z" fill="#77AA00"/>
<path fill-rule="evenodd" clip-rule="evenodd" d="M2.91663 8.33326C2.91663 4.30846 6.27511 1.06676 10.3417 1.25712L10.3421 1.25714C14.1727 1.43898 17.0833 4.72877 17.0833 8.51555V10.2083H15.8333V8.51555C15.8333 5.34935 13.4012 2.65399 10.2832 2.50575M10.283 2.50575C6.93217 2.349 4.16663 5.01872 4.16663 8.33326V10.2083H2.91663V8.33326" fill="#77AA00"/>
<path fill-rule="evenodd" clip-rule="evenodd" d="M12.0833 10.2083C12.0833 9.86307 12.3631 9.58325 12.7083 9.58325H16.4583C16.8034 9.58325 17.0833 9.86307 17.0833 10.2083V13.1249C17.0833 14.3902 16.0569 15.4166 14.7916 15.4166H12.7083C12.3631 15.4166 12.0833 15.1368 12.0833 14.7916V10.2083ZM13.3333 10.8333V14.1666H14.7916C15.3665 14.1666 15.8333 13.6999 15.8333 13.1249V10.8333H13.3333Z" fill="#77AA00"/>
<path fill-rule="evenodd" clip-rule="evenodd" d="M5 15.2083V14.7916H6.25V15.2083C6.25 16.2433 7.08997 17.0833 8.125 17.0833H9.375V18.3333H8.125C6.39961 18.3333 5 16.9337 5 15.2083Z" fill="#77AA00"/>
<path d="M10.6249 18.75H9.37492C8.79983 18.75 8.33325 18.2834 8.33325 17.7083C8.33325 17.1332 8.79983 16.6666 9.37492 16.6666H10.6249C11.2 16.6666 11.6666 17.1332 11.6666 17.7083C11.6666 18.2834 11.2 18.75 10.6249 18.75Z" fill="#77AA00"/>
</svg>
