<svg width="20" height="20" viewBox="0 0 20 20" fill="none" xmlns="http://www.w3.org/2000/svg">
<path d="M8.35502 3.05453C9.07031 1.7611 10.9295 1.76114 11.6448 3.05453L18.0962 14.7057H18.0966C18.7916 15.9594 17.8858 17.4998 16.4519 17.4999H3.55033C2.11623 17.4999 1.21152 15.96 1.90279 14.707L1.9032 14.7061L8.35502 3.05453ZM10.5511 3.65959C10.3189 3.23966 9.72701 3.22646 9.47237 3.62013L9.44877 3.65959V3.66L2.99695 15.3116C2.76477 15.7338 3.07075 16.2499 3.55033 16.2499H16.4519C16.902 16.2498 17.1981 15.796 17.0407 15.3918L17.0033 15.3116L10.5515 3.66L10.5511 3.65959Z" fill="#F18100"/>
<path d="M9.375 11.4582V7.2915C9.375 6.94633 9.65482 6.6665 10 6.6665C10.3452 6.6665 10.625 6.94633 10.625 7.2915V11.4582C10.625 11.8033 10.3452 12.0832 10 12.0832C9.65482 12.0832 9.375 11.8033 9.375 11.4582Z" fill="#F18100"/>
<path d="M10.8337 14.1668C10.8337 14.6269 10.4604 15.0002 10.0003 15.0002C9.54026 15.0002 9.16699 14.6269 9.16699 14.1668C9.16699 13.7068 9.54026 13.3335 10.0003 13.3335C10.4604 13.3335 10.8337 13.7068 10.8337 14.1668Z" fill="#F18100"/>
</svg>
