<svg width="20" height="20" viewBox="0 0 20 20" fill="none" xmlns="http://www.w3.org/2000/svg">
<path fill-rule="evenodd" clip-rule="evenodd" d="M3.95768 2.91699C3.38272 2.91699 2.91602 3.3837 2.91602 3.95866V11.042C2.91602 11.3872 2.63619 11.667 2.29102 11.667C1.94584 11.667 1.66602 11.3872 1.66602 11.042V3.95866C1.66602 2.69334 2.69237 1.66699 3.95768 1.66699H11.041C11.3862 1.66699 11.666 1.94681 11.666 2.29199C11.666 2.63717 11.3862 2.91699 11.041 2.91699H3.95768Z" fill="#1C2024"/>
<path fill-rule="evenodd" clip-rule="evenodd" d="M2.29102 8.33398C2.63619 8.33398 2.91602 8.61381 2.91602 8.95898V16.0423C2.91602 16.6173 3.38272 17.084 3.95768 17.084H8.54102C8.88619 17.084 9.16602 17.3638 9.16602 17.709C9.16602 18.0542 8.88619 18.334 8.54102 18.334H3.95768C2.69237 18.334 1.66602 17.3076 1.66602 16.0423V8.95898C1.66602 8.61381 1.94584 8.33398 2.29102 8.33398Z" fill="#1C2024"/>
<path fill-rule="evenodd" clip-rule="evenodd" d="M8.33203 2.29199C8.33203 1.94681 8.61185 1.66699 8.95703 1.66699H16.0404C17.3057 1.66699 18.332 2.69334 18.332 3.95866V8.54199C18.332 8.88717 18.0522 9.16699 17.707 9.16699C17.3619 9.16699 17.082 8.88717 17.082 8.54199V3.95866C17.082 3.3837 16.6153 2.91699 16.0404 2.91699H8.95703C8.61185 2.91699 8.33203 2.63717 8.33203 2.29199Z" fill="#1C2024"/>
<path fill-rule="evenodd" clip-rule="evenodd" d="M5.67243 5.58366C5.623 5.58366 5.58268 5.62397 5.58268 5.6734V7.24392C5.58268 7.29334 5.623 7.33366 5.67243 7.33366H7.24294C7.29237 7.33366 7.33268 7.29334 7.33268 7.24392V5.6734C7.33268 5.62397 7.29237 5.58366 7.24294 5.58366H5.67243ZM4.41602 5.6734C4.41602 4.97964 4.97867 4.41699 5.67243 4.41699H7.24294C7.9367 4.41699 8.49935 4.97964 8.49935 5.6734V7.24392C8.49935 7.93768 7.9367 8.50033 7.24294 8.50033H5.67243C4.97867 8.50033 4.41602 7.93768 4.41602 7.24392V5.6734Z" fill="#1C2024"/>
<path fill-rule="evenodd" clip-rule="evenodd" d="M5.67243 10.3757C5.623 10.3757 5.58268 10.416 5.58268 10.4654V12.0359C5.58268 12.0853 5.623 12.1257 5.67243 12.1257H7.24294C7.29237 12.1257 7.33268 12.0853 7.33268 12.0359V10.4654C7.33268 10.416 7.29237 10.3757 7.24294 10.3757H5.67243ZM4.41602 10.4654C4.41602 9.77163 4.97867 9.20898 5.67243 9.20898H7.24294C7.9367 9.20898 8.49935 9.77163 8.49935 10.4654V12.0359C8.49935 12.7297 7.9367 13.2923 7.24294 13.2923H5.67243C4.97867 13.2923 4.41602 12.7297 4.41602 12.0359V10.4654Z" fill="#1C2024"/>
<path fill-rule="evenodd" clip-rule="evenodd" d="M10.4634 5.58366C10.414 5.58366 10.3737 5.62397 10.3737 5.6734V7.24392C10.3737 7.29334 10.414 7.33366 10.4634 7.33366H12.034C12.0834 7.33366 12.1237 7.29334 12.1237 7.24392V5.6734C12.1237 5.62397 12.0834 5.58366 12.034 5.58366H10.4634ZM9.20703 5.6734C9.20703 4.97964 9.76968 4.41699 10.4634 4.41699H12.034C12.7277 4.41699 13.2904 4.97964 13.2904 5.6734V7.24392C13.2904 7.93768 12.7277 8.50033 12.034 8.50033H10.4634C9.76968 8.50033 9.20703 7.93768 9.20703 7.24392V5.6734Z" fill="#1C2024"/>
<path d="M9.36328 9.36426H10.7277V10.7286H9.36328V9.36426Z" fill="#1C2024"/>
<path d="M9.36328 11.9697H10.7277V13.3341H9.36328V11.9697Z" fill="#1C2024"/>
<path d="M11.9688 9.36426H13.3331V10.7286H11.9688V9.36426Z" fill="#1C2024"/>
<path d="M11.9688 11.9697H13.3331V13.3341H11.9688V11.9697Z" fill="#1C2024"/>
<path d="M11.9689 11.9689H10.7285V10.7285H11.9689V11.9689Z" fill="#1C2024"/>
<path d="M16.5029 18.4058L15.9594 18.9493C14.8358 20.0729 13.0074 20.0729 11.8837 18.9493C10.7601 17.8256 10.7601 15.9972 11.8837 14.8736L12.4272 14.3301C12.6522 14.1051 13.0173 14.1051 13.2423 14.3301C13.4673 14.5552 13.4673 14.9203 13.2423 15.1453L12.6989 15.6887C12.0253 16.3623 12.0253 17.4605 12.6989 18.1341C13.3725 18.8077 14.4707 18.8077 15.1443 18.1341L15.6877 17.5907C15.9127 17.3657 16.2779 17.3657 16.5029 17.5907C16.7279 17.8157 16.7279 18.1808 16.5029 18.4058ZM18.9483 11.8847C17.8246 10.7611 15.9962 10.7611 14.8726 11.8847L14.3292 12.4282C14.1042 12.6532 14.1042 13.0183 14.3292 13.2433C14.5542 13.4683 14.9193 13.4683 15.1443 13.2433L15.6877 12.6999C16.3613 12.0262 17.4595 12.0262 18.1331 12.6999C18.8068 13.3735 18.8068 14.4717 18.1331 15.1453L17.5897 15.6887C17.3647 15.9137 17.3647 16.2788 17.5897 16.5038C17.8147 16.7289 18.1798 16.7289 18.4049 16.5038L18.9483 15.9604C20.0719 14.8368 20.0719 13.0084 18.9483 11.8847ZM17.318 13.515C17.093 13.29 16.7279 13.29 16.5029 13.515L13.514 16.5038C13.289 16.7289 13.289 17.094 13.514 17.319C13.739 17.544 14.1042 17.544 14.3292 17.319L17.318 14.3301C17.543 14.1051 17.543 13.74 17.318 13.515Z" fill="#1C2024"/>
</svg>
