<svg width="24" height="24" viewBox="0 0 24 24" fill="none" xmlns="http://www.w3.org/2000/svg">
<path d="M9.95025 16.1706V10.4998C9.95025 9.94752 9.50253 9.4998 8.95025 9.4998C8.39796 9.4998 7.95025 9.94752 7.95025 10.4998V16.1719L6.12137 14.343C5.73085 13.9524 5.09768 13.9524 4.70716 14.3429C4.31663 14.7335 4.31663 15.3666 4.70716 15.7572L8.94985 19.9998L13.1925 15.757C13.583 15.3664 13.5829 14.7332 13.1924 14.3427C12.8019 13.9522 12.1687 13.9522 11.7782 14.3427L9.95025 16.1706Z" fill="#1C2024"/>
<path d="M16.0499 7.82936V13.5002C16.0499 14.0525 15.6021 14.5002 15.0499 14.5002C14.4976 14.5002 14.0499 14.0525 14.0499 13.5002V7.82814L12.221 9.65704C11.8305 10.0476 11.1973 10.0476 10.8068 9.65705C10.4162 9.26653 10.4162 8.63336 10.8068 8.24284L15.0495 4.0002L19.2921 8.24302C19.6826 8.63355 19.6825 9.26675 19.292 9.65726C18.9015 10.0478 18.2683 10.0478 17.8778 9.65727L16.0499 7.82936Z" fill="#1C2024"/>
<path d="M2.25 8V5C2.25 3.48122 3.48122 2.25 5 2.25H8C8.41421 2.25 8.75 2.58579 8.75 3C8.75 3.41421 8.41421 3.75 8 3.75H5C4.30964 3.75 3.75 4.30964 3.75 5V8C3.75 8.41421 3.41421 8.75 3 8.75C2.58579 8.75 2.25 8.41421 2.25 8Z" fill="#1C2024"/>
<path d="M21.75 16V19C21.75 20.5188 20.5188 21.75 19 21.75H16C15.5858 21.75 15.25 21.4142 15.25 21C15.25 20.5858 15.5858 20.25 16 20.25H19C19.6904 20.25 20.25 19.6904 20.25 19V16C20.25 15.5858 20.5858 15.25 21 15.25C21.4142 15.25 21.75 15.5858 21.75 16Z" fill="#1C2024"/>
</svg>
