<svg width="21" height="20" viewBox="0 0 21 20" fill="none" xmlns="http://www.w3.org/2000/svg">
<path d="M13.417 6.45833C13.417 5.65334 12.7637 5 11.9587 5H4.87533C4.07033 5 3.41699 5.65334 3.41699 6.45833V13.5417C3.41699 14.3467 4.07033 15 4.87533 15H11.9587C12.7637 15 13.417 14.3467 13.417 13.5417V6.45833ZM14.667 13.5417C14.667 15.037 13.454 16.25 11.9587 16.25H4.87533C3.37997 16.25 2.16699 15.037 2.16699 13.5417V6.45833C2.16699 4.96298 3.37997 3.75 4.87533 3.75H11.9587C13.454 3.75 14.667 4.96298 14.667 6.45833V13.5417Z" fill="#7E808A"/>
<path d="M17.9617 5.05092C18.1398 4.97431 18.3453 4.98398 18.5168 5.08104C18.7127 5.19198 18.8337 5.39989 18.8337 5.62506V14.3751C18.8337 14.6002 18.7127 14.8081 18.5168 14.9191C18.3208 15.03 18.0804 15.0268 17.8873 14.911L13.7206 12.411L13.6673 12.3756C13.4135 12.186 13.3397 11.8311 13.5062 11.5536C13.6727 11.2761 14.0206 11.1742 14.3074 11.3091L14.3635 11.3392L17.5837 13.2711V6.72858L14.3635 8.66095C14.0675 8.83849 13.6838 8.74248 13.5062 8.44651C13.3286 8.15053 13.4246 7.76675 13.7206 7.58917L17.8873 5.08917L17.9617 5.05092Z" fill="#7E808A"/>
<path fill-rule="evenodd" clip-rule="evenodd" d="M8.41699 7.08398C8.76217 7.08398 9.04199 7.36381 9.04199 7.70898V12.2923C9.04199 12.6375 8.76217 12.9173 8.41699 12.9173C8.07181 12.9173 7.79199 12.6375 7.79199 12.2923V7.70898C7.79199 7.36381 8.07181 7.08398 8.41699 7.08398Z" fill="#7E808A"/>
<path fill-rule="evenodd" clip-rule="evenodd" d="M5.5 10C5.5 9.65482 5.77982 9.375 6.125 9.375H10.7083C11.0535 9.375 11.3333 9.65482 11.3333 10C11.3333 10.3452 11.0535 10.625 10.7083 10.625H6.125C5.77982 10.625 5.5 10.3452 5.5 10Z" fill="#7E808A"/>
</svg>
