<svg width="20" height="20" viewBox="0 0 20 20" fill="none" xmlns="http://www.w3.org/2000/svg">
<path d="M7.9165 10.207C7.9165 9.86185 8.19633 9.58203 8.5415 9.58203C8.88668 9.58203 9.1665 9.86185 9.1665 10.207V15.6591L11.0948 14.2817C11.3757 14.0811 11.7662 14.1462 11.9668 14.427C12.1674 14.7079 12.1024 15.0984 11.8215 15.299L8.90487 17.3823C8.71436 17.5184 8.46362 17.5367 8.25545 17.4295C8.04729 17.3224 7.9165 17.1078 7.9165 16.8737V10.207Z" fill="#77AA00"/>
<path d="M17.5 4.82869C17.5 5.7868 17.0601 6.68955 16.3098 7.28271L16.309 7.28353L11.9731 10.6995C11.702 10.9129 11.309 10.8663 11.0954 10.5953C10.8818 10.3241 10.9284 9.93081 11.1995 9.7172L15.5347 6.30208L15.6173 6.23332C16.0186 5.87722 16.25 5.36676 16.25 4.82869V3.75H3.75V4.82869C3.75004 5.40258 4.01345 5.94478 4.46533 6.30208H4.46493L8.80046 9.7172C9.0716 9.93081 9.11823 10.3241 8.90462 10.5953C8.69103 10.8663 8.29805 10.9129 8.02694 10.6995L3.691 7.28353L3.69019 7.28271C2.93993 6.68955 2.50004 5.7868 2.5 4.82869V3.54167C2.5 2.96645 2.96645 2.5 3.54167 2.5H16.4583C17.0335 2.5 17.5 2.96645 17.5 3.54167V4.82869Z" fill="#77AA00"/>
<path d="M16.2998 15.418L18.9842 12.7357C19.2273 12.4905 19.2273 12.0955 18.9842 11.8503C18.739 11.6072 18.344 11.6072 18.0988 11.8503L15.4165 14.5347L12.7342 11.8503C12.489 11.6072 12.094 11.6072 11.8488 11.8503C11.6057 12.0955 11.6057 12.4905 11.8488 12.7357L14.5333 15.418L11.8488 18.1003C11.6057 18.3455 11.6057 18.7405 11.8488 18.9857C11.9725 19.1072 12.1309 19.168 12.2915 19.168C12.4521 19.168 12.6105 19.1072 12.7342 18.9857L15.4165 16.3012L18.0988 18.9857C18.2225 19.1072 18.3809 19.168 18.5415 19.168C18.7021 19.168 18.8605 19.1072 18.9842 18.9857C19.2273 18.7405 19.2273 18.3455 18.9842 18.1003L16.2998 15.418Z" fill="#77AA00"/>
</svg>
