<svg width="21" height="20" viewBox="0 0 21 20" fill="none" xmlns="http://www.w3.org/2000/svg">
<path d="M13.4167 9.16536C13.4167 9.62543 13.0434 9.9987 12.5833 9.9987C12.1233 9.9987 11.75 9.62543 11.75 9.16536C11.75 8.7053 12.1233 8.33203 12.5833 8.33203C13.0434 8.33203 13.4167 8.7053 13.4167 9.16536Z" fill="#1C2024"/>
<path fill-rule="evenodd" clip-rule="evenodd" d="M3.49567 7.0122C3.79868 6.85545 3.92041 6.48377 3.76735 6.17766C3.61298 5.86892 3.23756 5.74378 2.92882 5.89815L3.20833 6.45717C2.92882 5.89815 2.92855 5.89829 2.92827 5.89843L2.92769 5.89872L2.92648 5.89933L2.92381 5.90068L2.91753 5.90392C2.91292 5.90632 2.9075 5.90919 2.9013 5.91254C2.88891 5.91925 2.8734 5.92793 2.85522 5.93864C2.81893 5.96003 2.77156 5.98979 2.71686 6.02853C2.60815 6.10554 2.46631 6.22099 2.32454 6.38048C2.03632 6.70473 1.75 7.21167 1.75 7.9155C1.75 9.0658 2.68303 9.99884 3.83333 9.99884H3.95703C4.30221 9.99884 4.58203 9.71901 4.58203 9.37384C4.58203 9.02866 4.30221 8.74883 3.95703 8.74883H3.83333C3.37339 8.74883 3 8.37545 3 7.9155C3 7.57766 3.13035 7.35544 3.2588 7.21094C3.32536 7.13606 3.39185 7.08223 3.43939 7.04856C3.46281 7.03197 3.48055 7.02104 3.48983 7.01557C3.49261 7.01393 3.49458 7.01282 3.49567 7.0122Z" fill="#1C2024"/>
<path d="M5.94484 5.08181C5.93182 4.98633 5.91663 4.89084 5.91663 4.79102C5.91663 3.75803 6.75864 2.91602 7.79163 2.91602C8.61411 2.91602 9.30638 3.44987 9.55812 4.18772C9.7339 4.17904 9.90534 4.16602 10.0833 4.16602C10.3437 4.16602 10.602 4.17904 10.858 4.19857C10.5803 2.7576 9.31289 1.66602 7.79163 1.66602C6.06854 1.66602 4.66663 3.06793 4.66663 4.79102C4.66663 5.11654 4.71654 5.42904 4.80769 5.72418C5.16359 5.48329 5.54553 5.27062 5.94484 5.08181Z" fill="#1C2024"/>
<path fill-rule="evenodd" clip-rule="evenodd" d="M14.202 3.54102C14.3921 3.54048 14.5721 3.62651 14.6911 3.77478C14.8102 3.92304 14.8552 4.11742 14.8136 4.30293L14.359 6.32758C15.3734 7.03299 16.2002 8.25475 16.5417 9.37435L15.3461 9.73907C15.07 8.83401 14.3252 7.74586 13.3311 7.15104C13.0899 7.00672 12.9748 6.71916 13.0496 6.44825C13.0512 6.44243 13.0529 6.43665 13.0547 6.43091L13.3919 4.92896C13.3576 4.93904 13.3229 4.94985 13.2878 4.96143C12.769 5.13266 12.2272 5.45246 11.9174 6.0513C11.791 6.29571 11.5196 6.42868 11.249 6.3788C10.8266 6.30095 10.3902 6.25566 9.94449 6.25566C6.76542 6.25566 4.45837 8.24807 4.45837 10.3908C4.45837 11.4832 5.03483 12.5128 6.04393 13.2853C6.26257 13.4527 6.34591 13.7434 6.24914 14.0012L5.97136 14.7412C5.84696 15.072 6.01394 15.4512 6.36414 15.582C6.44596 15.6111 6.52602 15.6243 6.60151 15.6243C6.87826 15.6243 7.13257 15.4556 7.23203 15.1934L7.23223 15.1929L7.42468 14.6811C7.5375 14.381 7.85904 14.215 8.16901 14.2967C8.72604 14.4435 10.0865 14.5827 10.7084 14.5827V15.8327C10.1774 15.8327 8.89754 15.7249 8.40304 15.6307L8.40179 15.634L8.40134 15.6352C8.11101 16.4025 7.37782 16.8743 6.60151 16.8743C6.37686 16.8743 6.15303 16.8345 5.93868 16.7574L5.93358 16.7556C4.94301 16.3897 4.42834 15.2937 4.8011 14.3019L4.9224 13.9787C3.8788 13.0464 3.20837 11.7966 3.20837 10.3908C3.20837 7.28514 6.38358 5.00566 9.94449 5.00566C10.3223 5.00566 10.6912 5.03301 11.0486 5.08128C11.5689 4.35138 12.2996 3.97128 12.896 3.77442C13.2468 3.65865 13.5658 3.60084 13.7976 3.57168C13.9141 3.55702 14.0103 3.54939 14.0795 3.5454C14.1142 3.54341 14.1423 3.54232 14.1629 3.54173C14.1732 3.54143 14.1817 3.54126 14.1883 3.54116L14.1966 3.54105L14.1997 3.54103L14.2009 3.54102L14.2015 3.54102C14.2015 3.54102 14.202 3.54102 14.2037 4.16602L14.202 3.54102Z" fill="#1C2024"/>
<path d="M12.1058 11.0532C11.7621 11.0834 11.5077 11.3865 11.5378 11.7303L11.7323 13.9434C11.7625 14.2873 12.0659 14.5417 12.4098 14.5115L14.6225 14.317L14.686 14.308C14.9972 14.2486 15.2189 13.9619 15.1906 13.6395C15.1622 13.3172 14.894 13.0738 14.5774 13.0694L14.5135 13.0719L12.9233 13.211L12.7833 11.6213C12.7531 11.2774 12.4497 11.023 12.1058 11.0532Z" fill="#1C2024"/>
<path d="M19.6467 14.9993C19.6467 12.8139 17.8739 11.041 15.6884 11.041C14.1247 11.041 12.7737 11.9473 12.1313 13.2603L12.071 13.3884L12.0483 13.4482C11.9492 13.7492 12.0924 14.082 12.388 14.2136C12.6836 14.3452 13.0265 14.2289 13.1839 13.954L13.2132 13.8971L13.2539 13.8092C13.694 12.9097 14.6194 12.291 15.6884 12.291C17.1835 12.291 18.3967 13.5042 18.3967 14.9993C18.3967 16.4944 17.1835 17.7077 15.6884 17.7077C14.5122 17.7077 13.509 16.9561 13.1363 15.9059L13.1119 15.8469C12.9764 15.5607 12.6433 15.4178 12.3384 15.5259C12.0131 15.6413 11.8429 15.9989 11.9583 16.3242L12.012 16.4666C12.5942 17.925 14.0203 18.9577 15.6884 18.9577C17.8739 18.9577 19.6467 17.1848 19.6467 14.9993Z" fill="#1C2024"/>
</svg>
