<svg width="21" height="20" viewBox="0 0 21 20" fill="none" xmlns="http://www.w3.org/2000/svg">
<path d="M17.167 4.16667H14.5368L13.0003 2.5L8.00033 2.50434L6.46821 4.16667H3.83366C2.91786 4.16667 2.16699 4.91753 2.16699 5.83333V15.8333C2.16699 16.7491 2.91786 17.5 3.83366 17.5H17.167C18.0828 17.5 18.8337 16.7491 18.8337 15.8333V5.83333C18.8337 4.91753 18.0828 4.16667 17.167 4.16667ZM17.167 15.8333H3.83366V5.83333H7.20171L8.73383 4.16667H12.2668L13.8033 5.83333H17.167V15.8333Z" fill="#F3F3F3"/>
<path d="M13 13.3333L15.5 10.8333L13 8.33331V13.3333Z" fill="#F3F3F3"/>
<path d="M8 8.33331L5.5 10.8333L8 13.3333V8.33331Z" fill="#F3F3F3"/>
<path fill-rule="evenodd" clip-rule="evenodd" d="M13.8337 11.6667H7.16699V10H13.8337V11.6667Z" fill="#F3F3F3"/>
</svg>
