<svg width="24" height="24" viewBox="0 0 24 24" fill="none" xmlns="http://www.w3.org/2000/svg">
<path d="M21.0082 3C21.556 3 22 3.44495 22 3.9934V12H20V5H4V18.999L14 9L15.5 10.5L16.25 11.25V14.0788L15.5 13.3287L14 11.8284L6.827 19H13V21H2.9918C2.44405 21 2 20.5551 2 20.0066V3.9934C2 3.44476 2.45531 3 2.9918 3H21.0082ZM8 7C9.10457 7 10 7.89543 10 9C10 10.1046 9.10457 11 8 11C6.89543 11 6 10.1046 6 9C6 7.89543 6.89543 7 8 7Z" fill="black"/>
<path d="M20.251 19.8393V14.5H18.2471V19.8393L16.415 18.0921L14.998 19.4441L19.249 23.5L23.5 19.4441L22.083 18.0921L20.251 19.8393Z" fill="black"/>
</svg>
