<svg width="24" height="24" viewBox="0 0 24 24" fill="none" xmlns="http://www.w3.org/2000/svg">
<path d="M17.0047 16H19.0047V4H9.00468V6H17.0047V16ZM17.0047 18V20.9991C17.0047 21.5519 16.5547 22 15.9978 22H4.01154C3.45548 22 3.00488 21.5554 3.00488 20.9991L3.00748 7.00087C3.00759 6.4481 3.45752 6 4.0143 6H7.00468V3C7.00468 2.44771 7.4524 2 8.00468 2H20.0047C20.557 2 21.0047 2.44771 21.0047 3V17C21.0047 17.5523 20.557 18 20.0047 18H17.0047ZM7.00468 16V18H9.00468V19H11.0047V18H11.5047C12.8854 18 14.0047 16.8807 14.0047 15.5C14.0047 14.1193 12.8854 13 11.5047 13H8.50468C8.22854 13 8.00468 12.7761 8.00468 12.5C8.00468 12.2239 8.22854 12 8.50468 12H13.0047V9.99999H11.0047V9H9.00468V9.99999H8.50468C7.12397 9.99999 6.00468 11.1193 6.00468 12.5C6.00468 13.8807 7.12397 15 8.50468 15H11.5047C11.7808 15 12.0047 15.2239 12.0047 15.5C12.0047 15.7761 11.7808 16 11.5047 16H7.00468Z" fill="black"/>
</svg>
