<svg width="20" height="20" viewBox="0 0 20 20" fill="none" xmlns="http://www.w3.org/2000/svg">
<g id="icon/userreferredgift">
<path id="Vector" d="M8.33332 13.332C5.5719 13.332 3.33332 15.5706 3.33332 18.332H1.66666C1.66666 14.6501 4.65142 11.6654 8.33332 11.6654V13.332ZM8.33332 10.832C5.57082 10.832 3.33332 8.59453 3.33332 5.83203C3.33332 3.06953 5.57082 0.832031 8.33332 0.832031C11.0958 0.832031 13.3333 3.06953 13.3333 5.83203C13.3333 8.59453 11.0958 10.832 8.33332 10.832ZM8.33332 9.16536C10.175 9.16536 11.6667 7.6737 11.6667 5.83203C11.6667 3.99036 10.175 2.4987 8.33332 2.4987C6.49166 2.4987 4.99999 3.99036 4.99999 5.83203C4.99999 7.6737 6.49166 9.16536 8.33332 9.16536Z" fill="#77AA00"/>
<path id="Vector_2" d="M20 13.1453C20 12.6514 19.5647 12.2538 19.0239 12.2538H16.4025L17.7083 11.065L16.5124 9.97266L15 11.3582L13.4876 9.97266L12.2917 11.065L13.5975 12.2538H10.9761C10.4353 12.2538 10 12.6514 10 13.1453V14.567H10.8442V19.9606H14.1558V19.9646H15.8442V19.9606L19.1558 19.9727V14.567H20V13.1453ZM12.5325 18.4184V14.567H14.1558V18.4184H12.5325ZM17.4675 18.4265L15.8442 18.4184V14.567H17.4675V18.4265Z" fill="#77AA00"/>
</g>
</svg>
