<svg width="24" height="24" viewBox="0 0 24 24" fill="none" xmlns="http://www.w3.org/2000/svg">
<path d="M16 11.5C16 12.0521 15.5521 12.5 15 12.5C14.4479 12.5 14 12.0521 14 11.5C14 10.9479 14.4479 10.5 15 10.5C15.5521 10.5 16 10.9479 16 11.5Z" fill="#1C2024"/>
<path fill-rule="evenodd" clip-rule="evenodd" d="M3.5948 8.41609C3.95842 8.22798 4.10449 7.78197 3.92082 7.41463C3.73558 7.04415 3.28507 6.89398 2.91459 7.07922L3.25 7.75004C2.91459 7.07922 2.91426 7.07939 2.91392 7.07956L2.91323 7.0799L2.91177 7.08064L2.90857 7.08226L2.90103 7.08615C2.89551 7.08902 2.88899 7.09247 2.88156 7.09649C2.86669 7.10455 2.84808 7.11496 2.82626 7.12781C2.78272 7.15347 2.72587 7.18919 2.66024 7.23568C2.52978 7.32809 2.35957 7.46663 2.18944 7.65802C1.84358 8.04711 1.5 8.65545 1.5 9.50004C1.5 10.8804 2.61964 12 4 12H4.14844C4.56265 12 4.89844 11.6643 4.89844 11.25C4.89844 10.8358 4.56265 10.5 4.14844 10.5H4C3.44807 10.5 3 10.052 3 9.50004C3 9.09464 3.15642 8.82797 3.31056 8.65457C3.39043 8.56471 3.47022 8.50012 3.52726 8.45972C3.55538 8.4398 3.57666 8.42669 3.5878 8.42012C3.59113 8.41816 3.59349 8.41682 3.5948 8.41609Z" fill="#1C2024"/>
<path d="M6.53385 6.09896C6.51823 5.98438 6.5 5.86979 6.5 5.75C6.5 4.51042 7.51042 3.5 8.75 3.5C9.73698 3.5 10.5677 4.14063 10.8698 5.02604C11.0807 5.01563 11.2865 5 11.5 5C11.8125 5 12.1224 5.01563 12.4297 5.03906C12.0964 3.3099 10.5755 2 8.75 2C6.68229 2 5 3.68229 5 5.75C5 6.14063 5.0599 6.51563 5.16927 6.86979C5.59635 6.58073 6.05469 6.32552 6.53385 6.09896Z" fill="#1C2024"/>
<path fill-rule="evenodd" clip-rule="evenodd" d="M16.4423 4.25C16.6705 4.24936 16.8865 4.35259 17.0293 4.53051C17.1721 4.70843 17.2262 4.94169 17.1762 5.1643L16.6308 7.59387C17.8481 8.44037 18.7682 9.58917 19.178 10.9327L17.7433 11.3703C17.412 10.2843 16.5902 9.29581 15.3973 8.58202C15.1079 8.40884 14.9697 8.06377 15.0595 7.73868C15.0614 7.73169 15.0635 7.72476 15.0656 7.71787L15.4702 5.91553C15.4291 5.92763 15.3874 5.9406 15.3453 5.9545C14.7228 6.15998 14.0726 6.54373 13.7009 7.26235C13.5492 7.55563 13.2235 7.7152 12.8988 7.65535C12.3919 7.56192 11.8682 7.50758 11.3333 7.50758C7.51845 7.50758 4.75 9.89846 4.75 12.4697C4.75 13.7807 5.44175 15.0161 6.65267 15.9431C6.91504 16.144 7.01504 16.4929 6.89891 16.8023L6.56558 17.6902C6.41631 18.0872 6.61668 18.5422 7.03692 18.6992C7.1351 18.7341 7.23118 18.75 7.32176 18.75C7.65386 18.75 7.95904 18.5475 8.07839 18.2328C8.07847 18.2326 8.07855 18.2324 8.07863 18.2322L8.30956 17.6181C8.44495 17.258 8.8308 17.0587 9.20277 17.1568C9.8712 17.333 10.5871 17.4318 11.3333 17.4318C11.3432 17.4318 11.353 17.432 11.3628 17.4324C12.0238 17.4584 13.0016 17.431 13.8561 17.2639L14.1439 18.7361C13.145 18.9313 12.051 18.9597 11.3186 18.9318C10.6865 18.9309 10.0724 18.8698 9.4836 18.7576L9.4821 18.7616L9.48156 18.763C9.13316 19.6838 8.25333 20.25 7.32176 20.25C7.05218 20.25 6.78358 20.2021 6.52636 20.1097L6.52025 20.1075C5.33156 19.6685 4.71396 18.3532 5.16127 17.163L5.30683 16.7753C4.05451 15.6565 3.25 14.1567 3.25 12.4697C3.25 8.74295 7.06025 6.00758 11.3333 6.00758C11.7868 6.00758 12.2294 6.0404 12.6583 6.09832C13.2826 5.22243 14.1595 4.76632 14.8752 4.53009C15.2961 4.39116 15.6789 4.32179 15.9571 4.2868C16.0969 4.26921 16.2123 4.26005 16.2954 4.25527C16.337 4.25287 16.3707 4.25157 16.3955 4.25085C16.4078 4.2505 16.418 4.25029 16.4259 4.25017L16.4359 4.25004L16.4396 4.25002L16.441 4.25001L16.4417 4.25C16.442 4.25 16.4423 4.25 16.4444 5L16.4423 4.25ZM16.4491 5.74999C16.4495 5.74998 16.4498 5.74998 16.4491 5.74999V5.74999Z" fill="#1C2024"/>
<path fill-rule="evenodd" clip-rule="evenodd" d="M16.8322 12.8018C16.9215 12.4759 17.2177 12.25 17.5556 12.25H21.1852C21.4246 12.25 21.6497 12.3643 21.7909 12.5577C21.9321 12.7511 21.9725 13.0003 21.8996 13.2284L21.1754 15.4932H23C23.2977 15.4932 23.5673 15.6694 23.6869 15.942C23.8064 16.2147 23.7534 16.5323 23.5517 16.7513L17.3295 23.5081C17.0981 23.7593 16.7263 23.8225 16.4249 23.6618C16.1236 23.5012 15.9688 23.1572 16.0485 22.8251L16.8637 19.4257H16C15.7661 19.4257 15.5456 19.3165 15.4037 19.1305C15.2618 18.9446 15.2148 18.703 15.2767 18.4774L16.8322 12.8018ZM18.1277 13.75L16.9832 17.9257H17.8148C18.0445 17.9257 18.2615 18.0309 18.4037 18.2113C18.546 18.3916 18.5977 18.6272 18.5441 18.8506L18.1796 20.3706L21.2898 16.9932H20.1481C19.9087 16.9932 19.6836 16.8789 19.5424 16.6855C19.4012 16.4921 19.3608 16.2429 19.4338 16.0148L20.158 13.75H18.1277Z" fill="#1C2024"/>
</svg>
