<svg width="20" height="20" viewBox="0 0 20 20" fill="none" xmlns="http://www.w3.org/2000/svg">
<path fill-rule="evenodd" clip-rule="evenodd" d="M2.5 10H17.5V15.8333C17.5 16.7536 16.7536 17.5 15.8333 17.5H4.16667C3.24636 17.5 2.5 16.7536 2.5 15.8333V10ZM4.16667 11.6667V15.8333H15.8333V11.6667H4.16667Z" fill="#444444"/>
<path d="M16.668 5.83333V3.33333C16.668 2.87326 16.2947 2.5 15.8346 2.5H4.16797C3.7079 2.5 3.33464 2.87326 3.33464 3.33333V5.83333L1.66797 10V11.6667H18.3346V10L16.668 5.83333ZM3.46484 10L5.0013 6.15451V4.16667H15.0013V6.15451L16.5378 10H3.46484Z" fill="#444444"/>
<path d="M6.66536 5C6.2053 5 5.83203 5.37326 5.83203 5.83333C5.83203 6.2934 6.2053 6.66667 6.66536 6.66667C7.12543 6.66667 7.4987 6.2934 7.4987 5.83333C7.4987 5.37326 7.12543 5 6.66536 5Z" fill="#444444"/>
<path d="M9.16536 5C8.7053 5 8.33203 5.37326 8.33203 5.83333C8.33203 6.2934 8.7053 6.66667 9.16536 6.66667C9.62543 6.66667 9.9987 6.2934 9.9987 5.83333C9.9987 5.37326 9.62543 5 9.16536 5Z" fill="#444444"/>
</svg>
