<svg width="20" height="20" viewBox="0 0 20 20" fill="none" xmlns="http://www.w3.org/2000/svg">
<g id="icon/userswitchchanger" clip-path="url(#clip0_6933_56048)">
<path id="Vector" d="M8.60061 11.431V13.2146C8.05775 13.0937 7.72176 13.0937 7.09969 13.0937C4.16033 13.0937 1.77751 15.4387 1.77751 18.3312H0.00344849C0.00344849 14.4744 3.18054 11.3479 7.09969 11.3479C7.71227 11.3479 8.02953 11.3479 8.60061 11.431ZM7.09969 10.475C4.15918 10.475 1.77751 8.13122 1.77751 5.2375C1.77751 2.34378 4.15918 0 7.09969 0C10.0402 0 12.4219 2.34378 12.4219 5.2375C12.4219 8.13122 10.0402 10.475 7.09969 10.475ZM7.09969 8.72917C9.06002 8.72917 10.6478 7.16665 10.6478 5.2375C10.6478 3.30835 9.06002 1.74583 7.09969 1.74583C5.13935 1.74583 3.55157 3.30835 3.55157 5.2375C3.55157 7.16665 5.13935 8.72917 7.09969 8.72917Z" fill="#77AA00"/>
<path id="Vector_2" d="M10.9495 12.707L12.0524 13.8433L10.9495 14.9796H14.1662V16.684H10.9495L12.0524 17.8203L10.9495 18.9566L7.91666 15.8316L10.9495 12.707Z" fill="#77AA00"/>
<path id="Vector_3" d="M15.9255 11.668L14.8227 12.8043L16.9671 14.9821H13.7504V16.6866H16.9671L14.8227 18.8644L15.9255 20.0007L20 15.8341L15.9255 11.668Z" fill="#77AA00"/>
</g>
<defs>
<clipPath id="clip0_6933_56048">
<rect width="20" height="20" fill="white"/>
</clipPath>
</defs>
</svg>
