<svg width="20" height="20" viewBox="0 0 20 20" fill="none" xmlns="http://www.w3.org/2000/svg">
<path fill-rule="evenodd" clip-rule="evenodd" d="M3.19272 8.15042C2.71417 8.64973 2.5 9.13301 2.5 9.58268C2.5 10.0324 2.71417 10.5156 3.19272 11.0149C3.67194 11.515 4.3811 11.9912 5.26595 12.4042C7.03489 13.2298 9.39163 13.7493 11.6667 13.7493C13.5381 13.7493 15.1253 13.2413 16.2272 12.4606C17.3276 11.6809 17.9167 10.6563 17.9167 9.58268C17.9167 8.50904 17.3276 7.4845 16.2272 6.70479C15.1253 5.92403 13.5381 5.41602 11.6667 5.41602C9.39163 5.41602 7.03489 5.93559 5.26595 6.76118C4.3811 7.17415 3.67194 7.65041 3.19272 8.15042ZM4.7373 5.62847C6.68473 4.71958 9.22382 4.16602 11.6667 4.16602C13.7536 4.16602 15.6039 4.73113 16.9499 5.68486C18.2974 6.63963 19.1667 8.01093 19.1667 9.58268C19.1667 11.1544 18.2974 12.5257 16.9499 13.4805C15.6039 14.4342 13.7536 14.9993 11.6667 14.9993C9.22382 14.9993 6.68473 14.4458 4.7373 13.5369C3.76397 13.0826 2.90982 12.5263 2.29027 11.8799C1.67005 11.2327 1.25 10.4557 1.25 9.58268C1.25 8.70966 1.67005 7.93263 2.29027 7.2855C2.90982 6.63906 3.76397 6.08274 4.7373 5.62847Z" fill="#1C2024"/>
<path fill-rule="evenodd" clip-rule="evenodd" d="M1.25 14.3747V9.58301H2.5V14.3747C2.5 14.4896 2.59344 14.583 2.70833 14.583H4.14497C4.17962 14.583 4.21629 14.5735 4.25092 14.5527L6.43874 13.2418L7.08123 14.314L4.89404 15.6246C4.66833 15.7599 4.40967 15.833 4.14497 15.833H2.70833C1.90309 15.833 1.25 15.1799 1.25 14.3747Z" fill="#1C2024"/>
<path fill-rule="evenodd" clip-rule="evenodd" d="M2.70833 4.58301C2.59344 4.58301 2.5 4.67645 2.5 4.79134V9.58301H1.25V4.79134C1.25 3.98609 1.90309 3.33301 2.70833 3.33301H4.14497C4.4097 3.33301 4.66808 3.40591 4.8938 3.54129L7.04441 4.83035L6.40177 5.9025L4.25116 4.61344C4.21653 4.59266 4.17962 4.58301 4.14497 4.58301H2.70833Z" fill="#1C2024"/>
<path fill-rule="evenodd" clip-rule="evenodd" d="M15.7563 13.8558L15.0506 15.7427C14.6532 16.7998 13.6434 17.4998 12.5147 17.4998H11.1648C10.0815 17.4998 9.10246 16.8538 8.6763 15.8579C8.67625 15.8578 8.67635 15.858 8.6763 15.8579L7.9668 14.2046L9.11549 13.7116L9.82542 15.3659C10.0547 15.902 10.5817 16.2498 11.1648 16.2498H12.5147C13.1218 16.2498 13.6658 15.8735 13.8804 15.3033C13.8805 15.3031 13.8805 15.303 13.8806 15.3028L14.5855 13.418L15.7563 13.8558Z" fill="#1C2024"/>
</svg>
