<svg width="24" height="24" viewBox="0 0 24 24" fill="none" xmlns="http://www.w3.org/2000/svg">
<path d="M13 15.252V17.3414C12.3744 17.1203 11.7013 17 11 17C7.68629 17 5 19.6863 5 23H3C3 18.5817 6.58172 15 11 15C11.6906 15 12.3608 15.0875 13 15.252ZM11 14C7.685 14 5 11.315 5 8C5 4.685 7.685 2 11 2C14.315 2 17 4.685 17 8C17 11.315 14.315 14 11 14ZM11 12C13.21 12 15 10.21 15 8C15 5.79 13.21 4 11 4C8.79 4 7 5.79 7 8C7 10.21 8.79 12 11 12Z" fill="#444444"/>
<path d="M22.2461 19.6083C22.2849 19.4083 22.3108 19.2083 22.3108 19C22.3108 18.7917 22.2849 18.5917 22.2461 18.3917L22.9143 17.9125C23.0005 17.85 23.0264 17.7375 22.9703 17.65L22.1944 16.35C22.1426 16.2625 22.0305 16.225 21.9314 16.2667L21.1554 16.5917C20.8407 16.3292 20.4786 16.125 20.0777 15.9917L19.9829 15.1792C19.9699 15.075 19.8794 15 19.776 15H18.224C18.1206 15 18.0301 15.075 18.0171 15.1792L17.918 15.9875C17.5214 16.125 17.1593 16.3292 16.8446 16.5917L16.0686 16.2667C15.9695 16.225 15.8574 16.2625 15.8013 16.35L15.0297 17.65C14.9736 17.7375 14.9995 17.85 15.0857 17.9125L15.7539 18.3917C15.7151 18.5917 15.6892 18.7917 15.6892 19C15.6892 19.2083 15.7151 19.4083 15.7539 19.6083L15.0857 20.0875C14.9995 20.15 14.9736 20.2625 15.0297 20.35L15.8056 21.65C15.8574 21.7375 15.9695 21.775 16.0686 21.7333L16.8446 21.4083C17.1593 21.6708 17.5214 21.875 17.9223 22.0083L18.0171 22.8208C18.0301 22.925 18.1206 23 18.224 23H19.776C19.8794 23 19.9699 22.925 19.9829 22.8208L20.082 22.0125C20.4786 21.875 20.8407 21.6708 21.1554 21.4083L21.9314 21.7333C22.0305 21.775 22.1426 21.7375 22.1987 21.65L22.9703 20.35C23.0264 20.2625 23.0005 20.15 22.9143 20.0875L22.2461 19.6083ZM19 20.4C18.2025 20.4 17.5515 19.7708 17.5515 19C17.5515 18.225 18.2025 17.6 19 17.6C19.7975 17.6 20.4485 18.225 20.4485 19C20.4485 19.7708 19.7975 20.4 19 20.4Z" fill="#444444"/>
</svg>
