<svg width="24" height="24" viewBox="0 0 24 24" fill="none" xmlns="http://www.w3.org/2000/svg">
<path d="M12 2C12.5652 2 13.0234 2.44772 13.0234 3V6C13.0234 6.55228 12.5652 7 12 7C11.4348 7 10.9766 6.55228 10.9766 6V3C10.9766 2.44772 11.4348 2 12 2ZM12 17C12.5652 17 13.0234 17.4477 13.0234 18V21C13.0234 21.5523 12.5652 22 12 22C11.4348 22 10.9766 21.5523 10.9766 21V18C10.9766 17.4477 11.4348 17 12 17ZM7.56864 14.5C7.85124 14.9783 7.68353 15.5899 7.19405 15.866L4.53524 17.366C4.04576 17.6422 3.41987 17.4783 3.13728 17C2.85468 16.5217 3.02238 15.9101 3.51186 15.634L6.17067 14.134C6.66015 13.8578 7.28603 14.0217 7.56864 14.5ZM20.8627 17C20.5801 17.4783 19.9542 17.6422 19.4648 17.366L16.8059 15.866C16.3164 15.5899 16.1488 14.9783 16.4314 14.5C16.7139 14.0217 17.3398 13.8578 17.8293 14.134L20.4881 15.634C20.9776 15.9101 21.1453 16.5217 20.8627 17ZM7.56864 9.5C7.28603 9.97829 6.66015 10.1422 6.17067 9.86602L3.51186 8.36602C3.02238 8.08988 2.85468 7.47829 3.13728 7C3.41987 6.52171 4.04576 6.35783 4.53524 6.63397L7.19405 8.13398C7.68353 8.41012 7.85124 9.02171 7.56864 9.5Z" fill="black"/>
</svg>
