<svg width="20" height="20" viewBox="0 0 20 20" fill="none" xmlns="http://www.w3.org/2000/svg">
<path d="M18.6526 5.71709C13.6184 1.42764 6.3816 1.42764 1.3474 5.71709C0.732916 6.24126 0.658182 7.19351 1.1834 7.8094L9.11149 17.0807C9.58481 17.6398 10.4152 17.6398 10.8885 17.0807L18.8166 7.8094C19.3418 7.19351 19.2671 6.24126 18.6526 5.71709ZM9.20283 5.621C9.20283 5.27373 9.40271 4.99199 10 4.99199C10.5973 4.99199 10.8406 5.27373 10.8406 5.621V10.2337C10.8406 10.581 10.3301 10.8627 10 10.8627C9.66992 10.8627 9.20283 10.581 9.20283 10.2337V5.621ZM10 13.9583C9.43637 13.9583 8.98144 13.5225 8.95833 12.9594C8.93425 12.3727 9.41279 11.875 10 11.875C10.5872 11.875 11.0657 12.3727 11.0417 12.9594C11.0186 13.5225 10.5636 13.9583 10 13.9583Z" fill="#F18100"/>
</svg>
