<svg width="15" height="16" viewBox="0 0 15 16" fill="none" xmlns="http://www.w3.org/2000/svg">
	<path d="M7.83301 4.01738L5.00203 6.33366H1.99967V9.667H5.00203L7.83301 11.9832V4.01738ZM4.40708 11.3337H1.16634C0.706108 11.3337 0.333008 10.9606 0.333008 10.5003V5.5003C0.333008 5.04006 0.706108 4.66697 1.16634 4.66697H4.40708L8.81917 1.05709C8.99726 0.911369 9.25976 0.937619 9.40551 1.11572C9.46642 1.19016 9.49967 1.28339 9.49967 1.37957V14.621C9.49967 14.8512 9.31309 15.0377 9.08301 15.0377C8.98684 15.0377 8.89359 15.0044 8.81917 14.9435L4.40708 11.3337ZM12.7189 11.8262L11.5339 10.6412C12.324 10.0316 12.833 9.07541 12.833 8.00033C12.833 6.80833 12.2074 5.76254 11.2666 5.17329L12.4654 3.97446C13.6993 4.88496 14.4997 6.34916 14.4997 8.00033C14.4997 9.53541 13.8078 10.909 12.7189 11.8262Z" fill="#1C2024" />
</svg>
