<svg width="24" height="24" viewBox="0 0 24 24" fill="none" xmlns="http://www.w3.org/2000/svg">
<path d="M2 3.75C2 3.47396 2.22396 3.25 2.5 3.25H11.5V12.8307V18.3358C11.5 18.601 11.3946 18.8554 11.2071 19.0429L8.85355 20.8964C8.53857 21.2114 8 20.9883 8 20.5429V12.8307L3.14323 9.15104C2.42188 8.58073 2 7.21354 2 6.29427V3.75Z" fill="#77AA00"/>
<path d="M21 4.5C21.5523 4.5 22 4.94772 22 5.5C22 6.05228 21.5523 6.5 21 6.5H14.5C13.9477 6.5 13.5 6.05228 13.5 5.5C13.5 4.94772 13.9477 4.5 14.5 4.5H21Z" fill="#77AA00"/>
<path d="M19 8.5C19.5523 8.5 20 8.94772 20 9.5C20 10.0523 19.5523 10.5 19 10.5H14.5C13.9477 10.5 13.5 10.0523 13.5 9.5C13.5 8.94772 13.9477 8.5 14.5 8.5H19Z" fill="#77AA00"/>
<path d="M17.5 12.5C18.0523 12.5 18.5 12.9477 18.5 13.5C18.5 14.0523 18.0523 14.5 17.5 14.5H14.5C13.9477 14.5 13.5 14.0523 13.5 13.5C13.5 12.9477 13.9477 12.5 14.5 12.5H17.5Z" fill="#77AA00"/>
<path d="M15.5 16.5C16.0523 16.5 16.5 16.9477 16.5 17.5C16.5 18.0523 16.0523 18.5 15.5 18.5H14.5C13.9477 18.5 13.5 18.0523 13.5 17.5C13.5 16.9477 13.9477 16.5 14.5 16.5H15.5Z" fill="#77AA00"/>
</svg>
