<svg width="21" height="20" viewBox="0 0 21 20" fill="none" xmlns="http://www.w3.org/2000/svg">
<path d="M8.83333 18.3333H3L8.83333 12.5V18.3333Z" fill="#F3F3F3"/>
<path d="M6.44613 4.64583L5.61279 3.20052L7.05377 2.36719L7.8871 3.8125L6.44613 4.64583Z" fill="#F3F3F3"/>
<path d="M4.31104 7.38368L2.86572 6.55035L3.69906 5.10938L5.14437 5.94271L4.31104 7.38368Z" fill="#F3F3F3"/>
<path fill-rule="evenodd" clip-rule="evenodd" d="M2.1665 9.9974V9.16406H3.83317V9.9974C3.83317 12.5385 5.25511 14.75 7.35285 15.878L6.56349 17.3459C3.94769 15.9393 2.1665 13.1768 2.1665 9.9974Z" fill="#F3F3F3"/>
<path d="M12.1665 1.66406H17.9998L12.1665 7.4974V1.66406Z" fill="#F3F3F3"/>
<path d="M14.5538 15.3594L15.3871 16.8047L13.9461 17.638L13.1128 16.1927L14.5538 15.3594Z" fill="#F3F3F3"/>
<path d="M16.6893 12.6094L18.1346 13.4427L17.3013 14.8837L15.856 14.0503L16.6893 12.6094Z" fill="#F3F3F3"/>
<path fill-rule="evenodd" clip-rule="evenodd" d="M14.4363 2.64844C17.0521 4.05509 18.8333 6.81757 18.8333 9.99696V10.8303H17.1667V9.99696C17.1667 7.45587 15.7447 5.24439 13.647 4.11632L14.4363 2.64844Z" fill="#F3F3F3"/>
</svg>
