<svg width="24" height="24" viewBox="0 0 24 24" fill="none" xmlns="http://www.w3.org/2000/svg">
<path fill-rule="evenodd" clip-rule="evenodd" d="M16.5 8.25C16.5 7.83579 16.8358 7.5 17.25 7.5H19.25C19.6642 7.5 20 7.83579 20 8.25C20 8.66421 19.6642 9 19.25 9H18V12.75C18 13.1642 17.6642 13.5 17.25 13.5C16.8358 13.5 16.5 13.1642 16.5 12.75V8.25Z" fill="#1C2024"/>
<path fill-rule="evenodd" clip-rule="evenodd" d="M18.25 5.5H8.75V4H18.25C21.1486 4 23.5 6.35141 23.5 9.25V17.75C23.5 18.9923 22.4923 20 21.25 20H13.25V18.5H21.25C21.6639 18.5 22 18.1639 22 17.75V9.25C22 7.17984 20.3202 5.5 18.25 5.5Z" fill="#1C2024"/>
<path d="M5 16.2493V9.24929C5 8.53716 5.1638 7.93104 5.44298 7.43109L3.5 9.24929V16.2493C3.5 16.6635 3.83579 16.9993 4.25 16.9993C4.66421 16.9993 5 16.6635 5 16.2493Z" fill="#1C2024"/>
<path d="M9.09753 4.01125C6.04306 3.81406 3.5 6.2353 3.5 9.24929L5.44298 7.43109C5.78333 6.82161 6.29517 6.36991 6.89078 6.07628L9.09753 4.01125Z" fill="#1C2024"/>
<path d="M14 9.40294C14 6.64651 11.9192 4.19257 9.09753 4.01125L6.89078 6.07628C9.11256 4.98094 12.5 6.08507 12.5 9.40294V18.4993H1.75C1.33579 18.4993 1 18.8351 1 19.2493C1 19.6635 1.33579 19.9993 1.75 19.9993H13.25C13.6642 19.9993 14 19.6635 14 19.2493V9.40294Z" fill="#1C2024"/>
</svg>
