<svg width="24" height="24" viewBox="0 0 24 24" fill="none" xmlns="http://www.w3.org/2000/svg">
<path fill-rule="evenodd" clip-rule="evenodd" d="M6.25 3.5C5.83609 3.5 5.5 3.83609 5.5 4.25V18H19V4.25C19 3.83609 18.6639 3.5 18.25 3.5H6.25ZM5.5 19.5H19.75C20.1642 19.5 20.5 19.1642 20.5 18.75V4.25C20.5 3.00766 19.4923 2 18.25 2H6.25C5.00766 2 4 3.00766 4 4.25V19.75C4 20.9923 5.00766 22 6.25 22H19.75C20.1642 22 20.5 21.6642 20.5 21.25C20.5 20.8358 20.1642 20.5 19.75 20.5H6.25C5.83609 20.5 5.5 20.1639 5.5 19.75V19.5Z" fill="#1C2024"/>
<path d="M20.5 18C20.5 18.5523 20.0523 19 19.5 19H5.5C4.94772 19 4.5 18.5523 4.5 18V4C4.5 3.44772 4.94772 3 5.5 3H19.5C20.0523 3 20.5 3.44772 20.5 4V18ZM12.5 14.6133C12.0859 14.6134 11.7501 14.9492 11.75 15.3633C11.75 15.7774 12.0859 16.1131 12.5 16.1133C12.9141 16.1132 13.25 15.7774 13.25 15.3633C13.2499 14.9492 12.9141 14.6134 12.5 14.6133ZM12.4902 5.88672C10.8976 5.86012 9.62444 6.76463 9.12598 8.27734C8.99673 8.6706 9.21033 9.09503 9.60352 9.22461C9.97217 9.34582 10.3676 9.16527 10.5225 8.81836L10.5498 8.74707C10.8426 7.85801 11.5289 7.37017 12.4648 7.38574C13.5542 7.40411 14.4118 8.26345 14.4121 9.32031C14.4119 10.2063 13.8154 10.9552 13.002 11.1836L12.8369 11.2227C12.2966 11.324 11.7278 11.7877 11.7275 12.5049V13.3477C11.7277 13.7616 12.0636 14.0975 12.4775 14.0977C12.8915 14.0975 13.2273 13.7616 13.2275 13.3477C13.2275 12.951 13.5086 12.6175 13.8711 12.4565C15.0732 11.9225 15.912 10.721 15.9121 9.32031C15.9118 7.4125 14.3653 5.91836 12.4902 5.88672Z" fill="#1C2024"/>
</svg>
