<svg width="24" height="24" viewBox="0 0 24 24" fill="none" xmlns="http://www.w3.org/2000/svg">
<g clip-path="url(#clip0_2894_11246)">
<path fill-rule="evenodd" clip-rule="evenodd" d="M12.0607 3.07098C12.2024 2.35254 12.8628 1.88667 13.545 2.02399L18 2.92071L17.5237 5.56337L14.2977 4.91405L13.4922 9L11 8.45133L12.0607 3.07098Z" fill="black"/>
<path d="M18.5 6C17.6719 6 17 5.32813 17 4.5C17 3.67187 17.6719 3 18.5 3C19.3281 3 20 3.67187 20 4.5C20 5.32813 19.3281 6 18.5 6Z" fill="black"/>
<path d="M22 11.9464C22 10.5366 20.8802 9.39286 19.5 9.39286C18.9602 9.39286 18.4607 9.56938 18.0535 9.86682C16.4934 8.71336 14.358 8 12 8C9.64205 8 7.50663 8.71336 5.9465 9.86682C5.5393 9.56938 5.03977 9.39286 4.5 9.39286C3.11979 9.39286 2 10.5366 2 11.9464C2 12.9451 2.56345 13.8084 3.38258 14.2267C3.37784 14.3186 3.36364 14.4081 3.36364 14.5C3.36364 18.091 7.22964 21 12 21C16.7704 21 20.6364 18.091 20.6364 14.5C20.6364 14.4081 20.6222 14.3186 20.6174 14.2267C21.4366 13.8084 22 12.9451 22 11.9464ZM7 13.3393C7 12.4422 7.71259 11.7143 8.59091 11.7143C9.46922 11.7143 10.1818 12.4422 10.1818 13.3393C10.1818 14.2364 9.46922 14.9643 8.59091 14.9643C7.71259 14.9643 7 14.2364 7 13.3393ZM15.4375 17.5469C15.3239 17.6629 14.2633 18.6786 12 18.6786C9.73674 18.6786 8.67614 17.6629 8.5625 17.5469C8.29735 17.2736 8.29735 16.8335 8.5625 16.5603C8.83002 16.2894 9.26089 16.2894 9.52841 16.5603C9.55208 16.5844 10.3002 17.2857 12 17.2857C13.714 17.2857 14.4645 16.5699 14.4716 16.5603C14.7391 16.2894 15.17 16.2894 15.4351 16.5603C15.7027 16.8335 15.7027 17.2736 15.4375 17.5469ZM15.4091 14.9643C14.5308 14.9643 13.8182 14.2364 13.8182 13.3393C13.8182 12.4422 14.5308 11.7143 15.4091 11.7143C16.2874 11.7143 17 12.4422 17 13.3393C17 14.2364 16.2874 14.9643 15.4091 14.9643Z" fill="black"/>
</g>
<defs>
<clipPath id="clip0_2894_11246">
<rect width="24" height="24" fill="white"/>
</clipPath>
</defs>
</svg>
