<svg width="20" height="20" viewBox="0 0 20 20" fill="none" xmlns="http://www.w3.org/2000/svg">
<path d="M15.6243 2.5H4.37435C2.88346 2.5 1.66602 3.71745 1.66602 5.20833V9.79167C1.66602 11.2826 2.88346 12.5 4.37435 12.5H10.8327C10.8327 12.0833 11.041 11.4583 11.2493 11.25H4.37435C3.56923 11.25 2.91602 10.5968 2.91602 9.79167V5.20833C2.91602 4.40321 3.56923 3.75 4.37435 3.75H15.6243C16.4295 3.75 17.0827 4.40321 17.0827 5.20833V9.79167C17.916 10 18.3327 11.0417 18.3327 11.0417C18.3327 11.0417 18.3327 10.0629 18.3327 9.79167V5.20833C18.3327 3.71745 17.1152 2.5 15.6243 2.5Z" fill="#1C2024"/>
<path d="M7.08268 7.50033C7.08268 7.96039 6.70942 8.33366 6.24935 8.33366C5.78928 8.33366 5.41602 7.96039 5.41602 7.50033C5.41602 7.04026 5.78928 6.66699 6.24935 6.66699C6.70942 6.66699 7.08268 7.04026 7.08268 7.50033Z" fill="#1C2024"/>
<path d="M10.8327 7.50033C10.8327 7.96039 10.4594 8.33366 9.99935 8.33366C9.53928 8.33366 9.16602 7.96039 9.16602 7.50033C9.16602 7.04026 9.53928 6.66699 9.99935 6.66699C10.4594 6.66699 10.8327 7.04026 10.8327 7.50033Z" fill="#1C2024"/>
<path d="M14.5827 7.50033C14.5827 7.96039 14.2094 8.33366 13.7493 8.33366C13.2893 8.33366 12.916 7.96039 12.916 7.50033C12.916 7.04026 13.2893 6.66699 13.7493 6.66699C14.2094 6.66699 14.5827 7.04026 14.5827 7.50033Z" fill="#1C2024"/>
<path fill-rule="evenodd" clip-rule="evenodd" d="M14.8274 11.458C15.6127 11.458 16.25 12.0953 16.25 12.8806C16.25 13.6659 15.6127 14.3032 14.8274 14.3032C14.0421 14.3032 13.4048 13.6659 13.4048 12.8806C13.4048 12.0953 14.0421 11.458 14.8274 11.458ZM17.5 12.8806C17.5 11.405 16.303 10.208 14.8274 10.208C13.3517 10.208 12.1548 11.405 12.1548 12.8806C12.1548 14.3563 13.3517 15.5532 14.8274 15.5532C16.303 15.5532 17.5 14.3563 17.5 12.8806Z" fill="#1C2024"/>
<path fill-rule="evenodd" clip-rule="evenodd" d="M13.7037 13.7475C13.4596 13.5034 13.0639 13.5034 12.8198 13.7475L9.14077 17.4265C8.89669 17.6706 8.89669 18.0663 9.14077 18.3104C9.38485 18.5545 9.78058 18.5545 10.0247 18.3104L13.7037 14.6314C13.9477 14.3873 13.9477 13.9916 13.7037 13.7475Z" fill="#1C2024"/>
<path fill-rule="evenodd" clip-rule="evenodd" d="M10.4531 16.1147C10.2091 16.3588 10.2091 16.7545 10.4531 16.9986L11.6049 18.1504C11.849 18.3944 12.2447 18.3944 12.4888 18.1504C12.7329 17.9063 12.7329 17.5106 12.4888 17.2665L11.337 16.1147C11.093 15.8706 10.6972 15.8706 10.4531 16.1147Z" fill="#1C2024"/>
</svg>
