<svg width="24" height="24" viewBox="0 0 24 24" fill="none" xmlns="http://www.w3.org/2000/svg">
<path d="M3.05 19V4C3.05 3.44772 3.52011 3 4.1 3H13.55C14.1299 3 14.6 3.44772 14.6 4V12H16.7C17.8598 12 18.8 12.8954 18.8 14V18C18.8 18.5523 19.2701 19 19.85 19C20.4299 19 20.9 18.5523 20.9 18V11H18.8C18.2201 11 17.75 10.5523 17.75 10V6.41421L16.0103 4.75736L17.4953 3.34315L22.6925 8.29289C22.8975 8.48816 23 8.74408 23 9V18C23 19.6569 21.5897 21 19.85 21C18.1103 21 16.7 19.6569 16.7 18V14H14.6V19H15.65V21H2V19H3.05ZM5.15 5V11H12.5V5H5.15Z" fill="black"/>
</svg>
