<svg width="24" height="24" viewBox="0 0 24 24" fill="none" xmlns="http://www.w3.org/2000/svg">
<path d="M21.9167 10.75L21.6979 9H17.3021L20.276 6.02604L18.7292 4.61458C16.8802 2.92708 14.4896 2 12 2C6.48437 2 2 6.48437 2 12C2 17.5156 6.48437 22 12 22C17.5156 22 22 17.5156 22 12C22 11.6094 21.974 11.2135 21.9167 10.75ZM12 20C7.58333 20 4 16.4167 4 12C4 7.58333 7.58333 4 12 4C14.0781 4 15.9583 4.79687 17.3802 6.09375L15.25 8.22917C14.3698 7.47396 13.2448 7 12 7C9.23958 7 7 9.23958 7 12C7 14.7604 9.23958 17 12 17C14.0469 17 15.8073 15.7656 16.5781 14H13V11H19.9323C19.974 11.3281 20 11.6615 20 12C20 16.4167 16.4167 20 12 20ZM11 9.17187V14.8281C9.83854 14.4167 9 13.3021 9 12C9 10.6979 9.83854 9.58333 11 9.17187Z" fill="black"/>
</svg>
