<svg width="24" height="24" viewBox="0 0 24 24" fill="none" xmlns="http://www.w3.org/2000/svg">
<path d="M12 13.0989C12.6093 13.0989 13.0989 12.6094 13.0989 12C13.0989 11.3906 12.6093 10.901 12 10.901C11.3906 10.901 10.901 11.3906 10.901 12C10.901 12.6094 11.3906 13.0989 12 13.0989Z" fill="black"/>
<path d="M12 2C6.47917 2 2 6.47917 2 12C2 17.5208 6.47917 22 12 22C17.5208 22 22 17.5208 22 12C22 6.47917 17.5208 2 12 2ZM14.1875 14.1875L6 18L9.8125 9.8125L18 6L14.1875 14.1875Z" fill="black"/>
</svg>
