<svg width="24" height="24" viewBox="0 0 24 24" fill="none" xmlns="http://www.w3.org/2000/svg">
<path fill-rule="evenodd" clip-rule="evenodd" d="M21.9228 4.39963L21.4752 6.65892C21.2047 8.02466 20.8432 9.85032 20.4791 11.6901C19.749 15.3791 19.0135 19.1003 18.9744 19.3151L18.9725 19.3253L18.9705 19.3355C18.8929 19.7189 18.679 20.1013 18.3959 20.3933C18.1034 20.6948 17.6351 21 17.0223 21C16.5109 21 16.1065 20.7685 15.8984 20.6277C15.7809 20.5482 15.6861 20.4701 15.6197 20.4112C15.5859 20.3813 15.5581 20.355 15.5369 20.3344C15.5316 20.3293 15.5267 20.3245 15.5222 20.32L12.5166 17.5266L10.0518 19.6218L10.0335 19.6361L9.39131 18.8007C10.0335 19.6361 10.0338 19.6359 10.0335 19.6361L10.0324 19.6369L10.0313 19.6378L10.0291 19.6395L10.0244 19.6431L10.0142 19.6507C10.007 19.656 9.99912 19.6618 9.99049 19.6679C9.97326 19.6801 9.95288 19.6939 9.92953 19.7087C9.88334 19.7379 9.82265 19.7728 9.7491 19.8067C9.60739 19.8722 9.38417 19.9499 9.10686 19.9499C8.93242 19.9499 8.76763 19.9168 8.62048 19.8649C8.61596 19.8634 8.61143 19.8619 8.60691 19.8604C8.52111 19.8317 8.44004 19.793 8.36446 19.7465C8.21436 19.6542 8.09185 19.5349 7.99122 19.4068C7.79801 19.1608 7.63716 18.8206 7.49277 18.3602C7.36945 17.9696 7.00759 16.8716 6.67297 15.8605C6.50627 15.3568 6.34741 14.878 6.23021 14.525L6.19155 14.4086L4.83532 13.8627C3.87657 13.4768 2.80471 13.0456 2.34372 12.8608C2.11759 12.7723 1.79358 12.624 1.51981 12.3564C1.20801 12.0517 1 11.6292 1 11.1144C1 10.4563 1.33695 10.0037 1.68137 9.73744C1.93977 9.53767 2.24869 9.41474 2.34524 9.37632C2.35603 9.37203 2.36417 9.36879 2.36929 9.36662C6.55844 7.59261 18.7865 2.41869 19.3908 2.18112C19.3911 2.18099 19.3914 2.18086 19.3918 2.18073L19.7738 3.16406L19.3897 2.18153C19.3901 2.18139 19.3904 2.18126 19.3908 2.18112C19.7973 2.02078 20.5351 1.8476 21.1922 2.23317C22.0184 2.71797 22.0887 3.64739 21.9228 4.39963ZM7.03365 13.6105L8.02974 13.2758L8.22273 13.8566C8.34007 14.21 8.49916 14.6896 8.66615 15.1941C8.93453 16.005 9.22612 16.889 9.39622 17.414L12.5786 14.7087L16.9411 18.7632C17.0989 17.9515 17.765 14.5822 18.4189 11.2782C18.783 9.43827 19.1446 7.61249 19.4151 6.24669L19.8021 4.29324C17.7572 5.14569 7.85657 9.33422 3.65425 11.1135C4.19144 11.3294 4.93308 11.6278 5.61616 11.9027L7.42364 12.6303L7.03365 13.6105ZM20.0755 4.01716C20.0857 4.01921 20.0965 4.02136 20.1077 4.02361C20.1084 4.02375 20.1092 4.0239 20.1099 4.02405C20.2603 4.05414 20.5031 4.10274 20.8952 4.18122L20.0755 4.01716C20.0755 4.01717 20.0755 4.01715 20.0755 4.01716ZM7.03365 13.6105L7.42364 12.6303L7.87557 12.8123L8.02974 13.2758L7.03365 13.6105Z" fill="black"/>
<path d="M16.5407 7.27666C16.4094 7.27666 16.2289 7.40312 16.1359 7.4636C14.7848 8.31031 8.00172 12.1865 6.14185 13.2531C6.66152 13.4621 7.03349 13.6105 7.03349 13.6105C7.03349 13.6105 8.24241 17.2448 8.49404 18.042C8.74567 18.8447 8.94807 18.8612 8.94807 18.8612C9.00277 18.8832 9.05747 18.8942 9.1067 18.8942C9.14499 18.8942 9.17782 18.8777 9.21064 18.8722L10.4469 14.0064C10.4469 14.0064 16.0812 8.27732 16.4204 7.94194C16.6939 7.67803 16.7486 7.57906 16.7486 7.49109C16.7486 7.36464 16.6829 7.27666 16.5407 7.27666Z" fill="black"/>
</svg>
