<svg width="12" height="12" viewBox="0 0 12 12" fill="none" xmlns="http://www.w3.org/2000/svg">
<path d="M4.66745 5.75121L5.75245 5.75146C6.9951 5.75146 8.00245 6.75881 8.00245 8.00146H4.50194L4.50244 8.50146L8.50245 8.50106V8.00146C8.50245 7.46026 8.34335 6.94991 8.0594 6.50106L9.50245 6.50146C10.4986 6.50146 11.3587 7.08411 11.7605 7.92716C10.5781 9.48746 8.6634 10.5015 6.50245 10.5015C5.1218 10.5015 3.95223 10.2062 3.00228 9.68906L3.00296 5.03696C3.62574 5.12616 4.19561 5.37931 4.66745 5.75121ZM2.50244 9.50146C2.50244 9.77761 2.27859 10.0015 2.00244 10.0015H1.00244C0.726301 10.0015 0.502441 9.77761 0.502441 9.50146V5.00146C0.502441 4.72532 0.726301 4.50146 1.00244 4.50146H2.00244C2.27859 4.50146 2.50244 4.72532 2.50244 5.00146V9.50146ZM9.00245 2.50146C9.83085 2.50146 10.5025 3.17303 10.5025 4.00146C10.5025 4.82989 9.83085 5.50146 9.00245 5.50146C8.174 5.50146 7.50245 4.82989 7.50245 4.00146C7.50245 3.17303 8.174 2.50146 9.00245 2.50146ZM5.50245 1.00146C6.33085 1.00146 7.00245 1.67303 7.00245 2.50146C7.00245 3.32989 6.33085 4.00146 5.50245 4.00146C4.67402 4.00146 4.00244 3.32989 4.00244 2.50146C4.00244 1.67303 4.67402 1.00146 5.50245 1.00146Z" fill="#FCFCFD"/>
</svg>
