<svg width="20" height="21" viewBox="0 0 20 21" fill="none" xmlns="http://www.w3.org/2000/svg">
<path fill-rule="evenodd" clip-rule="evenodd" d="M10 17.5C13.866 17.5 17 14.366 17 10.5C17 6.63401 13.866 3.5 10 3.5C6.13401 3.5 3 6.63401 3 10.5C3 14.366 6.13401 17.5 10 17.5ZM10 19.5C14.9706 19.5 19 15.4706 19 10.5C19 5.52944 14.9706 1.5 10 1.5C5.02944 1.5 1 5.52944 1 10.5C1 15.4706 5.02944 19.5 10 19.5Z" fill="#77AA00"/>
<path d="M10 15.5C12.7614 15.5 15 13.2614 15 10.5C15 7.73857 12.7614 5.5 10 5.5C7.23857 5.5 5 7.73857 5 10.5C5 13.2614 7.23857 15.5 10 15.5Z" fill="#77AA00"/>
</svg>
