<svg width="20" height="20" viewBox="0 0 20 20" fill="none" xmlns="http://www.w3.org/2000/svg">
<path d="M6.66666 8.33464V11.668H3.33332V8.33464H6.66666ZM8.33332 6.66797H3.33332C2.41752 6.66797 1.66666 7.41884 1.66666 8.33464V11.668C1.66666 12.5838 2.41752 13.3346 3.33332 13.3346H8.33332V6.66797Z" fill="#77AA00"/>
<path d="M15 5.6467V14.3533L14.6918 14.2535L8.33333 12.1311V7.86892L14.6918 5.74653L15 5.6467ZM16.6667 2.5H15L14.1667 4.16667L6.66667 6.66667V13.3333L14.1667 15.8333L15 17.5H16.6667V2.5ZM5 11.6667H6.66667V17.5H5V11.6667Z" fill="#77AA00"/>
<path d="M17.5 9.9987C17.5 10.9188 16.7535 11.6654 15.8333 11.6654V8.33203C16.7535 8.33203 17.5 9.07856 17.5 9.9987Z" fill="#77AA00"/>
</svg>
