<svg width="24" height="24" viewBox="0 0 24 24" fill="none" xmlns="http://www.w3.org/2000/svg">
<path d="M10.6198 21.4219V15.0365H8.276V12.3125H10.6198V10.3073C10.6198 7.98438 12.0416 6.71875 14.1145 6.71875C14.8125 6.71354 15.5104 6.75 16.2083 6.82292V9.25521H14.7812C13.651 9.25521 13.4323 9.78646 13.4323 10.5729V12.3125H16.1302L15.7812 15.0365H13.4114V21.1354L10.6198 21.4219Z" fill="black"/>
<path d="M12 2C6.47917 2 2 6.47917 2 12C2 17.5208 6.47917 22 12 22C17.5208 22 22 17.5208 22 12C22 6.47917 17.5208 2 12 2ZM12 20C7.58333 20 4 16.4167 4 12C4 7.58333 7.58333 4 12 4C16.4167 4 20 7.58333 20 12C20 16.4167 16.4167 20 12 20Z" fill="black"/>
</svg>
