<svg width="24" height="24" viewBox="0 0 24 24" fill="none" xmlns="http://www.w3.org/2000/svg">
<g clip-path="url(#clip0_130_47345)">
<path d="M21.0082 2.99902C21.556 2.99902 22 3.44397 22 3.99242V11.999H20V4.99902H4V18.998L14 8.99902L15.5 10.499L16.25 11.249V14.0779L15.5 13.3277L14 11.8274L6.827 18.999H13V20.999H2.9918C2.44405 20.999 2 20.5541 2 20.0056V3.99242C2 3.44378 2.45531 2.99902 2.9918 2.99902H21.0082ZM8 6.99902C9.10457 6.99902 10 7.89445 10 8.99902C10 10.1036 9.10457 10.999 8 10.999C6.89543 10.999 6 10.1036 6 8.99902C6 7.89445 6.89543 6.99902 8 6.99902Z" fill="#1C2024"/>
<path d="M15.5902 17.7563H20.176L18.3475 15.9279L19.7618 14.5137L24.0044 18.7563L19.7618 22.9989L18.3475 21.5847L20.176 19.7563H15.5902V17.7563Z" fill="#1C2024"/>
</g>
<defs>
<clipPath id="clip0_130_47345">
<rect width="24" height="24" fill="white"/>
</clipPath>
</defs>
</svg>
