<svg width="24" height="24" viewBox="0 0 24 24" fill="none" xmlns="http://www.w3.org/2000/svg">
<path fill-rule="evenodd" clip-rule="evenodd" d="M15.5 17C14.12 17 13 18.12 13 19.5C13 20.88 14.12 22 15.5 22C16.88 22 18 20.88 18 19.5C18 18.12 16.88 17 15.5 17ZM11 19.5C11 17.0154 13.0154 15 15.5 15C17.9846 15 20 17.0154 20 19.5C20 21.9846 17.9846 24 15.5 24C13.0154 24 11 21.9846 11 19.5Z" fill="#444444"/>
<path fill-rule="evenodd" clip-rule="evenodd" d="M19 15C18.1295 15 17.3896 15.5537 17.1149 16.3326L15.2288 15.6674C15.777 14.113 17.2558 13 19 13C21.2085 13 23 14.7915 23 17C23 19.2085 21.2085 21 19 21V19C20.1039 19 21 18.104 21 17C21 15.896 20.1039 15 19 15Z" fill="#444444"/>
<path d="M9 19.5C9 18.4531 9.27083 17.474 9.71354 16.5937C9.06771 16.1979 8.41146 15.4219 8.41146 13.8542H10.3021C10.3021 14.5729 10.4583 14.9688 10.651 15.1927C11.0833 14.7135 11.5885 14.2969 12.1458 13.9583C11.7552 12.2292 8.72396 12.8958 8.72396 9.76563C8.72396 7.47917 10.625 7.11979 10.9635 7.07813V5.65104H11.9687V7.10417C12.2917 7.16667 14.0885 7.57813 14.0885 10.2031H12.1979C12.1979 8.83333 11.6146 8.61458 11.3698 8.61458C11.2344 8.61458 10.6146 8.65104 10.6146 9.77604C10.6146 11.4792 13.151 11.2552 13.8281 13.2552C14.0417 13.1979 14.25 13.125 14.474 13.0885C15.5833 11.8073 17.1979 11.0156 18.9583 11.0052V3.71875C18.9792 3.38542 18.8646 3.05208 18.6198 2.75521C18.3177 2.39063 17.7344 2 17 2H5C3.89583 2 3 2.89583 3 4V20C3 21.1042 3.89583 22 5 22H9.5C9.17708 21.2292 9 20.3854 9 19.5Z" fill="#444444"/>
</svg>
