<svg width="20" height="20" viewBox="0 0 20 20" fill="none" xmlns="http://www.w3.org/2000/svg">
<path d="M16.6667 10H15V15H16.6667C17.5825 15 18.3333 14.2491 18.3333 13.3333V11.6667C18.3333 10.7509 17.5825 10 16.6667 10Z" fill="#77AA00"/>
<path d="M3.33335 15H5.00002V10H3.33335C2.41755 10 1.66669 10.7509 1.66669 11.6667V13.3333C1.66669 14.2491 2.41755 15 3.33335 15Z" fill="#77AA00"/>
<path fill-rule="evenodd" clip-rule="evenodd" d="M15.8334 11.6641C16.2936 11.6641 16.6667 12.0372 16.6667 12.4974V15.8307C16.6667 16.751 15.9203 17.4974 15 17.4974H10.4167C9.95647 17.4974 9.58337 17.1243 9.58337 16.6641C9.58337 16.2038 9.95647 15.8307 10.4167 15.8307H15V12.4974C15 12.0372 15.3731 11.6641 15.8334 11.6641Z" fill="#77AA00"/>
<path d="M11.6667 16.25C11.6667 16.9401 11.1068 17.5 10.4167 17.5C9.72658 17.5 9.16669 16.9401 9.16669 16.25C9.16669 15.5599 9.72658 15 10.4167 15C11.1068 15 11.6667 15.5599 11.6667 16.25Z" fill="#77AA00"/>
<path fill-rule="evenodd" clip-rule="evenodd" d="M10 4.16667C7.23979 4.16667 5.00004 6.40642 5.00004 9.16667V10.8333H3.33337V9.16667C3.33337 5.48594 6.31932 2.5 10 2.5C13.6808 2.5 16.6667 5.48594 16.6667 9.16667V10.8333H15V9.16667C15 6.40642 12.7603 4.16667 10 4.16667Z" fill="#77AA00"/>
</svg>
