<svg width="20" height="20" viewBox="0 0 20 20" fill="none" xmlns="http://www.w3.org/2000/svg">
<path fill-rule="evenodd" clip-rule="evenodd" d="M8.54167 3.75C5.89422 3.75 3.75 5.89422 3.75 8.54167C3.75 11.1891 5.89422 13.3333 8.54167 13.3333C11.1891 13.3333 13.3333 11.1891 13.3333 8.54167C13.3333 5.89422 11.1891 3.75 8.54167 3.75ZM2.5 8.54167C2.5 5.20387 5.20387 2.5 8.54167 2.5C11.8795 2.5 14.5833 5.20387 14.5833 8.54167C14.5833 11.8795 11.8795 14.5833 8.54167 14.5833C5.20387 14.5833 2.5 11.8795 2.5 8.54167Z" fill="#1C2024"/>
<path fill-rule="evenodd" clip-rule="evenodd" d="M11.9301 11.93C12.1742 11.6859 12.5699 11.6859 12.814 11.93L17.3171 16.433C17.5611 16.6771 17.5611 17.0729 17.3171 17.3169C17.073 17.561 16.6772 17.561 16.4332 17.3169L11.9301 12.8139C11.6861 12.5698 11.6861 12.1741 11.9301 11.93Z" fill="#1C2024"/>
</svg>
