<svg width="24" height="24" viewBox="0 0 24 24" fill="none" xmlns="http://www.w3.org/2000/svg">
<path d="M9.3349 12.5023L11.5049 12.5028C13.9902 12.5028 16.0049 14.5175 16.0049 17.0028H9.00388L9.00488 18.0028L17.0049 18.002V17.0028C17.0049 15.9204 16.6867 14.8997 16.1188 14.002L19.0049 14.0028C20.9972 14.0028 22.7173 15.1681 23.521 16.8542C21.1562 19.9748 17.3268 22.0028 13.0049 22.0028C10.2436 22.0028 7.90445 21.4122 6.00456 20.378L6.00592 11.0738C7.25147 11.2522 8.39122 11.7585 9.3349 12.5023ZM6.00488 20.0028C6.00488 20.5551 5.55717 21.0028 5.00488 21.0028H2.00488C1.4526 21.0028 1.00488 20.5551 1.00488 20.0028V11.0028C1.00488 10.4505 1.4526 10.0028 2.00488 10.0028H5.00488C5.55717 10.0028 6.00488 10.4505 6.00488 11.0028V20.0028ZM18.0049 6.00281C19.6617 6.00281 21.0049 7.34595 21.0049 9.00281C21.0049 10.6597 19.6617 12.0028 18.0049 12.0028C16.348 12.0028 15.0049 10.6597 15.0049 9.00281C15.0049 7.34595 16.348 6.00281 18.0049 6.00281ZM11.0049 3.00281C12.6617 3.00281 14.0049 4.34595 14.0049 6.00281C14.0049 7.65966 12.6617 9.00281 11.0049 9.00281C9.34803 9.00281 8.00488 7.65966 8.00488 6.00281C8.00488 4.34595 9.34803 3.00281 11.0049 3.00281Z" fill="black"/>
</svg>
