<svg width="37" height="36" viewBox="0 0 37 36" fill="none" xmlns="http://www.w3.org/2000/svg">
<path d="M10.0735 5.95215C12.383 4.10471 15.3125 3 18.5 3C21.6875 3 24.617 4.10471 26.9266 5.95215L29.1067 3.77208L31.228 5.89339L29.0479 8.07346C30.8953 10.383 32 13.3125 32 16.5V18H5V16.5C5 13.3125 6.10471 10.383 7.95215 8.07346L5.77208 5.89339L7.89339 3.77208L10.0735 5.95215ZM5 21H32V31.5C32 32.3284 31.3284 33 30.5 33H6.5C5.67158 33 5 32.3284 5 31.5V21ZM14 13.5C14.8284 13.5 15.5 12.8284 15.5 12C15.5 11.1716 14.8284 10.5 14 10.5C13.1716 10.5 12.5 11.1716 12.5 12C12.5 12.8284 13.1716 13.5 14 13.5ZM23 13.5C23.8284 13.5 24.5 12.8284 24.5 12C24.5 11.1716 23.8284 10.5 23 10.5C22.1716 10.5 21.5 11.1716 21.5 12C21.5 12.8284 22.1716 13.5 23 13.5Z" fill="#F3F3F3"/>
</svg>
