<svg width="12" height="12" viewBox="0 0 12 12" fill="none" xmlns="http://www.w3.org/2000/svg">
<path d="M6.00245 1C8.76385 1 11.0025 3.23857 11.0025 6C11.0025 8.7614 8.76385 11 6.00245 11C4.78924 11 3.67695 10.5679 2.81108 9.84925L2.68908 9.7446L3.13975 8.79375C3.86615 9.53795 4.88034 10 6.00245 10C8.2116 10 10.0025 8.20915 10.0025 6C10.0025 3.79086 8.2116 2 6.00245 2C3.83499 2 2.07017 3.72392 2.00435 5.8754L2.00244 6H3.25244L1.89927 8.85805C1.33398 8.048 1.00244 7.0627 1.00244 6C1.00244 3.23857 3.24102 1 6.00245 1ZM6.50245 3V4H7.75245V5H5.00245C4.86437 5 4.75244 5.11195 4.75244 5.25C4.75244 5.37275 4.84088 5.4748 4.95751 5.49595L5.00245 5.5H7.00245C7.6928 5.5 8.25245 6.05965 8.25245 6.75C8.25245 7.44035 7.6928 8 7.00245 8H6.50245V9H5.50245V8H4.25244V7H7.00245C7.1405 7 7.25245 6.88805 7.25245 6.75C7.25245 6.62725 7.164 6.5252 7.0474 6.50405L7.00245 6.5H5.00245C4.31209 6.5 3.75244 5.94035 3.75244 5.25C3.75244 4.55964 4.31209 4 5.00245 4H5.50245V3H6.50245Z" fill="#FCFCFD"/>
</svg>
