<svg width="20" height="20" viewBox="0 0 20 20" fill="none" xmlns="http://www.w3.org/2000/svg">
<path fill-rule="evenodd" clip-rule="evenodd" d="M12.707 8.75C12.3621 8.75 12.082 9.03007 12.082 9.375V15.625C12.082 15.9699 12.3621 16.25 12.707 16.25H16.457C16.802 16.25 17.082 15.9699 17.082 15.625V9.375C17.082 9.03007 16.802 8.75 16.457 8.75H12.707ZM10.832 9.375C10.832 8.33972 11.6717 7.5 12.707 7.5H16.457C17.4923 7.5 18.332 8.33972 18.332 9.375V15.625C18.332 16.6603 17.4923 17.5 16.457 17.5H12.707C11.6717 17.5 10.832 16.6603 10.832 15.625V9.375Z" fill="black"/>
<path fill-rule="evenodd" clip-rule="evenodd" d="M13.332 14.792C13.332 14.4468 13.6119 14.167 13.957 14.167H15.207C15.5522 14.167 15.832 14.4468 15.832 14.792C15.832 15.1372 15.5522 15.417 15.207 15.417H13.957C13.6119 15.417 13.332 15.1372 13.332 14.792Z" fill="black"/>
<path d="M9.9987 14.583H8.95703C7.92188 14.583 7.08203 13.7432 7.08203 12.708V6.45801C7.08203 5.42285 7.92188 4.58301 8.95703 4.58301H15.6237C16.6589 4.58301 17.4987 5.42285 17.4987 6.45801V6.66634H16.2487V6.45801C16.2487 6.11296 15.9687 5.83301 15.6237 5.83301H8.95703C8.61198 5.83301 8.33203 6.11296 8.33203 6.45801V12.083C8.33203 12.313 8.51866 12.4997 8.7487 12.4997H9.9987V14.583Z" fill="black"/>
<path d="M6.24935 12.083H2.29102C1.94596 12.083 1.66602 12.363 1.66602 12.708C1.66602 13.0531 1.94596 13.333 2.29102 13.333H6.24935V12.083Z" fill="black"/>
<path d="M4.58203 9.79167V4.375C4.58203 4.02995 4.86198 3.75 5.20703 3.75H16.5503C16.2921 3.02517 15.6042 2.5 14.7904 2.5H5.20703C4.17405 2.5 3.33203 3.34201 3.33203 4.375V9.79167C3.33203 10.8247 4.17405 11.6667 5.20703 11.6667H6.2487V10.4167H5.20703C4.86198 10.4167 4.58203 10.1367 4.58203 9.79167Z" fill="black"/>
</svg>
