<svg width="24" height="24" viewBox="0 0 24 24" fill="none" xmlns="http://www.w3.org/2000/svg">
<path fill-rule="evenodd" clip-rule="evenodd" d="M11.2744 3.02693C10.0808 3.12807 8.99964 3.43133 7.95642 3.9576C5.30111 5.29711 3.4832 7.84342 3.08206 10.785C2.83714 12.581 3.14365 14.4181 3.95899 16.041C5.48847 19.0854 8.59057 21 11.9937 21C13.4092 21 14.7686 20.6775 16.031 20.0421C17.6193 19.2427 18.9383 17.9877 19.82 16.437C20.4643 15.3037 20.8858 13.9115 20.9604 12.67C20.9672 12.5583 20.9796 12.4626 20.9881 12.4574C20.9965 12.4522 21.0017 12.2357 20.9995 11.9764C20.9973 11.7153 20.9931 11.6153 20.99 11.7523L20.9845 11.9996L20.2341 12.0043L19.4838 12.009L19.4717 12.3388C19.4232 13.6599 19.0052 14.9598 18.2611 16.104C17.9902 16.5204 17.7387 16.8313 17.3531 17.2265C16.7084 17.8872 16.0962 18.3322 15.2814 18.7325C14.1364 19.2951 12.9841 19.5339 11.6539 19.4843C10.6347 19.4464 9.64692 19.1948 8.7103 18.7346C7.90493 18.339 7.29088 17.8955 6.65898 17.2533C6.27564 16.8637 6.02051 16.5504 5.74502 16.131C4.98933 14.9805 4.56926 13.6858 4.5163 12.3439C4.46438 11.0285 4.70717 9.85161 5.26526 8.71358C5.44921 8.33848 5.53923 8.18121 5.76417 7.842C6.30152 7.03169 7.02996 6.30259 7.83952 5.76475C8.17842 5.5396 8.33554 5.44949 8.7103 5.26537C9.6337 4.81172 10.6481 4.55054 11.6071 4.51958C11.7752 4.51414 11.931 4.50602 11.9532 4.50151L11.9937 4.49332V3.74666V3L11.7644 3.00241C11.6383 3.00374 11.4178 3.01476 11.2744 3.02693ZM13.7846 3.2115C13.7791 3.22883 13.7136 3.54675 13.6391 3.918C13.5645 4.28925 13.4994 4.60632 13.4943 4.62259C13.4867 4.6472 13.5209 4.66048 13.697 4.70127C14.1457 4.80515 14.6233 4.96632 15.0499 5.1578C15.1631 5.20862 15.2616 5.24408 15.2687 5.23659C15.2818 5.22295 15.9141 3.92079 15.9141 3.90758C15.9141 3.87476 15.3055 3.61999 14.8813 3.47529C14.6125 3.38356 13.8721 3.18 13.8073 3.18C13.8002 3.18 13.79 3.19417 13.7846 3.2115ZM16.9482 5.37917C16.7108 5.6969 16.5106 5.9669 16.5034 5.9792C16.4948 5.99394 16.5591 6.05667 16.6922 6.16339C17.0715 6.46732 17.5192 6.91545 17.8248 7.29716C17.9281 7.42611 17.9943 7.49455 18.0079 7.48616C18.0196 7.47892 18.2899 7.27621 18.6086 7.03567L19.1881 6.59834L19.0771 6.45474C18.7887 6.08155 18.3968 5.6575 18.0611 5.3555C17.8396 5.15622 17.4077 4.79998 17.3888 4.80101C17.3838 4.80128 17.1855 5.06145 16.9482 5.37917ZM19.4119 8.39384C19.0558 8.56717 18.7584 8.71482 18.7509 8.72198C18.7434 8.72913 18.7789 8.8277 18.8296 8.94099C19.0208 9.36775 19.182 9.84607 19.2856 10.2944L19.3345 10.5058L19.3821 10.4938C19.4084 10.4872 19.7352 10.42 20.1083 10.3443C20.4815 10.2687 20.7916 10.2021 20.7974 10.1963C20.8164 10.1772 20.6464 9.52019 20.5336 9.17702C20.3916 8.7451 20.1138 8.07589 20.0773 8.07778C20.0674 8.07829 19.768 8.22052 19.4119 8.39384ZM11.2384 10.2855V12.3151L12.8479 13.926L14.4575 15.5369L14.9924 15.0015L15.5274 14.466L14.1382 13.0755L12.749 11.6849V9.97046V8.256H11.9937H11.2384V10.2855ZM3.00982 12C3.00982 12.2624 3.01234 12.3697 3.01539 12.2385C3.01847 12.1073 3.01847 11.8927 3.01539 11.7615C3.01234 11.6303 3.00982 11.7376 3.00982 12Z" fill="black"/>
</svg>
