<svg width="24" height="24" viewBox="0 0 24 24" fill="none" xmlns="http://www.w3.org/2000/svg">
<path d="M7.12494 10.659L13.1351 6.92018C12.9437 6.49271 12.5226 6.19922 12.0249 6.19922H2.22496C1.74006 6.19922 1.32535 6.48633 1.12756 6.90104L7.12494 10.659Z" fill="#444444"/>
<path d="M7.12498 13.4165L1 9.58203V14.7755C1 15.4518 1.5487 16.0005 2.225 16.0005H12.025C12.7013 16.0005 13.25 15.4518 13.25 14.7755V9.60756L7.12498 13.4165Z" fill="#444444"/>
<path d="M17.5 1H8.5C7.11979 1 6 2.11979 6 3.5V4H18V18H6V20.5C6 21.8802 7.11979 23 8.5 23H17.5C18.8802 23 20 21.8802 20 20.5V3.5C20 2.11979 18.8802 1 17.5 1ZM13 21.125C12.3802 21.125 11.875 20.6198 11.875 20C11.875 19.3802 12.3802 18.875 13 18.875C13.6198 18.875 14.125 19.3802 14.125 20C14.125 20.6198 13.6198 21.125 13 21.125Z" fill="#444444"/>
</svg>
