<svg width="37" height="36" viewBox="0 0 37 36" fill="none" xmlns="http://www.w3.org/2000/svg">
<path d="M18.5015 3C26.7857 3 33.5015 9.71572 33.5015 18C33.5015 26.2842 26.7857 33 18.5015 33C10.2172 33 3.50146 26.2842 3.50146 18C3.50146 15.8048 3.97307 13.7195 4.82049 11.8403C5.52116 10.4325 6.67113 9.02933 7.59623 8.5506C6.61638 10.474 6.13734 12.3611 6.03573 13.624C6.71799 11.374 8.00933 9.48931 9.81659 8.15866C12.9158 5.88024 17.0885 5.77803 18.7506 7.22964C15.666 8.28871 12.3061 12.5498 13.0464 17.5428C13.1663 18.3671 13.4136 19.1677 13.7795 19.9161C13.2037 18.3991 13.1529 16.2652 14.0819 14.879C15.1198 13.3337 16.5998 13.0071 17.391 13.174C17.0789 13.1087 16.3893 14.429 16.2878 14.6613C16.0284 15.2519 15.8996 15.8915 15.9104 16.5363C15.9332 17.8835 16.4891 19.1667 17.4563 20.1048C20.3384 22.9131 24.9902 21.8081 27.0732 18.6024C28.503 16.3959 28.6772 12.6514 26.841 9.6756C26.3831 8.95044 25.8369 8.28487 25.2152 7.69416C22.4393 5.0458 18.4968 3.84081 14.7425 4.38823C13.0836 4.65321 11.6715 5.13078 10.5062 5.82098C12.1333 4.19664 15.3684 3 18.5015 3Z" fill="#444444"/>
</svg>
