<svg width="36" height="36" viewBox="0 0 36 36" fill="none" xmlns="http://www.w3.org/2000/svg">
<path d="M14.7409 32.645C8.02368 31.1568 3 25.1651 3 18C3 15.2668 3.73101 12.7044 5.00817 10.4975L11.4328 21.6253C12.7109 23.9356 15.1728 25.5 18 25.5C18.3034 25.5 18.6027 25.482 18.8967 25.4469L14.7409 32.645ZM18 33L24.4302 21.8626C25.1094 20.7344 25.5 19.4128 25.5 18C25.5 16.3116 24.9422 14.7535 24.0006 13.5H32.3133C32.7594 14.9206 33 16.4322 33 18C33 26.2842 26.2842 33 18 33ZM21.8582 20.3175C21.0709 21.6252 19.6376 22.5 18 22.5C16.3345 22.5 14.8804 21.5952 14.1022 20.2503L14.0597 20.1751C13.703 19.5305 13.5 18.789 13.5 18C13.5 15.5147 15.5147 13.5 18 13.5C20.4853 13.5 22.5 15.5147 22.5 18C22.5 18.8197 22.2808 19.5884 21.8978 20.2503L21.8582 20.3175ZM6.9483 7.85788C9.69012 4.87174 13.6265 3 18 3C23.5521 3 28.3997 6.01648 30.9933 10.5H18C14.9045 10.5 12.2471 12.3753 11.1017 15.0518L6.9483 7.85788Z" fill="#F3F3F3"/>
</svg>
