<svg width="24" height="24" viewBox="0 0 24 24" fill="none" xmlns="http://www.w3.org/2000/svg">
<path d="M18.1363 5.68193C17.258 5.68193 16.5454 4.96934 16.5454 4.09102C16.5454 3.21271 17.258 2.50011 18.1363 2.50011C19.0146 2.50011 19.7272 3.21271 19.7272 4.09102C19.7272 4.96934 19.0146 5.68193 18.1363 5.68193Z" fill="black"/>
<path fill-rule="evenodd" clip-rule="evenodd" d="M6.07925 9.68437C7.63658 8.604 9.72441 7.95467 12 7.95467C14.2756 7.95467 16.3634 8.604 17.9208 9.68437C18.316 9.45474 18.7763 9.3183 19.2727 9.3183C20.7785 9.3183 22 10.5398 22 12.0456C22 13.0574 21.4471 13.9296 20.6357 14.3979C20.6061 16.2113 19.5652 17.7885 18.0213 18.8912C16.4535 20.011 14.3226 20.6819 12 20.6819C9.6774 20.6819 7.54646 20.011 5.97872 18.8912C4.43477 17.7885 3.39392 16.2113 3.36429 14.3979C2.55294 13.9296 2 13.0574 2 12.0456C2 10.5398 3.22145 9.3183 4.72727 9.3183C5.22369 9.3183 5.68401 9.45474 6.07925 9.68437ZM12 9.3183C9.78393 9.3183 7.83153 10.0114 6.51051 11.0617C6.25036 11.2686 5.87896 11.2577 5.63135 11.036C5.38331 10.8139 5.0686 10.6819 4.72727 10.6819C3.97457 10.6819 3.36364 11.2929 3.36364 12.0456C3.36364 12.6374 3.74722 13.1424 4.28929 13.3274C4.58482 13.4282 4.77409 13.7169 4.74869 14.0281C4.74458 14.0785 4.74087 14.1185 4.73774 14.1522C4.73127 14.222 4.72727 14.2651 4.72727 14.3183C4.72727 15.6107 5.45899 16.8443 6.77128 17.7816C8.08232 18.718 9.92866 19.3183 12 19.3183C14.0713 19.3183 15.9177 18.718 17.2287 17.7816C18.541 16.8443 19.2727 15.6107 19.2727 14.3183C19.2727 14.2651 19.2687 14.2219 19.2623 14.1522C19.2591 14.1185 19.2554 14.0785 19.2513 14.0281C19.2259 13.7169 19.4152 13.4282 19.7107 13.3274C20.2528 13.1424 20.6364 12.6374 20.6364 12.0456C20.6364 11.2929 20.0254 10.6819 19.2727 10.6819C18.9314 10.6819 18.6167 10.8139 18.3687 11.036C18.121 11.2577 17.7496 11.2686 17.4895 11.0617C16.1685 10.0114 14.2161 9.3183 12 9.3183Z" fill="black"/>
<path fill-rule="evenodd" clip-rule="evenodd" d="M12.6962 3.04288C12.772 2.6787 13.1258 2.44256 13.4912 2.51216L18.264 3.42125L18.0088 4.7608L13.8945 3.97712L12.8948 8.77554L11.5598 8.49742L12.6962 3.04288Z" fill="black"/>
<path fill-rule="evenodd" clip-rule="evenodd" d="M8.59086 12.5001C8.21458 12.5001 7.90905 12.8057 7.90905 13.1819C7.90905 13.5582 8.21458 13.8638 8.59086 13.8638C8.96715 13.8638 9.27268 13.5582 9.27268 13.1819C9.27268 12.8057 8.96715 12.5001 8.59086 12.5001ZM6.54541 13.1819C6.54541 12.0525 7.46147 11.1365 8.59086 11.1365C9.72026 11.1365 10.6363 12.0525 10.6363 13.1819C10.6363 14.3113 9.72026 15.2274 8.59086 15.2274C7.46147 15.2274 6.54541 14.3113 6.54541 13.1819Z" fill="black"/>
<path fill-rule="evenodd" clip-rule="evenodd" d="M15.4091 12.5001C15.0328 12.5001 14.7273 12.8057 14.7273 13.1819C14.7273 13.5582 15.0328 13.8638 15.4091 13.8638C15.7854 13.8638 16.0909 13.5582 16.0909 13.1819C16.0909 12.8057 15.7854 12.5001 15.4091 12.5001ZM13.3636 13.1819C13.3636 12.0525 14.2797 11.1365 15.4091 11.1365C16.5385 11.1365 17.4546 12.0525 17.4546 13.1819C17.4546 14.3113 16.5385 15.2274 15.4091 15.2274C14.2797 15.2274 13.3636 14.3113 13.3636 13.1819Z" fill="black"/>
<path fill-rule="evenodd" clip-rule="evenodd" d="M9.52707 16.3357C9.52707 16.3357 9.52706 16.3357 9.52706 16.3357L9.52701 16.3356L9.52656 16.3352L9.52562 16.3342L9.52397 16.3326L9.52159 16.3303C9.52076 16.3295 9.52035 16.3291 9.52035 16.3291C9.52035 16.3291 9.52042 16.3292 9.52056 16.3293C9.52071 16.3294 9.52092 16.3296 9.5212 16.3299C9.52315 16.3318 9.52508 16.3337 9.52701 16.3356C9.52703 16.3356 9.52705 16.3356 9.52707 16.3357ZM9.5212 16.3299C9.52287 16.3314 9.52698 16.3351 9.53355 16.3408C9.54894 16.3541 9.57779 16.3779 9.6205 16.4089C9.70587 16.471 9.84658 16.5621 10.046 16.6559C10.4422 16.8424 11.0821 17.0456 12 17.0456C12.918 17.0456 13.5578 16.8424 13.954 16.6559C14.1534 16.5621 14.2942 16.471 14.3795 16.4089C14.4222 16.3779 14.4511 16.3541 14.4665 16.3408C14.473 16.3351 14.4771 16.3314 14.4788 16.3299C14.7456 16.0699 15.1725 16.072 15.4367 16.3362C15.7029 16.6024 15.7029 17.0342 15.4367 17.3004L14.9546 16.8183C15.4367 17.3004 15.4364 17.3007 15.4361 17.301L15.4356 17.3015L15.4344 17.3027L15.4317 17.3053L15.4253 17.3115C15.4206 17.3161 15.4149 17.3215 15.4082 17.3277C15.3949 17.3401 15.3777 17.3557 15.3565 17.3739C15.3142 17.4104 15.2561 17.4576 15.1816 17.5118C15.0326 17.6201 14.8182 17.7563 14.5346 17.8898C13.965 18.1579 13.1275 18.4092 12 18.4092C10.8725 18.4092 10.0351 18.1579 9.46538 17.8898C9.18186 17.7563 8.96745 17.6201 8.81845 17.5118C8.74396 17.4576 8.68581 17.4104 8.64349 17.3739C8.62233 17.3557 8.60512 17.3401 8.59179 17.3277C8.58512 17.3215 8.57942 17.3161 8.57469 17.3115L8.5683 17.3053L8.56564 17.3027L8.56445 17.3015L8.56389 17.301C8.56362 17.3007 8.56335 17.3004 9.04547 16.8183L8.56335 17.3004C8.29708 17.0342 8.29708 16.6024 8.56335 16.3362C8.8275 16.072 9.25446 16.0699 9.5212 16.3299Z" fill="black"/>
</svg>
