<svg width="24" height="24" viewBox="0 0 24 24" fill="none" xmlns="http://www.w3.org/2000/svg">
<path d="M13 15.252V17.3414C12.3744 17.1203 11.7013 17 11 17C7.68629 17 5 19.6863 5 23H3C3 18.5817 6.58172 15 11 15C11.6906 15 12.3608 15.0875 13 15.252ZM11 14C7.685 14 5 11.315 5 8C5 4.685 7.685 2 11 2C14.315 2 17 4.685 17 8C17 11.315 14.315 14 11 14ZM11 12C13.21 12 15 10.21 15 8C15 5.79 13.21 4 11 4C8.79 4 7 5.79 7 8C7 10.21 8.79 12 11 12Z" fill="#E5484D"/>
<path d="M15.4636 16.8802L16.8803 15.4635L22.5365 21.1198L21.1199 22.5364L15.4636 16.8802Z" fill="#E5484D"/>
<path d="M15.4636 21.1198L21.1199 15.4635L22.5365 16.8802L16.8803 22.5364L15.4636 21.1198Z" fill="#E5484D"/>
</svg>
