<svg width="20" height="20" viewBox="0 0 20 20" fill="none" xmlns="http://www.w3.org/2000/svg">
<path fill-rule="evenodd" clip-rule="evenodd" d="M15.9238 3.41263C17.1261 3.05424 18.3333 3.95649 18.3333 5.2095V14.7755C18.3333 16.0283 17.1263 16.9305 15.9242 16.5725C15.9241 16.5724 15.9244 16.5725 15.9242 16.5725L3.00884 12.7317C3.00865 12.7316 3.00846 12.7316 3.00827 12.7315C2.21265 12.4965 1.66663 11.7638 1.66663 10.9343V9.05064C1.66663 8.22117 2.2126 7.48856 3.00817 7.25348C3.00839 7.25341 3.00861 7.25335 3.00884 7.25328L15.9238 3.41263ZM17.0833 5.2095C17.0833 4.7915 16.6803 4.4915 16.2809 4.61053L3.36387 8.4518L3.36261 8.45217C3.09951 8.52981 2.91663 8.77358 2.91663 9.05064V10.9343C2.91663 11.2114 3.09951 11.4552 3.36261 11.5328L3.36388 11.5332L16.2805 15.3743C16.6799 15.4934 17.0833 15.1935 17.0833 14.7755V5.2095Z" fill="#77AA00"/>
<path fill-rule="evenodd" clip-rule="evenodd" d="M6.33516 13.1511C6.00958 14.2547 6.63885 15.4133 7.74239 15.7408C8.84603 16.0661 10.0045 15.4366 10.3318 14.333L11.5302 14.6883C11.0068 16.4535 9.15343 17.4603 7.38828 16.9396L7.38745 16.9393C5.62232 16.4159 4.6155 14.5625 5.13624 12.7974L6.33516 13.1511Z" fill="#77AA00"/>
</svg>
