<svg width="20" height="20" viewBox="0 0 20 20" fill="none" xmlns="http://www.w3.org/2000/svg">
<path d="M14.5833 10C12.053 10 10 12.053 10 14.5833C10 17.1137 12.053 19.1667 14.5833 19.1667C17.1137 19.1667 19.1667 17.1137 19.1667 14.5833C19.1667 12.053 17.1137 10 14.5833 10ZM16.9618 16.3715C17.1246 16.5343 17.1246 16.799 16.9618 16.9618C16.8793 17.0421 16.773 17.0833 16.6667 17.0833C16.5603 17.0833 16.454 17.0421 16.3715 16.9618L14.5833 15.1714L12.7951 16.9618C12.7127 17.0421 12.6063 17.0833 12.5 17.0833C12.3937 17.0833 12.2873 17.0421 12.2049 16.9618C12.0421 16.799 12.0421 16.5343 12.2049 16.3715L13.9952 14.5833L12.2049 12.7951C12.0421 12.6324 12.0421 12.3676 12.2049 12.2049C12.3676 12.0421 12.6324 12.0421 12.7951 12.2049L14.5833 13.9952L16.3715 12.2049C16.5343 12.0421 16.799 12.0421 16.9618 12.2049C17.1246 12.3676 17.1246 12.6324 16.9618 12.7951L15.1714 14.5833L16.9618 16.3715Z" fill="#E5484D"/>
<path d="M9.58333 16.666C9.76997 17.1152 10.0174 17.5362 10.3168 17.916H4.375C3.34201 17.916 2.5 17.074 2.5 16.041V4.79102C2.5 3.75803 3.34201 2.91602 4.375 2.91602H6.52995V4.16602H4.375C4.02995 4.16602 3.75 4.44596 3.75 4.79102V16.041C3.75 16.3861 4.02995 16.666 4.375 16.666H9.58333Z" fill="#E5484D"/>
<path d="M15.8334 4.79102V9.31141C15.4341 9.21593 15.013 9.16602 14.5834 9.16602V4.79102C14.5834 4.44596 14.3034 4.16602 13.9584 4.16602H11.7991V2.91602H13.9584C14.9913 2.91602 15.8334 3.75803 15.8334 4.79102Z" fill="#E5484D"/>
<path d="M11.25 3.125C11.25 2.78007 10.97 2.5 10.625 2.5H7.70837C7.36345 2.5 7.08337 2.78007 7.08337 3.125C7.08337 3.46993 7.36345 3.75 7.70837 3.75H10.625C10.97 3.75 11.25 3.46993 11.25 3.125ZM12.5 3.125C12.5 4.16028 11.6603 5 10.625 5H7.70837C6.67309 5 5.83337 4.16028 5.83337 3.125C5.83337 2.08972 6.67309 1.25 7.70837 1.25H10.625C11.6603 1.25 12.5 2.08972 12.5 3.125Z" fill="#E5484D"/>
<path d="M13.9583 3.54102H11.799L11.25 4.16602H7.08333L6.52995 3.54102H4.375C3.68273 3.54102 3.125 4.09874 3.125 4.79102V16.041C3.125 16.7333 3.68273 17.291 4.375 17.291H9.89583C9.56163 16.7246 9.33377 16.0909 9.2296 15.416H9.16667C7.84071 15.416 6.59505 14.8995 5.6467 13.9664C5.56641 13.8817 5.50781 13.7776 5.4796 13.6669C5.43837 13.4911 5.41667 13.311 5.41667 13.1243V12.7077C5.41667 12.1326 5.88325 11.666 6.45833 11.666H10.0217C10.9831 10.1621 12.6671 9.16602 14.5833 9.16602C14.796 9.16602 15.0043 9.17904 15.2083 9.20291V4.79102C15.2083 4.09874 14.6506 3.54102 13.9583 3.54102ZM9.16667 9.99935C8.01649 9.99935 7.08333 9.06619 7.08333 7.91602C7.08333 6.76584 8.01649 5.83268 9.16667 5.83268C10.3168 5.83268 11.25 6.76584 11.25 7.91602C11.25 9.06619 10.3168 9.99935 9.16667 9.99935Z" fill="#E5484D"/>
</svg>
