<svg width="24" height="24" viewBox="0 0 24 24" fill="none" xmlns="http://www.w3.org/2000/svg">
<path fill-rule="evenodd" clip-rule="evenodd" d="M8.29372 16.7078C8.29336 16.7075 8.29301 16.7071 9.00012 16C9.70723 15.2929 9.70689 15.2926 9.70655 15.2922L9.70589 15.2916L9.70463 15.2903L9.70237 15.2881L9.69885 15.2846L9.69578 15.2817L9.69576 15.2817C9.69576 15.2817 9.69901 15.2847 9.7055 15.2904C9.71902 15.3022 9.74642 15.3253 9.78762 15.3562C9.87016 15.4182 10.0068 15.5103 10.1973 15.6056C10.575 15.7944 11.1729 16 12.0001 16C12.8274 16 13.4252 15.7944 13.8029 15.6056C13.9934 15.5103 14.1301 15.4182 14.2126 15.3562C14.2538 15.3253 14.2812 15.3022 14.2947 15.2904C14.3015 15.2845 14.3047 15.2814 14.3045 15.2817L14.3014 15.2846L14.2979 15.2881L14.2956 15.2903L14.2944 15.2916L14.2937 15.2922C14.2934 15.2926 14.293 15.2929 15.0001 16C15.7072 16.7071 15.7069 16.7075 15.7065 16.7078L15.7058 16.7085L15.7043 16.7101L15.7009 16.7134L15.693 16.7211L15.6723 16.7408C15.6564 16.7557 15.6363 16.7741 15.6118 16.7955C15.5628 16.8384 15.4964 16.8934 15.4126 16.9562C15.2452 17.0818 15.0068 17.2397 14.6973 17.3944C14.075 17.7056 13.1729 18 12.0001 18C10.8274 18 9.92519 17.7056 9.30291 17.3944C8.9934 17.2397 8.75508 17.0818 8.58762 16.9562C8.50382 16.8934 8.43747 16.8384 8.38849 16.7955C8.36399 16.7741 8.3438 16.7557 8.3279 16.7408L8.30726 16.7211L8.29934 16.7134L8.29598 16.7101L8.29444 16.7085L8.29372 16.7078Z" fill="black"/>
<path fill-rule="evenodd" clip-rule="evenodd" d="M15 11V8H17V11H15Z" fill="black"/>
<path fill-rule="evenodd" clip-rule="evenodd" d="M7 11V8H9V11H7Z" fill="black"/>
<path fill-rule="evenodd" clip-rule="evenodd" d="M11 12V8H13V12C13 13.1044 12.1044 14 11 14H10V12H11Z" fill="black"/>
<path fill-rule="evenodd" clip-rule="evenodd" d="M16 3H18C19.6565 3 21 4.34355 21 6V8H19V6C19 5.44812 18.5519 5 18 5H16V3Z" fill="black"/>
<path fill-rule="evenodd" clip-rule="evenodd" d="M3 6C3 4.34355 4.34355 3 6 3H8V5H6C5.44812 5 5 5.44812 5 6V8H3V6Z" fill="black"/>
<path fill-rule="evenodd" clip-rule="evenodd" d="M21 16V18C21 19.6565 19.6565 21 18 21H16V19H18C18.5519 19 19 18.5519 19 18V16H21Z" fill="black"/>
<path fill-rule="evenodd" clip-rule="evenodd" d="M3 18V16H5V18C5 18.5519 5.44812 19 6 19H8V21H6C4.34355 21 3 19.6565 3 18Z" fill="black"/>
</svg>
