<svg width="24" height="24" viewBox="0 0 24 24" fill="none" xmlns="http://www.w3.org/2000/svg">
<path d="M8.66667 8.66667H5.33333C3.49305 8.66667 2 7.17361 2 5.33333C2 3.49305 3.49305 2 5.33333 2H20.8889V4.22222H5.33333C4.71991 4.22222 4.22222 4.71991 4.22222 5.33333C4.22222 5.94676 4.71991 6.44444 5.33333 6.44444H8.66667V8.66667Z" fill="black"/>
<path d="M19.7778 22H4.22222C2.99537 22 2 21.0046 2 19.7778V5.33334H4.22222V19.7778H19.7778V8.66668H7.55556V6.44445H19.7778C21.0046 6.44445 22 7.43982 22 8.66668V19.7778C22 21.0046 21.0046 22 19.7778 22Z" fill="black"/>
<path d="M9.36933 10.8889L10.5458 12.101L9.36933 13.3131H12.8007V15.1313H9.36933L10.5458 16.3434L9.36933 17.5556L6.13403 14.2219L9.36933 10.8889Z" fill="black"/>
<path d="M14.01 9.77777L12.8336 10.9899L15.1212 13.3131H11.6898V15.1313H15.1212L12.8336 17.4545L14.01 18.6667L18.3564 14.2219L14.01 9.77777Z" fill="black"/>
</svg>
