<svg width="20" height="20" viewBox="0 0 20 20" fill="none" xmlns="http://www.w3.org/2000/svg">
<path fill-rule="evenodd" clip-rule="evenodd" d="M9.39531 2.52244C8.4007 2.60672 7.4997 2.85945 6.63035 3.298C4.4176 4.41426 2.90266 6.53619 2.56838 8.9875C2.36428 10.4842 2.61971 12.0151 3.29916 13.3675C4.57372 15.9045 7.15881 17.5 9.99476 17.5C11.1744 17.5 12.3072 17.2312 13.3592 16.7017C14.6827 16.0356 15.7819 14.9897 16.5166 13.6975C17.0536 12.7531 17.4048 11.5929 17.467 10.5583C17.4726 10.4652 17.483 10.3855 17.49 10.3812C17.4971 10.3768 17.5014 10.1964 17.4996 9.98036C17.4978 9.76277 17.4942 9.67945 17.4917 9.79358L17.487 9.99967L16.8618 10.0036L16.2365 10.0075L16.2264 10.2823C16.186 11.3833 15.8377 12.4665 15.2175 13.42C14.9918 13.767 14.7823 14.0261 14.4609 14.3554C13.9236 14.906 13.4135 15.2769 12.7345 15.6104C11.7803 16.0792 10.8201 16.2782 9.71159 16.237C8.86228 16.2053 8.0391 15.9956 7.25858 15.6122C6.58744 15.2825 6.07573 14.9129 5.54915 14.3777C5.2297 14.0531 5.01709 13.792 4.78752 13.4425C4.15778 12.4838 3.80771 11.4049 3.76358 10.2866C3.72031 9.1904 3.92264 8.20967 4.38771 7.26131C4.54101 6.94873 4.61603 6.81768 4.80348 6.535C5.25127 5.85975 5.8583 5.25216 6.53293 4.80396C6.81535 4.61633 6.94629 4.54124 7.25858 4.38781C8.02808 4.00976 8.87341 3.79211 9.67255 3.76631C9.81268 3.76179 9.94249 3.75502 9.96104 3.75126L9.99476 3.74443V3.12222V2.5L9.80368 2.50201C9.6986 2.50312 9.51482 2.5123 9.39531 2.52244ZM11.4871 2.67625C11.4826 2.6907 11.428 2.95562 11.3659 3.265C11.3038 3.57438 11.2495 3.8386 11.2453 3.85216C11.2389 3.87266 11.2674 3.88373 11.4142 3.91772C11.7881 4.00429 12.1861 4.1386 12.5416 4.29817C12.6359 4.34052 12.718 4.37006 12.7239 4.36383C12.7348 4.35246 13.2618 3.26732 13.2618 3.25631C13.2618 3.22897 12.7546 3.01666 12.4011 2.89607C12.1771 2.81963 11.56 2.65 11.5061 2.65C11.5002 2.65 11.4917 2.66181 11.4871 2.67625ZM14.1235 4.48264C13.9257 4.74742 13.7589 4.97242 13.7528 4.98267C13.7456 4.99495 13.7992 5.04722 13.9102 5.13616C14.2262 5.38944 14.5993 5.76288 14.854 6.08097C14.9401 6.18843 14.9953 6.24546 15.0066 6.23847C15.0163 6.23243 15.2416 6.06351 15.5072 5.86306L15.9901 5.49862L15.8976 5.37895C15.6573 5.06796 15.3306 4.71459 15.0509 4.46292C14.8663 4.29685 14.5064 3.99998 14.4906 4.00084C14.4865 4.00107 14.3213 4.21788 14.1235 4.48264ZM16.1766 6.99487C15.8799 7.13931 15.632 7.26235 15.6258 7.26832C15.6195 7.27427 15.6491 7.35641 15.6914 7.45082C15.8507 7.80646 15.985 8.20505 16.0713 8.57867L16.112 8.75485L16.1518 8.74486C16.1737 8.73937 16.446 8.68331 16.7569 8.62029C17.0679 8.55725 17.3263 8.50172 17.3311 8.49688C17.347 8.48099 17.2053 7.93349 17.1113 7.64752C16.993 7.28758 16.7615 6.72991 16.7311 6.73149C16.7228 6.7319 16.4733 6.85043 16.1766 6.99487ZM9.36534 8.57128V10.2626L10.7066 11.605L12.0479 12.9474L12.4937 12.5012L12.9395 12.055L11.7818 10.8962L10.6242 9.73742V8.30872V6.88H9.99476H9.36534V8.57128ZM2.50818 10C2.50818 10.2186 2.51028 10.3081 2.51283 10.1988C2.51539 10.0894 2.51539 9.91057 2.51283 9.80125C2.51028 9.69193 2.50818 9.78137 2.50818 10Z" fill="#4488EE"/>
</svg>
