<svg width="20" height="20" viewBox="0 0 20 20" fill="none" xmlns="http://www.w3.org/2000/svg">
<path d="M15.4167 3.54362C15.4167 3.42878 15.3232 3.33538 15.2083 3.33538H5.625C5.51011 3.33538 5.41667 3.42878 5.41667 3.54362V14.3721H4.16667V3.54362C4.16667 2.73873 4.81975 2.08594 5.625 2.08594H15.2083C16.0136 2.08594 16.6667 2.73873 16.6667 3.54362V16.0381H15.4167V3.54362Z" fill="#77AA00"/>
<path d="M12.0833 15.2077C12.0833 15.0928 11.9899 14.9994 11.875 14.9994H3.125C3.01011 14.9994 2.91667 15.0928 2.91667 15.2077V15.6242C2.91667 16.4288 3.57 17.0819 4.375 17.0819H12.3466C12.173 16.7481 12.0774 16.3686 12.0833 15.9687V15.2077ZM13.3333 15.987C13.3252 16.5348 13.7237 17.0005 14.2615 17.0819H14.375V17.0892C14.6352 17.0891 14.8842 16.9935 15.0741 16.8191L15.0769 16.8163L15.4968 17.2791L15.0773 16.8167C15.2946 16.6197 15.418 16.3379 15.4167 16.0435L16.6667 16.0378C16.6696 16.6833 16.3991 17.3024 15.9196 17.7387L15.92 17.7391C15.4502 18.1705 14.8239 18.3813 14.1923 18.3313H4.375C2.87965 18.3313 1.66667 17.1189 1.66667 15.6242V15.2077C1.66667 14.4028 2.31975 13.75 3.125 13.75H11.875C12.6802 13.75 13.3333 14.4028 13.3333 15.2077V15.987Z" fill="#77AA00"/>
</svg>
