<svg width="20" height="20" viewBox="0 0 20 20" fill="none" xmlns="http://www.w3.org/2000/svg">
<path d="M14.714 12.3567L13.5357 11.1783L14.714 9.99999C15.0235 9.69045 15.2691 9.32298 15.4366 8.91855C15.6041 8.51412 15.6903 8.08066 15.6903 7.64291C15.6903 7.20516 15.6041 6.77169 15.4366 6.36726C15.2691 5.96283 15.0235 5.59536 14.714 5.28582C14.4045 4.97629 14.037 4.73075 13.6326 4.56323C13.2281 4.39571 12.7947 4.30949 12.3569 4.30949C11.9192 4.30949 11.4857 4.39571 11.0813 4.56323C10.6768 4.73075 10.3094 4.97629 9.99984 5.28582L8.8215 6.46416L7.64317 5.28582L8.8215 4.10749C9.76176 3.18242 11.0295 2.66637 12.3485 2.67174C13.6675 2.67711 14.931 3.20347 15.8637 4.13616C16.7964 5.06886 17.3227 6.33232 17.3281 7.65134C17.3335 8.97036 16.8174 10.2381 15.8923 11.1783L14.714 12.3567ZM12.3573 14.7142L11.1782 15.8925C10.2379 16.8176 8.9702 17.3336 7.65119 17.3282C6.33217 17.3229 5.06871 16.7965 4.13601 15.8638C3.20332 14.9311 2.67696 13.6677 2.67159 12.3486C2.66622 11.0296 3.18227 9.76192 4.10734 8.82166L5.28567 7.64332L6.464 8.82166L5.28567 9.99999C4.66053 10.6251 4.30933 11.473 4.30933 12.3571C4.30933 13.2411 4.66053 14.089 5.28567 14.7142C5.91081 15.3393 6.75868 15.6905 7.64275 15.6905C8.52683 15.6905 9.3747 15.3393 9.99984 14.7142L11.1782 13.5358L12.3573 14.7142ZM12.3573 6.46416L13.5357 7.64332L7.64317 13.535L6.464 12.3567L12.3573 6.46416ZM4.81234 1.91082L6.42234 1.47916L7.28567 4.69999L5.67567 5.13166L4.81234 1.91082ZM12.7148 15.3008L14.3248 14.8692L15.1873 18.0892L13.5773 18.5208L12.7148 15.3008ZM1.91067 4.81249L5.13067 5.67582L4.699 7.28499L1.479 6.42249L1.91067 4.81249ZM15.3007 12.715L18.5207 13.5775L18.089 15.1875L14.869 14.3242L15.3007 12.715Z" fill="#1C2024"/>
</svg>
