<svg width="24" height="24" viewBox="0 0 24 24" fill="none" xmlns="http://www.w3.org/2000/svg">
<path fill-rule="evenodd" clip-rule="evenodd" d="M4.84124 18.5C4.33529 18.5 4.00009 18.8774 4.00009 19.25C4.00009 19.6226 4.33529 20 4.84124 20H19.1589C19.6649 20 20.0001 19.6226 20.0001 19.25C20.0001 18.8774 19.6649 18.5 19.1589 18.5H4.84124ZM2.50009 19.25C2.50009 17.9663 3.59198 17 4.84124 17H19.1589C20.4082 17 21.5001 17.9663 21.5001 19.25C21.5001 20.5337 20.4082 21.5 19.1589 21.5H4.84124C3.59198 21.5 2.50009 20.5337 2.50009 19.25Z" fill="#D4FF70"/>
<path fill-rule="evenodd" clip-rule="evenodd" d="M11.1941 3.78221C11.194 3.78227 11.1941 3.78215 11.1941 3.78221L5.5171 8H18.483L12.806 3.78221C12.8058 3.78207 12.8057 3.78193 12.8055 3.78179C12.3261 3.42683 11.6734 3.42709 11.1941 3.78221ZM10.3008 2.57717C11.3109 1.82844 12.6892 1.82844 13.6993 2.57717L13.6999 2.57766L21.1973 8.14797C21.457 8.34087 21.5637 8.67848 21.4621 8.98556C21.3605 9.29264 21.0735 9.5 20.75 9.5H3.25005C2.9266 9.5 2.63959 9.29264 2.538 8.98556C2.43641 8.67848 2.54313 8.34087 2.80276 8.14797L10.3008 2.57717Z" fill="#D4FF70"/>
<path fill-rule="evenodd" clip-rule="evenodd" d="M10.7501 10.5V17.75H9.25006V10.5H10.7501Z" fill="#D4FF70"/>
<path fill-rule="evenodd" clip-rule="evenodd" d="M6.75006 10.5V17.75H5.25006V10.5H6.75006Z" fill="#D4FF70"/>
<path fill-rule="evenodd" clip-rule="evenodd" d="M14.7501 10.5V17.75H13.2501V10.5H14.7501Z" fill="#D4FF70"/>
<path fill-rule="evenodd" clip-rule="evenodd" d="M18.7501 10.5V17.75H17.2501V10.5H18.7501Z" fill="#D4FF70"/>
<path d="M13.0001 6C13.0001 6.55208 12.5521 7 12.0001 7C11.448 7 11.0001 6.55208 11.0001 6C11.0001 5.44792 11.448 5 12.0001 5C12.5521 5 13.0001 5.44792 13.0001 6Z" fill="#D4FF70"/>
</svg>
