<svg width="24" height="24" viewBox="0 0 24 24" fill="none" xmlns="http://www.w3.org/2000/svg">
<path fill-rule="evenodd" clip-rule="evenodd" d="M9.53486 4.03731C7.60852 4.633 5.98078 5.90849 4.93194 7.5835H7.59993C8.03812 6.34963 8.68477 5.16216 9.53486 4.03731ZM4.13103 9.25017C3.8302 10.1111 3.66667 11.0364 3.66667 12C3.66667 12.9633 3.83009 13.8883 4.13072 14.749H7.32687C7.0533 13.6817 6.91481 12.6153 6.91481 11.5581C6.91481 10.7772 6.99041 10.0067 7.14056 9.25017H4.13103ZM4.9314 16.4157C6.02661 18.1652 7.75332 19.479 9.79222 20.0378C8.97938 18.8427 8.33478 17.6313 7.8635 16.4157H4.9314ZM19.869 9.25017C20.0798 9.85334 20.2231 10.4882 20.2901 11.1456C20.9149 11.3383 21.5034 11.6817 21.9985 12.1753C21.9995 12.117 22 12.0586 22 12C22 6.47715 17.5228 2 12 2C6.47715 2 2 6.47715 2 12C2 17.5228 6.47715 22 12 22C12.0402 22 12.0803 21.9998 12.1204 21.9992C11.2465 21.107 10.8547 19.9191 10.9449 18.7617C10.4352 17.977 10.0098 17.1937 9.66696 16.4157H11.9022C11.9805 16.3222 12.0637 16.2313 12.1515 16.1435C12.3304 15.9647 12.5337 15.8251 12.7507 15.7249L12.0367 15.011C11.9542 14.9285 11.8801 14.8408 11.8143 14.749H9.05529C8.73768 13.6656 8.58147 12.5982 8.58147 11.5581C8.58147 10.7796 8.66893 10.0088 8.84555 9.25017H15.1672C15.344 10.0084 15.4315 10.7788 15.4315 11.557C15.4315 11.8602 15.4182 12.1657 15.3915 12.4732L15.6969 12.7786C15.7971 12.5617 15.9366 12.3584 16.1154 12.1796C16.4132 11.8818 16.7447 11.6387 17.0977 11.45C17.0911 10.7061 17.0157 9.97181 16.8723 9.25017H19.869ZM19.0681 7.5835C18.0217 5.91243 16.3992 4.63901 14.4787 4.04152C15.3282 5.16514 15.9744 6.35117 16.4125 7.5835H19.0681ZM9.38661 7.5835C9.95334 6.23348 10.8225 4.93527 12.0045 3.71601C13.188 4.93542 14.0582 6.23362 14.6256 7.5835H9.38661ZM14.0992 12.9486C13.7737 12.6232 13.2461 12.6232 12.9207 12.9486C12.5953 13.274 12.5953 13.8017 12.9207 14.1271L15.0096 16.216L15.0173 16.2239L15.0252 16.2317L20.0552 21.2616C20.3806 21.5871 20.9083 21.5871 21.2337 21.2616C21.5592 20.9362 21.5592 20.4086 21.2337 20.0831L19.7262 18.5756L21.1188 17.1828C22.2563 16.0453 22.2564 14.2009 21.1188 13.0634C19.9812 11.9258 18.1369 11.9258 16.9993 13.0634L15.6067 14.4561L14.0992 12.9486ZM18.5476 17.397L16.7852 15.6346L18.1778 14.2419C18.6646 13.7552 19.4536 13.7552 19.9403 14.2419C20.427 14.7286 20.427 15.5177 19.9403 16.0043L18.5476 17.397ZM13.0354 17.0273C13.3609 16.7019 13.8885 16.7019 14.214 17.0273C14.5394 17.3527 14.5394 17.8804 14.214 18.2058C13.7273 18.6926 13.7273 19.4816 14.2139 19.9683C14.7007 20.455 15.4897 20.455 15.9764 19.9683C16.3018 19.6428 16.8295 19.6428 17.1549 19.9683C17.4803 20.2937 17.4803 20.8214 17.1549 21.1468C16.0173 22.2843 14.173 22.2844 13.0354 21.1468C11.8979 20.0092 11.8979 18.1649 13.0354 17.0273Z" fill="black"/>
</svg>
