<svg width="20" height="20" viewBox="0 0 20 20" fill="none" xmlns="http://www.w3.org/2000/svg">
<path d="M11.0417 7.08333C11.0417 6.27834 10.3883 5.625 9.58333 5.625C8.77834 5.625 8.125 6.27834 8.125 7.08333C8.125 7.88833 8.77834 8.54167 9.58333 8.54167C10.3883 8.54167 11.0417 7.88833 11.0417 7.08333ZM12.2917 7.08333C12.2917 8.57869 11.0787 9.79167 9.58333 9.79167C8.08798 9.79167 6.875 8.57868 6.875 7.08333C6.875 5.58798 8.08798 4.375 9.58333 4.375C11.0787 4.375 12.2917 5.58798 12.2917 7.08333Z" fill="#7E808A"/>
<path d="M4.94971 12.6004V12.1805C4.94976 11.4572 5.53581 10.8711 6.25911 10.8711H11.7869V12.1211H6.25911C6.22617 12.1211 6.19976 12.1476 6.19971 12.1805V12.6004C6.19971 13.039 6.40476 13.4052 6.81169 13.7133C7.23295 14.0322 7.85069 14.2671 8.57235 14.3822L8.37541 15.6168C7.52421 15.481 6.69234 15.1905 6.05729 14.7098C5.40791 14.2182 4.94971 13.5103 4.94971 12.6004Z" fill="#7E808A"/>
<path d="M15.8099 10.806C16.0551 10.5631 16.4508 10.5649 16.6937 10.8101C16.9366 11.0553 16.9348 11.4509 16.6896 11.6939L12.4929 15.8605C12.2639 16.0874 11.9034 16.1009 11.6587 15.9016L11.6115 15.8589L9.97496 14.2264C9.73062 13.9826 9.73035 13.587 9.97415 13.3426C10.2179 13.0983 10.6136 13.0976 10.8579 13.3414L12.0538 14.5349L15.8099 10.806Z" fill="#7E808A"/>
</svg>
