<svg width="25" height="24" viewBox="0 0 25 24" fill="none" xmlns="http://www.w3.org/2000/svg">
<g id="icon/signupnewusercontoured">
<path id="Vector" d="M13.5 15.252V17.3414C12.8744 17.1203 12.2013 17 11.5 17C8.18629 17 5.5 19.6863 5.5 23H3.5C3.5 18.5817 7.08172 15 11.5 15C12.1906 15 12.8608 15.0875 13.5 15.252ZM11.5 14C8.185 14 5.5 11.315 5.5 8C5.5 4.685 8.185 2 11.5 2C14.815 2 17.5 4.685 17.5 8C17.5 11.315 14.815 14 11.5 14ZM11.5 12C13.71 12 15.5 10.21 15.5 8C15.5 5.79 13.71 4 11.5 4C9.29 4 7.5 5.79 7.5 8C7.5 10.21 9.29 12 11.5 12Z" fill="#1C2024"/>
<path id="Vector_2" d="M20.5 18V15H18.5V18H15.5V20H18.499L18.5 23H20.5L20.499 20H23.5V18H20.5Z" fill="#1C2024"/>
</g>
</svg>
