<svg width="20" height="20" viewBox="0 0 20 20" fill="none" xmlns="http://www.w3.org/2000/svg">
<path fill-rule="evenodd" clip-rule="evenodd" d="M5.20833 4.58301C4.1733 4.58301 3.33333 5.42298 3.33333 6.45801V14.7913C3.33333 15.8264 4.1733 16.6663 5.20833 16.6663H13.5417C14.5767 16.6663 15.4167 15.8264 15.4167 14.7913V10.6247C15.4167 10.2795 15.6965 9.99967 16.0417 9.99967C16.3868 9.99967 16.6667 10.2795 16.6667 10.6247V14.7913C16.6667 16.5167 15.267 17.9163 13.5417 17.9163H5.20833C3.48294 17.9163 2.08333 16.5167 2.08333 14.7913V6.45801C2.08333 4.73262 3.48294 3.33301 5.20833 3.33301H9.37499C9.72017 3.33301 9.99999 3.61283 9.99999 3.95801C9.99999 4.30319 9.72017 4.58301 9.37499 4.58301H5.20833Z" fill="#7E808A"/>
<path fill-rule="evenodd" clip-rule="evenodd" d="M17.7336 2.26607C17.9777 2.51014 17.9777 2.90587 17.7336 3.14995L10.2336 10.6499C9.98952 10.894 9.59379 10.894 9.34971 10.6499C9.10564 10.4059 9.10564 10.0101 9.34971 9.76607L16.8497 2.26607C17.0938 2.02199 17.4895 2.02199 17.7336 2.26607Z" fill="#7E808A"/>
<path fill-rule="evenodd" clip-rule="evenodd" d="M10.8333 2.70801C10.8333 2.36283 11.1132 2.08301 11.4583 2.08301H17.2917C17.6368 2.08301 17.9167 2.36283 17.9167 2.70801V8.54134C17.9167 8.88652 17.6368 9.16634 17.2917 9.16634C16.9465 9.16634 16.6667 8.88652 16.6667 8.54134V3.33301H11.4583C11.1132 3.33301 10.8333 3.05319 10.8333 2.70801Z" fill="#7E808A"/>
</svg>
