<svg width="24" height="24" viewBox="0 0 24 24" fill="none" xmlns="http://www.w3.org/2000/svg">
<path d="M19 2C19 2.55208 18.5521 3 18 3C17.4479 3 17 2.55208 17 2H15C15 2.55208 14.5521 3 14 3C13.4479 3 13 2.55208 13 2H11C11 2.55208 10.5521 3 10 3C9.44792 3 9 2.55208 9 2H7C7 2.55208 6.55208 3 6 3C5.44792 3 5 2.55208 5 2H3V20C3 21.1042 3.89583 22 5 22H19C20.1042 22 21 21.1042 21 20V2H19ZM13 18H7V16H13V18ZM13 14H7V12H13V14ZM17 18H15V16H17V18ZM17 14H15V12H17V14ZM17 9H7V7H17V9ZM19 20H5V5H19V20Z" fill="black"/>
</svg>
