<svg width="20" height="20" viewBox="0 0 20 20" fill="none" xmlns="http://www.w3.org/2000/svg">
<path d="M13.125 5.83317C13.125 7.78847 11.5386 9.37484 9.58329 9.37484C7.628 9.37484 6.04163 7.78847 6.04163 5.83317C6.04163 3.87788 7.628 2.2915 9.58329 2.2915C11.5386 2.2915 13.125 3.87788 13.125 5.83317Z" fill="#F18100"/>
<path d="M8.33329 18.261C8.33329 18.261 7.18833 18.0751 6.66939 17.9165C4.43028 17.2322 2.91663 15.7721 2.91663 14.0406V13.5415C2.91663 12.5085 3.75864 11.6665 4.79163 11.6665H6.66939H8.33329C8.33329 11.6665 7.49996 13.3332 7.49996 14.9998C7.49996 16.6665 8.33329 18.261 8.33329 18.261Z" fill="#F18100"/>
<path d="M13.75 10C11.2196 10 9.16663 12.053 9.16663 14.5833C9.16663 17.1137 11.2196 19.1667 13.75 19.1667C16.2803 19.1667 18.3333 17.1137 18.3333 14.5833C18.3333 12.053 16.2803 10 13.75 10ZM16.6666 15H10.8333C10.6033 15 10.4166 14.8134 10.4166 14.5833C10.4166 14.3533 10.6033 14.1667 10.8333 14.1667H16.6666C16.8967 14.1667 17.0833 14.3533 17.0833 14.5833C17.0833 14.8134 16.8967 15 16.6666 15Z" fill="#F18100"/>
<path fill-rule="evenodd" clip-rule="evenodd" d="M9.58329 2.9165C7.97318 2.9165 6.66663 4.22305 6.66663 5.83317C6.66663 7.44329 7.97318 8.74984 9.58329 8.74984C11.1934 8.74984 12.5 7.44329 12.5 5.83317C12.5 4.22305 11.1934 2.9165 9.58329 2.9165ZM5.41663 5.83317C5.41663 3.5327 7.28282 1.6665 9.58329 1.6665C11.8838 1.6665 13.75 3.5327 13.75 5.83317C13.75 8.13364 11.8838 9.99984 9.58329 9.99984C7.28282 9.99984 5.41663 8.13364 5.41663 5.83317Z" fill="#F18100"/>
</svg>
