<svg width="16" height="16" viewBox="0 0 16 16" fill="none" xmlns="http://www.w3.org/2000/svg">
<path fill-rule="evenodd" clip-rule="evenodd" d="M4.16667 5.33325C3.52267 5.33325 3 5.85592 3 6.49992V12.4999C3 13.1439 3.52267 13.6666 4.16667 13.6666H11.8333C12.4773 13.6666 13 13.1439 13 12.4999V6.49992C13 5.85592 12.4773 5.33325 11.8333 5.33325H4.16667ZM2 6.49992C2 5.30364 2.97039 4.33325 4.16667 4.33325H11.8333C13.0296 4.33325 14 5.30364 14 6.49992V12.4999C14 13.6962 13.0296 14.6666 11.8333 14.6666H4.16667C2.97039 14.6666 2 13.6962 2 12.4999V6.49992Z" fill="#1C2024"/>
<path fill-rule="evenodd" clip-rule="evenodd" d="M13.5 10H2.5V9H13.5V10Z" fill="#1C2024"/>
<path fill-rule="evenodd" clip-rule="evenodd" d="M8.5 3V14.1667H7.5V3H8.5Z" fill="#1C2024"/>
<path fill-rule="evenodd" clip-rule="evenodd" d="M6.33073 2C5.68673 2 5.16406 2.52267 5.16406 3.16667C5.16406 3.81066 5.68673 4.33333 6.33073 4.33333V5.33333C5.13445 5.33333 4.16406 4.36295 4.16406 3.16667C4.16406 1.97039 5.13445 1 6.33073 1C7.52701 1 8.4974 1.97039 8.4974 3.16667H7.4974C7.4974 2.52267 6.97473 2 6.33073 2Z" fill="#1C2024"/>
<path fill-rule="evenodd" clip-rule="evenodd" d="M9.66667 2C9.02267 2 8.5 2.52267 8.5 3.16667H7.5C7.5 1.97039 8.47039 1 9.66667 1C10.8629 1 11.8333 1.97039 11.8333 3.16667C11.8333 4.36295 10.8629 5.33333 9.66667 5.33333V4.33333C10.3107 4.33333 10.8333 3.81066 10.8333 3.16667C10.8333 2.52267 10.3107 2 9.66667 2Z" fill="#1C2024"/>
</svg>
