<svg width="24" height="24" viewBox="0 0 24 24" fill="none" xmlns="http://www.w3.org/2000/svg">
<path fill-rule="evenodd" clip-rule="evenodd" d="M9.7689 3.2795C10.2716 3.15051 10.7315 3.07349 11.2683 3.02842C12.2329 2.94741 13.3011 3.04106 14.2567 3.29043C16.39 3.84713 18.2435 5.16778 19.4669 7.00281C20.3293 8.2964 20.8703 9.87065 20.9568 11.3381C20.9637 11.4542 20.9762 11.5448 20.9846 11.5396C20.9931 11.5343 21 11.7326 21 11.9801C21 12.2275 20.9931 12.4343 20.9847 12.4395C20.9763 12.4447 20.9638 12.5444 20.9569 12.6611C20.9293 13.1283 20.8384 13.6896 20.7052 14.2152C20.1533 16.3925 18.8187 18.269 16.9361 19.5147C14.3047 21.2559 10.9327 21.4824 8.09347 20.1086C7.15754 19.6557 6.36088 19.0902 5.63436 18.363C2.60037 15.3261 2.13244 10.5767 4.51512 7.00281C5.74793 5.15365 7.6113 3.83309 9.7689 3.2795ZM3.0134 12.2297C3.01031 12.3559 3.00779 12.2526 3.00779 12.0002C3.00779 11.7477 3.01031 11.6445 3.0134 11.7707C3.01649 11.8969 3.01649 12.1035 3.0134 12.2297ZM15.3616 14.2458C15.3616 13.0872 14.7322 12.2432 13.7738 11.8141V11.7998C14.5891 11.3563 15.0898 10.5553 15.0898 9.58256C15.0898 7.92323 13.7022 6.97913 11.9857 6.97913C10.5552 6.97913 9.46809 7.68005 8.99604 8.65276L10.3264 9.36799C10.6411 8.86733 11.1274 8.50971 11.9428 8.50971C12.7581 8.50971 13.4162 9.05329 13.4162 9.84004C13.4162 10.5267 13.0156 11.1418 11.9857 11.1418H11.0845V12.5436H11.8283C13.0585 12.5436 13.6736 13.2445 13.6736 14.017C13.6736 14.9039 12.9155 15.476 11.9857 15.476C10.9987 15.476 10.3693 15.0326 10.0689 14.3031L8.63843 14.9325C9.12478 16.134 10.3836 17.0209 12.1001 17.0209C13.974 17.0209 15.3616 15.9195 15.3616 14.2458Z" fill="black"/>
</svg>
