<svg width="20" height="20" viewBox="0 0 20 20" fill="none" xmlns="http://www.w3.org/2000/svg">
<path fill-rule="evenodd" clip-rule="evenodd" d="M6.875 2.91699C6.53007 2.91699 6.25 3.19707 6.25 3.54199V16.4587C6.25 16.8036 6.53007 17.0837 6.875 17.0837H13.125C13.4699 17.0837 13.75 16.8036 13.75 16.4587V3.54199C13.75 3.19707 13.4699 2.91699 13.125 2.91699H6.875ZM5 3.54199C5 2.50671 5.83972 1.66699 6.875 1.66699H13.125C14.1603 1.66699 15 2.50671 15 3.54199V16.4587C15 17.4939 14.1603 18.3337 13.125 18.3337H6.875C5.83972 18.3337 5 17.4939 5 16.4587V3.54199Z" fill="#1C2024"/>
<path d="M10.625 15.209C10.625 15.554 10.3451 15.834 10 15.834C9.65495 15.834 9.375 15.554 9.375 15.209C9.375 14.8639 9.65495 14.584 10 14.584C10.3451 14.584 10.625 14.8639 10.625 15.209Z" fill="#1C2024"/>
</svg>
