<svg width="24" height="24" viewBox="0 0 24 24" fill="none" xmlns="http://www.w3.org/2000/svg">
<path d="M12.1402 7.32111C11.2674 7.32111 9.91625 6.33306 8.49342 6.36878C6.61624 6.39258 4.89449 7.45204 3.92601 9.13053C1.97709 12.4994 3.42384 17.4754 5.32493 20.2133C6.25754 21.5466 7.35755 23.0465 8.81625 22.9989C10.2152 22.9394 10.7413 22.0942 12.4391 22.0942C14.125 22.0942 14.6032 22.9989 16.0859 22.9632C17.5924 22.9394 18.5489 21.6061 19.4696 20.2609C20.5337 18.7134 20.9761 17.2135 21 17.1301C20.9641 17.1182 18.0706 16.0112 18.0348 12.678C18.0109 9.8924 20.3185 8.55914 20.4261 8.49962C19.1109 6.58305 17.0902 6.36878 16.3848 6.32116C14.5435 6.17831 13.0011 7.32111 12.1402 7.32111ZM15.2489 4.51173C16.0261 3.5832 16.5402 2.28565 16.3967 1C15.2848 1.04762 13.9456 1.73806 13.1445 2.66659C12.4271 3.48797 11.8054 4.80933 11.9728 6.07117C13.2043 6.16641 14.4717 5.44025 15.2489 4.51173Z" fill="black"/>
</svg>
