<svg width="20" height="20" viewBox="0 0 20 20" fill="none" xmlns="http://www.w3.org/2000/svg">
<path fill-rule="evenodd" clip-rule="evenodd" d="M12.5 9.16663H15V10.8333H12.5V9.16663Z" fill="#77AA00"/>
<path d="M14.167 7.5V12.5L16.667 10L14.167 7.5Z" fill="#77AA00"/>
<path fill-rule="evenodd" clip-rule="evenodd" d="M19.1667 2.52039V17.4796L12.5 16.6521V14.1667H14.1667V15.1795L17.5 15.5933V4.40673L14.1667 4.8205V5.83335H12.5V3.34793L19.1667 2.52039Z" fill="#77AA00"/>
<path d="M10.0002 4.79171C10.0002 5.599 9.34912 6.25004 8.54183 6.25004C7.73454 6.25004 7.0835 5.599 7.0835 4.79171C7.0835 3.98442 7.73454 3.33337 8.54183 3.33337C9.34912 3.33337 10.0002 3.98442 10.0002 4.79171Z" fill="#77AA00"/>
<path fill-rule="evenodd" clip-rule="evenodd" d="M3.8229 7.56531L2.3292 8.25636L1.62939 6.74373L3.15438 6.0382L3.1692 6.03202C3.46991 5.90673 3.79985 5.83337 4.14076 5.83337C4.47105 5.83337 4.80142 5.89815 5.11231 6.02769L5.12253 6.03194L7.1853 6.95648C7.18521 6.95644 7.1854 6.95653 7.1853 6.95648C7.62464 7.15327 7.99351 7.47246 8.25599 7.86937L8.26039 7.87603L8.84944 8.78566C8.8493 8.78544 8.84958 8.78588 8.84944 8.78566C9.0049 9.02386 9.26845 9.16671 9.54874 9.16671H10.8335V10.8334H9.54874C8.70082 10.8334 7.91382 10.4029 7.45291 9.69532L7.45171 9.69348L6.86394 8.78589C6.77076 8.64609 6.64539 8.54084 6.5042 8.47763L4.46276 7.56265C4.35948 7.52091 4.25016 7.50004 4.14076 7.50004C4.04267 7.50004 3.9344 7.52059 3.8229 7.56531Z" fill="#77AA00"/>
<path d="M4.41857 13.7153L3.23367 12.7387C3.19895 12.7084 3.17725 12.6693 3.14686 12.6389L2.7953 13.0599C2.63471 13.2335 2.40902 13.3334 2.17464 13.3334H0.833496V15H2.17464C2.88211 15 3.55919 14.6962 4.04964 14.1537L4.41857 13.7153Z" fill="#77AA00"/>
<path d="M6.92291 12.5217L5.92464 11.5364L7.4177 8.78037L5.0045 7.4696L3.50277 10.243C3.38992 10.4731 3.3335 10.7292 3.3335 10.9809C3.33784 11.4236 3.51145 11.8403 3.82395 12.1528L5.8335 13.7891L4.85693 16.6667H6.61475L7.40902 14.3316C7.47846 14.1319 7.50884 13.9236 7.50016 13.7196C7.4828 13.2769 7.29617 12.8646 6.92291 12.5217Z" fill="#77AA00"/>
</svg>
