<svg width="20" height="20" viewBox="0 0 20 20" fill="none" xmlns="http://www.w3.org/2000/svg">
<g clip-path="url(#clip0_8796_34718)">
<path fill-rule="evenodd" clip-rule="evenodd" d="M9.1665 13.3334C9.1665 12.4131 9.91286 11.6667 10.8332 11.6667H17.4998C18.4201 11.6667 19.1665 12.4131 19.1665 13.3334V17.5001C19.1665 18.4204 18.4201 19.1667 17.4998 19.1667H10.8332C9.91286 19.1667 9.1665 18.4204 9.1665 17.5001V13.3334ZM17.4998 13.3334H10.8332V17.5001H17.4998V13.3334Z" fill="#1C2024"/>
<path fill-rule="evenodd" clip-rule="evenodd" d="M16.6667 15.8334H10V14.1667H16.6667V15.8334Z" fill="#1C2024"/>
<path d="M16.6665 4.16675V3.33341C16.6665 2.41328 15.92 1.66675 14.9998 1.66675H4.99984C4.0797 1.66675 3.33317 2.41328 3.33317 3.33341V4.16675L1.6665 7.50008V9.16675H3.33317V15.8334C3.33317 16.7536 4.0797 17.5001 4.99984 17.5001H7.49984V15.8334H4.99984V9.16675H14.9998V10.0001H16.6665V9.16675H18.3332V7.50008L16.6665 4.16675ZM4.99984 3.33341H14.9998V4.16675H4.99984V3.33341ZM3.52848 7.50008L4.36182 5.83342H15.6379L16.4712 7.50008H3.52848Z" fill="#1C2024"/>
</g>
<defs>
<clipPath id="clip0_8796_34718">
<rect width="20" height="20" fill="white"/>
</clipPath>
</defs>
</svg>
