<svg width="20" height="20" viewBox="0 0 20 20" fill="none" xmlns="http://www.w3.org/2000/svg">
<path fill-rule="evenodd" clip-rule="evenodd" d="M2.12278 11.9963C2.89953 11.0661 4.13494 10 5.76252 10C6.4335 10 6.84703 10.0913 7.25381 10.181C7.3163 10.1948 7.37863 10.2086 7.44171 10.2219C7.89129 10.3173 8.46686 10.4167 9.62971 10.4167H11.4591C12.4944 10.4167 13.3341 11.2564 13.3341 12.2917C13.3341 13.3269 12.4944 14.1667 11.4591 14.1667H8.54247C8.19729 14.1667 7.91747 13.8868 7.91747 13.5417C7.91747 13.1965 8.19729 12.9167 8.54247 12.9167H11.4591C11.8041 12.9167 12.0841 12.6366 12.0841 12.2917C12.0841 11.9467 11.8041 11.6667 11.4591 11.6667H9.62971C8.3772 11.6667 7.7147 11.5577 7.18229 11.4447C7.11042 11.4295 7.04283 11.4147 6.978 11.4004C6.58428 11.3141 6.29229 11.25 5.76252 11.25C4.7013 11.25 3.78502 11.9559 3.08228 12.7975C2.74092 13.2063 2.47472 13.6183 2.29359 13.9295C2.20343 14.0844 2.13539 14.2125 2.09058 14.3004C2.0682 14.3443 2.05169 14.3781 2.04118 14.3999C2.03593 14.4108 2.03218 14.4188 2.02996 14.4235L2.02789 14.428C1.88468 14.7419 1.51402 14.8807 1.20001 14.7376C0.885898 14.5945 0.747274 14.2238 0.890385 13.9097L1.43911 14.1597C0.890387 13.9097 0.890472 13.9095 0.890563 13.9093L0.891322 13.9077L0.892862 13.9043L0.897741 13.8938C0.901793 13.8852 0.907441 13.8732 0.914671 13.8582C0.929126 13.8281 0.949927 13.7857 0.976948 13.7327C1.03094 13.6268 1.11004 13.478 1.21327 13.3007C1.4189 12.9474 1.72439 12.4735 2.12278 11.9963Z" fill="#1C2024"/>
<path fill-rule="evenodd" clip-rule="evenodd" d="M17.3389 9.17389C17.8215 9.16999 18.2639 9.36268 18.617 9.71581C19.3323 10.4311 19.349 11.5787 18.6671 12.3141C18.6581 12.3245 18.6486 12.3346 18.6387 12.3445L18.6178 12.3654C18.6175 12.3657 18.6173 12.3659 18.617 12.3662C18.5899 12.3933 18.561 12.4173 18.5306 12.4384C17.583 13.2352 16.784 13.9203 16.1042 14.5032C15.198 15.2802 14.5035 15.8757 13.9512 16.312C12.9821 17.0775 12.2831 17.4993 11.4585 17.4993C10.613 17.4993 9.75986 17.3929 8.94464 17.2913L8.90394 17.2862C8.06255 17.1813 7.25758 17.0827 6.45848 17.0827C5.87068 17.0827 5.51901 17.3631 5.29181 17.666C5.17437 17.8226 5.09398 17.9825 5.04322 18.1043C5.01818 18.1644 5.00131 18.2129 4.99132 18.244C4.98635 18.2594 4.98316 18.2704 4.98156 18.276L4.98046 18.28C4.89503 18.6124 4.55708 18.8141 4.22356 18.7307C3.88869 18.647 3.68509 18.3076 3.76881 17.9727L4.37515 18.1243C3.76881 17.9727 3.76888 17.9725 3.76895 17.9722L3.76911 17.9716L3.76945 17.9702L3.77026 17.967L3.77242 17.9588C3.77409 17.9525 3.77624 17.9446 3.7789 17.9352C3.78423 17.9165 3.79161 17.8916 3.80129 17.8615C3.8206 17.8014 3.8493 17.7197 3.88937 17.6235C3.96882 17.4329 4.09676 17.1761 4.29181 16.916C4.68962 16.3856 5.37961 15.8327 6.45848 15.8327C7.34775 15.8327 8.22898 15.9424 9.05859 16.0458L9.06066 16.0461C9.90339 16.1511 10.6911 16.2493 11.4585 16.2493C11.8122 16.2493 12.2081 16.096 13.1764 15.3311C13.714 14.9064 14.3763 14.3383 15.258 13.5821C15.9446 12.9932 16.7642 12.2901 17.7618 11.4517C17.9769 11.2062 17.9674 10.8339 17.7331 10.5997C17.598 10.4645 17.4707 10.4229 17.3489 10.4238C17.2136 10.4249 17.0203 10.4808 16.7827 10.6584L16.7808 10.6598C16.4672 10.8923 15.4212 11.6727 14.4523 12.3961C13.9681 12.7575 13.5036 13.1044 13.1601 13.3609L12.5949 13.783L12.5944 13.7834C12.5944 13.7834 12.5942 13.7835 12.2202 13.2828C11.8462 12.782 11.8462 12.782 11.8462 12.782L12.4122 12.3593C12.7557 12.1028 13.2203 11.7559 13.7045 11.3944C14.6715 10.6725 15.7187 9.89118 16.0355 9.65632C16.4248 9.36558 16.8702 9.17767 17.3389 9.17389ZM12.2202 13.2828L11.8462 12.782C11.5697 12.9886 11.5129 13.3802 11.7195 13.6568C11.926 13.9333 12.3178 13.9899 12.5944 13.7834L12.2202 13.2828Z" fill="#1C2024"/>
<path d="M7.91797 7.91602C7.91797 8.06142 7.91797 8.54102 7.91797 8.54102H6.8763C6.4184 8.54102 6.04297 8.16558 6.04297 7.70768V6.66602C6.04297 6.66602 6.52257 6.66602 6.66797 6.66602C7.36024 6.66602 7.91797 7.22374 7.91797 7.91602Z" fill="#1C2024"/>
<path d="M13.959 6.66602V7.70768C13.959 8.16558 13.5836 8.54102 13.1257 8.54102H12.084C12.084 8.54102 12.084 8.06142 12.084 7.91602C12.084 7.22374 12.6417 6.66602 13.334 6.66602C13.4794 6.66602 13.959 6.66602 13.959 6.66602Z" fill="#1C2024"/>
<path d="M10.8346 6.24935C10.8346 6.70942 10.4614 7.08268 10.0013 7.08268C9.54123 7.08268 9.16797 6.70942 9.16797 6.24935C9.16797 5.78928 9.54123 5.41602 10.0013 5.41602C10.4614 5.41602 10.8346 5.78928 10.8346 6.24935Z" fill="#1C2024"/>
<path fill-rule="evenodd" clip-rule="evenodd" d="M6.04297 2.08301C6.38815 2.08301 6.66797 2.36283 6.66797 2.70801V7.70801C6.66797 7.8229 6.76141 7.91634 6.8763 7.91634H13.1263C13.2412 7.91634 13.3346 7.8229 13.3346 7.70801V2.70801C13.3346 2.36283 13.6145 2.08301 13.9596 2.08301C14.3048 2.08301 14.5846 2.36283 14.5846 2.70801V7.70801C14.5846 8.51326 13.9315 9.16634 13.1263 9.16634H6.8763C6.07105 9.16634 5.41797 8.51326 5.41797 7.70801V2.70801C5.41797 2.36283 5.69779 2.08301 6.04297 2.08301Z" fill="#1C2024"/>
<path fill-rule="evenodd" clip-rule="evenodd" d="M8.03716 2.09385C8.37642 2.03017 8.70305 2.25357 8.76673 2.59283C8.82625 2.90992 9.25274 3.33312 10.0014 3.33312C10.7501 3.33312 11.1766 2.90992 11.2361 2.59283C11.2998 2.25357 11.6264 2.03017 11.9657 2.09385C12.3049 2.15752 12.5283 2.48416 12.4646 2.82341C12.2594 3.91691 11.1408 4.58312 10.0014 4.58312C8.86207 4.58312 7.74342 3.91691 7.53818 2.82341C7.47451 2.48416 7.69791 2.15752 8.03716 2.09385Z" fill="#1C2024"/>
</svg>
