<svg width="24" height="24" viewBox="0 0 24 24" fill="none" xmlns="http://www.w3.org/2000/svg">
<path d="M20 4H4C2.89583 4 2 4.89583 2 6V14C2 15.1042 2.89583 16 4 16H11.0885C11.5313 13.3854 13.6563 11.3698 16.3125 11.0625C16.1146 10.7552 16 10.3906 16 10C16 8.89583 16.8958 8 18 8C19.1042 8 20 8.89583 20 10C20 10.5885 19.7396 11.1146 19.3333 11.4792C20.4219 11.9427 21.3542 12.7135 22 13.6875V6C22 4.89583 21.1042 4 20 4ZM6 12C4.89583 12 4 11.1042 4 10C4 8.89583 4.89583 8 6 8C7.10417 8 8 8.89583 8 10C8 11.1042 7.10417 12 6 12ZM12 12C10.8958 12 10 11.1042 10 10C10 8.89583 10.8958 8 12 8C13.1042 8 14 8.89583 14 10C14 11.1042 13.1042 12 12 12Z" fill="black"/>
<path fill-rule="evenodd" clip-rule="evenodd" d="M17 12C14.2396 12 12 14.2396 12 17C12 19.7604 14.2396 22 17 22C19.7604 22 22 19.7604 22 17C22 14.2396 19.7604 12 17 12ZM16.7083 19.4635L14.151 16.9063L15.2135 15.8437L16.7083 17.3437L19.3281 14.7292L20.3854 15.7865L16.7083 19.4635Z" fill="black"/>
</svg>
