<svg width="21" height="20" viewBox="0 0 21 20" fill="none" xmlns="http://www.w3.org/2000/svg">
<path d="M12.5833 13.1257C12.5833 12.7807 12.3032 12.5007 11.9583 12.5007H10.1289C8.87635 12.5007 8.21376 12.3918 7.68135 12.2789C7.17308 12.1711 6.87865 12.084 6.26167 12.084C5.20046 12.084 4.28415 12.7898 3.58141 13.6314C3.24009 14.0402 2.97396 14.4523 2.79284 14.7634C2.70268 14.9183 2.6346 15.0466 2.5898 15.1345C2.56743 15.1784 2.55066 15.212 2.54015 15.2338C2.53494 15.2446 2.5314 15.2526 2.52917 15.2574C2.52827 15.2593 2.52712 15.2606 2.52673 15.2615L2.52713 15.2619C2.38402 15.576 2.0132 15.7146 1.69909 15.5715C1.38509 15.4284 1.24649 15.0579 1.38944 14.7439L2.0535 15.0462C2.02368 15.0326 1.99198 15.018 1.95828 15.0027C1.42867 14.7614 1.39226 14.7448 1.38984 14.7435V14.7427C1.38999 14.7424 1.39047 14.7419 1.39066 14.7415C1.39105 14.7406 1.39132 14.7394 1.39188 14.7382C1.3931 14.7355 1.39474 14.7319 1.39676 14.7276C1.40081 14.719 1.40666 14.7072 1.41385 14.6922C1.42831 14.6622 1.44909 14.6195 1.47611 14.5665C1.5301 14.4606 1.60935 14.312 1.71252 14.1348C1.91815 13.7815 2.22355 13.3074 2.62194 12.8302C3.3987 11.9 4.63412 10.834 6.26167 10.834C7.03573 10.834 7.46726 10.9552 7.94095 11.0557C8.39052 11.1511 8.96605 11.2507 10.1289 11.2507H11.9583C12.9936 11.2507 13.8333 12.0904 13.8333 13.1257C13.8333 14.1609 12.9936 15.0007 11.9583 15.0007H9.04162C8.69644 15.0007 8.41662 14.7208 8.41662 14.3757C8.41662 14.0305 8.69644 13.7507 9.04162 13.7507H11.9583C12.3032 13.7507 12.5833 13.4706 12.5833 13.1257Z" fill="#1C2024"/>
<path d="M17.8388 10.0079C18.3214 10.004 18.7638 10.1968 19.1169 10.5499C19.8354 11.2683 19.8484 12.4227 19.1572 13.1577C19.1509 13.1645 19.1451 13.1718 19.1385 13.1784L19.1169 13.2004C19.0926 13.2248 19.0659 13.2456 19.0388 13.2651C16.8232 15.1279 15.4188 16.3816 14.451 17.1461C13.4819 17.9117 12.7829 18.3335 11.9583 18.3335C11.0987 18.3335 10.2313 18.2234 9.40378 18.1203C8.56238 18.0154 7.75741 17.9168 6.95831 17.9168C6.3706 17.9168 6.01892 18.197 5.79172 18.4999C5.67428 18.6565 5.59386 18.8167 5.54311 18.9385C5.5181 18.9986 5.501 19.0471 5.49102 19.0781C5.48611 19.0934 5.48286 19.1042 5.48126 19.1098L5.48085 19.1102L5.48126 19.1107L5.48085 19.1111V19.1119L5.48004 19.1143L5.46254 19.1713C5.355 19.4692 5.03709 19.6432 4.7232 19.5648C4.38843 19.481 4.18499 19.1415 4.26869 18.8067L4.67315 18.9076C4.27908 18.809 4.26889 18.8066 4.26869 18.8063L4.2691 18.8055V18.8043C4.26934 18.8033 4.26961 18.8022 4.26991 18.801C4.27051 18.7987 4.27152 18.796 4.27235 18.7929C4.27402 18.7866 4.2762 18.7787 4.27886 18.7693C4.28418 18.7505 4.29158 18.7257 4.30124 18.6956C4.32055 18.6355 4.34907 18.5537 4.38913 18.4576C4.46858 18.2669 4.5965 18.0101 4.79156 17.75C5.18936 17.2196 5.87944 16.6668 6.95831 16.6668C7.84757 16.6668 8.7288 16.7766 9.5584 16.88C10.4019 16.9852 11.1903 17.0835 11.9583 17.0835C12.312 17.0835 12.708 16.93 13.6762 16.1651C14.6319 15.4101 15.9813 14.2023 18.2571 12.2894C18.4761 12.0439 18.4687 11.6693 18.2331 11.4337C18.098 11.2985 17.9704 11.2569 17.8486 11.2579C17.7133 11.259 17.52 11.3148 17.2826 11.4922L17.2806 11.4939C16.9669 11.7264 15.9212 12.5068 14.9523 13.2301C14.4681 13.5915 14.0034 13.9384 13.66 14.1949C13.4882 14.3231 13.3467 14.4289 13.2482 14.5025C13.199 14.5392 13.1605 14.568 13.1343 14.5875C13.1211 14.5973 13.1109 14.6049 13.1041 14.6099C13.1009 14.6123 13.0985 14.6144 13.0968 14.6156C13.096 14.6163 13.0952 14.6169 13.0948 14.6172H13.0944L13.094 14.6177C12.8174 14.8241 12.4257 14.7672 12.2191 14.4907C12.0127 14.2142 12.0696 13.8224 12.3461 13.6159L12.3465 13.6155C12.3469 13.6151 12.3477 13.6148 12.3485 13.6142C12.3502 13.613 12.3529 13.611 12.3563 13.6085C12.363 13.6035 12.3729 13.5959 12.386 13.5862C12.4122 13.5666 12.451 13.5375 12.5003 13.5007C12.5988 13.4271 12.7404 13.3217 12.9121 13.1935C13.2556 12.937 13.7201 12.5898 14.2044 12.2283C15.1723 11.5058 16.2206 10.7237 16.5364 10.4896V10.49C16.9255 10.1997 17.3705 10.0117 17.8388 10.0079Z" fill="#1C2024"/>
<path d="M8.77247 1.47119C8.4287 1.50142 8.17433 1.80451 8.20443 2.14827L8.39893 4.3614C8.42914 4.70526 8.73257 4.95965 9.07642 4.92944L11.2891 4.73494L11.3526 4.72599C11.6638 4.66654 11.8855 4.37983 11.8572 4.05745C11.8288 3.73518 11.5606 3.49174 11.244 3.48738L11.1801 3.48982L9.58993 3.62898L9.44996 2.03922C9.41974 1.69537 9.11632 1.44097 8.77247 1.47119Z" fill="#1C2024"/>
<path d="M16.3134 5.41732C16.3134 3.23186 14.5405 1.45898 12.355 1.45898C10.7913 1.45898 9.44033 2.36526 8.79789 3.67822L8.73767 3.8064L8.71489 3.86621C8.61585 4.16716 8.759 4.49993 9.05465 4.63159C9.35026 4.76319 9.69312 4.64688 9.85055 4.37199L9.87984 4.31502L9.92053 4.22713C10.3606 3.32767 11.2861 2.70898 12.355 2.70898C13.8501 2.70898 15.0634 3.92222 15.0634 5.41732C15.0634 6.91242 13.8501 8.12565 12.355 8.12565C11.1788 8.12565 10.1756 7.37406 9.80294 6.32389L9.77852 6.26489C9.64301 5.97864 9.30993 5.83578 9.00501 5.94385C8.6797 6.05928 8.50953 6.41688 8.62496 6.74219L8.67867 6.8846C9.26082 8.34295 10.687 9.37565 12.355 9.37565C14.5405 9.37565 16.3134 7.60277 16.3134 5.41732Z" fill="#1C2024"/>
</svg>
