<svg width="24" height="24" viewBox="0 0 24 24" fill="none" xmlns="http://www.w3.org/2000/svg">
<path d="M12 2C6.48698 2 2 6.48698 2 12C2 17.513 6.48698 22 12 22C17.513 22 22 17.513 22 12C22 6.48698 17.513 2 12 2ZM16.25 12.75H12.75V16.25C12.75 16.6641 12.4141 17 12 17C11.5859 17 11.25 16.6641 11.25 16.25V12.75H7.75C7.33594 12.75 7 12.4141 7 12C7 11.5859 7.33594 11.25 7.75 11.25H11.25V7.75C11.25 7.33594 11.5859 7 12 7C12.4141 7 12.75 7.33594 12.75 7.75V11.25H16.25C16.6641 11.25 17 11.5859 17 12C17 12.4141 16.6641 12.75 16.25 12.75Z" fill="#46A758"/>
</svg>
