<svg width="24" height="24" viewBox="0 0 24 24" fill="none" xmlns="http://www.w3.org/2000/svg">
<path fill-rule="evenodd" clip-rule="evenodd" d="M12 4C8.13562 4 5 7.13562 5 11C5 13.3185 5.70021 15.6829 6.42848 17.5036C6.78958 18.4064 7.15072 19.1586 7.42054 19.6833C7.55529 19.9453 7.66683 20.1497 7.7436 20.2868C7.78197 20.3553 7.81162 20.407 7.8311 20.4405L7.85248 20.4771L7.8571 20.4848L7.85768 20.4858C7.85759 20.4857 7.85749 20.4855 7 21C6.14251 21.5145 6.14238 21.5143 6.14225 21.5141L6.14193 21.5135L6.14107 21.5121L6.13855 21.5079L6.1303 21.494L6.10152 21.4448C6.07705 21.4026 6.04224 21.342 5.99859 21.264C5.9113 21.1081 5.78846 20.8828 5.64196 20.598C5.34928 20.0289 4.96042 19.2186 4.57152 18.2464C3.79979 16.3171 3 13.6815 3 11C3 6.03105 7.03105 2 12 2C16.969 2 21 6.03105 21 11H19C19 7.13562 15.8644 4 12 4Z" fill="black"/>
<path fill-rule="evenodd" clip-rule="evenodd" d="M12 8C10.344 8 9 9.34395 9 11C9 13.6412 10.3161 15.6519 11.7071 17.0429C12.3999 17.7357 13.0954 18.2576 13.6172 18.6054C13.8773 18.7788 14.0919 18.9075 14.2383 18.9911C14.3115 19.0329 14.3674 19.0634 14.4032 19.0825C14.4211 19.092 14.434 19.0987 14.4414 19.1026L14.4478 19.1059C14.4475 19.1057 14.4472 19.1056 14 20C13.5528 20.8944 13.5524 20.8942 13.552 20.894L13.5511 20.8936L13.5489 20.8925L13.5428 20.8894L13.5241 20.8798C13.5089 20.872 13.4881 20.8611 13.462 20.8472C13.41 20.8194 13.337 20.7796 13.246 20.7276C13.0643 20.6238 12.8102 20.4712 12.5078 20.2696C11.9046 19.8674 11.1001 19.2643 10.2929 18.4571C8.6839 16.8481 7 14.3588 7 11C7 8.23938 9.23938 6 12 6C14.7606 6 17 8.23938 17 11H15C15 9.34395 13.656 8 12 8Z" fill="black"/>
<path fill-rule="evenodd" clip-rule="evenodd" d="M13.1116 15.7709C11.558 13.9348 11 11.6931 11 10H13C13 11.3069 13.442 13.0652 14.6384 14.4791C15.805 15.8578 17.7645 17 21 17V19C17.2355 19 14.695 17.6422 13.1116 15.7709Z" fill="black"/>
<path fill-rule="evenodd" clip-rule="evenodd" d="M18 14C16.3435 14 15 12.6565 15 11H17C17 11.5519 17.4481 12 18 12C18.5519 12 19 11.5519 19 11H21C21 12.6565 19.6565 14 18 14Z" fill="black"/>
</svg>
