<svg width="120" height="120" viewBox="0 0 120 120" fill="none" xmlns="http://www.w3.org/2000/svg">
<path d="M108.581 88.2292L69.87 18.3203C67.8518 14.6745 64.1669 12.5 60.0002 12.5C55.8335 12.5 52.1486 14.6745 50.1304 18.3203L11.4195 88.2292C9.46635 91.7708 9.51843 95.9635 11.5757 99.4401C13.62 102.917 17.2658 105 21.3023 105H98.7112C102.735 105 106.38 102.917 108.425 99.4401C110.482 95.9635 110.534 91.7708 108.581 88.2292ZM56.2502 43.75C56.2502 41.6797 57.9299 40 60.0002 40C62.0705 40 63.7502 41.6797 63.7502 43.75V68.75C63.7502 70.8203 62.0705 72.5 60.0002 72.5C57.9299 72.5 56.2502 70.8203 56.2502 68.75V43.75ZM60.0002 90C57.2398 90 55.0002 87.7604 55.0002 85C55.0002 82.2396 57.2398 80 60.0002 80C62.7606 80 65.0002 82.2396 65.0002 85C65.0002 87.7604 62.7606 90 60.0002 90Z" fill="#F18100"/>
</svg>
