<svg width="12" height="12" viewBox="0 0 12 12" fill="none" xmlns="http://www.w3.org/2000/svg">
<path d="M6.00245 11.0014C3.24102 11.0014 1.00244 8.76289 1.00244 6.00144C1.00244 3.24004 3.24102 1.00146 6.00245 1.00146C8.76385 1.00146 11.0025 3.24004 11.0025 6.00144C11.0025 8.76289 8.76385 11.0014 6.00245 11.0014ZM4.25244 7.00144V8.00144H5.50245V9.00144H6.50245V8.00144H7.00245C7.6928 8.00144 8.25245 7.44184 8.25245 6.75144C8.25245 6.06109 7.6928 5.50144 7.00245 5.50144H5.00245C4.86437 5.50144 4.75244 5.38954 4.75244 5.25144C4.75244 5.11339 4.86437 5.00144 5.00245 5.00144H7.75245V4.00147H6.50245V3.00146H5.50245V4.00147H5.00245C4.31209 4.00147 3.75244 4.56111 3.75244 5.25144C3.75244 5.94184 4.31209 6.50144 5.00245 6.50144H7.00245C7.1405 6.50144 7.25245 6.61339 7.25245 6.75144C7.25245 6.88954 7.1405 7.00144 7.00245 7.00144H4.25244Z" fill="#FCFCFD"/>
</svg>
