<svg width="24" height="24" viewBox="0 0 24 24" fill="none" xmlns="http://www.w3.org/2000/svg">
<path d="M18.25 3H5.75C4.23437 3 3 4.23437 3 5.75V18.25C3 19.7656 4.23437 21 5.75 21H18.25C19.7656 21 21 19.7656 21 18.25V5.75C21 4.23437 19.7656 3 18.25 3ZM12.75 16.75C12.75 17.1641 12.4141 17.5 12 17.5C11.5859 17.5 11.25 17.1641 11.25 16.75V11.25C11.25 10.8359 11.5859 10.5 12 10.5C12.4141 10.5 12.75 10.8359 12.75 11.25V16.75ZM12 9C11.4479 9 11 8.55208 11 8C11 7.44792 11.4479 7 12 7C12.5521 7 13 7.44792 13 8C13 8.55208 12.5521 9 12 9Z" fill="#1C2024"/>
</svg>
