<svg width="20" height="20" viewBox="0 0 20 20" fill="none" xmlns="http://www.w3.org/2000/svg">
<path d="M3.75 13.125C3.75 12.7798 3.47018 12.5 3.125 12.5C2.77982 12.5 2.5 12.7798 2.5 13.125V15.2083C2.5 16.4736 3.52635 17.5 4.79167 17.5H15.2083C16.4736 17.5 17.5 16.4736 17.5 15.2083V13.125C17.5 12.7798 17.2202 12.5 16.875 12.5C16.5298 12.5 16.25 12.7798 16.25 13.125V15.2083C16.25 15.7833 15.7833 16.25 15.2083 16.25H4.79167C4.21671 16.25 3.75 15.7833 3.75 15.2083V13.125Z" fill="#1C2024"/>
<path fill-rule="evenodd" clip-rule="evenodd" d="M1.66675 9.79169C1.66675 9.44651 1.94657 9.16669 2.29175 9.16669H17.7084C18.0536 9.16669 18.3334 9.44651 18.3334 9.79169C18.3334 10.1369 18.0536 10.4167 17.7084 10.4167H2.29175C1.94657 10.4167 1.66675 10.1369 1.66675 9.79169Z" fill="#1C2024"/>
<path d="M3.75 4.79167C3.75 4.21671 4.21671 3.75 4.79167 3.75H15.2083C15.7833 3.75 16.25 4.21671 16.25 4.79167V6.875C16.25 7.22018 16.5298 7.5 16.875 7.5C17.2202 7.5 17.5 7.22018 17.5 6.875V4.79167C17.5 3.52635 16.4736 2.5 15.2083 2.5H4.79167C3.52635 2.5 2.5 3.52635 2.5 4.79167V6.875C2.5 7.22018 2.77982 7.5 3.125 7.5C3.47018 7.5 3.75 7.22018 3.75 6.875V4.79167Z" fill="#1C2024"/>
</svg>
