<svg width="24" height="24" viewBox="0 0 24 24" fill="none" xmlns="http://www.w3.org/2000/svg">
<path d="M3.90579 5.9633L6.2614 3.51195L4.8085 2L1 5.9633L4.8085 9.92661L6.2614 8.41466L3.90579 5.9633ZM10.2462 5.9633L7.89056 3.51195L9.34346 2L13.152 5.9633L9.34346 9.92661L7.89056 8.41466L10.2462 5.9633ZM14.7812 2.75597H21.9726C22.54 2.75597 23 3.23463 23 3.82508V20.9309C23 21.5213 22.54 22 21.9726 22H3.48025C2.91286 22 2.45289 21.5213 2.45289 20.9309V12.378H4.5076V19.8618H20.9453V4.89419H14.7812V2.75597Z" fill="black"/>
</svg>
