<svg width="20" height="20" viewBox="0 0 20 20" fill="none" xmlns="http://www.w3.org/2000/svg">
<path d="M12.7087 12.9167C13.7572 12.9167 14.641 13.6217 14.9132 14.5833H17.7087C18.0538 14.5833 18.3337 14.8632 18.3337 15.2083C18.3337 15.5535 18.0538 15.8333 17.7087 15.8333H14.9132C14.641 16.7949 13.7572 17.5 12.7087 17.5C11.6601 17.5 10.7763 16.7949 10.5041 15.8333H2.29199C1.94681 15.8333 1.66699 15.5535 1.66699 15.2083C1.66699 14.8632 1.94681 14.5833 2.29199 14.5833H10.5041C10.7763 13.6217 11.6601 12.9167 12.7087 12.9167ZM12.7087 14.1667C12.1337 14.1667 11.667 14.6334 11.667 15.2083C11.667 15.7833 12.1337 16.25 12.7087 16.25C13.2836 16.25 13.7503 15.7833 13.7503 15.2083C13.7503 14.6334 13.2836 14.1667 12.7087 14.1667ZM6.45866 7.70833C7.50725 7.70833 8.39102 8.4134 8.66325 9.375H17.7087C18.0538 9.375 18.3337 9.65482 18.3337 10C18.3337 10.3452 18.0538 10.625 17.7087 10.625H8.66325C8.39102 11.5866 7.50725 12.2917 6.45866 12.2917C5.41007 12.2917 4.5263 11.5866 4.25407 10.625H2.29199C1.94681 10.625 1.66699 10.3452 1.66699 10C1.66699 9.65482 1.94681 9.375 2.29199 9.375H4.25407C4.5263 8.4134 5.41007 7.70833 6.45866 7.70833ZM6.45866 8.95833C5.8837 8.95833 5.41699 9.42504 5.41699 10C5.41699 10.575 5.8837 11.0417 6.45866 11.0417C7.03362 11.0417 7.50033 10.575 7.50033 10C7.50033 9.42504 7.03362 8.95833 6.45866 8.95833ZM13.542 2.5C14.5906 2.5 15.4744 3.20506 15.7466 4.16667H17.7087C18.0538 4.16667 18.3337 4.44649 18.3337 4.79167C18.3337 5.13684 18.0538 5.41667 17.7087 5.41667H15.7466C15.4744 6.37827 14.5906 7.08333 13.542 7.08333C12.4934 7.08333 11.6096 6.37827 11.3374 5.41667H2.29199C1.94681 5.41667 1.66699 5.13684 1.66699 4.79167C1.66699 4.44649 1.94681 4.16667 2.29199 4.16667H11.3374C11.6096 3.20506 12.4934 2.5 13.542 2.5ZM13.542 3.75C12.967 3.75 12.5003 4.21671 12.5003 4.79167C12.5003 5.36663 12.967 5.83333 13.542 5.83333C14.117 5.83333 14.5837 5.36663 14.5837 4.79167C14.5837 4.21671 14.117 3.75 13.542 3.75Z" fill="#7E808A"/>
</svg>
