<svg width="20" height="20" viewBox="0 0 20 20" fill="none" xmlns="http://www.w3.org/2000/svg">
<path d="M10 10.25C11.7917 10.25 13.25 8.79167 13.25 7C13.25 5.20833 11.7917 3.75 10 3.75C8.20833 3.75 6.75 5.20833 6.75 7C6.75 8.79167 8.20833 10.25 10 10.25ZM10 5.75C10.6875 5.75 11.25 6.3125 11.25 7C11.25 7.6875 10.6875 8.25 10 8.25C9.3125 8.25 8.75 7.6875 8.75 7C8.75 6.3125 9.3125 5.75 10 5.75Z" fill="black"/>
<path d="M10 0C4.47917 0 0 4.47917 0 10C0 15.5208 4.47917 20 10 20C15.5208 20 20 15.5208 20 10C20 4.47917 15.5208 0 10 0ZM10 18C5.58333 18 2 14.4167 2 10C2 5.58333 5.58333 2 10 2C14.4167 2 18 5.58333 18 10C18 14.4167 14.4167 18 10 18Z" fill="black"/>
<path d="M4.44784 15.7552C5.22908 15.1719 6.89575 14 9.99992 14C13.1041 14 14.7708 15.1719 15.552 15.7552C15.7395 15.5729 15.927 15.3802 16.0989 15.1771L16.7812 14.375L15.9478 13.7344C14.3958 12.5365 11.5364 12 9.99992 12C8.46346 12 5.60408 12.5365 4.052 13.7344L3.22388 14.375L3.90096 15.1771C4.07284 15.3802 4.26033 15.5729 4.44784 15.7552Z" fill="black"/>
</svg>
