<svg width="20" height="20" viewBox="0 0 20 20" fill="none" xmlns="http://www.w3.org/2000/svg">
<path d="M9.16667 10.832C11.9281 10.832 14.1667 8.59345 14.1667 5.83203C14.1667 3.07061 11.9281 0.832031 9.16667 0.832031C6.40524 0.832031 4.16667 3.07061 4.16667 5.83203C4.16667 8.59345 6.40524 10.832 9.16667 10.832ZM9.16667 11.6654C9.23692 11.6654 9.30692 11.6664 9.37667 11.6686C8.719 12.6129 8.33333 13.7608 8.33333 14.9987C8.33333 16.238 8.71983 17.3872 9.37892 18.332H2.5C2.5 14.6501 5.48477 11.6654 9.16667 11.6654Z" fill="#1C2024"/>
<path d="M19.1667 18.8312L17.6649 17.3338C18.0816 16.6654 18.3333 15.832 18.3333 14.9987C18.3333 12.6636 16.5017 10.832 14.1667 10.832C11.8316 10.832 10 12.6636 10 14.9987C10 17.3338 11.8316 19.1654 14.1667 19.1654C15 19.1654 15.8333 18.9136 16.5017 18.497L17.9991 19.9987L19.1667 18.8312ZM14.1667 17.4987C12.7517 17.4987 11.6667 16.4136 11.6667 14.9987C11.6667 13.5838 12.7517 12.4987 14.1667 12.4987C15.5816 12.4987 16.6667 13.5838 16.6667 14.9987C16.6667 16.4136 15.5816 17.4987 14.1667 17.4987Z" fill="#1C2024"/>
</svg>
