<svg width="20" height="20" viewBox="0 0 20 20" fill="none" xmlns="http://www.w3.org/2000/svg">
<path d="M16.4577 2.91699H3.54102C2.50803 2.91699 1.66602 3.75901 1.66602 4.79199V14.3753C1.66602 15.4083 2.50803 16.2503 3.54102 16.2503H9.4286C9.29839 15.851 9.21593 15.4344 9.18772 15.0003H3.54102C3.19596 15.0003 2.91602 14.7204 2.91602 14.3753V4.79199C2.91602 4.44694 3.19596 4.16699 3.54102 4.16699H16.4577C16.8027 4.16699 17.0827 4.44694 17.0827 4.79199V9.77897C17.5406 10.0177 17.9616 10.3215 18.3327 10.6796V4.79199C18.3327 3.75901 17.4907 2.91699 16.4577 2.91699Z" fill="#1C2024"/>
<path fill-rule="evenodd" clip-rule="evenodd" d="M10.416 8.125C10.416 7.77982 10.6958 7.5 11.041 7.5H14.791C15.1362 7.5 15.416 7.77982 15.416 8.125C15.416 8.47018 15.1362 8.75 14.791 8.75H11.041C10.6958 8.75 10.416 8.47018 10.416 8.125Z" fill="#1C2024"/>
<path d="M7.91602 7.91699C7.91602 8.6071 7.35612 9.16699 6.66602 9.16699C5.97591 9.16699 5.41602 8.6071 5.41602 7.91699C5.41602 7.22689 5.97591 6.66699 6.66602 6.66699C7.35612 6.66699 7.91602 7.22689 7.91602 7.91699Z" fill="#1C2024"/>
<path d="M8.1237 10H5.20703C4.86198 10 4.58203 10.2799 4.58203 10.625C4.58203 11.25 4.58203 12.5 6.62413 12.5H6.7066C8.7487 12.5 8.7487 11.25 8.7487 10.625C8.7487 10.2799 8.46875 10 8.1237 10Z" fill="#1C2024"/>
<path fill-rule="evenodd" clip-rule="evenodd" d="M14.582 11.459C12.8569 11.459 11.457 12.8589 11.457 14.584C11.457 16.3091 12.8569 17.709 14.582 17.709C16.3072 17.709 17.707 16.3091 17.707 14.584C17.707 12.8589 16.3072 11.459 14.582 11.459ZM10.207 14.584C10.207 12.1685 12.1665 10.209 14.582 10.209C16.9975 10.209 18.957 12.1685 18.957 14.584C18.957 16.9995 16.9975 18.959 14.582 18.959C12.1665 18.959 10.207 16.9995 10.207 14.584Z" fill="#1C2024"/>
<path fill-rule="evenodd" clip-rule="evenodd" d="M16.6549 13.0004C16.899 13.2445 16.899 13.6402 16.6549 13.8843L14.3723 16.1669C14.1282 16.411 13.7325 16.411 13.4884 16.1669L12.3471 15.0256C12.103 14.7816 12.103 14.3858 12.3471 14.1417C12.5912 13.8977 12.9869 13.8977 13.231 14.1417L13.9304 14.8411L15.771 13.0004C16.0151 12.7564 16.4108 12.7564 16.6549 13.0004Z" fill="#1C2024"/>
</svg>
