<svg width="20" height="20" viewBox="0 0 20 20" fill="none" xmlns="http://www.w3.org/2000/svg">
<path d="M2.70898 17.0833C2.36393 17.0833 2.08398 16.8034 2.08398 16.4583V5.625C2.08398 5.27995 2.36393 5 2.70898 5H10.209C10.554 5 10.834 5.27995 10.834 5.625V6.44531C11.1573 6.32161 11.5089 6.25 11.8757 6.25C11.9451 6.25 12.0145 6.25434 12.084 6.26085V5.625C12.084 4.59201 11.242 3.75 10.209 3.75H2.70898C1.676 3.75 0.833984 4.59201 0.833984 5.625V16.4583C0.833984 17.4913 1.676 18.3333 2.70898 18.3333H7.4247C7.09484 17.9905 6.85612 17.5608 6.74327 17.0833H2.70898Z" fill="#1C2024"/>
<path fill-rule="evenodd" clip-rule="evenodd" d="M9.38802 11.2627C9.03588 11.2627 8.75 11.5478 8.75 11.9007V16.445C8.75 16.7971 9.03511 17.083 9.38802 17.083H17.2786C17.6308 17.083 17.9167 16.7979 17.9167 16.445V11.9007C17.9167 11.5471 17.6323 11.2627 17.2786 11.2627H9.38802ZM7.5 11.9007C7.5 10.8561 8.34693 10.0127 9.38802 10.0127H17.2786C18.3226 10.0127 19.1667 10.8568 19.1667 11.9007V16.445C19.1667 17.4896 18.3197 18.333 17.2786 18.333H9.38802C8.34336 18.333 7.5 17.4861 7.5 16.445V11.9007Z" fill="#1C2024"/>
<path fill-rule="evenodd" clip-rule="evenodd" d="M18.5417 14.7979H8.125V13.5479H18.5417V14.7979Z" fill="#1C2024"/>
<path fill-rule="evenodd" clip-rule="evenodd" d="M13.9453 9.16602V17.7077H12.6953V9.16602H13.9453Z" fill="#1C2024"/>
<path fill-rule="evenodd" clip-rule="evenodd" d="M11.8763 8.33301C11.4164 8.33301 11.043 8.7064 11.043 9.16634C11.043 9.62628 11.4164 9.99967 11.8763 9.99967V11.2497C10.726 11.2497 9.79297 10.3166 9.79297 9.16634C9.79297 8.01604 10.726 7.08301 11.8763 7.08301C13.0266 7.08301 13.9596 8.01604 13.9596 9.16634H12.7096C12.7096 8.7064 12.3362 8.33301 11.8763 8.33301Z" fill="#1C2024"/>
<path fill-rule="evenodd" clip-rule="evenodd" d="M14.7923 8.33301C14.3324 8.33301 13.959 8.7064 13.959 9.16634H12.709C12.709 8.01604 13.642 7.08301 14.7923 7.08301C15.9426 7.08301 16.8757 8.01604 16.8757 9.16634C16.8757 10.3166 15.9426 11.2497 14.7923 11.2497V9.99967C15.2523 9.99967 15.6257 9.62628 15.6257 9.16634C15.6257 8.7064 15.2523 8.33301 14.7923 8.33301Z" fill="#1C2024"/>
<path fill-rule="evenodd" clip-rule="evenodd" d="M6.45898 0.833008C6.80416 0.833008 7.08398 1.11283 7.08398 1.45801V4.37467C7.08398 4.71985 6.80416 4.99967 6.45898 4.99967C6.11381 4.99967 5.83398 4.71985 5.83398 4.37467V1.45801C5.83398 1.11283 6.11381 0.833008 6.45898 0.833008Z" fill="#1C2024"/>
<path fill-rule="evenodd" clip-rule="evenodd" d="M3.93306 1.84907C4.17714 1.605 4.57286 1.605 4.81694 1.84907L6.90028 3.93241C7.14435 4.17648 7.14435 4.57221 6.90028 4.81629C6.6562 5.06037 6.26047 5.06037 6.01639 4.81629L3.93306 2.73296C3.68898 2.48888 3.68898 2.09315 3.93306 1.84907Z" fill="#1C2024"/>
<path fill-rule="evenodd" clip-rule="evenodd" d="M8.98426 1.84907C9.22834 2.09315 9.22834 2.48888 8.98426 2.73296L6.90093 4.81629C6.65685 5.06037 6.26112 5.06037 6.01704 4.81629C5.77296 4.57221 5.77296 4.17648 6.01704 3.93241L8.10038 1.84907C8.34445 1.605 8.74018 1.605 8.98426 1.84907Z" fill="#1C2024"/>
</svg>
