<svg width="20" height="20" viewBox="0 0 20 20" fill="none" xmlns="http://www.w3.org/2000/svg">
<g id="icon/usersearchlookmatchaccount">
<path id="Vector" d="M9.16667 10.8333C11.9281 10.8333 14.1667 8.59476 14.1667 5.83334C14.1667 3.07192 11.9281 0.833344 9.16667 0.833344C6.40524 0.833344 4.16667 3.07192 4.16667 5.83334C4.16667 8.59476 6.40524 10.8333 9.16667 10.8333ZM9.16667 11.6667C9.23692 11.6667 9.30692 11.6678 9.37667 11.6699C8.719 12.6142 8.33333 13.7621 8.33333 15C8.33333 16.2393 8.71983 17.3885 9.37892 18.3333H2.5C2.5 14.6514 5.48477 11.6667 9.16667 11.6667Z" fill="#1C2024"/>
<path id="Vector_2" d="M19.1667 18.8325L17.6649 17.3351C18.0816 16.6667 18.3333 15.8333 18.3333 15C18.3333 12.6649 16.5017 10.8333 14.1667 10.8333C11.8316 10.8333 10 12.6649 10 15C10 17.3351 11.8316 19.1667 14.1667 19.1667C15 19.1667 15.8333 18.9149 16.5017 18.4983L17.9991 20L19.1667 18.8325ZM14.1667 17.5C12.7517 17.5 11.6667 16.4149 11.6667 15C11.6667 13.5851 12.7517 12.5 14.1667 12.5C15.5816 12.5 16.6667 13.5851 16.6667 15C16.6667 16.4149 15.5816 17.5 14.1667 17.5Z" fill="#1C2024"/>
</g>
</svg>
