<svg width="24" height="24" viewBox="0 0 24 24" fill="none" xmlns="http://www.w3.org/2000/svg">
<path fill-rule="evenodd" clip-rule="evenodd" d="M1.26569 10.2628C1.1883 10.295 1.12166 10.3512 1.07432 10.4242C1.02698 10.4972 1.0011 10.5837 1 10.6726C1 10.851 1.11033 11.0197 1.26569 11.0824L5.60897 12.7795L6.9239 19.7029V19.7126C6.9694 19.9719 7.0844 20.2114 7.25488 20.402C7.40847 20.5611 7.59984 20.6722 7.80821 20.7232C8.01659 20.7742 8.23403 20.7632 8.43695 20.6913C8.55921 20.637 8.67871 20.5758 8.79495 20.5081C8.98953 20.3912 9.18171 20.2699 9.37136 20.1441C9.81267 19.8548 10.3711 19.4691 10.9137 19.093C11.5692 18.6368 12.2222 18.1764 12.8726 17.7117L13.0369 17.596L17.3262 20.9179C17.3811 20.9595 17.4445 20.9863 17.5112 20.996C17.5778 21.0056 17.6457 20.9979 17.7089 20.9733C17.835 20.9251 17.9341 20.8046 17.9656 20.6648L21.9892 2.53906C22.006 2.46163 22.0032 2.38079 21.981 2.30493C21.9588 2.22906 21.9181 2.16091 21.8631 2.10755C21.8066 2.05566 21.7382 2.02092 21.665 2.00693C21.5917 1.99294 21.5163 2.00021 21.4466 2.028L1.26569 10.2628ZM8.75285 18.6832C8.35873 18.6842 7.50269 12.4155 7.50269 12.4155L16.9591 7.42542C17.0145 7.39873 17.0773 7.39255 17.1367 7.40794C17.196 7.42334 17.2483 7.45934 17.2846 7.50979C17.3183 7.56241 17.333 7.6254 17.3261 7.6879C17.3192 7.75039 17.2912 7.80847 17.2469 7.8521L10.1422 14.3657C10.1422 14.3657 9.05899 18.6824 8.75285 18.6832Z" fill="black"/>
</svg>
