<svg width="28" height="28" viewBox="0 0 28 28" fill="none" xmlns="http://www.w3.org/2000/svg">
<path fill-rule="evenodd" clip-rule="evenodd" d="M6.9165 14C6.9165 13.5398 7.2896 13.1667 7.74984 13.1667H20.2498C20.7101 13.1667 21.0832 13.5398 21.0832 14C21.0832 14.4602 20.7101 14.8333 20.2498 14.8333H7.74984C7.2896 14.8333 6.9165 14.4602 6.9165 14Z" fill="#1C2024"/>
<path d="M12.3008 26.8896C12.8565 26.9621 13.4236 27 14 27V28C13.3804 28 12.7702 27.9589 12.1719 27.8809L12.3008 26.8896ZM15.8271 27.8809C15.2291 27.9588 14.6193 28 14 28V27C14.5764 27 15.1435 26.9621 15.6992 26.8896L15.8271 27.8809ZM6.08594 24.3145C6.98081 25.0021 7.96809 25.5756 9.02441 26.0137L8.64062 26.9365C7.50221 26.4644 6.44008 25.8461 5.47656 25.1055L5.78125 24.7109L6.08594 24.3145ZM22.5225 25.1055C21.5589 25.846 20.4969 26.4644 19.3584 26.9365L18.9756 26.0137C20.0319 25.5756 21.0192 25.0021 21.9141 24.3145L22.5225 25.1055ZM1.98633 18.9756C2.42437 20.0319 2.99788 21.0192 3.68555 21.9141L2.89355 22.5225C2.15307 21.5589 1.53454 20.4968 1.0625 19.3584L1.98633 18.9756ZM26.9365 19.3584C26.4644 20.4969 25.846 21.5589 25.1055 22.5225L24.3145 21.9141C25.0021 21.0192 25.5756 20.0319 26.0137 18.9756L26.9365 19.3584ZM0 14C0 13.3959 0.0380739 12.8007 0.112305 12.2168L0.118164 12.1719L1.11035 12.3008C1.03787 12.8565 1 13.4236 1 14C1 14.5764 1.03787 15.1435 1.11035 15.6992L0.614258 15.7637L0.118164 15.8271C0.0402187 15.2291 0 14.6193 0 14ZM27.8809 12.1719C27.9589 12.7702 28 13.3804 28 14C28 14.6193 27.9588 15.2291 27.8809 15.8271L27.3857 15.7637L26.8896 15.6992C26.9621 15.1435 27 14.5764 27 14C27 13.4236 26.9621 12.8565 26.8896 12.3008L27.8809 12.1719ZM3.68555 6.08594C2.99788 6.98081 2.42437 7.96809 1.98633 9.02441L1.0625 8.64062C1.5346 7.50226 2.15304 6.44005 2.89355 5.47656L3.68555 6.08594ZM25.1055 5.47656C25.8461 6.44008 26.4644 7.50221 26.9365 8.64062L26.0137 9.02441C25.5756 7.96809 25.0021 6.98081 24.3145 6.08594L25.1055 5.47656ZM9.02441 1.98633C7.96809 2.42437 6.98081 2.99788 6.08594 3.68555L5.47656 2.89355C6.44005 2.15304 7.50226 1.5346 8.64062 1.0625L9.02441 1.98633ZM19.3584 1.0625C20.4968 1.53454 21.5589 2.15307 22.5225 2.89355L21.9141 3.68555C21.0192 2.99788 20.0319 2.42437 18.9756 1.98633L19.3584 1.0625ZM14 0C14.6193 0 15.2291 0.0402187 15.8271 0.118164L15.6992 1.11035C15.1435 1.03787 14.5764 1 14 1C13.4236 1 12.8565 1.03787 12.3008 1.11035L12.1719 0.118164C12.7702 0.0401366 13.3804 0 14 0Z" fill="#DDDDE3"/>
</svg>
