<svg width="24" height="24" viewBox="0 0 24 24" fill="none" xmlns="http://www.w3.org/2000/svg">
<path d="M15.9999 1C14.8645 1 13.7708 1.52708 13.0416 2.39219C12.3853 3.18281 11.9895 4.58646 11.9895 5.70938C13.1614 5.70938 14.4114 5.05052 15.1093 4.16823C15.7551 3.3375 15.9999 2.32917 15.9999 1Z" fill="black"/>
<path d="M18.7865 13.1C18.7865 11.4099 19.651 9.95469 20.9115 9.21562C19.8229 6.96979 17.8958 5.96146 16.4687 5.96146C14.9323 5.96146 13.6458 7.11302 12.375 7.11302C11.099 7.11302 9.8125 5.96146 8.27604 5.96146C6.18229 5.96719 3 8.12708 3 13.2203C3 17.8552 6.76563 23 8.89063 23C8.90104 23 8.91146 23 8.92187 23C10.1927 23 10.6354 22.0948 12.375 22.0833C14.1146 22.0948 14.5573 23 15.8229 23C15.8333 23 15.8438 23 15.8542 23C17.3958 23 19.7969 20.2901 21 17.0359C19.6927 16.3198 18.7865 14.8359 18.7865 13.1ZM15.8125 20.8C15.6615 20.8 15.5469 20.7542 15.1719 20.5766C14.5938 20.3016 13.724 19.8891 12.3646 19.8833C11.0208 19.8891 10.151 20.3016 9.57292 20.5766C9.21354 20.7427 9.09896 20.7943 8.93229 20.8C7.94271 20.5365 5 16.8812 5 13.2203C5 9.39896 7.20833 8.16719 8.27604 8.16146C8.70833 8.16146 9.23958 8.39062 9.79687 8.63125C10.5469 8.94635 11.3958 9.31302 12.375 9.31302C13.3542 9.31302 14.2031 8.94635 14.9479 8.63125C15.5104 8.39062 16.0365 8.16146 16.4687 8.16146C16.8906 8.16146 17.5365 8.37917 18.1458 8.91771C17.2813 10.075 16.7865 11.5474 16.7865 13.1C16.7865 14.8589 17.4063 16.4917 18.4792 17.7005C17.4896 19.551 16.2604 20.674 15.8125 20.8Z" fill="black"/>
</svg>
