<svg width="24" height="24" viewBox="0 0 24 24" fill="none" xmlns="http://www.w3.org/2000/svg">
<path fill-rule="evenodd" clip-rule="evenodd" d="M11.2728 3.02466C10.0794 3.12581 8.99842 3.42911 7.95536 3.95545C5.3005 5.29512 3.48288 7.84176 3.0818 10.7837C2.8371 12.5786 3.14488 14.4245 3.95828 16.0404C5.49267 19.0885 8.58902 21 11.992 21C13.4073 21 14.7665 20.6774 16.0286 20.042C17.6167 19.2425 18.9355 17.9873 19.817 16.4364C20.4612 15.303 20.8826 13.9106 20.9573 12.6689C20.964 12.5572 20.9764 12.4616 20.9849 12.4563C20.9933 12.4511 21.0001 12.2346 21 11.9753C20.9998 11.716 20.993 11.5145 20.9847 11.5275C20.9759 11.5414 20.9647 11.4635 20.9575 11.3384C20.8865 10.1001 20.4632 8.69816 19.817 7.5613C19.0837 6.27121 18.0272 5.16378 16.7838 4.38206C15.6838 3.69047 14.474 3.24945 13.2057 3.07767C12.6282 2.99945 11.8288 2.97753 11.2728 3.02466ZM11.643 4.51172C10.6172 4.55595 9.63833 4.80674 8.70913 5.26338C8.33443 5.44753 8.17733 5.53765 7.83849 5.76282C7.21174 6.17932 6.59957 6.74315 6.12039 7.34527C5.93537 7.57774 5.63177 8.0254 5.4924 8.27122C4.89689 9.32156 4.56211 10.4815 4.51581 11.6549C4.4639 12.9705 4.70665 14.1475 5.26464 15.2857C5.44245 15.6484 5.53606 15.8132 5.74433 16.1304C6.28538 16.9543 7.04253 17.7124 7.86546 18.2541C9.01519 19.0109 10.3192 19.4345 11.6523 19.4842C12.9822 19.5337 14.1343 19.2949 15.2792 18.7322C16.0938 18.3319 16.7059 17.8868 17.3505 17.226C17.9494 16.6122 18.341 16.0574 18.7172 15.29C19.2792 14.1438 19.5178 12.9902 19.4683 11.6587C19.4303 10.6385 19.179 9.64962 18.7194 8.71203C18.5416 8.34933 18.4479 8.1845 18.2397 7.86734C17.6986 7.04341 16.9415 6.28535 16.1185 5.74365C15.8018 5.53513 15.6371 5.44141 15.2749 5.26338C14.3664 4.81695 13.3523 4.55262 12.4182 4.51877C12.2678 4.51332 12.1044 4.50639 12.0549 4.50335C12.0055 4.50032 11.8201 4.50408 11.643 4.51172ZM9.36684 11.9989V15.7433H10.122H10.8772V11.9989V8.25439H10.122H9.36684V11.9989ZM13.1068 11.9989V15.7433H13.862H14.6172V11.9989V8.25439H13.862H13.1068V11.9989ZM3.00957 11.9989C3.00957 12.2612 3.01209 12.3686 3.01515 12.2374C3.01822 12.1062 3.01822 11.8915 3.01515 11.7603C3.01209 11.6291 3.00957 11.7365 3.00957 11.9989Z" fill="black"/>
</svg>
