<svg width="24" height="24" viewBox="0 0 24 24" fill="none" xmlns="http://www.w3.org/2000/svg">
<g clip-path="url(#clip0_3135_30387)">
<path d="M7 8H17V10H7V8Z" fill="#1C2024"/>
<path d="M18 4C17.2865 4 14.7135 4 14 4V6C14.7708 6 17.2292 6 18 6C19.6562 6 21 7.34375 21 9C21 10.6563 19.6562 12 18 12C17.2292 12 14.7708 12 14 12V14C14.7135 14 17.2865 14 18 14C20.7604 14 23 11.7604 23 9C23 6.23958 20.7604 4 18 4Z" fill="#1C2024"/>
<path d="M6 14C6.71354 14 9.28646 14 10 14V12C9.22917 12 6.77083 12 6 12C4.34375 12 3 10.6563 3 9C3 7.34375 4.34375 6 6 6C6.77083 6 9.22917 6 10 6V4C9.28646 4 6.71354 4 6 4C3.23958 4 1 6.23958 1 9C1 11.7604 3.23958 14 6 14Z" fill="#1C2024"/>
<path d="M19 16H21V24H19V16Z" fill="#1C2024"/>
<path d="M16 19H24V21H16V19Z" fill="#1C2024"/>
</g>
<defs>
<clipPath id="clip0_3135_30387">
<rect width="24" height="24" fill="white"/>
</clipPath>
</defs>
</svg>
