<svg width="18" height="18" viewBox="0 0 18 18" fill="none" xmlns="http://www.w3.org/2000/svg">
<g id="surface5437">
<path id="Vector (Stroke)" fill-rule="evenodd" clip-rule="evenodd" d="M9 7.33341C8.12346 7.33341 7.38338 8.06414 7.38338 9.00008C7.38338 9.93602 8.12346 10.6667 9 10.6667C9.87653 10.6667 10.6166 9.93602 10.6166 9.00008C10.6166 8.06414 9.87653 7.33341 9 7.33341ZM5.71671 9.00008C5.71671 7.1756 7.17138 5.66675 9 5.66675C10.8286 5.66675 12.2833 7.1756 12.2833 9.00008C12.2833 10.8246 10.8286 12.3334 9 12.3334C7.17138 12.3334 5.71671 10.8246 5.71671 9.00008Z" fill="#AAEE11"/>
<path id="Vector (Stroke)_2" fill-rule="evenodd" clip-rule="evenodd" d="M15.2865 6.58136L14.0108 7.72562L14.0759 8.14386C14.1258 8.45952 14.1487 8.73967 14.1487 9.00008C14.1487 9.2605 14.1258 9.54064 14.0759 9.8563L14.0108 10.2745L15.2865 11.4188L14.1756 13.3995L12.5781 12.8314L12.2601 13.0997C11.8387 13.4587 11.3522 13.7468 10.8158 13.9559L10.4328 14.1058L10.111 15.8183H7.88904L7.56724 14.1058L7.18415 13.9559C6.64782 13.7468 6.1613 13.4587 5.73607 13.0997L5.42194 12.8353L3.82445 13.3995L2.71349 11.4188L3.98918 10.2745L3.92405 9.86025C3.87425 9.54064 3.85126 9.2605 3.85126 9.00008C3.85126 8.73967 3.87425 8.45952 3.92405 8.14386L3.98918 7.72562L2.71349 6.58136L3.82445 4.60062L5.42194 5.1688L5.73607 4.90049C6.1613 4.54143 6.64782 4.2534 7.18415 4.04427L7.56724 3.89434L7.88904 2.1819H10.111L10.4328 3.89434L10.8158 4.04427C11.3522 4.2534 11.8387 4.54143 12.2639 4.90049L12.5781 5.16485L14.1756 4.60062L15.2865 6.58136ZM12.8603 3.46342L14.8437 2.76287L17.1665 6.90424L15.5836 8.32404C15.6076 8.5548 15.6198 8.77911 15.6198 9.00008C15.6198 9.22105 15.6076 9.44536 15.5836 9.67613L17.1665 11.0959L14.8424 15.2397L12.8608 14.5349C12.5063 14.7973 12.1255 15.0219 11.724 15.2079L11.3246 17.3334H6.67539L6.27598 15.2079C5.87448 15.022 5.49422 14.7978 5.13975 14.5367L3.15632 15.2373L0.833496 11.0959L2.41628 9.67621C2.39245 9.44528 2.3802 9.22121 2.3802 9.00008C2.3802 8.77911 2.39243 8.5548 2.41637 8.32404L0.833496 6.90424L3.15764 2.76051L5.13786 3.46481C5.49286 3.20317 5.87377 2.97852 6.27598 2.79224L6.67539 0.666748H11.3246L11.724 2.79224C12.1255 2.97819 12.5058 3.20238 12.8603 3.46342Z" fill="#AAEE11"/>
</g>
</svg>
