<svg width="16" height="16" viewBox="0 0 16 16" fill="none" xmlns="http://www.w3.org/2000/svg">
<path d="M3.639 12.3622C1.23101 9.95247 1.23101 6.04796 3.639 3.63997C6.04872 1.23199 9.95323 1.23199 12.3612 3.63997L3.639 12.3622Z" fill="#F18100"/>
<path d="M8.66602 7.83398C8.66602 8.11003 8.44206 8.33398 8.16602 8.33398C7.88997 8.33398 7.66602 8.11003 7.66602 7.83398C7.66602 7.55794 7.88997 7.33398 8.16602 7.33398C8.44206 7.33398 8.66602 7.55794 8.66602 7.83398Z" fill="#F18100"/>
<path d="M10 6.5C10 6.77604 9.77604 7 9.5 7C9.22396 7 9 6.77604 9 6.5C9 6.22396 9.22396 6 9.5 6C9.77604 6 10 6.22396 10 6.5Z" fill="#F18100"/>
<path d="M11.333 5.16797C11.333 5.44401 11.109 5.66797 10.833 5.66797C10.557 5.66797 10.333 5.44401 10.333 5.16797C10.333 4.89193 10.557 4.66797 10.833 4.66797C11.109 4.66797 11.333 4.89193 11.333 5.16797Z" fill="#F18100"/>
<path d="M11.333 7.83398C11.333 8.11003 11.109 8.33398 10.833 8.33398C10.557 8.33398 10.333 8.11003 10.333 7.83398C10.333 7.55794 10.557 7.33398 10.833 7.33398C11.109 7.33398 11.333 7.55794 11.333 7.83398Z" fill="#F18100"/>
<path d="M12.666 6.5C12.666 6.77604 12.4421 7 12.166 7C11.89 7 11.666 6.77604 11.666 6.5C11.666 6.22396 11.89 6 12.166 6C12.4421 6 12.666 6.22396 12.666 6.5Z" fill="#F18100"/>
<path d="M14 7.83398C14 8.11003 13.776 8.33398 13.5 8.33398C13.224 8.33398 13 8.11003 13 7.83398C13 7.55794 13.224 7.33398 13.5 7.33398C13.776 7.33398 14 7.55794 14 7.83398Z" fill="#F18100"/>
<path d="M6 10.5C6 10.776 5.77604 11 5.5 11C5.22396 11 5 10.776 5 10.5C5 10.224 5.22396 10 5.5 10C5.77604 10 6 10.224 6 10.5Z" fill="#F18100"/>
<path d="M7.33301 9.16797C7.33301 9.44401 7.10905 9.66797 6.83301 9.66797C6.55697 9.66797 6.33301 9.44401 6.33301 9.16797C6.33301 8.89193 6.55697 8.66797 6.83301 8.66797C7.10905 8.66797 7.33301 8.89193 7.33301 9.16797Z" fill="#F18100"/>
<path d="M8.66602 10.5C8.66602 10.776 8.44206 11 8.16602 11C7.88997 11 7.66602 10.776 7.66602 10.5C7.66602 10.224 7.88997 10 8.16602 10C8.44206 10 8.66602 10.224 8.66602 10.5Z" fill="#F18100"/>
<path d="M10 9.16797C10 9.44401 9.77604 9.66797 9.5 9.66797C9.22396 9.66797 9 9.44401 9 9.16797C9 8.89193 9.22396 8.66797 9.5 8.66797C9.77604 8.66797 10 8.89193 10 9.16797Z" fill="#F18100"/>
<path d="M11.333 10.5C11.333 10.776 11.109 11 10.833 11C10.557 11 10.333 10.776 10.333 10.5C10.333 10.224 10.557 10 10.833 10C11.109 10 11.333 10.224 11.333 10.5Z" fill="#F18100"/>
<path d="M12.666 9.16797C12.666 9.44401 12.4421 9.66797 12.166 9.66797C11.89 9.66797 11.666 9.44401 11.666 9.16797C11.666 8.89193 11.89 8.66797 12.166 8.66797C12.4421 8.66797 12.666 8.89193 12.666 9.16797Z" fill="#F18100"/>
<path d="M12.666 3.83398C12.666 4.11003 12.4421 4.33398 12.166 4.33398C11.89 4.33398 11.666 4.11003 11.666 3.83398C11.666 3.55794 11.89 3.33398 12.166 3.33398C12.4421 3.33398 12.666 3.55794 12.666 3.83398Z" fill="#F18100"/>
<path d="M14 10.5C14 10.776 13.776 11 13.5 11C13.224 11 13 10.776 13 10.5C13 10.224 13.224 10 13.5 10C13.776 10 14 10.224 14 10.5Z" fill="#F18100"/>
<path d="M4.66602 11.834C4.66602 12.11 4.44206 12.334 4.16602 12.334C3.88997 12.334 3.66602 12.11 3.66602 11.834C3.66602 11.5579 3.88997 11.334 4.16602 11.334C4.44206 11.334 4.66602 11.5579 4.66602 11.834Z" fill="#F18100"/>
<path d="M6 13.168C6 13.444 5.77604 13.668 5.5 13.668C5.22396 13.668 5 13.444 5 13.168C5 12.8919 5.22396 12.668 5.5 12.668C5.77604 12.668 6 12.8919 6 13.168Z" fill="#F18100"/>
<path d="M7.33301 11.834C7.33301 12.11 7.10905 12.334 6.83301 12.334C6.55697 12.334 6.33301 12.11 6.33301 11.834C6.33301 11.5579 6.55697 11.334 6.83301 11.334C7.10905 11.334 7.33301 11.5579 7.33301 11.834Z" fill="#F18100"/>
<path d="M8.66602 13.168C8.66602 13.444 8.44206 13.668 8.16602 13.668C7.88997 13.668 7.66602 13.444 7.66602 13.168C7.66602 12.8919 7.88997 12.668 8.16602 12.668C8.44206 12.668 8.66602 12.8919 8.66602 13.168Z" fill="#F18100"/>
<path d="M10 11.834C10 12.11 9.77604 12.334 9.5 12.334C9.22396 12.334 9 12.11 9 11.834C9 11.5579 9.22396 11.334 9.5 11.334C9.77604 11.334 10 11.5579 10 11.834Z" fill="#F18100"/>
<path d="M11.333 13.168C11.333 13.444 11.109 13.668 10.833 13.668C10.557 13.668 10.333 13.444 10.333 13.168C10.333 12.8919 10.557 12.668 10.833 12.668C11.109 12.668 11.333 12.8919 11.333 13.168Z" fill="#F18100"/>
<path d="M12.666 11.834C12.666 12.11 12.4421 12.334 12.166 12.334C11.89 12.334 11.666 12.11 11.666 11.834C11.666 11.5579 11.89 11.334 12.166 11.334C12.4421 11.334 12.666 11.5579 12.666 11.834Z" fill="#F18100"/>
<path fill-rule="evenodd" clip-rule="evenodd" d="M7.99967 2.33398C4.86957 2.33398 2.33301 4.87054 2.33301 8.00065C2.33301 11.1308 4.86957 13.6673 7.99967 13.6673C11.1298 13.6673 13.6663 11.1308 13.6663 8.00065C13.6663 4.87054 11.1298 2.33398 7.99967 2.33398ZM1.33301 8.00065C1.33301 4.31826 4.31728 1.33398 7.99967 1.33398C11.6821 1.33398 14.6663 4.31826 14.6663 8.00065C14.6663 11.683 11.6821 14.6673 7.99967 14.6673C4.31728 14.6673 1.33301 11.683 1.33301 8.00065Z" fill="#F18100"/>
</svg>
