<svg width="24" height="24" viewBox="0 0 24 24" fill="none" xmlns="http://www.w3.org/2000/svg">
<path fill-rule="evenodd" clip-rule="evenodd" d="M12.8177 3H16C17.1042 3 18 3.89583 18 5V7H16V5H14V6C14 6.55208 13.5521 7 13 7H9H7C6.44792 7 6 6.55208 6 6V5H4V17H7V19H4C2.89583 19 2 18.1042 2 17V5C2 3.89583 2.89583 3 4 3H7.18229C7.59896 1.83854 8.69792 1 10 1C11.3021 1 12.401 1.83854 12.8177 3ZM10.4711 4.88223L10 5L9.52894 4.88223C9.21421 4.71376 9 4.38179 9 4C9 3.44792 9.44792 3 10 3C10.5521 3 11 3.44792 11 4C11 4.38179 10.7858 4.71376 10.4711 4.88223Z" fill="black"/>
<path d="M16 9H11C9.90104 9 9 9.90104 9 11V21C9 22.099 9.90104 23 11 23H19C20.099 23 21 22.099 21 21V14L16 9ZM19 21H11V11H15L19 15V21Z" fill="black"/>
<path d="M20 15H15V10L20 15Z" fill="black"/>
</svg>
