<svg width="20" height="20" viewBox="0 0 20 20" fill="none" xmlns="http://www.w3.org/2000/svg">
<path fill-rule="evenodd" clip-rule="evenodd" d="M5 5.41667C5 3.11619 6.86619 1.25 9.16667 1.25C11.4671 1.25 13.3333 3.11619 13.3333 5.41667C13.3333 7.71714 11.4671 9.58333 9.16667 9.58333C6.86619 9.58333 5 7.71714 5 5.41667Z" fill="#F76808"/>
<path d="M12.5087 11.25H4.15799C3.24436 11.25 2.5 11.9944 2.5 12.908V13.5417C2.5 14.9219 3.28559 16.1155 4.71137 16.901C5.90302 17.559 7.20567 17.762 8.54207 17.8435C9.28667 16.5775 11.0611 13.6694 12.5087 11.25Z" fill="#F76808"/>
<path fill-rule="evenodd" clip-rule="evenodd" d="M19.4917 17.4051C19.9817 18.2893 19.3431 19.3764 18.3314 19.3764H11.1201C10.108 19.3764 9.33035 18.4435 9.9579 17.4062L13.7532 10.8334C14.2216 10.0911 15.1435 10.0954 15.5892 10.8335L19.4917 17.4051ZM14.7253 12.8103C15.0705 12.8103 15.3503 13.0902 15.3503 13.4353L15.3503 15.6189C15.3503 15.9641 15.0705 16.2439 14.7253 16.2439C14.3801 16.2439 14.1003 15.9641 14.1003 15.6189L14.1003 13.4353C14.1003 13.0902 14.3802 12.8103 14.7253 12.8103ZM15.3505 17.462C15.3505 17.8071 15.0706 18.087 14.7255 18.087C14.3805 18.087 14.1005 17.8071 14.1005 17.462C14.1005 17.117 14.3805 16.837 14.7255 16.837C15.0706 16.837 15.3505 17.117 15.3505 17.462Z" fill="#F76808"/>
</svg>
