<svg width="24" height="24" viewBox="0 0 24 24" fill="none" xmlns="http://www.w3.org/2000/svg">
<path d="M12.2119 8.11084L15.9475 11.7913C15.839 9.80597 14.2269 8.21774 12.2119 8.11084Z" fill="black"/>
<path d="M17.425 16.0114C16.0455 17.0498 14.2527 17.8643 12 17.8643C6.64724 17.8643 3.89854 13.3796 3.18036 12.0052C3.70737 11.0125 5.34006 8.34508 8.25409 6.97574L6.77124 5.51477C2.97886 7.59169 1.2635 11.3943 1.1705 11.6132L1 12.0001L1.1705 12.3869C1.29967 12.6873 4.48754 19.8191 12 19.8191C14.9088 19.8191 17.1667 18.745 18.8511 17.4164L17.425 16.0114Z" fill="black"/>
<path d="M22.8295 11.6132C22.7003 11.3128 19.5124 4.18103 12 4.18103C10.7961 4.18103 9.72147 4.37956 8.73462 4.68499L10.3673 6.29359C10.884 6.19687 11.4213 6.13578 12 6.13578C17.3527 6.13578 20.1014 10.6205 20.8196 11.9949C20.5251 12.5498 19.8896 13.6137 18.8873 14.6878L20.3029 16.0826C21.9718 14.306 22.7675 12.5345 22.8295 12.3869L23 12L22.8295 11.6132Z" fill="black"/>
<path d="M8.03198 12.0001C8.03198 14.1584 9.80934 15.9096 12 15.9096C13.4416 15.9096 14.6919 15.1409 15.3894 14.0057L13.8962 12.5397C13.6586 13.3541 12.9042 13.9548 12 13.9548C10.9047 13.9548 10.016 13.0793 10.016 12.0001C10.016 11.1092 10.6257 10.366 11.4524 10.1319L9.96434 8.66071C8.81216 9.34792 8.03198 10.5798 8.03198 12.0001Z" fill="black"/>
<path d="M2.86523 4.38462L4.27059 3L21.1348 19.6154L19.7295 21L2.86523 4.38462Z" fill="black"/>
</svg>
