<svg width="20" height="20" viewBox="0 0 20 20" fill="none" xmlns="http://www.w3.org/2000/svg">
<path fill-rule="evenodd" clip-rule="evenodd" d="M4.37435 4.58301C3.56935 4.58301 2.91602 5.23635 2.91602 6.04134V13.958C2.91602 14.763 3.56935 15.4163 4.37435 15.4163H15.6243C16.4293 15.4163 17.0827 14.763 17.0827 13.958V6.04134C17.0827 5.23635 16.4293 4.58301 15.6243 4.58301H4.37435ZM1.66602 6.04134C1.66602 4.54599 2.879 3.33301 4.37435 3.33301H15.6243C17.1197 3.33301 18.3327 4.54599 18.3327 6.04134V13.958C18.3327 15.4534 17.1197 16.6663 15.6243 16.6663H4.37435C2.879 16.6663 1.66602 15.4534 1.66602 13.958V6.04134Z" fill="#1C2024"/>
<path fill-rule="evenodd" clip-rule="evenodd" d="M9.70247 11.5915L1.99414 7.42483L2.58854 6.3252L9.99967 10.3312L17.4108 6.3252L18.0052 7.42483L10.2969 11.5915C10.1114 11.6917 9.88793 11.6917 9.70247 11.5915Z" fill="#1C2024"/>
</svg>
