<svg width="20" height="20" viewBox="0 0 20 20" fill="none" xmlns="http://www.w3.org/2000/svg">
<path fill-rule="evenodd" clip-rule="evenodd" d="M7.70866 2.5C6.09854 2.5 4.79199 3.80655 4.79199 5.41667C4.79199 7.02678 6.09854 8.33333 7.70866 8.33333C9.31878 8.33333 10.6253 7.02678 10.6253 5.41667C10.6253 3.80655 9.31878 2.5 7.70866 2.5ZM3.54199 5.41667C3.54199 3.11619 5.40819 1.25 7.70866 1.25C10.0091 1.25 11.8753 3.11619 11.8753 5.41667C11.8753 7.71714 10.0091 9.58333 7.70866 9.58333C5.40819 9.58333 3.54199 7.71714 3.54199 5.41667Z" fill="#1C2024"/>
<path d="M19.61 18.5156L17.5484 16.4562C17.913 15.9223 18.1257 15.2778 18.1257 14.5833C18.1257 12.7452 16.6304 11.25 14.7923 11.25C12.9542 11.25 11.459 12.7452 11.459 14.5833C11.459 16.4214 12.9542 17.9167 14.7923 17.9167C15.4868 17.9167 16.1313 17.704 16.6651 17.3394L18.7246 19.401C18.8483 19.5226 19.0067 19.5833 19.1673 19.5833C19.3279 19.5833 19.4863 19.5226 19.61 19.401C19.8531 19.1558 19.8531 18.7609 19.61 18.5156ZM12.709 14.5833C12.709 13.4353 13.6443 12.5 14.7923 12.5C15.9403 12.5 16.8757 13.4353 16.8757 14.5833C16.8757 15.7313 15.9403 16.6667 14.7923 16.6667C13.6443 16.6667 12.709 15.7313 12.709 14.5833Z" fill="#1C2024"/>
<path d="M10.864 15.9635C9.96994 16.4366 8.81977 16.6667 7.70866 16.6667C5.4018 16.6667 2.91699 15.6879 2.91699 13.5417V12.908C2.91699 12.6866 3.05588 12.5 3.21864 12.5H11.1896C11.4695 12.0161 11.8449 11.5951 12.2898 11.2587C12.2594 11.2587 12.2312 11.25 12.1987 11.25H3.21864C2.36361 11.25 1.66699 11.9944 1.66699 12.908V13.5417C1.66699 14.9089 2.37446 16.0959 3.65701 16.8859C4.73557 17.5499 6.17437 17.9167 7.70866 17.9167C9.01291 17.9167 10.3606 17.6389 11.4521 17.0638C11.2048 16.7318 11.0051 16.3607 10.864 15.9635Z" fill="#1C2024"/>
</svg>
