<svg width="24" height="24" viewBox="0 0 24 24" fill="none" xmlns="http://www.w3.org/2000/svg">
<path d="M16 3H8C5.24479 3 3 5.24479 3 8V16C3 18.7552 5.24479 21 8 21H16C18.7552 21 21 18.7552 21 16V8C21 5.24479 18.7552 3 16 3ZM19 16C19 17.6563 17.6563 19 16 19H8C6.34375 19 5 17.6563 5 16V8C5 6.34375 6.34375 5 8 5H16C17.6563 5 19 6.34375 19 8V16Z" fill="black"/>
<path d="M12 7C9.24479 7 7 9.24479 7 12C7 14.7552 9.24479 17 12 17C14.7552 17 17 14.7552 17 12C17 9.24479 14.7552 7 12 7ZM12 15C10.3437 15 9 13.6563 9 12C9 10.3437 10.3437 9 12 9C13.6563 9 15 10.3437 15 12C15 13.6563 13.6563 15 12 15Z" fill="black"/>
<path d="M18 7C18 7.55208 17.5521 8 17 8C16.4479 8 16 7.55208 16 7C16 6.44792 16.4479 6 17 6C17.5521 6 18 6.44792 18 7Z" fill="black"/>
</svg>
