<svg width="25" height="24" viewBox="0 0 25 24" fill="none" xmlns="http://www.w3.org/2000/svg">
<path d="M5 8.37891L8.62109 12L5 15.6211V19.5H8.87891L12.5 15.8789L16.1211 19.5H20V15.6211L16.3789 12L20 8.37891V4.5H16.1211L12.5 8.12109L8.87891 4.5H5V8.37891ZM21.5 9L18.5 12L21.5 15V20.8691L21.4893 20.9199C21.4694 20.9669 21.4234 21 21.3691 21H15.5L12.5 18L9.5 21H3.63086C3.57658 21 3.53059 20.9669 3.51074 20.9199L3.5 20.8691V15L6.5 12L3.5 9V3.13086C3.50005 3.05848 3.55848 3.00005 3.63086 3H9.5L12.5 6L15.5 3H21.3691C21.4415 3.00005 21.5 3.05848 21.5 3.13086V9Z" fill="#77AA00"/>
</svg>
