<svg width="24" height="24" viewBox="0 0 24 24" fill="none" xmlns="http://www.w3.org/2000/svg">
<path d="M15.9218 15.6979C15.6823 16.2656 15.2031 16.5104 14.6406 16.349C14.1614 16.1875 13.5989 15.7813 13.0364 15.1302C12.4739 15.2135 11.9114 15.375 11.3541 15.5365C10.7083 16.6719 10.0677 17.6458 9.42705 17.8854C9.26559 17.9687 9.10414 18 8.94268 18C8.62497 18 8.38539 17.8854 8.22393 17.6458C8.06247 17.401 7.73955 16.9115 8.38539 16.1875C8.78643 15.6979 9.74476 15.2135 10.7864 14.8854C11.1093 14.2396 11.3489 13.5885 11.5885 12.8594C11.0312 11.8073 10.7083 10.6719 10.7864 10.0208C10.8698 9.375 11.2812 9 11.8333 9C12.3802 9 12.7135 9.375 12.875 9.94271C13.0364 10.5885 12.875 11.6458 12.4739 12.8594C12.7135 13.349 13.0364 13.8333 13.3541 14.3177C14.3177 14.2396 15.1198 14.2396 15.6041 14.5625C16.0052 14.8073 16.0833 15.2135 15.9218 15.6979Z" fill="#1C2024"/>
<path d="M18.5 9H13V3.5L18.5 9Z" fill="#1C2024"/>
<path d="M20.251 20.3393V15H18.2471V20.3393L16.415 18.5921L14.998 19.9441L19.249 24L23.5 19.9441L22.083 18.5921L20.251 20.3393Z" fill="#1C2024"/>
<path d="M5.33333 20V20.6667H6H11.8957L12.5624 21.3333H6C5.26402 21.3333 4.66667 20.736 4.66667 20V4C4.66667 3.26402 5.26402 2.66667 6 2.66667H13.7239L19.3333 8.27614V12.3333H18.6667V8.82813V8.55198L18.4714 8.35672L13.6433 3.5286L13.448 3.33333H13.1719H6H5.33333V4V20Z" fill="#1C2024" stroke="#1C2024" stroke-width="1.33333"/>
</svg>
