<svg width="20" height="20" viewBox="0 0 20 20" fill="none" xmlns="http://www.w3.org/2000/svg">
<path d="M10.1447 18.7411C10.0579 18.5545 10.008 18.3418 10.008 18.1248V17.4998C10.0037 17.4998 10.0037 17.4998 9.99935 17.4998C9.97114 17.4998 9.93641 17.4998 9.9082 17.4954C9.03364 17.4868 8.19596 17.3175 7.42339 17.0158C7.42339 17.0115 7.42122 17.0115 7.42122 17.0115C4.78668 15.9785 2.91602 13.4112 2.91602 10.4164C2.91602 9.9911 2.95291 9.5701 3.0332 9.16645H2.29102C2.11089 9.16645 1.93728 9.14475 1.77018 9.10352C1.69857 9.52886 1.66602 9.97157 1.66602 10.4164C1.66602 14.9585 5.31185 18.6586 9.83225 18.7454C9.8865 18.7454 9.9451 18.7498 9.99935 18.7498C10.0254 18.7498 10.0493 18.7498 10.0753 18.7454C10.0992 18.7498 10.1252 18.7498 10.1491 18.7454L10.1447 18.7411Z" fill="#1C2024"/>
<path d="M9.99935 2.08301C9.82357 2.08301 9.64996 2.08735 9.47852 2.10471C9.49588 2.11556 9.50456 2.12858 9.50673 2.1416C9.76931 2.47363 9.94075 2.88379 9.97765 3.33301H9.99935C10.0276 3.33301 10.0623 3.33301 10.0905 3.33735C10.9651 3.34603 11.8027 3.5153 12.5753 3.82129C14.1487 4.43761 15.4529 5.60297 16.245 7.08301C16.4577 7.47797 16.6335 7.89464 16.7702 8.33301C16.8917 8.73665 16.9829 9.15332 17.0328 9.58301C17.0827 10.0127 17.0827 10.6247 17.0827 10.6247C17.7077 11.2497 18.1243 12.083 18.1243 12.083C18.1243 12.083 18.4309 11.1059 18.3001 9.66113C17.916 5.41634 14.3418 2.08301 9.99935 2.08301Z" fill="#1C2024"/>
<path d="M14.0349 8.33301C13.985 7.89898 13.9156 7.48231 13.8309 7.08301C13.5532 5.78744 13.1191 4.66547 12.5744 3.82129C11.8691 2.72971 10.9816 2.08301 9.99848 2.08301C9.83138 2.08301 9.66862 2.10037 9.50586 2.1416C9.76845 2.47363 9.93989 2.88379 9.97678 3.33301H9.99848C10.0267 3.33301 10.0614 3.33301 10.0896 3.33735C11.0358 3.42415 12.0362 4.84559 12.5571 7.08301C12.6439 7.47363 12.7198 7.8903 12.7828 8.33301C12.8327 8.73231 12.8739 9.56565 12.8934 9.99967L14.1434 9.58301C14.1239 9.15332 14.0892 8.73665 14.0349 8.33301Z" fill="#1C2024"/>
<path d="M10.0074 18.1249V17.4999C10.003 17.4999 10.003 17.4999 9.9987 17.4999C9.97049 17.4999 9.93576 17.4999 9.90755 17.4956C8.96137 17.4087 7.96094 15.9873 7.44444 13.7499C7.3533 13.3593 7.273 12.9426 7.21441 12.4999C7.13194 11.8923 7.08637 10.4035 7.08203 9.7156L5.84939 9.24902C5.83637 9.49642 5.83203 10.1627 5.83203 10.4166C5.83203 11.137 5.8776 11.838 5.9579 12.4999C6.01215 12.9339 6.0816 13.3506 6.17057 13.7499C6.44401 15.0455 6.87804 16.1631 7.42057 17.0116C7.42057 17.0116 7.42274 17.0116 7.42274 17.016C8.09115 18.0468 8.92014 18.6739 9.8316 18.7456C9.88585 18.7456 9.94444 18.7499 9.9987 18.7499C10.0247 18.7499 10.0486 18.7499 10.0747 18.7456C10.0985 18.7499 10.1246 18.7456 10.1441 18.7412C10.0573 18.5546 10.0074 18.3419 10.0074 18.1249Z" fill="#1C2024"/>
<path d="M17.7077 7.70801C17.7077 8.05306 17.4277 8.33301 17.0827 8.33301H9.16602L9.58268 7.08301H17.0827C17.4277 7.08301 17.7077 7.36296 17.7077 7.70801Z" fill="#1C2024"/>
<path d="M11.666 12.5L11.2493 13.75H2.91602C2.57096 13.75 2.29102 13.4701 2.29102 13.125C2.29102 12.7799 2.57096 12.5 2.91602 12.5H11.666Z" fill="#1C2024"/>
<path fill-rule="evenodd" clip-rule="evenodd" d="M6.43393 2.31445C6.77911 2.31445 7.05893 2.59428 7.05893 2.93945C7.05893 4.04219 6.90277 5.26095 6.26041 6.21641C6.21958 6.27713 6.17708 6.33639 6.13288 6.39413C6.39726 6.50663 6.67674 6.57371 6.96634 6.57371C7.31152 6.57371 7.59134 6.85354 7.59134 7.19871C7.59134 7.54389 7.31152 7.82371 6.96634 7.82371C6.26029 7.82371 5.63825 7.58843 5.12214 7.27613C4.50279 7.62881 3.72139 7.82371 2.75977 7.82371C2.41459 7.82371 2.13477 7.54389 2.13477 7.19871C2.13477 6.85354 2.41459 6.57371 2.75977 6.57371C3.2716 6.57371 3.69039 6.50846 4.03494 6.3955C3.81465 6.16794 3.63697 5.95115 3.50683 5.77967C3.42324 5.66952 3.35827 5.57674 3.31325 5.50998C3.29072 5.47656 3.27312 5.44955 3.26062 5.43003C3.25437 5.42026 3.24938 5.41236 3.24569 5.40645L3.24112 5.39909L3.23956 5.39657L3.23871 5.39518C3.2386 5.395 3.23849 5.39482 3.77189 5.06908L3.23849 5.39482C3.05859 5.10023 3.15157 4.71558 3.44616 4.53568C3.74038 4.356 4.12444 4.44852 4.30462 4.74224C4.30485 4.74261 4.30507 4.74298 4.3053 4.74335L3.79231 5.05662C4.3053 4.74334 4.30539 4.7435 4.3053 4.74335L4.30462 4.74224L4.30568 4.74394L4.31331 4.75597C4.32078 4.76764 4.33297 4.78639 4.3497 4.81121C4.3832 4.8609 4.43463 4.9345 4.50256 5.02401C4.63917 5.20403 4.8385 5.44307 5.08878 5.68022C5.09166 5.68295 5.09454 5.68567 5.09742 5.68839C5.14242 5.63338 5.18418 5.5768 5.22306 5.51898C5.65452 4.87722 5.80893 3.96635 5.80893 2.93945C5.80893 2.59428 6.08875 2.31445 6.43393 2.31445Z" fill="#1C2024"/>
<path fill-rule="evenodd" clip-rule="evenodd" d="M2.08203 2.93945C2.08203 2.59428 2.36185 2.31445 2.70703 2.31445H7.4987C7.84388 2.31445 8.1237 2.59428 8.1237 2.93945C8.1237 3.28463 7.84388 3.56445 7.4987 3.56445H2.70703C2.36185 3.56445 2.08203 3.28463 2.08203 2.93945Z" fill="#1C2024"/>
<path fill-rule="evenodd" clip-rule="evenodd" d="M5.10352 1.25C5.44869 1.25 5.72852 1.52982 5.72852 1.875V2.93981C5.72852 3.28499 5.44869 3.56481 5.10352 3.56481C4.75834 3.56481 4.47852 3.28499 4.47852 2.93981V1.875C4.47852 1.52982 4.75834 1.25 5.10352 1.25Z" fill="#1C2024"/>
<path fill-rule="evenodd" clip-rule="evenodd" d="M15.1357 10.8812C15.4544 11.014 15.605 11.3799 15.4723 11.6986L12.8681 17.9486C12.7353 18.2672 12.3694 18.4179 12.0508 18.2851C11.7322 18.1523 11.5815 17.7864 11.7143 17.4678L14.3184 11.2178C14.4512 10.8992 14.8171 10.7485 15.1357 10.8812Z" fill="#1C2024"/>
<path fill-rule="evenodd" clip-rule="evenodd" d="M14.6543 10.8812C14.9729 10.7485 15.3389 10.8992 15.4716 11.2178L18.0758 17.4678C18.2085 17.7864 18.0579 18.1523 17.7392 18.2851C17.4206 18.4179 17.0547 18.2672 16.9219 17.9486L14.3178 11.6986C14.185 11.3799 14.3357 11.014 14.6543 10.8812Z" fill="#1C2024"/>
<path fill-rule="evenodd" clip-rule="evenodd" d="M12.752 16.041C12.752 15.6958 13.0318 15.416 13.377 15.416H16.4151C16.7603 15.416 17.0401 15.6958 17.0401 16.041C17.0401 16.3862 16.7603 16.666 16.4151 16.666H13.377C13.0318 16.666 12.752 16.3862 12.752 16.041Z" fill="#1C2024"/>
</svg>
