<svg width="20" height="20" viewBox="0 0 20 20" fill="none" xmlns="http://www.w3.org/2000/svg">
<path d="M15.208 15.4171V16.8754C15.208 17.2205 15.488 17.5004 15.833 17.5004C16.1781 17.5004 16.458 17.2205 16.458 16.8754V14.9766C16.1933 15.2478 15.8243 15.4171 15.4163 15.4171H15.208Z" fill="#E5484D"/>
<path d="M3.95801 3.95833V16.875C3.95801 17.2201 4.23796 17.5 4.58301 17.5C4.92806 17.5 5.20801 17.2201 5.20801 16.875V3.95833C5.20801 3.84332 5.30132 3.75 5.41634 3.75H14.9997C15.1147 3.75 15.208 3.84332 15.208 3.95833V12.5H15.4163C15.8243 12.5 16.1933 12.6693 16.458 12.9405V3.95833C16.458 3.15321 15.8048 2.5 14.9997 2.5H5.41634C4.61122 2.5 3.95801 3.15321 3.95801 3.95833Z" fill="#E5484D"/>
<path d="M8.69263 8.14702C8.88965 7.86372 9.27919 7.79383 9.56258 7.99077C9.84588 8.1878 9.91578 8.57734 9.71883 8.86073L8.0131 11.3152C7.89627 11.4831 7.70462 11.5833 7.5 11.5833H5C4.65482 11.5833 4.375 11.3035 4.375 10.9583C4.375 10.6131 4.65482 10.3333 5 10.3333H7.17326L8.69263 8.14702Z" fill="#E5484D"/>
<path d="M12.4589 7.5L12.509 7.50203C12.6257 7.51144 12.738 7.55366 12.8324 7.6241L14.9569 9.20817C15.2336 9.41451 15.2906 9.80629 15.0842 10.083C14.8779 10.3595 14.4864 10.4166 14.2098 10.2104L12.2514 8.75H10C9.65482 8.75 9.375 8.47018 9.375 8.125C9.375 7.77982 9.65482 7.5 10 7.5H12.4589Z" fill="#E5484D"/>
<path d="M7.70801 5C7.0179 5 6.45801 5.5599 6.45801 6.25C6.45801 6.9401 7.0179 7.5 7.70801 7.5C8.39811 7.5 8.95801 6.9401 8.95801 6.25C8.95801 5.5599 8.39811 5 7.70801 5Z" fill="#E5484D"/>
<path d="M10.5408 12.1219C10.8478 11.9643 11.2245 12.0852 11.3823 12.3921C11.5399 12.6991 11.419 13.0758 11.1121 13.2336L8.90585 14.3664L8.53516 16.9632L8.52296 17.0259C8.44676 17.3334 8.14834 17.5391 7.82797 17.4934C7.48626 17.4446 7.24856 17.1279 7.29737 16.7862L7.71404 13.8695L7.7295 13.7959C7.77493 13.6268 7.88952 13.4831 8.04729 13.402L10.5408 12.1219Z" fill="#E5484D"/>
<path d="M9.35764 12.1463L7.91016 13.5004L10.625 13.3333C11.3151 13.3333 11.875 12.7734 11.875 12.0833C11.875 11.9792 11.8598 11.8815 11.8359 11.786L11.0438 8.54818L11.0221 8.55252C10.9266 7.9579 10.4145 7.5 9.79167 7.5C9.10156 7.5 8.54167 8.0599 8.54167 8.75C8.54167 8.91276 8.57422 9.06684 8.63064 9.21007L9.35764 12.1463Z" fill="#E5484D"/>
<path d="M11.3926 14.0265L12.5493 14.4648C12.6556 14.543 12.7858 14.5842 12.916 14.5842H15.416C15.7611 14.5842 16.041 14.3043 16.041 13.9592C16.041 13.6141 15.7611 13.3342 15.416 13.3342H13.1178L12.5449 12.8828C12.3431 13.3689 11.9633 13.7726 11.462 13.9918L11.3926 14.0265Z" fill="#E5484D"/>
</svg>
