<svg width="20" height="20" viewBox="0 0 20 20" fill="none" xmlns="http://www.w3.org/2000/svg">
<g id="icon/multiuseraccountshared">
<path id="Vector" d="M1.66666 18.3334C1.66666 14.8268 4.65143 11.9842 8.33333 11.9842C12.0152 11.9842 15 14.8268 15 18.3334H13.3333C13.3333 15.7035 11.0947 13.5715 8.33333 13.5715C5.57191 13.5715 3.33333 15.7035 3.33333 18.3334H1.66666ZM8.33333 11.1906C5.57083 11.1906 3.33333 9.05961 3.33333 6.42865C3.33333 3.7977 5.57083 1.66675 8.33333 1.66675C11.0958 1.66675 13.3333 3.7977 13.3333 6.42865C13.3333 9.05961 11.0958 11.1906 8.33333 11.1906ZM8.33333 9.60326C10.175 9.60326 11.6667 8.18262 11.6667 6.42865C11.6667 4.67468 10.175 3.25405 8.33333 3.25405C6.49166 3.25405 5 4.67468 5 6.42865C5 8.18262 6.49166 9.60326 8.33333 9.60326ZM15.2364 12.542C17.5537 13.5367 19.1667 15.7556 19.1667 18.3334H17.5C17.5 16.4001 16.2902 14.7359 14.5523 13.9898L15.2364 12.542ZM14.6635 3.58199C16.3287 4.23582 17.5 5.7966 17.5 7.61913C17.5 9.89707 15.6702 11.7661 13.3333 11.9664V10.3688C14.7472 10.1764 15.8333 9.01913 15.8333 7.61913C15.8333 6.52338 15.168 5.5763 14.2008 5.12417L14.6635 3.58199Z" fill="#AAEE11"/>
</g>
</svg>
