<svg width="20" height="20" viewBox="0 0 20 20" fill="none" xmlns="http://www.w3.org/2000/svg">
<path d="M14.6198 4.00015C15.1798 3.96015 15.7298 4.01015 16.2698 4.15015C16.8098 4.29015 17.2898 4.46348 17.7098 4.67015C18.1298 4.87682 18.4698 5.09682 18.7298 5.33015C18.9898 5.56348 19.1198 5.76015 19.1198 5.92015C19.1198 6.08015 19.0198 6.17682 18.8198 6.21015C18.6198 6.24348 18.3698 6.27348 18.0698 6.30015C17.7698 6.32682 17.4398 6.37682 17.0798 6.45015C16.7198 6.52348 16.3798 6.68682 16.0598 6.94015C15.8465 7.10015 15.6431 7.27682 15.4498 7.47015C15.2565 7.66348 15.0631 7.85015 14.8698 8.03015C14.6765 8.21015 14.4765 8.37682 14.2698 8.53015C14.0631 8.68348 13.8398 8.80015 13.5998 8.88015C13.4798 8.92015 13.3331 8.96015 13.1598 9.00015C12.9865 9.04015 12.8031 9.05015 12.6098 9.03015C12.4165 9.01015 12.2165 8.94682 12.0098 8.84015C11.8031 8.73348 11.6065 8.55348 11.4198 8.30015C11.2998 8.46015 11.1965 8.65015 11.1098 8.87015C11.0231 9.09015 10.9465 9.32682 10.8798 9.58015C10.8131 9.83348 10.7565 10.0968 10.7098 10.3701C10.6631 10.6435 10.6265 10.9001 10.5998 11.1401C10.5731 11.3401 10.5531 11.5901 10.5398 11.8901C10.5265 12.1901 10.5231 12.4868 10.5298 12.7801C10.5365 13.0735 10.5531 13.3435 10.5798 13.5901C10.6065 13.8368 10.6465 14.0135 10.6998 14.1201C10.7665 14.2401 10.7998 14.3402 10.7998 14.4202C10.7998 14.4868 10.7665 14.5501 10.6998 14.6101C10.6331 14.6701 10.5065 14.7002 10.3198 14.7002C10.1065 14.7002 9.96314 14.6701 9.8898 14.6101C9.81647 14.5501 9.7798 14.4868 9.7798 14.4202C9.76647 14.3402 9.79314 14.2468 9.85981 14.1402C9.92647 14.0068 9.9698 13.8501 9.98981 13.6701C10.0098 13.4901 10.0165 13.2968 10.0098 13.0901C10.0031 12.8835 9.99314 12.6735 9.9798 12.4601C9.96647 12.2468 9.9598 12.0401 9.9598 11.8401C9.74647 11.4135 9.53981 11.0535 9.3398 10.7601C9.1398 10.4668 8.9198 10.1868 8.6798 9.92015C8.53314 10.2401 8.36314 10.4801 8.1698 10.6401C7.97647 10.8001 7.77981 10.9101 7.5798 10.9701C7.37981 11.0301 7.1898 11.0568 7.0098 11.0501C6.8298 11.0435 6.67314 11.0268 6.5398 11.0001C6.2998 10.9601 6.07314 10.8835 5.85981 10.7701C5.64647 10.6568 5.43314 10.5301 5.2198 10.3902C5.00647 10.2501 4.7898 10.1001 4.5698 9.94015C4.3498 9.78015 4.12647 9.64015 3.8998 9.52015C3.55314 9.32015 3.19647 9.21348 2.8298 9.20015C2.46314 9.18682 2.1298 9.19682 1.8298 9.23015C1.5298 9.26348 1.28314 9.27682 1.0898 9.27015C0.896471 9.26348 0.799805 9.17348 0.799805 9.00015C0.799805 8.82682 0.909805 8.60682 1.1298 8.34015C1.3498 8.07348 1.64314 7.81015 2.0098 7.55015C2.37647 7.29015 2.80647 7.05682 3.2998 6.85015C3.79314 6.64348 4.31314 6.51348 4.85981 6.46015C5.6998 6.38015 6.39647 6.42348 6.9498 6.59015C7.50314 6.75682 7.93647 6.99348 8.2498 7.30015C8.56314 7.60682 8.7598 7.96015 8.8398 8.36015C8.9198 8.76015 8.90647 9.16015 8.7998 9.56015C9.22647 9.94682 9.64647 10.4401 10.0598 11.0401C10.1265 10.3868 10.2931 9.72682 10.5598 9.06015C10.6665 8.83348 10.7665 8.64015 10.8598 8.48015C10.9531 8.32015 11.0665 8.14682 11.1998 7.96015C10.9865 7.57348 10.8765 7.16015 10.8698 6.72015C10.8631 6.28015 10.9898 5.86682 11.2498 5.48015C11.5098 5.09348 11.9131 4.76348 12.4598 4.49015C13.0065 4.21682 13.7265 4.05348 14.6198 4.00015ZM8.6598 9.50015C7.91314 8.86015 7.12647 8.44682 6.2998 8.26015C5.47314 8.07348 4.6198 8.09348 3.7398 8.32015C3.71314 8.32015 3.70647 8.32348 3.7198 8.33015C3.73314 8.33682 3.75314 8.34015 3.7798 8.34015C4.16647 8.30015 4.5598 8.28348 4.9598 8.29015C5.3598 8.29682 5.76314 8.35682 6.1698 8.47015C6.57647 8.58348 6.9798 8.75015 7.3798 8.97015C7.7798 9.19015 8.17314 9.48682 8.5598 9.86015L8.6598 9.50015ZM15.9998 5.70015C16.0265 5.70015 16.0465 5.69682 16.0598 5.69015C16.0731 5.68348 16.0598 5.68015 16.0198 5.68015C15.0465 5.58682 14.1665 5.73682 13.3798 6.13015C12.5931 6.52348 11.8998 7.10015 11.2998 7.86015L11.4998 8.20015C11.8598 7.70682 12.2298 7.30015 12.6098 6.98015C12.9898 6.66015 13.3765 6.40682 13.7698 6.22015C14.1631 6.03348 14.5465 5.90348 14.9198 5.83015C15.2931 5.75682 15.6531 5.71348 15.9998 5.70015ZM5.5598 15.9202C5.45314 15.8268 5.48647 15.7168 5.6598 15.5902C5.83314 15.4635 6.08647 15.3335 6.41981 15.2001C6.75314 15.0668 7.1298 14.9302 7.5498 14.7901C7.9698 14.6502 8.37314 14.5268 8.7598 14.4202C8.93314 14.3668 9.06981 14.3701 9.1698 14.4302C9.2698 14.4901 9.36314 14.5668 9.4498 14.6601C9.53647 14.7535 9.64314 14.8435 9.7698 14.9302C9.89647 15.0168 10.0798 15.0602 10.3198 15.0602C10.5598 15.0602 10.7431 15.0168 10.8698 14.9302C10.9965 14.8435 11.1065 14.7568 11.1998 14.6702C11.2931 14.5835 11.3865 14.5102 11.4798 14.4502C11.5731 14.3902 11.7065 14.3802 11.8798 14.4202C12.2665 14.5268 12.6731 14.6535 13.0998 14.8001C13.5265 14.9468 13.9098 15.0901 14.2498 15.2302C14.5898 15.3702 14.8465 15.5035 15.0198 15.6301C15.1931 15.7568 15.2131 15.8535 15.0798 15.9202C14.7598 16.0935 14.3298 16.2368 13.7898 16.3502C13.2498 16.4635 12.6631 16.5468 12.0298 16.6002C11.3965 16.6535 10.7431 16.6802 10.0698 16.6802C9.39647 16.6802 8.7598 16.6502 8.1598 16.5902C7.5598 16.5302 7.02647 16.4435 6.5598 16.3302C6.09314 16.2168 5.7598 16.0802 5.5598 15.9202Z" fill="#44AA11"/>
</svg>
