<svg width="20" height="20" viewBox="0 0 20 20" fill="none" xmlns="http://www.w3.org/2000/svg">
<path d="M5 1.66406H6.66667V4.9974H5V1.66406Z" fill="#888888"/>
<path d="M13.333 1.66406H14.9997V4.9974H13.333V1.66406Z" fill="#888888"/>
<path d="M15.8333 3.32812H4.16667C3.25087 3.32812 2.5 4.07899 2.5 4.99479V16.6615C2.5 17.5773 3.25087 18.3281 4.16667 18.3281H15.8333C16.7491 18.3281 17.5 17.5773 17.5 16.6615V4.99479C17.5 4.07899 16.7491 3.32812 15.8333 3.32812ZM15.8333 16.6615H4.16667V8.32812H15.8333V16.6615ZM15.8333 6.66146H4.16667V4.99479H15.8333V6.66146Z" fill="#888888"/>
<path d="M10.833 11.6641H14.1663V14.9974H10.833V11.6641Z" fill="#888888"/>
</svg>
