<svg width="21" height="22" viewBox="0 0 21 22" fill="none" xmlns="http://www.w3.org/2000/svg">
<g id="surface19232">
<path id="Vector" d="M0 16.6162V18.5697H11.1474C11.1779 17.7583 11.8694 17.0944 12.8176 16.6162H0Z" fill="#444444"/>
<path id="Vector_2" d="M1.95238 14.6628H3.90476V6.84884H5.85714V14.6628H7.80952V6.84884H9.7619V14.6628H11.7143V6.84884H13.6667V11.1653C14.1751 10.5803 14.8488 10.1504 15.619 9.95458V6.84884H17.5714V4.40698L8.78571 0.5L0 4.40698V6.84884H1.95238V14.6628ZM8.78571 2.63917L13.8624 4.89535H3.70902L8.78571 2.63917Z" fill="#444444"/>
<g id="Group 1707483609">
<path id="Vector_3" d="M15.6188 11.9972C15.0341 12.338 14.6426 12.9638 14.6426 13.6862C14.6426 14.0372 14.7392 14.3806 14.907 14.6629C15.2095 15.1716 15.7255 15.543 16.3407 15.6193H16.3509C16.4297 15.6295 16.506 15.6396 16.595 15.6396C16.7602 15.6396 16.9178 15.6193 17.0627 15.5811C17.9118 15.3649 18.5473 14.5942 18.5473 13.6862C18.5473 12.6128 17.6678 11.7327 16.595 11.7327C16.2441 11.7327 15.9009 11.8293 15.6188 11.9972Z" fill="#444444"/>
<path id="Vector_4" d="M17.5714 17.6314C17.279 17.6136 16.9663 17.5933 16.6155 17.5933C16.6054 17.5933 16.6054 17.5933 16.5952 17.5933C14.5462 17.5933 13.57 18.0715 13.0997 18.57C12.7387 18.9515 12.6904 19.3407 12.6904 19.5468V21.5002H14.6428V19.8291C14.8386 19.7324 15.3648 19.5468 16.5952 19.5468C17.8256 19.5468 18.3518 19.7324 18.5476 19.8291V21.5002H20.5V19.5468C20.5 19.1372 20.2661 17.8756 17.5714 17.6314Z" fill="#444444"/>
</g>
</g>
</svg>
