<svg width="24" height="24" viewBox="0 0 24 24" fill="none" xmlns="http://www.w3.org/2000/svg">
<path d="M10.5 19C10.5 19.8281 9.82813 20.5 9 20.5C8.17187 20.5 7.5 19.8281 7.5 19C7.5 18.1719 8.17187 17.5 9 17.5C9.82813 17.5 10.5 18.1719 10.5 19Z" fill="#7E808A"/>
<path d="M16.5 19C16.5 19.8281 15.8281 20.5 15 20.5C14.1719 20.5 13.5 19.8281 13.5 19C13.5 18.1719 14.1719 17.5 15 17.5C15.8281 17.5 16.5 18.1719 16.5 19Z" fill="#7E808A"/>
<path d="M10.5 12C10.5 12.8281 9.82813 13.5 9 13.5C8.17187 13.5 7.5 12.8281 7.5 12C7.5 11.1719 8.17187 10.5 9 10.5C9.82813 10.5 10.5 11.1719 10.5 12Z" fill="#7E808A"/>
<path d="M16.5 12C16.5 12.8281 15.8281 13.5 15 13.5C14.1719 13.5 13.5 12.8281 13.5 12C13.5 11.1719 14.1719 10.5 15 10.5C15.8281 10.5 16.5 11.1719 16.5 12Z" fill="#7E808A"/>
<path d="M10.5 5C10.5 5.82813 9.82813 6.5 9 6.5C8.17187 6.5 7.5 5.82813 7.5 5C7.5 4.17187 8.17187 3.5 9 3.5C9.82813 3.5 10.5 4.17187 10.5 5Z" fill="#7E808A"/>
<path d="M16.5 5C16.5 5.82813 15.8281 6.5 15 6.5C14.1719 6.5 13.5 5.82813 13.5 5C13.5 4.17187 14.1719 3.5 15 3.5C15.8281 3.5 16.5 4.17187 16.5 5Z" fill="#7E808A"/>
</svg>
