<svg width="20" height="20" viewBox="0 0 20 20" fill="none" xmlns="http://www.w3.org/2000/svg">
<path d="M15.5 11.5C15.5 7.63296 12.367 4.5 8.5 4.5C4.63296 4.5 1.5 7.63296 1.5 11.5C1.5 15.367 4.63296 18.5 8.5 18.5C12.367 18.5 15.5 15.367 15.5 11.5ZM17 11.5C17 16.1955 13.1955 20 8.5 20C3.80454 20 0 16.1955 0 11.5C0 6.80454 3.80454 3 8.5 3C13.1955 3 17 6.80454 17 11.5Z" fill="#1C2024"/>
<path d="M18.4998 6.75C18.4998 3.85171 16.1481 1.5 13.2498 1.5C11.3019 1.50006 9.60374 2.56408 8.69466 4.14697C8.48837 4.50616 8.02993 4.63012 7.67074 4.42383C7.31155 4.21754 7.18759 3.75909 7.39388 3.3999C8.55767 1.37351 10.7396 5.93606e-05 13.2498 0C16.9766 0 19.9998 3.02329 19.9998 6.75C19.9998 9.26032 18.6264 11.4421 16.5999 12.606C16.2408 12.8122 15.7823 12.6883 15.576 12.3291C15.3699 11.97 15.4938 11.5114 15.8529 11.3052C17.4358 10.3961 18.4998 8.69801 18.4998 6.75Z" fill="#1C2024"/>
<path fill-rule="evenodd" clip-rule="evenodd" d="M4.5 11.5C4.5 11.0858 4.83579 10.75 5.25 10.75H11.75C12.1642 10.75 12.5 11.0858 12.5 11.5C12.5 11.9142 12.1642 12.25 11.75 12.25H5.25C4.83579 12.25 4.5 11.9142 4.5 11.5Z" fill="#1C2024"/>
</svg>
