<svg width="20" height="20" viewBox="0 0 20 20" fill="none" xmlns="http://www.w3.org/2000/svg">
<path d="M5.83333 7.5C5.37326 7.5 5 7.87326 5 8.33333C5 8.7934 5.37326 9.16667 5.83333 9.16667C6.2934 9.16667 6.66667 8.7934 6.66667 8.33333C6.66667 7.87326 6.2934 7.5 5.83333 7.5Z" fill="#7E808A"/>
<path d="M14.1673 7.5C13.7072 7.5 13.334 7.87326 13.334 8.33333C13.334 8.7934 13.7072 9.16667 14.1673 9.16667C14.6274 9.16667 15.0007 8.7934 15.0007 8.33333C15.0007 7.87326 14.6274 7.5 14.1673 7.5Z" fill="#7E808A"/>
<path d="M18.3337 4.16659V12.4999C18.3337 12.96 17.9604 13.3333 17.5003 13.3333H2.50033C2.04026 13.3333 1.66699 12.96 1.66699 12.4999V4.16659C1.66699 3.70652 2.04026 3.33325 2.50033 3.33325H17.5003C17.9604 3.33325 18.3337 3.70652 18.3337 4.16659ZM3.33366 11.6666H16.667V4.99992H3.33366V11.6666Z" fill="#7E808A"/>
<path d="M18.334 12.0833C18.334 12.7734 17.7741 13.3333 17.084 13.3333C16.3939 13.3333 15.834 12.7734 15.834 12.0833C15.834 11.3931 16.3939 10.8333 17.084 10.8333C17.7741 10.8333 18.334 11.3931 18.334 12.0833Z" fill="#7E808A"/>
<path d="M18.334 4.58325C18.334 5.27336 17.7741 5.83325 17.084 5.83325C16.3939 5.83325 15.834 5.27336 15.834 4.58325C15.834 3.89315 16.3939 3.33325 17.084 3.33325C17.7741 3.33325 18.334 3.89315 18.334 4.58325Z" fill="#7E808A"/>
<path d="M4.16699 12.0833C4.16699 12.7734 3.6071 13.3333 2.91699 13.3333C2.22689 13.3333 1.66699 12.7734 1.66699 12.0833C1.66699 11.3931 2.22689 10.8333 2.91699 10.8333C3.6071 10.8333 4.16699 11.3931 4.16699 12.0833Z" fill="#7E808A"/>
<path d="M4.16699 4.58325C4.16699 5.27336 3.6071 5.83325 2.91699 5.83325C2.22689 5.83325 1.66699 5.27336 1.66699 4.58325C1.66699 3.89315 2.22689 3.33325 2.91699 3.33325C3.6071 3.33325 4.16699 3.89315 4.16699 4.58325Z" fill="#7E808A"/>
<path d="M12.5 8.33325C12.5 9.71346 11.3802 10.8333 10 10.8333C8.61979 10.8333 7.5 9.71346 7.5 8.33325C7.5 6.95304 8.61979 5.83325 10 5.83325C11.3802 5.83325 12.5 6.95304 12.5 8.33325Z" fill="#7E808A"/>
<path d="M6.62793 16.6665L9.96126 19.9998L13.2946 16.6665H6.62793Z" fill="#7E808A"/>
<path fill-rule="evenodd" clip-rule="evenodd" d="M10.8337 15V17.5H9.16699V15H10.8337Z" fill="#7E808A"/>
</svg>
