<svg width="20" height="20" viewBox="0 0 20 20" fill="none" xmlns="http://www.w3.org/2000/svg">
<path d="M10.0001 1.66406C10.3453 1.66414 10.6251 1.94393 10.6251 2.28906C10.6251 2.6342 10.3453 2.91399 10.0001 2.91406C6.82233 2.91406 4.13133 5.00714 3.23581 7.89087C3.13347 8.22046 2.78334 8.40488 2.45375 8.30265C2.12416 8.20031 1.93974 7.85018 2.04197 7.52059C3.09529 4.12837 6.25961 1.66406 10.0001 1.66406Z" fill="#77AA00"/>
<path d="M2.45375 11.6923C2.76277 11.5964 3.08986 11.7524 3.21384 12.0438L3.23581 12.1041L3.32492 12.3718C4.2684 15.0279 6.75397 16.9533 9.7035 17.0748L10.0001 17.0809L10.064 17.0841C10.3791 17.1162 10.6251 17.3823 10.6251 17.7059C10.6251 18.0294 10.3791 18.2956 10.064 18.3276L10.0001 18.3309L9.82517 18.3293C6.21936 18.2551 3.17682 15.8908 2.09283 12.633L2.04196 12.4744L2.02609 12.4125C1.96324 12.102 2.14472 11.7882 2.45375 11.6923Z" fill="#77AA00"/>
<path d="M6.72567 13.0182C7.03995 12.9409 7.35707 13.1165 7.46338 13.4149L7.4821 13.476L7.53703 13.6908C7.8196 14.7522 8.21189 15.6096 8.65397 16.1986C9.10066 16.7935 9.54052 17.0458 9.92391 17.075L10 17.0779L10.0639 17.0811C10.379 17.1131 10.6249 17.3793 10.625 17.7029C10.625 18.0265 10.379 18.2926 10.0639 18.3246L10 18.3279L9.91129 18.3262C8.99927 18.2914 8.23466 17.7219 7.65462 16.9493C7.08862 16.1954 6.63859 15.1769 6.32812 14.0098L6.2679 13.7746L6.2561 13.7116C6.212 13.398 6.41149 13.0955 6.72567 13.0182Z" fill="#77AA00"/>
<path d="M10 1.66406C10.3452 1.66406 10.625 1.94388 10.625 2.28906C10.625 2.63424 10.3452 2.91406 10 2.91406C9.59926 2.91406 9.13051 3.15862 8.65397 3.79338C8.18242 4.42151 7.76761 5.35525 7.48209 6.51595C7.39965 6.85114 7.06085 7.05616 6.72567 6.97371C6.3905 6.89125 6.18546 6.55246 6.2679 6.21729C6.57916 4.95195 7.05094 3.84675 7.65462 3.04264C8.25336 2.2452 9.04882 1.66406 10 1.66406Z" fill="#77AA00"/>
<path d="M16.6667 5.82812C17.0118 5.82812 17.2917 6.10795 17.2917 6.45312C17.2917 6.7983 17.0118 7.07812 16.6667 7.07812H3.33333C2.98815 7.07812 2.70833 6.7983 2.70833 6.45312C2.70833 6.10795 2.98815 5.82812 3.33333 5.82812H16.6667Z" fill="#77AA00"/>
<path d="M16.6667 12.9141C17.0118 12.9141 17.2917 13.1939 17.2917 13.5391C17.2917 13.8842 17.0118 14.1641 16.6667 14.1641H3.33333C2.98815 14.1641 2.70833 13.8842 2.70833 13.5391C2.70833 13.1939 2.98815 12.9141 3.33333 12.9141H16.6667Z" fill="#77AA00"/>
<path d="M8.95833 9.375C9.30351 9.375 9.58333 9.65482 9.58333 10C9.58333 10.3452 9.30351 10.625 8.95833 10.625H2.29167C1.94649 10.625 1.66667 10.3452 1.66667 10C1.66667 9.65482 1.94649 9.375 2.29167 9.375H8.95833Z" fill="#77AA00"/>
<path d="M7.47477 8.09716C7.70353 7.8684 8.06547 7.85398 8.31095 8.05402L8.35856 8.09716L9.81689 9.55549L9.86002 9.6031C10.0601 9.84858 10.0457 10.2105 9.81689 10.4393L8.35856 11.8976C8.11448 12.1417 7.71885 12.1417 7.47477 11.8976C7.23069 11.6535 7.23069 11.2579 7.47477 11.0138L8.49121 9.99738L7.47477 8.98094L7.43164 8.93334C7.23159 8.68786 7.24601 8.32592 7.47477 8.09716Z" fill="#77AA00"/>
<path d="M17.0833 9.9974C17.0833 6.08476 13.9126 2.91406 10 2.91406C9.65482 2.91406 9.375 2.63424 9.375 2.28906C9.375 1.94388 9.65482 1.66406 10 1.66406C14.603 1.66406 18.3333 5.39441 18.3333 9.9974C18.3333 14.6004 14.603 18.3307 10 18.3307C9.65482 18.3307 9.375 18.0509 9.375 17.7057C9.375 17.3606 9.65482 17.0807 10 17.0807C13.9126 17.0807 17.0833 13.91 17.0833 9.9974Z" fill="#77AA00"/>
<path d="M12.9167 9.9974C12.9167 7.93757 12.5315 6.10321 11.936 4.80737C11.3157 3.45757 10.5854 2.91406 10 2.91406C9.65482 2.91406 9.375 2.63424 9.375 2.28906C9.375 1.94388 9.65482 1.66406 10 1.66406C11.3699 1.66406 12.4105 2.84595 13.0721 4.28573C13.7586 5.77958 14.1667 7.7995 14.1667 9.9974C14.1667 12.1953 13.7586 14.2152 13.0721 15.7091C12.4105 17.1488 11.3699 18.3307 10 18.3307C9.65482 18.3307 9.375 18.0509 9.375 17.7057C9.375 17.3606 9.65482 17.0807 10 17.0807C10.5854 17.0807 11.3157 16.5372 11.936 15.1874C12.5315 13.8916 12.9167 12.0572 12.9167 9.9974Z" fill="#77AA00"/>
</svg>
