<svg width="20" height="20" viewBox="0 0 20 20" fill="none" xmlns="http://www.w3.org/2000/svg">
<path fill-rule="evenodd" clip-rule="evenodd" d="M11.666 17.3626V13.125H12.916V18.125C12.916 18.3122 12.8321 18.4896 12.6873 18.6083C12.5425 18.7271 12.3521 18.7746 12.1684 18.7379L10.2229 18.3488L8.6926 18.7313C8.59308 18.7562 8.48896 18.7562 8.38943 18.7313L6.85911 18.3488L4.91359 18.7379C4.72998 18.7746 4.53958 18.7271 4.39477 18.6083C4.24997 18.4896 4.16602 18.3122 4.16602 18.125V15H5.41602V17.3626L6.75178 17.0955C6.84252 17.0773 6.93616 17.0796 7.02593 17.102L8.54102 17.4808L10.0561 17.102C10.1459 17.0796 10.2395 17.0773 10.3303 17.0955L11.666 17.3626Z" fill="#1C2024"/>
<path d="M15.6237 9.37435C15.6237 9.83442 15.2504 10.2077 14.7904 10.2077C14.3303 10.2077 13.957 9.83442 13.957 9.37435C13.957 8.91428 14.3303 8.54102 14.7904 8.54102C15.2504 8.54102 15.6237 8.91428 15.6237 9.37435Z" fill="#1C2024"/>
<path d="M10.416 7.08301C10.199 7.08301 9.99067 7.1199 9.79102 7.18717V8.69976C9.94076 8.47407 10.1708 8.33301 10.416 8.33301C10.8652 8.33301 11.2493 8.80827 11.2493 9.37467C11.2493 9.94108 10.8652 10.4163 10.416 10.4163C10.1708 10.4163 9.94076 10.2753 9.79102 10.0496V11.5622C9.99067 11.6294 10.199 11.6663 10.416 11.6663C11.5662 11.6663 12.4993 10.642 12.4993 9.37467C12.4993 8.10731 11.5662 7.08301 10.416 7.08301Z" fill="#1C2024"/>
<path d="M17.082 5C16.3919 5 15.832 5.5599 15.832 6.25C15.832 6.9401 16.3919 7.5 17.082 7.5C17.7721 7.5 18.332 6.9401 18.332 6.25C18.332 5.5599 17.7721 5 17.082 5Z" fill="#1C2024"/>
<path d="M17.082 11.25C16.3919 11.25 15.832 11.8099 15.832 12.5C15.832 13.1901 16.3919 13.75 17.082 13.75C17.7721 13.75 18.332 13.1901 18.332 12.5C18.332 11.8099 17.7721 11.25 17.082 11.25Z" fill="#1C2024"/>
<path fill-rule="evenodd" clip-rule="evenodd" d="M17.0822 6.25H9.99023V5H17.2906C17.8658 5 18.3322 5.46645 18.3322 6.04167V12.7083C18.3322 13.2835 17.8658 13.75 17.2906 13.75H9.99023V12.5H17.0822V6.25Z" fill="#1C2024"/>
<path fill-rule="evenodd" clip-rule="evenodd" d="M3.95768 3.33301C3.38272 3.33301 2.91602 3.79971 2.91602 4.37467V14.4456L4.25178 14.1785C4.34252 14.1603 4.43616 14.1626 4.52593 14.185L6.04102 14.5638L7.5561 14.185C7.64587 14.1626 7.73951 14.1603 7.83025 14.1785L9.16602 14.4456V3.95801C9.16602 3.73888 9.20364 3.52851 9.27277 3.33301H3.95768ZM11.041 2.08301H3.95768C2.69237 2.08301 1.66602 3.10936 1.66602 4.37467V15.208C1.66602 15.3953 1.74997 15.5726 1.89477 15.6913C2.03958 15.8101 2.22998 15.8576 2.41359 15.8209L4.35911 15.4318L5.88943 15.8143C5.98896 15.8392 6.09308 15.8392 6.1926 15.8143L7.72292 15.4318L9.66844 15.8209C9.85205 15.8576 10.0425 15.8101 10.1873 15.6913C10.3321 15.5726 10.416 15.3953 10.416 15.208V3.95801C10.416 3.61308 10.6961 3.33301 11.041 3.33301C11.3859 3.33301 11.666 3.61308 11.666 3.95801V5.41634H12.916V3.95801C12.916 2.92273 12.0763 2.08301 11.041 2.08301Z" fill="#1C2024"/>
<path fill-rule="evenodd" clip-rule="evenodd" d="M3.75 6.45801C3.75 6.11283 4.02982 5.83301 4.375 5.83301H7.70833C8.05351 5.83301 8.33333 6.11283 8.33333 6.45801C8.33333 6.80319 8.05351 7.08301 7.70833 7.08301H4.375C4.02982 7.08301 3.75 6.80319 3.75 6.45801Z" fill="#1C2024"/>
<path fill-rule="evenodd" clip-rule="evenodd" d="M3.75 8.95801C3.75 8.61283 4.02982 8.33301 4.375 8.33301H7.70833C8.05351 8.33301 8.33333 8.61283 8.33333 8.95801C8.33333 9.30319 8.05351 9.58301 7.70833 9.58301H4.375C4.02982 9.58301 3.75 9.30319 3.75 8.95801Z" fill="#1C2024"/>
<path fill-rule="evenodd" clip-rule="evenodd" d="M3.75 11.458C3.75 11.1128 4.02982 10.833 4.375 10.833H6.45833C6.80351 10.833 7.08333 11.1128 7.08333 11.458C7.08333 11.8032 6.80351 12.083 6.45833 12.083H4.375C4.02982 12.083 3.75 11.8032 3.75 11.458Z" fill="#1C2024"/>
</svg>
