<svg width="20" height="20" viewBox="0 0 20 20" fill="none" xmlns="http://www.w3.org/2000/svg">
<path d="M9.16683 10.8333C9.16683 11.7534 8.4203 12.5 7.50016 12.5C6.58002 12.5 5.8335 11.7534 5.8335 10.8333C5.8335 9.91315 6.58002 9.16663 7.50016 9.16663C8.4203 9.16663 9.16683 9.91315 9.16683 10.8333Z" fill="#EE4444"/>
<path d="M10.6685 14.9999C10.2518 14.9999 10.0826 14.6657 10.0001 14.4183C9.91764 14.6657 9.66591 14.9999 9.33171 14.9999C9.16677 14.9999 8.91504 14.835 8.91504 14.5832C8.91504 14.0016 9.58344 12.9166 10.0001 12.8341C10.4168 12.9166 11.0852 14.0016 11.0852 14.5832C11.0852 14.835 10.9159 14.9999 10.6685 14.9999Z" fill="#EE4444"/>
<path d="M14.1668 10.8333C14.1668 11.7534 13.4203 12.5 12.5002 12.5C11.58 12.5 10.8335 11.7534 10.8335 10.8333C10.8335 9.91315 11.58 9.16663 12.5002 9.16663C13.4203 9.16663 14.1668 9.91315 14.1668 10.8333Z" fill="#EE4444"/>
<path fill-rule="evenodd" clip-rule="evenodd" d="M2.5 8.74996C2.5 4.78936 5.91069 1.66663 10 1.66663C14.0893 1.66663 17.5 4.78936 17.5 8.74996C17.5 9.91757 17.1968 11.0151 16.6667 11.9791V13.3333C16.6667 14.2536 15.9203 15 15 15H14.1667V16.6666C14.1667 17.5869 13.4203 18.3333 12.5 18.3333H7.5C6.57969 18.3333 5.83333 17.5869 5.83333 16.6666V15H5C4.07969 15 3.33333 14.2536 3.33333 13.3333V11.9791C2.80324 11.0151 2.5 9.91757 2.5 8.74996ZM10 3.33329C6.7282 3.33329 4.16667 5.80952 4.16667 8.74996C4.16667 9.68632 4.42613 10.5643 4.88278 11.3316L5 11.5286V13.3333H7.5V16.6666H12.5V13.3333H15V11.5286L15.1172 11.3316C15.5739 10.5643 15.8333 9.68632 15.8333 8.74996C15.8333 5.80952 13.2718 3.33329 10 3.33329Z" fill="#EE4444"/>
</svg>
