<svg width="29" height="28" viewBox="0 0 29 28" fill="none" xmlns="http://www.w3.org/2000/svg">
<path fill-rule="evenodd" clip-rule="evenodd" d="M14.1014 6.08334C14.5616 6.08334 14.9347 6.45644 14.9347 6.91668V21.0833C14.9347 21.5436 14.5616 21.9167 14.1014 21.9167C13.6412 21.9167 13.2681 21.5436 13.2681 21.0833V6.91668C13.2681 6.45644 13.6412 6.08334 14.1014 6.08334Z" fill="#EDEEF0"/>
<path fill-rule="evenodd" clip-rule="evenodd" d="M6.18457 14C6.18457 13.5398 6.55767 13.1667 7.0179 13.1667H21.1846C21.6448 13.1667 22.0179 13.5398 22.0179 14C22.0179 14.4603 21.6448 14.8334 21.1846 14.8334H7.0179C6.55767 14.8334 6.18457 14.4603 6.18457 14Z" fill="#EDEEF0"/>
<path d="M12.4019 26.8896C12.9575 26.9621 13.5247 27 14.1011 27V28C13.4814 28 12.8713 27.9589 12.2729 27.8809L12.4019 26.8896ZM15.9282 27.8809C15.3302 27.9588 14.7204 28 14.1011 28V27C14.6774 27 15.2446 26.9621 15.8003 26.8896L15.9282 27.8809ZM6.18701 24.3145C7.08188 25.0021 8.06916 25.5756 9.12549 26.0137L8.7417 26.9365C7.60328 26.4644 6.54115 25.8461 5.57764 25.1055L5.88232 24.7109L6.18701 24.3145ZM22.6235 25.1055C21.6599 25.846 20.598 26.4644 19.4595 26.9365L19.0767 26.0137C20.133 25.5756 21.1203 25.0021 22.0151 24.3145L22.6235 25.1055ZM2.0874 18.9756C2.52544 20.0319 3.09895 21.0192 3.78662 21.9141L2.99463 22.5225C2.25414 21.5589 1.63562 20.4968 1.16357 19.3584L2.0874 18.9756ZM27.0376 19.3584C26.5655 20.4969 25.9471 21.5589 25.2065 22.5225L24.4155 21.9141C25.1032 21.0192 25.6767 20.0319 26.1147 18.9756L27.0376 19.3584ZM0.101074 14C0.101074 13.3959 0.139148 12.8007 0.213379 12.2168L0.219238 12.1719L1.21143 12.3008C1.13894 12.8565 1.10107 13.4236 1.10107 14C1.10107 14.5764 1.13894 15.1435 1.21143 15.6992L0.715332 15.7637L0.219238 15.8271C0.141293 15.2291 0.101074 14.6193 0.101074 14ZM27.9819 12.1719C28.06 12.7702 28.1011 13.3804 28.1011 14C28.1011 14.6193 28.0599 15.2291 27.9819 15.8271L27.4868 15.7637L26.9907 15.6992C27.0632 15.1435 27.1011 14.5764 27.1011 14C27.1011 13.4236 27.0632 12.8565 26.9907 12.3008L27.9819 12.1719ZM3.78662 6.08594C3.09895 6.98081 2.52544 7.96809 2.0874 9.02441L1.16357 8.64062C1.63567 7.50226 2.25411 6.44005 2.99463 5.47656L3.78662 6.08594ZM25.2065 5.47656C25.9471 6.44008 26.5654 7.50221 27.0376 8.64062L26.1147 9.02441C25.6767 7.96809 25.1032 6.98081 24.4155 6.08594L25.2065 5.47656ZM9.12549 1.98633C8.06916 2.42437 7.08188 2.99788 6.18701 3.68555L5.57764 2.89355C6.54112 2.15304 7.60334 1.5346 8.7417 1.0625L9.12549 1.98633ZM19.4595 1.0625C20.5979 1.53454 21.66 2.15307 22.6235 2.89355L22.0151 3.68555C21.1203 2.99788 20.133 2.42437 19.0767 1.98633L19.4595 1.0625ZM14.1011 0C14.7203 0 15.3302 0.0402187 15.9282 0.118164L15.8003 1.11035C15.2446 1.03787 14.6774 1 14.1011 1C13.5247 1 12.9575 1.03787 12.4019 1.11035L12.2729 0.118164C12.8713 0.0401366 13.4815 0 14.1011 0Z" fill="#3C3F44"/>
</svg>
