<svg width="25" height="24" viewBox="0 0 25 24" fill="none" xmlns="http://www.w3.org/2000/svg">
<path d="M14.6458 18.203L10.1667 13.7239V12.6667H11.2239L15.703 17.1458L14.6458 18.203ZM17.7655 19.2083L16.7083 20.2655L16.297 19.8542L17.3542 18.797L17.7655 19.2083Z" fill="#444444" stroke="#444444" stroke-width="1.33333"/>
<path d="M3.83333 14V14.6667H4.5H6.39573L7.0624 15.3333H4.5C3.76402 15.3333 3.16667 14.736 3.16667 14V8C3.16667 7.26402 3.76402 6.66667 4.5 6.66667H20.5C21.236 6.66667 21.8333 7.26402 21.8333 8V14C21.8333 14.736 21.236 15.3333 20.5 15.3333H18.6043L17.9376 14.6667H20.5H21.1667V14V8V7.33333H20.5H4.5H3.83333V8V14Z" fill="#444444" stroke="#444444" stroke-width="1.33333"/>
</svg>
