<svg width="24" height="24" viewBox="0 0 24 24" fill="none" xmlns="http://www.w3.org/2000/svg">
<path fill-rule="evenodd" clip-rule="evenodd" d="M9.7689 3.2795C10.2716 3.15051 10.7315 3.07349 11.2683 3.02842C12.2329 2.94741 13.3011 3.04106 14.2567 3.29043C16.39 3.84713 18.2435 5.16778 19.4669 7.00281C20.3293 8.2964 20.8703 9.87065 20.9568 11.3381C20.9637 11.4542 20.9762 11.5448 20.9846 11.5396C20.9931 11.5343 21 11.7326 21 11.9801C21 12.2275 20.9931 12.4343 20.9847 12.4395C20.9763 12.4447 20.9638 12.5444 20.9569 12.6611C20.9293 13.1283 20.8384 13.6896 20.7052 14.2152C20.1533 16.3925 18.8187 18.269 16.9361 19.5147C14.3047 21.2559 10.9327 21.4824 8.09347 20.1086C7.15754 19.6557 6.36088 19.0902 5.63436 18.363C2.60037 15.3261 2.13244 10.5767 4.51512 7.00281C5.74793 5.15365 7.6113 3.83309 9.7689 3.2795ZM3.0134 12.2297C3.01031 12.3559 3.00779 12.2526 3.00779 12.0002C3.00779 11.7477 3.01031 11.6445 3.0134 11.7707C3.01649 11.8969 3.01649 12.1035 3.0134 12.2297ZM15.2526 15.335H11.4055V15.3207L13.5157 13.1244C14.7646 11.8324 15.1521 10.885 15.1521 9.79405C15.1521 7.98534 13.6879 6.89438 12.0658 6.89438C10.4581 6.89438 9.43892 7.69825 8.87908 8.7605L10.0705 9.60744C10.5155 8.83228 11.1615 8.4447 11.951 8.4447C12.841 8.4447 13.4583 9.10502 13.4583 9.98066C13.4583 10.8276 12.8697 11.5597 12.0658 12.4066L8.89344 15.7513L8.92215 16.8566H15.2526V15.335Z" fill="black"/>
</svg>
