<svg width="20" height="20" viewBox="0 0 20 20" fill="none" xmlns="http://www.w3.org/2000/svg">
<path d="M11.6667 8.95837C11.6667 9.30343 11.3867 9.58337 11.0417 9.58337C10.6966 9.58337 10.4167 9.30343 10.4167 8.95837C10.4167 8.61332 10.6966 8.33337 11.0417 8.33337C11.3867 8.33337 11.6667 8.61332 11.6667 8.95837Z" fill="#1C2024"/>
<path d="M8.33333 8.95837C8.33333 9.30343 8.05338 9.58337 7.70833 9.58337C7.36328 9.58337 7.08333 9.30343 7.08333 8.95837C7.08333 8.61332 7.36328 8.33337 7.70833 8.33337C8.05338 8.33337 8.33333 8.61332 8.33333 8.95837Z" fill="#1C2024"/>
<path d="M16.2499 6.45863C16.2499 6.11337 16.3086 5.1129 16.3358 4.24468C16.3499 3.79311 16.3564 3.36284 16.3464 3.02683C16.3413 2.85786 16.3323 2.7251 16.3203 2.63091C16.3176 2.60962 16.3137 2.59251 16.3114 2.57883C16.2937 2.55935 16.2684 2.53414 16.234 2.50884C16.1739 2.46451 16.1121 2.43696 16.0603 2.42624C16.0144 2.41676 15.9781 2.42015 15.9419 2.4356C15.9086 2.44987 15.843 2.48834 15.76 2.59551L15.7234 2.64556L15.7169 2.65492C15.5083 2.94698 14.9669 3.59575 14.5011 4.1454C14.2632 4.426 14.0374 4.68961 13.8712 4.88311C13.7881 4.97984 13.7198 5.05909 13.6722 5.11423C13.6485 5.14173 13.6299 5.16344 13.6173 5.17811C13.611 5.1854 13.6059 5.191 13.6026 5.1948C13.601 5.19668 13.5998 5.1983 13.599 5.19927L13.5977 5.20049V5.2009C13.4529 5.36824 13.2303 5.44619 13.0126 5.40638V5.40679L13.0122 5.40638H13.0118V5.40598C13.0107 5.40578 13.0086 5.40606 13.0057 5.40557C12.9993 5.40448 12.9886 5.4026 12.974 5.40028C12.9446 5.39564 12.8993 5.38882 12.8401 5.38116C12.7213 5.3658 12.5473 5.34696 12.3339 5.33436C11.9044 5.30902 11.328 5.30961 10.7262 5.40842C10.6118 5.4272 10.4945 5.41386 10.3873 5.36976C9.57005 5.0335 8.83289 4.85657 8.26204 4.98484C8.0019 5.04329 7.83731 5.14095 7.54305 5.35389C7.23787 5.57474 6.82525 5.89545 6.13517 6.27959L6.13477 6.28C5.04784 6.88432 4.24339 8.01022 3.7015 9.17754C3.15812 10.3481 2.9288 11.451 2.91659 11.8924V11.8928C2.8847 13.0068 2.73956 14.6704 4.24715 16.2759L4.39811 16.431L4.39852 16.4314L4.4738 16.5022C4.86247 16.8524 5.435 17.1231 6.14982 17.3103C6.90516 17.508 7.76952 17.5997 8.62988 17.615C9.48811 17.6303 10.3244 17.5694 11.016 17.4718C11.6373 17.3841 12.0994 17.2724 12.3534 17.1784L12.4495 17.1394C14.7096 16.1084 15.8848 14.8635 16.4416 13.6905C16.9993 12.5154 16.9712 11.3399 16.6918 10.384V10.3832C16.5702 9.96581 16.4615 9.1521 16.3842 8.40403C16.3054 7.64183 16.2499 6.85488 16.2499 6.45863ZM17.4999 6.45863C17.4999 6.78734 17.5497 7.52145 17.6277 8.27585C17.7071 9.04461 17.8072 9.74358 17.8918 10.0337H17.8914C18.2411 11.2304 18.2818 12.7281 17.5707 14.2264C16.8586 15.7268 15.4274 17.1553 12.9679 18.2771L12.967 18.2775C12.5753 18.4556 11.9257 18.6059 11.1909 18.7096C10.4375 18.8159 9.53537 18.8811 8.60791 18.8646C7.68258 18.8482 6.71326 18.75 5.83325 18.5196C4.96051 18.2911 4.12402 17.9192 3.51839 17.3188V17.3192C1.42798 15.2481 1.63479 12.9819 1.66699 11.8574C1.68528 11.2006 1.9744 9.92858 2.56746 8.65101C3.16213 7.36999 4.1122 5.97425 5.52726 5.18747L5.74495 5.06296C6.22582 4.77961 6.52759 4.54606 6.81022 4.34152C7.14416 4.09987 7.47548 3.88051 7.98779 3.76535C8.90055 3.56024 9.88037 3.82767 10.699 4.14947C11.3524 4.05817 11.9575 4.05984 12.4076 4.0864C12.5879 4.09704 12.7451 4.11236 12.8726 4.12668C12.8886 4.10807 12.9057 4.08871 12.9231 4.06849C13.0881 3.87635 13.3118 3.61472 13.5473 3.33689C13.9681 2.84038 14.4037 2.31781 14.6207 2.0344L14.6996 1.9286C14.9053 1.63216 15.1566 1.41206 15.45 1.28651C15.7481 1.15891 16.0476 1.14709 16.313 1.20188C16.8112 1.30476 17.2156 1.64483 17.4108 1.97011C17.472 2.07217 17.5024 2.17652 17.519 2.24354C17.5377 2.31892 17.551 2.39787 17.5605 2.47344C17.5797 2.62476 17.5903 2.80272 17.5959 2.98939C17.6072 3.36473 17.5993 3.82598 17.585 4.28415C17.5552 5.23553 17.4999 6.129 17.4999 6.45863Z" fill="#1C2024"/>
<path d="M5.52815 1.19105C6.00556 0.943278 6.69852 0.869664 7.26074 1.37945L7.31485 1.43071L7.31526 1.43112L7.56062 1.6659C8.16099 2.22186 8.93892 2.8243 9.61181 3.31711C9.99267 3.59604 10.3333 3.83519 10.5786 4.00436C10.7011 4.08887 10.7995 4.15609 10.8671 4.20171C10.9008 4.22445 10.927 4.24173 10.9444 4.25339C10.9531 4.25922 10.96 4.26355 10.9643 4.26641C10.9664 4.26778 10.9678 4.269 10.9688 4.26966L10.97 4.27048L11.0217 4.30832C11.2668 4.50905 11.3246 4.86697 11.1458 5.13677C10.9552 5.42441 10.5677 5.5031 10.2799 5.31255L10.5656 4.88124L10.2795 5.31255L10.2791 5.31214C10.2787 5.31189 10.2782 5.31137 10.2775 5.31092C10.2762 5.31004 10.2742 5.30887 10.2718 5.30726C10.2668 5.30393 10.2593 5.29893 10.2498 5.29261C10.2309 5.27999 10.2033 5.26148 10.168 5.23768C10.0973 5.18993 9.9953 5.12053 9.86897 5.03342C9.61631 4.85917 9.26538 4.61328 8.87288 4.32582C8.09519 3.75626 7.1264 3.00448 6.43513 2.31898L6.39526 2.2848C6.35786 2.25816 6.32716 2.25131 6.30126 2.2494C6.25585 2.24609 6.18698 2.25755 6.10392 2.30067C6.02066 2.3439 5.94834 2.40634 5.90169 2.46709C5.88125 2.49372 5.87088 2.51293 5.86588 2.52365C5.87157 2.633 5.88698 2.81338 5.9082 3.07053C5.93115 3.34878 5.95757 3.69079 5.9733 4.05156C6.00348 4.74392 6.0011 5.60801 5.80444 6.23011C5.70035 6.55918 5.34902 6.74146 5.01993 6.63742C4.69089 6.53339 4.50831 6.18238 4.61222 5.85332C4.73456 5.46632 4.7551 4.80751 4.72452 4.10609C4.70987 3.77011 4.68487 3.4475 4.66227 3.17347C4.65153 3.04336 4.6406 2.91641 4.63175 2.80401L4.61384 2.52121C4.61357 2.51231 4.61374 2.50326 4.61384 2.49435L4.62117 2.37879C4.65239 2.11344 4.77565 1.88132 4.91007 1.70619C5.06943 1.49856 5.28433 1.31761 5.52815 1.19105Z" fill="#1C2024"/>
<path d="M6.80339 12.4891C6.80339 12.4891 6.95964 12.5325 7.34158 12.4436C7.7257 12.3524 8.43316 11.8598 8.71962 11.1415C9.00825 10.421 7.09853 10.3971 6.61025 10.421C6.30643 10.4362 5.93967 10.6011 5.84419 11.1415C5.7487 11.6797 6.32379 12.4891 6.80339 12.4891Z" fill="#1C2024"/>
<path d="M4.75463 13.5287C4.97721 13.2937 5.33878 13.2696 5.58959 13.4632L5.63801 13.5047L5.76415 13.6186C6.43374 14.1959 7.68412 14.8617 9.12027 14.2208C9.43548 14.0802 9.80521 14.2218 9.94587 14.537C10.0865 14.8522 9.94492 15.2219 9.62971 15.3626C7.54608 16.2924 5.78399 15.2862 4.9357 14.5541L4.77864 14.4121L4.73429 14.3657C4.5276 14.1257 4.53216 13.7636 4.75463 13.5287ZM12.5268 4.61062C12.6207 4.30091 12.9333 4.11729 13.2442 4.17809L13.3061 4.19355L13.551 4.2733C13.8011 4.36038 14.0639 4.46821 14.3111 4.58824C14.592 4.72461 14.8837 4.89171 15.1164 5.08059L15.2124 5.16279L15.2572 5.20795C15.4689 5.44369 15.4717 5.80633 15.2539 6.04576C15.0361 6.28501 14.6752 6.31631 14.4206 6.12796L14.3709 6.08726L14.3233 6.04657C14.2017 5.94879 14.0092 5.83145 13.765 5.71292C13.5622 5.61445 13.3451 5.52546 13.1417 5.45453L12.9439 5.38984L12.8837 5.36827C12.5913 5.24632 12.4331 4.92033 12.5268 4.61062Z" fill="#1C2024"/>
<path d="M2.60499 9.445C2.78448 9.17577 3.13678 9.09056 3.41675 9.2387L3.47168 9.27166L4.72168 10.105L4.77295 10.1432C5.01744 10.3447 5.07453 10.7024 4.89502 10.9717C4.71553 11.2409 4.36323 11.3261 4.08326 11.178L4.02833 11.145L2.77833 10.3117L2.72706 10.2735C2.48257 10.072 2.42548 9.71426 2.60499 9.445Z" fill="#1C2024"/>
<path d="M11.0372 11.8983L10.9192 12.4879C10.5808 12.4202 10.3613 12.0911 10.4289 11.7526C10.4965 11.4145 10.8252 11.1948 11.1633 11.2619C11.1649 11.2622 11.1673 11.2626 11.1707 11.2631C11.18 11.2647 11.1963 11.2677 11.2187 11.2709C11.2637 11.2771 11.3327 11.285 11.4193 11.2904C11.5942 11.3013 11.8311 11.3009 12.0846 11.2586C12.5892 11.1745 13.1019 10.9402 13.3993 10.3456C14.0016 9.14095 15.2114 9.05655 16.0258 9.17287C16.4482 9.23321 16.8315 9.35239 17.1041 9.45282C17.2419 9.50358 17.3552 9.55087 17.4353 9.58628C17.4754 9.60401 17.5076 9.61898 17.5305 9.62982C17.5419 9.63518 17.551 9.63954 17.5578 9.64284C17.5611 9.64448 17.5641 9.64583 17.5663 9.64691C17.5674 9.64745 17.5684 9.64814 17.5692 9.64854C17.5696 9.64874 17.5701 9.64879 17.5704 9.64894L17.5708 9.64935C17.5701 9.65121 17.5571 9.67758 17.3617 10.0685L17.5712 9.64935C17.8799 9.80372 18.0051 10.1792 17.8508 10.488C17.6964 10.7967 17.3209 10.9219 17.0121 10.7675V10.7671C17.0118 10.767 17.0113 10.7669 17.0109 10.7667C17.0082 10.7654 17.0032 10.7631 16.9963 10.7598C16.9822 10.7531 16.9597 10.7428 16.9299 10.7297C16.8701 10.7032 16.7815 10.6659 16.672 10.6255C16.4498 10.5437 16.156 10.4541 15.8492 10.4103C15.2052 10.3183 14.7484 10.4426 14.5174 10.9046C13.9814 11.9766 13.0357 12.3673 12.2904 12.4916C11.9191 12.5535 11.5828 12.553 11.3411 12.5379C11.2194 12.5303 11.1191 12.5187 11.047 12.5086C11.0108 12.5036 10.9814 12.4989 10.9599 12.4952C10.9491 12.4934 10.9403 12.492 10.9334 12.4907C10.9301 12.4901 10.9272 12.4896 10.9249 12.4891C10.9237 12.4889 10.9225 12.4885 10.9216 12.4883C10.9212 12.4882 10.9204 12.4884 10.92 12.4883L10.9196 12.4879C10.9198 12.4858 10.9265 12.452 11.0372 11.8983ZM11.0417 11.8751C11.0528 11.8193 11.063 11.7686 11.0722 11.7225L11.0372 11.8983C11.0387 11.8907 11.0401 11.8829 11.0417 11.8751Z" fill="#1C2024"/>
</svg>
