<svg width="64" height="64" viewBox="0 0 64 64" fill="none" xmlns="http://www.w3.org/2000/svg">
<path d="M9 52.4436V46.438C9 44.8195 9.40463 43.4352 10.2139 42.2852C11.0231 41.1352 12.0667 40.2621 13.3444 39.6658C16.1981 38.388 18.9347 37.4297 21.5542 36.7908C24.1736 36.1519 26.8037 35.8325 29.4444 35.8325C30.5519 35.8325 31.6273 35.8858 32.6708 35.9922C33.7144 36.0986 34.7898 36.2584 35.8972 36.4714C35.6842 38.9417 36.1422 41.2736 37.2708 43.4672C38.3995 45.6608 40.05 47.375 42.2222 48.6102V52.4436H9ZM49.8889 61.8352L46.0556 58.0019V46.1186C44.1814 45.5649 42.6481 44.5108 41.4556 42.9561C40.263 41.4014 39.6667 39.6019 39.6667 37.5575C39.6667 35.0871 40.5398 32.9788 42.2861 31.2325C44.0324 29.4861 46.1408 28.613 48.6111 28.613C51.0814 28.613 53.1898 29.4861 54.9361 31.2325C56.6824 32.9788 57.5556 35.0871 57.5556 37.5575C57.5556 39.4741 57.0125 41.1778 55.9264 42.6686C54.8403 44.1594 53.4667 45.2241 51.8056 45.863L55 49.0575L51.1667 52.8908L55 56.7241L49.8889 61.8352ZM29.4444 30.7214C26.7611 30.7214 24.4931 29.795 22.6403 27.9422C20.7875 26.0894 19.8611 23.8214 19.8611 21.138C19.8611 18.4547 20.7875 16.1866 22.6403 14.3339C24.4931 12.4811 26.7611 11.5547 29.4444 11.5547C32.1278 11.5547 34.3958 12.4811 36.2486 14.3339C38.1014 16.1866 39.0278 18.4547 39.0278 21.138C39.0278 23.8214 38.1014 26.0894 36.2486 27.9422C34.3958 29.795 32.1278 30.7214 29.4444 30.7214ZM48.6111 38.8352C49.3352 38.8352 49.9422 38.5903 50.4319 38.1005C50.9217 37.6108 51.1667 37.0038 51.1667 36.2797C51.1667 35.5556 50.9217 34.9486 50.4319 34.4589C49.9422 33.9691 49.3352 33.7241 48.6111 33.7241C47.887 33.7241 47.28 33.9691 46.7903 34.4589C46.3005 34.9486 46.0556 35.5556 46.0556 36.2797C46.0556 37.0038 46.3005 37.6108 46.7903 38.1005C47.28 38.5903 47.887 38.8352 48.6111 38.8352Z" fill="#444444"/>
</svg>
