<svg width="16" height="18" viewBox="0 0 16 18" fill="none" xmlns="http://www.w3.org/2000/svg">
<g id="surface222126">
<path id="Vector (Stroke)" d="M9.25 3.16699C9.25 2.47701 8.68998 1.91699 8 1.91699C7.31002 1.91699 6.75 2.47701 6.75 3.16699V3.79199H5.5V3.16699C5.5 1.78666 6.61967 0.666992 8 0.666992C9.38033 0.666992 10.5 1.78666 10.5 3.16699V3.79199H9.25V3.16699Z" fill="#E5484D"/>
<path id="Vector (Stroke)_2" d="M14.875 3.16699C15.2202 3.16699 15.5 3.44681 15.5 3.79199C15.5 4.13717 15.2202 4.41699 14.875 4.41699H1.125C0.779822 4.41699 0.5 4.13717 0.5 3.79199C0.5 3.44681 0.779822 3.16699 1.125 3.16699H14.875Z" fill="#E5484D"/>
<path id="Vector (Stroke)_3" d="M2.1665 15.042V3.79199C2.1665 3.44681 2.44633 3.16699 2.7915 3.16699C3.13668 3.16699 3.4165 3.44681 3.4165 3.79199V15.042C3.4165 15.617 3.88321 16.0837 4.45817 16.0837H11.5415C12.1165 16.0837 12.5832 15.617 12.5832 15.042V3.79199C12.5832 3.44681 12.863 3.16699 13.2082 3.16699C13.5533 3.16699 13.8332 3.44681 13.8332 3.79199V15.042C13.8332 16.3073 12.8068 17.3337 11.5415 17.3337H4.45817C3.19285 17.3337 2.1665 16.3073 2.1665 15.042Z" fill="#E5484D"/>
<path id="Vector (Stroke)_4" d="M5.9165 13.375V7.125C5.9165 6.77982 6.19633 6.5 6.5415 6.5C6.88668 6.5 7.1665 6.77982 7.1665 7.125V13.375C7.1665 13.7202 6.88668 14 6.5415 14C6.19633 14 5.9165 13.7202 5.9165 13.375Z" fill="#E5484D"/>
<path id="Vector (Stroke)_5" d="M8.8335 13.375V7.125C8.8335 6.77982 9.11332 6.5 9.4585 6.5C9.80367 6.5 10.0835 6.77982 10.0835 7.125V13.375C10.0835 13.7202 9.80367 14 9.4585 14C9.11332 14 8.8335 13.7202 8.8335 13.375Z" fill="#E5484D"/>
</g>
</svg>
