<svg width="24" height="24" viewBox="0 0 24 24" fill="none" xmlns="http://www.w3.org/2000/svg">
<path d="M5 15.9297C2.60879 14.5465 1 11.9611 1 9C1 4.58172 4.58172 1 9 1C12.3949 1 15.2959 3.11466 16.4576 6.09864C16.7951 6.0339 17.1436 6 17.5 6C20.5376 6 23 8.46243 23 11.5C23 14.0176 21.3085 16.14 19 16.793V14.6632C20.1825 14.1015 21 12.8962 21 11.5C21 9.567 19.433 8 17.5 8C16.5205 8 15.6351 8.40232 14.9998 9.0507C14.9999 9.0338 15 9.0169 15 9C15 5.68629 12.3137 3 9 3C5.68629 3 3 5.68629 3 9C3 10.777 3.7725 12.3736 5 13.4722V15.9297ZM7 13H9V19H7V13ZM15 13H17V19H15V13ZM11 16H13V22H11V16Z" fill="black"/>
</svg>
