<svg width="24" height="24" viewBox="0 0 24 24" fill="none" xmlns="http://www.w3.org/2000/svg">
<path d="M10.8555 2.06399C6.30338 2.56919 2.59505 6.2619 2.06901 10.8088C1.52213 15.5379 4.28255 19.7046 8.32943 21.3036C8.65234 21.4338 9.0013 21.1786 9.0013 20.8296V19.2515C9.0013 19.2515 8.6263 19.3765 8.1263 19.3765C6.72526 19.3765 6.14713 18.1265 6.0013 17.5015C5.91276 17.1213 5.68359 16.7567 5.4388 16.5379C5.14193 16.2723 5.0013 16.2723 5.0013 16.1838C4.99609 15.9911 5.25651 16.0015 5.3763 16.0015C6.0013 16.0015 6.47526 16.6682 6.69401 17.0119C7.24088 17.8609 7.82422 18.0015 8.1263 18.0015C8.5013 18.0015 8.82422 17.9442 9.04818 17.84C9.15234 17.1109 9.47526 16.465 10.0013 16.0015C7.65755 15.5327 6.0013 14.189 6.0013 12.0015C6.0013 10.8765 6.45443 9.84003 7.20443 9.00669C7.13151 8.78794 7.0013 8.34524 7.0013 7.62649C7.0013 7.15253 7.03255 6.56919 7.2513 6.00149C7.2513 6.00149 8.67838 6.0119 10.0221 7.28794C10.6419 7.10565 11.3086 7.00149 12.0013 7.00149C12.694 7.00149 13.3607 7.10565 13.9805 7.28794C15.3242 6.0119 16.7513 6.00149 16.7513 6.00149C16.9701 6.56919 17.0013 7.15253 17.0013 7.62649C17.0013 8.40253 16.8971 8.85565 16.8346 9.04836C17.5638 9.87649 18.0013 10.8973 18.0013 12.0015C18.0013 14.189 16.3451 15.5327 14.0013 16.0015C14.6263 16.5536 15.0013 17.3504 15.0013 18.2515V20.8296C15.0013 21.1786 15.3503 21.4338 15.6732 21.3036C19.3763 19.84 22.0013 16.2307 22.0013 12.0015C22.0013 6.10044 16.8919 1.39211 10.8555 2.06399Z" fill="black"/>
</svg>
