<svg width="24" height="24" viewBox="0 0 24 24" fill="none" xmlns="http://www.w3.org/2000/svg">
<path fill-rule="evenodd" clip-rule="evenodd" d="M11.2549 3.02623C8.119 3.29094 5.35819 5.15814 3.95701 7.96199C2.31718 11.2434 2.81411 15.1559 5.22203 17.922C6.92319 19.8761 9.40064 21.0026 11.9917 21C15.8382 20.9961 19.2397 18.5663 20.4964 14.9246C20.7434 14.2087 20.9178 13.3527 20.9575 12.6608C20.9641 12.5445 20.9765 12.4493 20.9849 12.4493C20.9934 12.4493 21.0001 12.2366 21 11.9767C20.9998 11.7168 20.993 11.5148 20.9847 11.5278C20.9759 11.5417 20.9647 11.4639 20.9575 11.3388C20.8783 9.95819 20.3845 8.45309 19.6 7.20159C18.2052 4.97646 15.884 3.46722 13.2743 3.08858C12.664 3.00002 11.8597 2.9752 11.2549 3.02623ZM11.6684 4.51216C10.6062 4.55396 9.58298 4.82346 8.60276 5.31957C7.84561 5.70278 7.25765 6.13495 6.65057 6.7545C6.07072 7.34627 5.68634 7.88132 5.32056 8.60577C4.72546 9.7844 4.4643 10.9913 4.5154 12.3263C4.57405 13.8583 5.14561 15.4126 6.09316 16.6168C6.52446 17.1649 7.09909 17.7143 7.65879 18.1136C9.45068 19.3921 11.7649 19.8108 13.9091 19.2446C14.7582 19.0203 15.6015 18.6255 16.3244 18.1138C16.9764 17.6524 17.6409 16.9871 18.0984 16.3378C19.3825 14.5152 19.7952 12.2303 19.2286 10.0799C18.9748 9.11664 18.4934 8.14543 17.8912 7.38161C17.5384 6.9342 17.0528 6.44813 16.6041 6.09334C15.4218 5.15856 13.8338 4.56666 12.3787 4.51836C12.2204 4.5131 12.0667 4.50678 12.037 4.5043C12.0074 4.50181 11.8415 4.50534 11.6684 4.51216ZM8.23413 8.24576L7.70388 8.77686L9.31303 10.388L10.9222 11.9992L9.31745 13.606L7.71273 15.2127L8.24761 15.7482L8.78249 16.2838L10.3873 14.6771L11.9921 13.0704L13.5969 14.6771L15.2017 16.2838L15.7365 15.7482L16.2714 15.2127L14.6667 13.606L13.062 11.9992L14.6712 10.388L16.2803 8.77679L15.7455 8.24126L15.2106 7.70572L13.6013 9.31686L11.9921 10.928L10.3873 9.32132C9.50464 8.43766 8.77841 7.71465 8.77343 7.71465C8.76843 7.71465 8.52575 7.95365 8.23413 8.24576ZM3.00972 11.9992C3.00972 12.2616 3.01223 12.3689 3.01529 12.2377C3.01836 12.1065 3.01836 11.8919 3.01529 11.7607C3.01223 11.6295 3.00972 11.7368 3.00972 11.9992Z" fill="black"/>
</svg>
