<svg width="24" height="24" viewBox="0 0 24 24" fill="none" xmlns="http://www.w3.org/2000/svg">
<path fill-rule="evenodd" clip-rule="evenodd" d="M21 13H9V11H21V13Z" fill="black"/>
<path d="M14.9958 9V4C14.9958 2.89583 14.1 2 12.9958 2H4.99585C3.89168 2 2.99585 2.89583 2.99585 4V20C2.99585 21.1042 3.89168 22 4.99585 22H12.9958C14.1 22 14.9958 21.1042 14.9958 20V15H12.9958V20H4.99585V4H12.9958V9H14.9958Z" fill="black"/>
<path fill-rule="evenodd" clip-rule="evenodd" d="M19.665 12L16.3721 8.70712L17.7863 7.29291L22.4934 12L17.7863 16.7071L16.3721 15.2929L19.665 12Z" fill="black"/>
</svg>
