<svg width="24" height="24" viewBox="0 0 24 24" fill="none" xmlns="http://www.w3.org/2000/svg">
<path d="M23.9896 18.9844C23.9896 21.3125 22.0729 21.6303 21.7396 21.6719V23H20.7344V21.6719C20.4219 21.625 18.3229 21.3959 18.3229 18.5053H20.2135C20.2135 20.2136 21.0937 20.1407 21.2292 20.1407C21.375 20.1407 22.0989 20.1146 22.0989 19C22.0989 16.7709 18.6354 17.7605 18.6354 14.4167C18.6354 12.1302 20.5364 11.7709 20.875 11.7292V10.3021H21.8854V11.7553C22.2031 11.8178 24 12.2292 24 14.8542H22.1094C22.1094 13.4792 21.526 13.2657 21.2812 13.2657C21.1458 13.2657 20.526 13.3021 20.526 14.4271C20.526 16.3907 23.9896 15.7813 23.9896 18.9844Z" fill="#444444"/>
<path d="M20 3H4C2.89583 3 2 3.89583 2 5V17C2 18.1042 2.89583 19 4 19H17V14C17 12.5208 17.8073 11.25 19 10.5573V9C19 8.44792 19.4479 8 20 8H22V5C22 3.89583 21.1042 3 20 3ZM7 16H5V14H7V16ZM8 9H5V6H8V9ZM11 16H9V14H11V16ZM15 16H13V14H15V16ZM17 9H11V7H17V9Z" fill="#444444"/>
</svg>
