<svg width="24" height="24" viewBox="0 0 24 24" fill="none" xmlns="http://www.w3.org/2000/svg">
<path d="M19.1589 2.12175C18.9453 1.98633 18.6745 1.96289 18.4453 2.06706L16.4844 2.93685L14.2812 2.05664C14.099 1.98112 13.901 1.98112 13.7188 2.05664L11.5 2.94206L9.28125 2.05664C9.09896 1.98112 8.90104 1.98112 8.71875 2.05664L6.51563 2.93685L4.55469 2.06706C4.32552 1.96289 4.05469 1.98633 3.84115 2.12175C3.63021 2.26237 3.5 2.49675 3.5 2.75195V18.252C3.5 19.7676 4.73437 21.002 6.25 21.002H11.3802C11.0208 20.5462 10.724 20.041 10.5 19.502H6.25C5.5599 19.502 5 18.9421 5 18.252V3.9082L6.19531 4.43685C6.38021 4.52279 6.59115 4.52279 6.78125 4.44727L9 3.56185L11.2188 4.44727C11.401 4.52279 11.599 4.52279 11.7812 4.44727L14 3.56185L16.2188 4.44727C16.4089 4.52279 16.6198 4.52279 16.8047 4.43685L18 3.9082V10.0775C18.526 10.1608 19.026 10.3014 19.5 10.502V2.75195C19.5 2.49675 19.3698 2.26237 19.1589 2.12175Z" fill="#1C2024"/>
<path d="M15.75 8.00195C16.1642 8.00195 16.5 8.33774 16.5 8.75195C16.5 9.16617 16.1642 9.50195 15.75 9.50195H7.25C6.83579 9.50195 6.5 9.16617 6.5 8.75195C6.5 8.33774 6.83579 8.00195 7.25 8.00195H15.75Z" fill="#1C2024"/>
<path d="M11.6797 12.6426C11.3099 13.0514 10.9896 13.5072 10.7344 14.002H7.25C6.83594 14.002 6.5 13.666 6.5 13.252C6.5 12.8379 6.83594 12.502 7.25 12.502H11.25C11.4089 12.502 11.5599 12.5514 11.6797 12.6426Z" fill="#1C2024"/>
<path d="M10.1745 15.502C10.0599 15.9811 10 16.4863 10 17.002H7.25C6.83594 17.002 6.5 16.666 6.5 16.252C6.5 15.8379 6.83594 15.502 7.25 15.502H10.1745Z" fill="#1C2024"/>
<path d="M21.75 17.502C21.75 15.1558 19.8462 13.252 17.5 13.252C15.1538 13.252 13.25 15.1558 13.25 17.502C13.25 19.8482 15.1538 21.752 17.5 21.752C19.8462 21.752 21.75 19.8482 21.75 17.502ZM23.25 17.502C23.25 20.6766 20.6746 23.252 17.5 23.252C14.3254 23.252 11.75 20.6766 11.75 17.502C11.75 14.3273 14.3254 11.752 17.5 11.752C20.6746 11.752 23.25 14.3273 23.25 17.502Z" fill="#1C2024"/>
<path d="M16.75 15.002C16.75 14.5877 17.0858 14.252 17.5 14.252C17.9142 14.252 18.25 14.5877 18.25 15.002V17.252H19.5C19.9142 17.252 20.25 17.5877 20.25 18.002C20.25 18.4162 19.9142 18.752 19.5 18.752H17.5C17.0858 18.752 16.75 18.4162 16.75 18.002V15.002Z" fill="#1C2024"/>
</svg>
