<svg width="24" height="24" viewBox="0 0 24 24" fill="none" xmlns="http://www.w3.org/2000/svg">
<path d="M2 5.79443V4.25C2 3.55974 2.55974 3 3.25 3H11.75C12.1642 3 12.5 3.33579 12.5 3.75C12.5 4.16421 12.1642 4.5 11.75 4.5H3.5V5.79443C3.50003 6.15413 3.58567 6.63737 3.75439 7.09277C3.90622 7.50254 4.09668 7.81262 4.28027 7.99316L4.3584 8.0625L4.37695 8.07812L8.73389 11.7578C8.90257 11.9003 8.99995 12.1098 9 12.3306V18.7925L11 17.3638V12.3306C11.0001 11.9164 11.3358 11.5806 11.75 11.5806C12.1642 11.5806 12.4999 11.9164 12.5 12.3306V17.75C12.5 17.9922 12.3831 18.2196 12.186 18.3604L8.68604 20.8604C8.45742 21.0236 8.15654 21.0455 7.90674 20.917C7.65694 20.7884 7.5 20.5309 7.5 20.25V12.6787L3.40918 9.22412V9.22363C2.90497 8.81627 2.56267 8.19452 2.34766 7.61426C2.12518 7.01383 2.00002 6.35392 2 5.79443Z" fill="#7E808A"/>
<path d="M21.75 4.5C22.1642 4.5 22.5 4.83579 22.5 5.25C22.5 5.66421 22.1642 6 21.75 6H14.75C14.3358 6 14 5.66421 14 5.25C14 4.83579 14.3358 4.5 14.75 4.5H21.75Z" fill="#7E808A"/>
<path d="M19.75 8.5C20.1642 8.5 20.5 8.83579 20.5 9.25C20.5 9.66421 20.1642 10 19.75 10H14.75C14.3358 10 14 9.66421 14 9.25C14 8.83579 14.3358 8.5 14.75 8.5H19.75Z" fill="#7E808A"/>
<path d="M17.75 12.5C18.1642 12.5 18.5 12.8358 18.5 13.25C18.5 13.6642 18.1642 14 17.75 14H14.75C14.3358 14 14 13.6642 14 13.25C14 12.8358 14.3358 12.5 14.75 12.5H17.75Z" fill="#7E808A"/>
<path d="M15.75 16.5C16.1642 16.5 16.5 16.8358 16.5 17.25C16.5 17.6642 16.1642 18 15.75 18H14.75C14.3358 18 14 17.6642 14 17.25C14 16.8358 14.3358 16.5 14.75 16.5H15.75Z" fill="#7E808A"/>
</svg>
