<svg width="24" height="24" viewBox="0 0 24 24" fill="none" xmlns="http://www.w3.org/2000/svg">
<path d="M9.62944 5.1098C10.5715 4.86086 11.5392 4.73579 12.5317 4.73579C13.5243 4.73579 14.5175 4.86026 15.5107 5.1098C15.9638 4.78436 16.4151 4.5251 16.8631 4.33202C17.3111 4.13894 17.894 4.03329 18.6118 4.01569C18.8374 4.58582 18.9499 5.09462 18.9499 5.54271C18.9499 5.9908 18.8802 6.43525 18.7402 6.87666C19.667 8.07339 20.0824 9.39762 19.9865 10.8488C19.8427 13.0255 18.6527 14.0801 17.4882 14.6351C16.7116 15.0048 15.8105 15.2313 14.7847 15.3145C15.1598 15.7686 15.4021 16.5009 15.5107 17.5124C15.6194 18.524 15.6194 19.6867 15.5107 21H9.62944V18.5738C8.41254 18.7766 7.52479 18.7183 6.96619 18.3989C6.1283 17.9198 6.04777 17.0467 5.24886 16.2416C4.44995 15.4365 4 15.275 4 14.955C4 14.6351 5.05456 14.3691 5.93784 15.3145C6.82111 16.2598 7.59638 16.9872 8.37356 17.0771C8.89189 17.1372 9.33608 17.0443 9.70678 16.7984C9.70422 16.496 9.78347 16.2022 9.94453 15.9162C10.1056 15.6302 10.266 15.4298 10.4271 15.3145C8.32626 15.0127 6.7981 14.1706 5.84389 12.7881C4.88967 11.4055 5.08141 9.46198 6.41974 6.95863C6.1724 6.53543 6.04905 6.03877 6.04905 5.46925C6.04905 4.89972 6.17304 4.4152 6.41974 4.01569C7.1803 3.96529 7.84691 4.03633 8.41893 4.2288C8.99095 4.42127 9.39424 4.71514 9.62944 5.1098Z" fill="#191919"/>
</svg>
