<svg width="24" height="24" viewBox="0 0 24 24" fill="none" xmlns="http://www.w3.org/2000/svg">
<path fill-rule="evenodd" clip-rule="evenodd" d="M12 21.5C11.4477 21.5 11 21.0523 11 20.5V5C11 4.44772 11.4477 4 12 4C12.5523 4 13 4.44772 13 5V20.5C13 21.0523 12.5523 21.5 12 21.5Z" fill="#1C2024"/>
<path fill-rule="evenodd" clip-rule="evenodd" d="M4.29289 11.7071C3.90237 11.3166 3.90237 10.6834 4.29289 10.2929L11.2929 3.29289C11.6834 2.90237 12.3166 2.90237 12.7071 3.29289L19.7071 10.2929C20.0976 10.6834 20.0976 11.3166 19.7071 11.7071C19.3166 12.0976 18.6834 12.0976 18.2929 11.7071L12 5.41421L5.70711 11.7071C5.31658 12.0976 4.68342 12.0976 4.29289 11.7071Z" fill="#1C2024"/>
</svg>
