<svg width="24" height="24" viewBox="0 0 24 24" fill="none" xmlns="http://www.w3.org/2000/svg">
<path fill-rule="evenodd" clip-rule="evenodd" d="M22.0049 10.0027C22.0049 5.58447 18.4232 2.00275 14.0049 2.00275C11.3204 2.00275 8.94466 3.32502 7.49331 5.3537C8.28901 5.12342 9.1301 5 10 5C10.2206 5 10.4394 5.00794 10.656 5.02354C11.6125 4.37898 12.7648 4.00275 14.0049 4.00275C17.3186 4.00275 20.0049 6.68904 20.0049 10.0027C20.0049 11.2469 19.6262 12.4027 18.9777 13.3609C18.9925 13.572 19 13.7851 19 14C19 14.8757 18.8749 15.7223 18.6416 16.5228C20.6773 15.0725 22.0049 12.6927 22.0049 10.0027ZM4.00489 14.0027C4.00489 10.689 6.69118 8.00275 10.0049 8.00275C13.3186 8.00275 16.0049 10.689 16.0049 14.0027C16.0049 17.3165 13.3186 20.0027 10.0049 20.0027C6.69118 20.0027 4.00489 17.3165 4.00489 14.0027ZM10 7.25001C6.27207 7.25001 3.25 10.272 3.25 14C3.25 17.728 6.27207 20.75 10 20.75C13.7279 20.75 16.75 17.728 16.75 14C16.75 10.272 13.7279 7.25001 10 7.25001Z" fill="black"/>
<path fill-rule="evenodd" clip-rule="evenodd" d="M2 14C2 18.4183 5.58172 22 10 22C14.4183 22 18 18.4182 18 14C18 9.58172 14.4183 6 10 6C5.58172 6 2 9.58165 2 14ZM9 13V10H11V13H14V15H11V18H9V15H6V13H9Z" fill="black"/>
</svg>
