<svg width="20" height="20" viewBox="0 0 20 20" fill="none" xmlns="http://www.w3.org/2000/svg">
<path d="M1.66669 5.0026V15.0026C1.66669 15.9184 2.41755 16.6693 3.33335 16.6693H16.6667C17.5825 16.6693 18.3334 15.9184 18.3334 15.0026V5.0026C18.3334 4.08681 17.5825 3.33594 16.6667 3.33594H3.33335C2.41321 3.33594 1.66669 4.08247 1.66669 5.0026ZM7.50002 6.66927C8.42016 6.66927 9.16669 7.4158 9.16669 8.33594C9.16669 9.25608 8.42016 10.0026 7.50002 10.0026C6.57988 10.0026 5.83335 9.25608 5.83335 8.33594C5.83335 7.4158 6.57988 6.66927 7.50002 6.66927ZM5.00002 12.5851C5.00002 11.7561 6.66669 11.3351 7.50002 11.3351C8.33335 11.3351 10 11.7561 10 12.5851V13.3359H5.00002V12.5851ZM15 9.16927H11.6667V7.5026H15V9.16927ZM15 12.5026H11.6667V10.8359H15V12.5026ZM16.6667 15.0026H3.33335V5.0026H16.6667V15.0026Z" fill="#77AA00"/>
</svg>
