<svg width="21" height="20" viewBox="0 0 21 20" fill="none" xmlns="http://www.w3.org/2000/svg">
<path fill-rule="evenodd" clip-rule="evenodd" d="M2.16602 9.99935C2.16602 5.39636 5.89636 1.66602 10.4993 1.66602C15.1023 1.66602 18.8327 5.39636 18.8327 9.99935C18.8327 14.6023 15.1023 18.3327 10.4993 18.3327C5.89636 18.3327 2.16602 14.6023 2.16602 9.99935ZM10.4993 2.91602C6.58671 2.91602 3.41602 6.08671 3.41602 9.99935C3.41602 13.912 6.58671 17.0827 10.4993 17.0827C14.412 17.0827 17.5827 13.912 17.5827 9.99935C17.5827 6.08671 14.412 2.91602 10.4993 2.91602Z" fill="#FCFCFD"/>
<path fill-rule="evenodd" clip-rule="evenodd" d="M9.10847 6.4337C9.10835 6.43364 9.10859 6.43376 9.10847 6.4337L14.1331 9.07735C14.8717 9.46836 14.8717 10.5289 14.1331 10.9199L14.1317 10.9207L9.10847 13.5636C9.10836 13.5636 9.10857 13.5635 9.10847 13.5636C8.41511 13.9291 7.58203 13.423 7.58203 12.6419V7.35541C7.58203 6.56939 8.41752 6.06952 9.10847 6.4337ZM8.83203 7.70071V12.2966L13.1996 9.99864L8.83203 7.70071ZM8.52521 12.458C8.52542 12.4579 8.52562 12.4578 8.52583 12.4577L8.52521 12.458Z" fill="#FCFCFD"/>
</svg>
