<svg width="24" height="24" viewBox="0 0 24 24" fill="none" xmlns="http://www.w3.org/2000/svg">
<path fill-rule="evenodd" clip-rule="evenodd" d="M17.7998 7.5002C17.7998 7.05837 17.4416 6.7002 16.9998 6.7002H5.4998C5.05798 6.7002 4.6998 7.05837 4.6998 7.5002C4.6998 7.94202 5.05798 8.3002 5.4998 8.3002H16.9998C17.4416 8.3002 17.7998 7.94202 17.7998 7.5002Z" fill="#1C2024"/>
<path fill-rule="evenodd" clip-rule="evenodd" d="M9.06549 2.93451C8.75307 2.62209 8.24654 2.62209 7.93412 2.93451L3.93412 6.93451C3.6217 7.24693 3.6217 7.75346 3.93412 8.06588L7.93412 12.0659C8.24654 12.3783 8.75307 12.3783 9.06549 12.0659C9.37791 11.7535 9.37791 11.2469 9.06549 10.9345L5.63118 7.5002L9.06549 4.06588C9.37791 3.75346 9.37791 3.24693 9.06549 2.93451Z" fill="#1C2024"/>
<path fill-rule="evenodd" clip-rule="evenodd" d="M6.19971 16.5002C6.19971 16.0584 6.55788 15.7002 6.99971 15.7002H18.4997C18.9415 15.7002 19.2997 16.0584 19.2997 16.5002C19.2997 16.942 18.9415 17.3002 18.4997 17.3002H6.99971C6.55788 17.3002 6.19971 16.942 6.19971 16.5002Z" fill="#1C2024"/>
<path fill-rule="evenodd" clip-rule="evenodd" d="M14.934 11.9345C15.2464 11.6221 15.753 11.6221 16.0654 11.9345L20.0654 15.9345C20.3778 16.2469 20.3778 16.7535 20.0654 17.0659L16.0654 21.0659C15.753 21.3783 15.2464 21.3783 14.934 21.0659C14.6216 20.7535 14.6216 20.2469 14.934 19.9345L18.3683 16.5002L14.934 13.0659C14.6216 12.7535 14.6216 12.2469 14.934 11.9345Z" fill="#1C2024"/>
</svg>
