<svg width="20" height="20" viewBox="0 0 20 20" fill="none" xmlns="http://www.w3.org/2000/svg">
<path d="M14.7145 12.3566L13.5362 11.1783L14.7145 9.99996C15.024 9.69042 15.2696 9.32295 15.4371 8.91852C15.6046 8.51409 15.6908 8.08063 15.6908 7.64288C15.6908 7.20512 15.6046 6.77166 15.4371 6.36723C15.2696 5.9628 15.024 5.59533 14.7145 5.28579C14.405 4.97626 14.0375 4.73072 13.6331 4.5632C13.2286 4.39568 12.7952 4.30946 12.3574 4.30946C11.9197 4.30946 11.4862 4.39568 11.0818 4.5632C10.6773 4.73072 10.3099 4.97626 10.0003 5.28579L8.82199 6.46413L7.64366 5.28579L8.82199 4.10746C9.76225 3.18239 11.03 2.66634 12.349 2.67171C13.668 2.67708 14.9315 3.20344 15.8642 4.13613C16.7968 5.06883 17.3232 6.33229 17.3286 7.65131C17.3339 8.97033 16.8179 10.238 15.8928 11.1783L14.7145 12.3566ZM12.3578 14.7141L11.1787 15.8925C10.2384 16.8175 8.97069 17.3336 7.65167 17.3282C6.33266 17.3228 5.06919 16.7965 4.1365 15.8638C3.20381 14.9311 2.67745 13.6676 2.67208 12.3486C2.6667 11.0296 3.18276 9.76188 4.10783 8.82163L5.28616 7.64329L6.46449 8.82163L5.28616 9.99996C4.66102 10.6251 4.30982 11.473 4.30982 12.357C4.30982 13.2411 4.66102 14.089 5.28616 14.7141C5.9113 15.3393 6.75916 15.6905 7.64324 15.6905C8.52732 15.6905 9.37519 15.3393 10.0003 14.7141L11.1787 13.5358L12.3578 14.7141ZM12.3578 6.46413L13.5362 7.64329L7.64366 13.535L6.46449 12.3566L12.3578 6.46413ZM4.81283 1.91079L6.42282 1.47913L7.28616 4.69996L5.67616 5.13163L4.81283 1.91079ZM12.7153 15.3008L14.3253 14.8691L15.1878 18.0891L13.5778 18.5208L12.7153 15.3008ZM1.91116 4.81246L5.13116 5.67579L4.69949 7.28496L1.47949 6.42246L1.91116 4.81246ZM15.3012 12.715L18.5212 13.5775L18.0895 15.1875L14.8695 14.3241L15.3012 12.715Z" fill="#1C2024"/>
</svg>
