<svg width="24" height="24" viewBox="0 0 24 24" fill="none" xmlns="http://www.w3.org/2000/svg">
<path d="M22.8698 21.4993L17.8282 12.4941C17.4584 11.8327 16.5417 11.8327 16.1719 12.4941L11.1302 21.4993C10.7604 22.1608 11.2188 22.9993 11.9584 22.9993H22.0417C22.7813 22.9993 23.2396 22.1608 22.8698 21.4993ZM16 14.9993H18V19.0046H16V14.9993ZM15.9948 21.9993L16 19.9993H18L18.0052 21.9993H15.9948Z" fill="#F3F3F3"/>
<path d="M11 1C5.47917 1 1 5.47917 1 11C1 15.9271 4.56771 20.0156 9.26042 20.8385C9.30729 20.7344 9.33333 20.6198 9.39063 20.5208L10.2604 18.9635L11.1615 17.349H10.5729V16.0208C10.2708 15.9792 8.24479 15.75 8.17187 13H10.0625C10.1198 14.5417 10.9375 14.4948 11.0677 14.4948C11.2135 14.4948 11.9375 14.4635 11.9375 13.349C11.9375 11.1198 8.47917 12.1094 8.47917 8.77083C8.47917 6.47917 10.375 6.11979 10.7135 6.07813V4.65104H11.724V6.10417C12.0365 6.16667 13.724 6.57292 13.8229 9H11.9375C11.8802 7.82292 11.3542 7.61458 11.1198 7.61458C10.9896 7.61458 10.3646 7.65104 10.3646 8.77604C10.3698 10.599 13.3333 10.2135 13.7708 12.6927L14.4271 11.5208C14.9531 10.5833 15.9375 10 17 10C17.7552 10 18.4583 10.3021 19 10.8073C19.0677 10.8698 19.1302 10.9427 19.1927 11.0104C19.3333 11.1719 19.4688 11.3333 19.5729 11.5208L19.9219 12.1406C19.9219 12.1354 19.9219 12.1354 19.9219 12.1354L20.6771 13.4896C20.8802 12.6927 21 11.8594 21 11C21 5.47917 16.526 1 11 1Z" fill="#F3F3F3"/>
</svg>
