<svg width="24" height="24" viewBox="0 0 24 24" fill="none" xmlns="http://www.w3.org/2000/svg">
<path fill-rule="evenodd" clip-rule="evenodd" d="M3 5L12 1L21 5V11C21 18.8281 14.5625 22.4844 12 23C9.4375 22.4844 3 18.8281 3 11V5ZM6.5 11H7.5C8.05208 11 8.5 10.5521 8.5 10V9C8.5 8.44792 8.05208 8 7.5 8H6.5C5.94792 8 5.5 8.44792 5.5 9V10C5.5 10.5521 5.94792 11 6.5 11ZM11.5 11C10.9479 11 10.5 10.5521 10.5 10V9C10.5 8.44792 10.9479 8 11.5 8H12.5C13.0521 8 13.5 8.44792 13.5 9V10C13.5 10.5521 13.0521 11 12.5 11H11.5ZM16.5 11H17.5C18.0521 11 18.5 10.5521 18.5 10V9C18.5 8.44792 18.0521 8 17.5 8H16.5C15.9479 8 15.5 8.44792 15.5 9V10C15.5 10.5521 15.9479 11 16.5 11Z" fill="#444444"/>
</svg>
