<svg width="20" height="20" viewBox="0 0 20 20" fill="none" xmlns="http://www.w3.org/2000/svg">
<g clip-path="url(#clip0_1846_34277)">
<path d="M9.167 1.66797V7.01294C8.82892 6.95054 8.48067 6.91797 8.12533 6.91797C4.9727 6.91797 2.41699 9.47364 2.41699 12.6263C2.41699 15.779 4.9727 18.3346 8.12533 18.3346C11.2779 18.3346 13.8337 15.779 13.8337 12.6263V9.51264C14.6972 9.87955 15.6385 10.0846 16.6671 10.0846H17.5004V5.41797H16.6671C15.0805 5.41797 13.8337 4.13679 13.8337 2.5013V1.66797H9.167ZM10.8337 3.33464H12.24C12.5682 5.18471 13.9728 6.66469 15.8338 7.00889V8.35814C14.9687 8.23132 14.1878 7.90668 13.4639 7.42214L12.167 6.55403V12.6263C12.167 14.8585 10.3575 16.668 8.12533 16.668C5.89318 16.668 4.08366 14.8585 4.08366 12.6263C4.08366 10.3941 5.89318 8.58464 8.12533 8.58464C8.19526 8.58464 8.26474 8.58639 8.33375 8.58989V9.92589C8.26496 9.92064 8.19545 9.91797 8.12533 9.91797C6.62956 9.91797 5.41699 11.1306 5.41699 12.6263C5.41699 14.1221 6.62956 15.3346 8.12533 15.3346C9.62109 15.3346 10.8337 14.1221 10.8337 12.6263C10.8337 9.52914 10.8327 6.43184 10.8337 3.33464ZM7.08366 12.6263C7.08366 12.051 7.55003 11.5846 8.12533 11.5846C8.70058 11.5846 9.167 12.051 9.167 12.6263C9.167 13.2016 8.70058 13.668 8.12533 13.668C7.55003 13.668 7.08366 13.2016 7.08366 12.6263Z" fill="#77AA00"/>
</g>
<defs>
<clipPath id="clip0_1846_34277">
<rect width="16.6667" height="16.6667" fill="white" transform="translate(1.66675 1.66797)"/>
</clipPath>
</defs>
</svg>
