<svg width="21" height="20" viewBox="0 0 21 20" fill="none" xmlns="http://www.w3.org/2000/svg">
<path fill-rule="evenodd" clip-rule="evenodd" d="M2.62192 12.8296C3.39868 11.8993 4.63409 10.8333 6.26167 10.8333C6.93264 10.8333 7.34618 10.9245 7.75295 11.0143C7.81544 11.0281 7.87778 11.0418 7.94086 11.0552C8.39043 11.1506 8.966 11.2499 10.1289 11.2499H11.9583C12.9936 11.2499 13.8333 12.0896 13.8333 13.1249C13.8333 14.1602 12.9936 14.9999 11.9583 14.9999H9.04162C8.69644 14.9999 8.41662 14.7201 8.41662 14.3749C8.41662 14.0297 8.69644 13.7499 9.04162 13.7499H11.9583C12.3032 13.7499 12.5833 13.4698 12.5833 13.1249C12.5833 12.78 12.3032 12.4999 11.9583 12.4999H10.1289C8.87635 12.4999 8.21385 12.3909 7.68144 12.278C7.60957 12.2627 7.54198 12.2479 7.47714 12.2337C7.08342 12.1473 6.79144 12.0833 6.26167 12.0833C5.20045 12.0833 4.28417 12.7891 3.58143 13.6307C3.24007 14.0396 2.97386 14.4516 2.79274 14.7628C2.70258 14.9177 2.63453 15.0458 2.58973 15.1337C2.56735 15.1776 2.55084 15.2113 2.54033 15.2332C2.53507 15.2441 2.53133 15.252 2.52911 15.2568L2.52703 15.2612C2.38382 15.5751 2.01317 15.7139 1.69916 15.5708C1.38504 15.4277 1.24642 15.0571 1.38953 14.743L1.93825 14.993C1.38953 14.743 1.38962 14.7428 1.38971 14.7426L1.39047 14.7409L1.39201 14.7376L1.39689 14.7271C1.40094 14.7184 1.40659 14.7065 1.41382 14.6914C1.42827 14.6614 1.44907 14.619 1.47609 14.5659C1.53009 14.46 1.60919 14.3113 1.71241 14.134C1.91805 13.7807 2.22353 13.3067 2.62192 12.8296Z" fill="#1C2024"/>
<path fill-rule="evenodd" clip-rule="evenodd" d="M17.8387 10.0079C18.3213 10.004 18.7637 10.1967 19.1168 10.5498C19.8321 11.265 19.8488 12.4127 19.1669 13.1481C19.1579 13.1585 19.1484 13.1686 19.1385 13.1785L19.1176 13.1994C19.1173 13.1997 19.1171 13.1999 19.1168 13.2002C19.0897 13.2273 19.0608 13.2513 19.0304 13.2724C18.0828 14.0691 17.2838 14.7542 16.604 15.3372C15.6978 16.1142 15.0033 16.7097 14.451 17.146C13.4819 17.9115 12.7829 18.3333 11.9583 18.3333C11.1128 18.3333 10.2597 18.2269 9.44444 18.1253L9.40375 18.1202C8.56235 18.0153 7.75738 17.9167 6.95828 17.9167C6.37049 17.9167 6.01881 18.1971 5.79162 18.5C5.67417 18.6566 5.59378 18.8165 5.54302 18.9383C5.51798 18.9984 5.50111 19.0469 5.49113 19.078C5.48616 19.0934 5.48296 19.1044 5.48136 19.11L5.48026 19.114C5.39483 19.4464 5.05688 19.648 4.72336 19.5647C4.38849 19.4809 4.18489 19.1416 4.26861 18.8067L4.87495 18.9583C4.26861 18.8067 4.26868 18.8064 4.26876 18.8062L4.26891 18.8055L4.26925 18.8042L4.27007 18.801L4.27222 18.7928C4.27389 18.7865 4.27604 18.7786 4.27871 18.7692C4.28403 18.7504 4.29141 18.7256 4.30109 18.6954C4.3204 18.6354 4.3491 18.5537 4.38917 18.4575C4.46862 18.2668 4.59656 18.0101 4.79162 17.75C5.18942 17.2196 5.87941 16.6667 6.95828 16.6667C7.84755 16.6667 8.72879 16.7764 9.55839 16.8798L9.56046 16.88C10.4032 16.9851 11.1909 17.0833 11.9583 17.0833C12.312 17.0833 12.7079 16.93 13.6762 16.1651C14.2138 15.7404 14.8761 15.1723 15.7578 14.4161C16.4444 13.8271 17.264 13.1241 18.2616 12.2857C18.4767 12.0402 18.4672 11.6679 18.2329 11.4337C18.0978 11.2985 17.9705 11.2568 17.8488 11.2578C17.7134 11.2589 17.5201 11.3148 17.2825 11.4924L17.2806 11.4938C16.967 11.7263 15.921 12.5067 14.9521 13.23C14.4679 13.5915 14.0034 13.9383 13.6599 14.1948L13.0947 14.617L13.0942 14.6173C13.0942 14.6174 13.094 14.6175 12.72 14.1167C12.346 13.616 12.346 13.616 12.346 13.616L12.912 13.1933C13.2555 12.9368 13.7201 12.5899 14.2043 12.2284C15.1713 11.5065 16.2185 10.7252 16.5353 10.4903C16.9246 10.1996 17.37 10.0117 17.8387 10.0079ZM12.72 14.1167L12.346 13.616C12.0695 13.8225 12.0127 14.2142 12.2193 14.4908C12.4258 14.7673 12.8176 14.8239 13.0942 14.6173L12.72 14.1167Z" fill="#1C2024"/>
<path fill-rule="evenodd" clip-rule="evenodd" d="M12.375 5.41663C11.3399 5.41663 10.5 6.2566 10.5 7.29163C10.5 8.32666 11.3399 9.16663 12.375 9.16663C13.41 9.16663 14.25 8.32666 14.25 7.29163C14.25 6.2566 13.41 5.41663 12.375 5.41663ZM9.24995 7.29163C9.24995 5.56624 10.6496 4.16663 12.375 4.16663C14.1003 4.16663 15.5 5.56624 15.5 7.29163C15.5 9.01701 14.1003 10.4166 12.375 10.4166C10.6496 10.4166 9.24995 9.01701 9.24995 7.29163Z" fill="#1C2024"/>
<path fill-rule="evenodd" clip-rule="evenodd" d="M9.87495 1.25C10.2201 1.25 10.5 1.52982 10.5 1.875V3.54167C10.5 3.88685 10.2201 4.16667 9.87495 4.16667C9.52978 4.16667 9.24995 3.88685 9.24995 3.54167V1.875C9.24995 1.52982 9.52978 1.25 9.87495 1.25Z" fill="#1C2024"/>
<path fill-rule="evenodd" clip-rule="evenodd" d="M12.375 0.416626C12.7201 0.416626 13 0.696448 13 1.04163V2.70829C13 3.05347 12.7201 3.33329 12.375 3.33329C12.0298 3.33329 11.75 3.05347 11.75 2.70829V1.04163C11.75 0.696448 12.0298 0.416626 12.375 0.416626Z" fill="#1C2024"/>
<path fill-rule="evenodd" clip-rule="evenodd" d="M14.875 1.25C15.2201 1.25 15.5 1.52982 15.5 1.875V3.54167C15.5 3.88685 15.2201 4.16667 14.875 4.16667C14.5298 4.16667 14.25 3.88685 14.25 3.54167V1.875C14.25 1.52982 14.5298 1.25 14.875 1.25Z" fill="#1C2024"/>
</svg>
