<svg width="20" height="20" viewBox="0 0 20 20" fill="none" xmlns="http://www.w3.org/2000/svg">
<path fill-rule="evenodd" clip-rule="evenodd" d="M8.75004 2.91669C7.13992 2.91669 5.83337 4.22324 5.83337 5.83335C5.83337 7.44347 7.13992 8.75002 8.75004 8.75002C10.3602 8.75002 11.6667 7.44347 11.6667 5.83335C11.6667 4.22324 10.3602 2.91669 8.75004 2.91669ZM4.58337 5.83335C4.58337 3.53288 6.44957 1.66669 8.75004 1.66669C11.0505 1.66669 12.9167 3.53288 12.9167 5.83335C12.9167 8.13383 11.0505 10 8.75004 10C6.44957 10 4.58337 8.13383 4.58337 5.83335Z" fill="#77AA00"/>
<path fill-rule="evenodd" clip-rule="evenodd" d="M8.95837 14.5834C8.95837 14.2382 9.2382 13.9584 9.58337 13.9584H17.9167C18.2619 13.9584 18.5417 14.2382 18.5417 14.5834C18.5417 14.9286 18.2619 15.2084 17.9167 15.2084H9.58337C9.2382 15.2084 8.95837 14.9286 8.95837 14.5834Z" fill="#77AA00"/>
<path fill-rule="evenodd" clip-rule="evenodd" d="M14.5581 10.3914C14.8021 10.1474 15.1979 10.1474 15.4419 10.3914L19.1919 14.1414C19.436 14.3855 19.436 14.7812 19.1919 15.0253L15.4419 18.7753C15.1979 19.0194 14.8021 19.0194 14.5581 18.7753C14.314 18.5312 14.314 18.1355 14.5581 17.8914L17.8661 14.5834L14.5581 11.2753C14.314 11.0312 14.314 10.6355 14.5581 10.3914Z" fill="#77AA00"/>
<path fill-rule="evenodd" clip-rule="evenodd" d="M11.2753 12.0581C11.5194 12.3022 11.5194 12.6979 11.2753 12.942L9.63388 14.5834L11.2753 16.2248C11.5194 16.4689 11.5194 16.8646 11.2753 17.1087C11.0312 17.3527 10.6355 17.3527 10.3914 17.1087L8.30806 15.0253C8.06398 14.7813 8.06398 14.3855 8.30806 14.1415L10.3914 12.0581C10.6355 11.814 11.0312 11.814 11.2753 12.0581Z" fill="#77AA00"/>
<path d="M7.50004 17.0834C6.88602 16.9695 6.30529 16.7793 5.83337 16.6029C5.0232 16.3001 4.44893 15.8979 4.05603 15.5317C3.59596 15.1042 3.33337 14.4944 3.33337 13.8585V13.5417C3.33337 13.1966 3.61332 12.9167 3.95837 12.9167H7.34813C7.49136 12.4718 7.69318 12.053 7.94058 11.6667H3.95837C2.92539 11.6667 2.08337 12.5087 2.08337 13.5417V13.8585C2.08337 14.8394 2.49136 15.7834 3.20317 16.4453C3.76193 16.9661 4.60848 17.547 5.83337 17.9252C6.32582 18.0772 7.08337 18.3334 8.33337 18.4124L7.50004 17.0834Z" fill="#77AA00"/>
</svg>
