<svg width="24" height="24" viewBox="0 0 24 24" fill="none" xmlns="http://www.w3.org/2000/svg">
<path d="M20.97 6.20365L12.72 1.68959C12.4996 1.56779 12.2518 1.50391 12 1.50391C11.7482 1.50391 11.5004 1.56779 11.28 1.68959L3.03 6.20553C2.7944 6.33444 2.59772 6.52424 2.46052 6.75512C2.32331 6.98599 2.25061 7.24946 2.25 7.51803V16.4843C2.25061 16.7528 2.32331 17.0163 2.46052 17.2472C2.59772 17.4781 2.7944 17.6679 3.03 17.7968L11.28 22.3127C11.5004 22.4345 11.7482 22.4984 12 22.4984C12.2518 22.4984 12.4996 22.4345 12.72 22.3127L20.97 17.7968C21.2056 17.6679 21.4023 17.4781 21.5395 17.2472C21.6767 17.0163 21.7494 16.7528 21.75 16.4843V7.51897C21.7499 7.24992 21.6774 6.98586 21.5402 6.75445C21.403 6.52304 21.206 6.3328 20.97 6.20365ZM12 3.00209L19.5328 7.12709L16.7409 8.65428L9.20813 4.52928L12 3.00209ZM12 11.2521L4.46719 7.12709L7.64625 5.38615L15.1791 9.51115L12 11.2521ZM20.25 16.488L12.75 20.5933V12.5487L15.75 10.9071V14.2521C15.75 14.451 15.829 14.6418 15.9697 14.7824C16.1103 14.9231 16.3011 15.0021 16.5 15.0021C16.6989 15.0021 16.8897 14.9231 17.0303 14.7824C17.171 14.6418 17.25 14.451 17.25 14.2521V10.0858L20.25 8.44428V16.4843V16.488Z" fill="#77AA00"/>
</svg>
