<svg width="24" height="24" viewBox="0 0 24 24" fill="none" xmlns="http://www.w3.org/2000/svg">
<path d="M17.5886 13.0313H18.8281L18.4167 10.8594L17.5886 13.0313Z" fill="#1C2024"/>
<path d="M20 4H4C2.89583 4 2 4.89583 2 6V18C2 19.1042 2.89583 20 4 20H20C21.1042 20 22 19.1042 22 18V6C22 4.89583 21.1042 4 20 4ZM2.71354 9.20833C2.71354 9.20833 4.36979 9.20833 4.98958 9.20833C5.60937 9.20833 5.8125 9.72396 5.8125 9.72396L6.32813 12.3073C5.70833 10.1354 2.71354 9.20833 2.71354 9.20833ZM5.60937 14.8854L4.46875 10.2396C4.46875 10.2396 5.71354 10.9635 6.43229 12.7187C6.43229 12.9271 6.53646 13.2344 6.53646 13.2344L7.88021 9.10417H9.32813L7.15625 14.8854H5.60937ZM10.5625 14.9896H9.11979L9.94271 9.20833H11.4948L10.5625 14.9896ZM13.1458 14.9896C12.1146 14.9896 11.599 14.6823 11.599 14.6823L11.8073 13.4427C11.8073 13.4427 12.4271 13.75 13.25 13.75C14.0781 13.75 14.1823 13.4427 14.1823 13.2344C14.1823 12.3073 12.1146 12.6146 12.1146 10.7552C12.1146 9.82813 12.8385 9 14.3906 9C15.0104 9 15.7344 9.3125 15.7344 9.3125L15.4219 10.5521C15.4219 10.5521 14.9063 10.1354 14.3906 10.1354C13.6667 10.1354 13.4583 10.4479 13.4583 10.7552C13.4583 11.4792 15.526 11.5833 15.526 13.0313C15.526 14.2656 14.0781 15.0938 13.1458 14.9896ZM19.3438 14.8854L19.1406 14.0625H17.2813L16.9687 14.8854H15.526L17.901 9.10417H19.4479L20.5833 14.8854H19.3438Z" fill="#1C2024"/>
</svg>
