<svg width="20" height="20" viewBox="0 0 20 20" fill="none" xmlns="http://www.w3.org/2000/svg">
<path d="M14.9999 10.4166C14.9999 10.8767 14.6267 11.2499 14.1666 11.2499C13.7065 11.2499 13.3333 10.8767 13.3333 10.4166C13.3333 9.95652 13.7065 9.58325 14.1666 9.58325C14.6267 9.58325 14.9999 9.95652 14.9999 10.4166Z" fill="#1C2024"/>
<path fill-rule="evenodd" clip-rule="evenodd" d="M2.99567 7.0133C3.29868 6.85654 3.42041 6.48487 3.26735 6.17876C3.11298 5.87002 2.73756 5.74488 2.42882 5.89925L2.70833 6.45827C2.42882 5.89925 2.42855 5.89939 2.42827 5.89953L2.42769 5.89982L2.42648 5.90043L2.42381 5.90178L2.41753 5.90502C2.41292 5.90741 2.4075 5.91029 2.4013 5.91364C2.38891 5.92035 2.3734 5.92903 2.35522 5.93974C2.31893 5.96113 2.27156 5.99089 2.21686 6.02963C2.10815 6.10664 1.96631 6.22209 1.82454 6.38158C1.53632 6.70583 1.25 7.21277 1.25 7.9166C1.25 9.0669 2.18303 9.99993 3.33333 9.99993H3.45703C3.80221 9.99993 4.08203 9.72011 4.08203 9.37493C4.08203 9.02976 3.80221 8.74993 3.45703 8.74993H3.33333C2.87339 8.74993 2.5 8.37654 2.5 7.9166C2.5 7.57876 2.63035 7.35654 2.7588 7.21204C2.82536 7.13715 2.89185 7.08333 2.93939 7.04966C2.96281 7.03307 2.98055 7.02214 2.98983 7.01667C2.99261 7.01503 2.99458 7.01391 2.99567 7.0133Z" fill="#1C2024"/>
<path d="M5.86146 5.08243C5.84844 4.98694 5.83325 4.89145 5.83325 4.79163C5.83325 3.75864 6.67527 2.91663 7.70825 2.91663C8.53073 2.91663 9.22301 3.45048 9.47474 4.18833C9.65053 4.17965 9.82197 4.16663 9.99992 4.16663C10.2603 4.16663 10.5186 4.17965 10.7747 4.19918C10.4969 2.75821 9.22952 1.66663 7.70825 1.66663C5.98516 1.66663 4.58325 3.06854 4.58325 4.79163C4.58325 5.11715 4.63317 5.42965 4.72431 5.72479C5.08021 5.4839 5.46216 5.27123 5.86146 5.08243Z" fill="#1C2024"/>
<path fill-rule="evenodd" clip-rule="evenodd" d="M14.7899 3.33325C14.9797 3.33271 15.1596 3.4185 15.2786 3.56641C15.3976 3.71433 15.443 3.90833 15.4018 4.09368L14.8771 6.45761C15.8932 7.16036 16.6874 8.08809 17.1236 9.16658H17.7083C18.2835 9.16658 18.75 9.63304 18.75 10.2083V12.7083C18.75 13.2835 18.2835 13.7499 17.7083 13.7499H16.7016C16.3912 14.2476 16.0006 14.7027 15.5472 15.1058L15.7032 15.5249C16.1032 16.6039 15.5538 17.8002 14.4765 18.2026L14.4714 18.2045C14.238 18.2894 13.9943 18.3333 13.75 18.3333C12.9063 18.3333 12.1079 17.8175 11.7966 16.9746C11.7966 16.9744 11.7965 16.9743 11.7965 16.9741L11.7728 16.9103C11.204 17.0227 10.6111 17.0833 10 17.0833C9.38503 17.0833 8.78824 17.0213 8.21755 16.9072L8.19172 16.9767C7.87888 17.813 7.08566 18.3333 6.23915 18.3333C5.9948 18.3333 5.75118 18.2894 5.51775 18.2045L5.51261 18.2026C4.43544 17.8002 3.88581 16.6017 4.28601 15.5246L4.44437 15.098C3.25824 14.0452 2.5 12.6296 2.5 11.0416C2.5 7.57971 6.01057 4.99992 10 4.99992C10.4372 4.99992 10.8639 5.03311 11.2768 5.09145C11.85 4.25495 12.6696 3.81998 13.3429 3.59518C13.7321 3.46527 14.0862 3.40034 14.3436 3.36758C14.4729 3.35113 14.5795 3.34258 14.656 3.33813C14.6943 3.3359 14.7252 3.33469 14.7478 3.33403C14.7591 3.3337 14.7683 3.33351 14.7754 3.3334L14.7843 3.33329L14.7875 3.33327L14.7888 3.33326L14.7894 3.33326C14.7896 3.33326 14.7899 3.33325 14.7917 3.95825L14.7899 3.33325ZM13.9851 4.70768C13.9057 4.72846 13.8232 4.75267 13.7388 4.78085C13.1457 4.97887 12.514 5.35251 12.1515 6.06139C12.0255 6.30776 11.7525 6.44196 11.4805 6.39124C11.0016 6.30195 10.5062 6.24992 10 6.24992C6.40696 6.24992 3.75 8.53123 3.75 11.0416C3.75 12.3202 4.41718 13.5155 5.56712 14.4059C5.78314 14.5732 5.86547 14.8614 5.77041 15.1176L5.45791 15.9596C5.29876 16.3877 5.51607 16.868 5.94753 17.0307C6.04741 17.0667 6.14577 17.0833 6.23915 17.0833C6.5774 17.0833 6.89516 16.8745 7.02079 16.5392C7.02085 16.539 7.0209 16.5389 7.02095 16.5388L7.23752 15.9562C7.34977 15.6542 7.67313 15.4871 7.98439 15.5701C8.61689 15.7387 9.29412 15.8333 10 15.8333C10.7023 15.8333 11.3758 15.7407 12.0087 15.5739C12.3197 15.492 12.6422 15.6595 12.754 15.961L12.9692 16.5414C13.0921 16.8744 13.409 17.0833 13.75 17.0833C13.8433 17.0833 13.9416 17.0667 14.0414 17.0308C14.4729 16.8682 14.6907 16.3902 14.5313 15.9597C14.5312 15.9596 14.5313 15.9598 14.5313 15.9597L14.2212 15.1269C14.1258 14.8709 14.2078 14.5827 14.4235 14.4152C15.013 13.9573 15.4773 13.4177 15.7894 12.8313C15.898 12.6273 16.1101 12.4999 16.3411 12.4999H17.5V10.4166H16.6819C16.4062 10.4166 16.1631 10.236 16.0835 9.97205C15.7651 8.91643 14.9783 7.96388 13.8474 7.2794C13.6074 7.13417 13.4936 6.84687 13.569 6.57671C13.5706 6.57094 13.5723 6.56521 13.5741 6.55952L13.9851 4.70768Z" fill="#1C2024"/>
</svg>
