<svg width="24" height="24" viewBox="0 0 24 24" fill="none" xmlns="http://www.w3.org/2000/svg">
<path d="M4.5 8.37891L8.12109 12L4.5 15.6211V19.5H8.37891L12 15.8789L15.6211 19.5H19.5V15.6211L15.8789 12L19.5 8.37891V4.5H15.6211L12 8.12109L8.37891 4.5H4.5V8.37891ZM21 9L18 12L21 15V20.8691L20.9893 20.9199C20.9694 20.9669 20.9234 21 20.8691 21H15L12 18L9 21H3.13086C3.07658 21 3.03059 20.9669 3.01074 20.9199L3 20.8691V15L6 12L3 9V3.13086C3.00005 3.05848 3.05848 3.00005 3.13086 3H9L12 6L15 3H20.8691C20.9415 3.00005 21 3.05848 21 3.13086V9Z" fill="#1C2024"/>
</svg>
