<svg width="20" height="20" viewBox="0 0 20 20" fill="none" xmlns="http://www.w3.org/2000/svg">
<path fill-rule="evenodd" clip-rule="evenodd" d="M9.99935 7.91699C8.8493 7.91699 7.91602 8.85028 7.91602 10.0003C7.91602 11.1504 8.8493 12.0837 9.99935 12.0837C11.1494 12.0837 12.0827 11.1504 12.0827 10.0003C12.0827 8.85028 11.1494 7.91699 9.99935 7.91699ZM6.66602 10.0003C6.66602 8.15992 8.15895 6.66699 9.99935 6.66699C11.8398 6.66699 13.3327 8.15992 13.3327 10.0003C13.3327 11.8407 11.8398 13.3337 9.99935 13.3337C8.15895 13.3337 6.66602 11.8407 6.66602 10.0003Z" fill="#1C2024"/>
<path d="M9.38758 2.94519L8.10316 1.89185L7.62463 2.43228L7.49225 3.64105C7.44898 4.0363 7.2196 4.38693 6.87338 4.58768C6.52972 4.78695 6.11049 4.81021 5.74612 4.64971L5.25193 4.43157L3.92689 4.304L2.02485 7.58414L3.23843 8.99153L4.8798 9.23643C4.72063 8.74055 4.40836 8.29977 3.97798 7.98377L3.36124 7.53141C3.64046 6.78321 4.04509 6.09481 4.54896 5.48763L5.24224 5.79365C5.97162 6.11492 6.81107 6.06874 7.50039 5.66905C8.18716 5.27084 8.64789 4.5711 8.73482 3.77712L8.81762 3.02107C9.00578 2.98829 9.19581 2.96276 9.38758 2.94519Z" fill="#1C2024"/>
<path d="M9.99939 1.66699C9.34336 1.66699 8.70941 1.74961 8.10316 1.89185L9.38758 2.94519C9.58964 2.92667 9.79363 2.91699 9.99939 2.91699C10.4004 2.91699 10.7947 2.95375 11.1812 3.02107L11.264 3.77713C11.3015 4.12041 11.4091 4.44692 11.575 4.73904L12.9649 5.8789C13.5463 6.0715 14.1852 6.04532 14.7565 5.79365L15.4498 5.489C15.9536 6.09486 16.3582 6.78306 16.6375 7.53141L16.0206 7.98395C15.9351 8.04668 15.8543 8.11432 15.7785 8.18633L16.7603 8.99153L17.7453 8.26905C17.959 8.1123 18.0507 7.83782 17.9739 7.58414C17.5977 6.34018 16.9353 5.22572 16.0713 4.30559C15.89 4.1125 15.6067 4.05465 15.3643 4.16121L14.2527 4.64971C13.8883 4.81021 13.4691 4.78695 13.1254 4.58768L13.1237 4.5867C12.7801 4.3889 12.5499 4.03754 12.5065 3.64105L12.3741 2.43228C12.3453 2.16892 12.1536 1.95236 11.8956 1.89185C11.2894 1.74961 10.6554 1.66699 9.99939 1.66699Z" fill="#1C2024"/>
<path d="M4.63545 4.15945C4.39254 4.05223 4.1084 4.11019 3.92689 4.304L5.25193 4.43157L4.63545 4.15945Z" fill="#1C2024"/>
<path d="M3.92689 4.304C3.06346 5.22593 2.40112 6.34012 2.02485 7.58414L3.92689 4.304Z" fill="#1C2024"/>
<path d="M2.25344 8.26905L3.23843 8.99153L2.02485 7.58414C1.94812 7.83782 2.03973 8.1123 2.25344 8.26905Z" fill="#1C2024"/>
<path d="M3.97823 12.0167C4.62043 11.5452 4.99939 10.796 4.99939 10.0003C4.99939 9.73789 4.95813 9.48049 4.8798 9.23643L3.23843 8.99153C3.55962 9.22748 3.74939 9.60253 3.74939 10.0003C3.74939 10.3981 3.55987 10.773 3.23868 11.0089L2.25344 11.7316C2.03973 11.8883 1.94812 12.1628 2.02485 12.4165C2.4011 13.6605 3.06349 14.7749 3.92743 15.6951C4.10873 15.8881 4.39204 15.946 4.63452 15.8394L5.74612 15.3509C6.11049 15.1904 6.52972 15.2137 6.87338 15.413L6.87509 15.414C7.2187 15.6118 7.44884 15.9631 7.49225 16.3596L7.62463 17.5684C7.65347 17.8317 7.84523 18.0483 8.10316 18.1088C8.70941 18.251 9.34336 18.3337 9.99939 18.3337C10.6554 18.3337 11.2894 18.251 11.8956 18.1088C12.1536 18.0483 12.3453 17.8317 12.3741 17.5684L12.5065 16.3596C12.5499 15.9631 12.7801 15.6118 13.1237 15.414L13.1254 15.413C13.4691 15.2137 13.8883 15.1904 14.2527 15.3509L15.3643 15.8394C15.6067 15.946 15.89 15.8881 16.0713 15.6951C16.9353 14.7749 17.5977 13.6605 17.9739 12.4165C18.0507 12.1628 17.959 11.8883 17.7453 11.7316L16.7603 11.0091L15.119 10.7642C15.2781 11.2601 15.5904 11.7009 16.0208 12.0169L16.6375 12.4692C16.3582 13.2176 15.9536 13.9058 15.4498 14.5117L14.7565 14.207C14.0275 13.8859 13.1884 13.9319 12.4992 14.3311C11.8103 14.728 11.3507 15.4311 11.264 16.2235L11.1812 16.9796C10.7947 17.0469 10.4004 17.0837 9.99939 17.0837C9.59837 17.0837 9.20405 17.0469 8.81762 16.9796L8.73482 16.2235C8.64806 15.4311 8.18846 14.7281 7.4996 14.3311C6.81043 13.9319 5.97134 13.8859 5.24224 14.207L4.54899 14.5117C4.04522 13.9058 3.64053 13.2176 3.36124 12.4692L3.97823 12.0167Z" fill="#1C2024"/>
<path d="M16.7603 8.99153L15.7785 8.18633C15.2842 8.65562 14.9994 9.31049 14.9994 10.0003C14.9994 10.2628 15.0406 10.5202 15.119 10.7642L16.7603 11.0091C16.0924 10.1758 16.0543 9.7321 16.7603 8.99153Z" fill="#1C2024"/>
<path d="M8.10316 1.89185C7.84523 1.95236 7.65347 2.16892 7.62463 2.43228L8.10316 1.89185Z" fill="#1C2024"/>
</svg>
