<svg width="24" height="24" viewBox="0 0 24 24" fill="none" xmlns="http://www.w3.org/2000/svg">
<path d="M17.0839 14.985C19.6827 12.2077 19.6379 7.82284 16.9497 5.10097C14.2161 2.33307 9.78391 2.33307 7.05024 5.10097C4.36205 7.82284 4.31734 12.2077 6.91611 14.985C7.97762 13.2746 9.85769 12.1378 12 12.1378C14.1423 12.1378 16.0224 13.2746 17.0839 14.985ZM8.38534 16.4762L12 20.1362L15.6147 16.4762C14.9725 15.1084 13.5953 14.1628 12 14.1628C10.4047 14.1628 9.02749 15.1084 8.38534 16.4762ZM12 23L5.63604 16.5564C2.12132 12.9976 2.12132 7.22779 5.63604 3.66905C9.15075 0.110316 14.8492 0.110316 18.364 3.66905C21.8787 7.22779 21.8787 12.9976 18.364 16.5564L12 23ZM12 9.10018C12.5523 9.10018 13 8.64686 13 8.08766C13 7.52847 12.5523 7.07514 12 7.07514C11.4477 7.07514 11 7.52847 11 8.08766C11 8.64686 11.4477 9.10018 12 9.10018ZM12 11.1252C10.3431 11.1252 8.99999 9.76531 8.99999 8.08766C8.99999 6.41006 10.3431 5.05009 12 5.05009C13.6569 5.05009 15 6.41006 15 8.08766C15 9.76531 13.6569 11.1252 12 11.1252Z" fill="black"/>
</svg>
