<svg width="24" height="24" viewBox="0 0 24 24" fill="none" xmlns="http://www.w3.org/2000/svg">
<path d="M7 17L13.8229 13.8229L17 7L10.1771 10.1771L7 17ZM12 10.901C12.6094 10.901 13.099 11.3906 13.099 12C13.099 12.6094 12.6094 13.099 12 13.099C11.3906 13.099 10.901 12.6094 10.901 12C10.901 11.3906 11.3906 10.901 12 10.901Z" fill="black"/>
<path d="M12 2C6.47917 2 2 6.47917 2 12C2 17.5208 6.47917 22 12 22C17.5208 22 22 17.5208 22 12C22 6.47917 17.5208 2 12 2ZM12 20C7.58333 20 4 16.4167 4 12C4 7.58333 7.58333 4 12 4C16.4167 4 20 7.58333 20 12C20 16.4167 16.4167 20 12 20Z" fill="black"/>
</svg>
