<svg width="20" height="20" viewBox="0 0 20 20" fill="none" xmlns="http://www.w3.org/2000/svg">
<path d="M10 4.44629L12.7783 1.66797H18.2119C18.279 1.66797 18.333 1.72198 18.333 1.78906V7.22266L16.8105 8.74414C16.3622 8.57307 15.8894 8.45263 15.3984 8.38867L17.083 6.70508V2.91797H13.2959L10 6.21387L6.7041 2.91797H2.91699V6.70508L6.21289 10.001L2.91699 13.2969V17.084H6.7041L8.3877 15.3994C8.45166 15.8904 8.5721 16.3632 8.74316 16.8115L7.22168 18.334H1.78809L1.74023 18.3242C1.69701 18.3057 1.66699 18.263 1.66699 18.2129V12.7793L4.44531 10.001L1.66699 7.22266V1.78906C1.66699 1.73897 1.69701 1.69625 1.74023 1.67773L1.78809 1.66797H7.22168L10 4.44629Z" fill="#1C2024"/>
<path d="M18.1248 14.5846C18.1248 12.6295 16.5383 11.043 14.5832 11.043C12.628 11.043 11.0415 12.6295 11.0415 14.5846C11.0415 16.5398 12.628 18.1263 14.5832 18.1263C16.5383 18.1263 18.1248 16.5398 18.1248 14.5846ZM19.3748 14.5846C19.3748 17.2302 17.2287 19.3763 14.5832 19.3763C11.9376 19.3763 9.7915 17.2302 9.7915 14.5846C9.7915 11.9391 11.9376 9.79297 14.5832 9.79297C17.2287 9.79297 19.3748 11.9391 19.3748 14.5846Z" fill="#1C2024"/>
<path d="M13.958 12.5C13.958 12.1548 14.2378 11.875 14.583 11.875C14.9282 11.875 15.208 12.1548 15.208 12.5V14.375H16.2497C16.5949 14.375 16.8747 14.6548 16.8747 15C16.8747 15.3452 16.5949 15.625 16.2497 15.625H14.583C14.2378 15.625 13.958 15.3452 13.958 15V12.5Z" fill="#1C2024"/>
</svg>
