<svg width="20" height="20" viewBox="0 0 20 20" fill="none" xmlns="http://www.w3.org/2000/svg">
<path d="M10 16.667C13.6762 16.667 16.6667 13.6765 16.6667 10.0003C16.6667 6.32411 13.6762 3.33366 10 3.33366C7.89931 3.33366 6.02865 4.31022 4.80469 5.83366H2.79514C4.23611 3.34668 6.92274 1.66699 10 1.66699C14.5964 1.66699 18.3333 5.40397 18.3333 10.0003C18.3333 14.5967 14.5964 18.3337 10 18.3337C5.40365 18.3337 1.66667 14.5967 1.66667 10.0003H3.33333C3.33333 13.6765 6.32378 16.667 10 16.667Z" fill="#444444"/>
<path d="M1.66667 2.5V7.5H6.66667L1.66667 2.5Z" fill="#444444"/>
<path d="M10.8333 9.65712V5H9.16667V10.3429L11.9097 13.0903L13.0903 11.9097L10.8333 9.65712Z" fill="#444444"/>
</svg>
