<svg width="20" height="20" viewBox="0 0 20 20" fill="none" xmlns="http://www.w3.org/2000/svg">
<path d="M9.23633 8.47266H19.1669V11.5282H9.23633V8.47266Z" fill="#F3F3F3"/>
<path d="M17.6395 10V13.8194H14.584V10H17.6395Z" fill="#F3F3F3"/>
<path d="M6.18121 4.65234C3.22909 4.65234 0.833984 7.04745 0.833984 9.99957C0.833984 12.9517 3.22909 15.3468 6.18121 15.3468C9.13332 15.3468 11.5284 12.9517 11.5284 9.99957C11.5284 7.04745 9.13332 4.65234 6.18121 4.65234ZM6.18121 12.2912C4.91602 12.2912 3.88954 11.2648 3.88954 9.99957C3.88954 8.73437 4.91602 7.7079 6.18121 7.7079C7.4464 7.7079 8.47287 8.73437 8.47287 9.99957C8.47287 11.2648 7.4464 12.2912 6.18121 12.2912Z" fill="#F3F3F3"/>
</svg>
