<svg width="21" height="20" viewBox="0 0 21 20" fill="none" xmlns="http://www.w3.org/2000/svg">
<path d="M12.7918 1.66797C10.2397 1.66797 8.05659 3.26085 7.17334 5.50477C7.51188 5.45269 7.85476 5.41797 8.2085 5.41797C8.33219 5.41797 8.45372 5.43099 8.57525 5.4375C9.38688 3.93793 10.9711 2.91797 12.7918 2.91797C15.4329 2.91797 17.5835 5.06858 17.5835 7.70964C17.5835 9.53038 16.5635 11.1146 15.064 11.9262C15.0705 12.0477 15.0835 12.1693 15.0835 12.293C15.0835 12.6467 15.0488 12.9896 14.9967 13.3281C17.2406 12.4449 18.8335 10.2617 18.8335 7.70964C18.8335 4.37847 16.123 1.66797 12.7918 1.66797Z" fill="#1C2024"/>
<path d="M14.2724 5.3509C14.5179 5.15085 14.8798 5.16527 15.1086 5.39403C15.3374 5.62279 15.3518 5.98473 15.1517 6.23021L15.1086 6.27782L7.6086 13.7778C7.36452 14.0219 6.96888 14.0219 6.72481 13.7778C6.48073 13.5337 6.48073 13.1381 6.72481 12.894L14.2248 5.39403L14.2724 5.3509Z" fill="#1C2024"/>
<path d="M14.2502 8.54167V6.25H11.9585C11.6133 6.25 11.3335 5.97018 11.3335 5.625C11.3335 5.27982 11.6133 5 11.9585 5H14.8752L14.939 5.00326C15.2542 5.03525 15.5002 5.30139 15.5002 5.625V8.54167C15.5002 8.88684 15.2203 9.16667 14.8752 9.16667C14.53 9.16667 14.2502 8.88684 14.2502 8.54167Z" fill="#1C2024"/>
<path d="M6.3335 10.625C6.3335 10.2798 6.61332 10 6.9585 10C7.30367 10 7.5835 10.2798 7.5835 10.625V12.9167H9.87516C10.2203 12.9167 10.5002 13.1965 10.5002 13.5417C10.5002 13.8868 10.2203 14.1667 9.87516 14.1667H6.9585C6.61332 14.1667 6.3335 13.8868 6.3335 13.5417V10.625Z" fill="#1C2024"/>
<path d="M12.4641 10.0977C12.8048 10.7574 13.0001 11.5017 13.0001 12.2917C13.0001 14.9327 10.8495 17.0833 8.20841 17.0833C5.56736 17.0833 3.41675 14.9327 3.41675 12.2917C3.41675 9.65061 5.56736 7.5 8.20841 7.5C8.99834 7.5 9.7427 7.69531 10.4024 8.03602L11.3182 7.12023C10.4068 6.57118 9.34557 6.25 8.20841 6.25C4.87725 6.25 2.16675 8.9605 2.16675 12.2917C2.16675 15.6228 4.87725 18.3333 8.20841 18.3333C11.5396 18.3333 14.2501 15.6228 14.2501 12.2917C14.2501 11.1545 13.9289 10.0933 13.3799 9.18186L12.4641 10.0977Z" fill="#1C2024"/>
</svg>
