<svg width="25" height="24" viewBox="0 0 25 24" fill="none" xmlns="http://www.w3.org/2000/svg">
<path d="M14.7998 18.314C14.7998 16.9716 14.0737 15.2269 13.2651 13.7308C12.9226 13.097 12.5785 12.5334 12.2998 12.0981C12.0211 12.5334 11.677 13.097 11.3345 13.7308C10.5259 15.2269 9.7998 16.9716 9.7998 18.314C9.7998 19.8377 10.9587 21.0005 12.2998 21.0005C13.6409 21.0005 14.7998 19.8377 14.7998 18.314ZM16.2998 18.314C16.2998 20.5857 14.5473 22.4999 12.2998 22.4999C10.0523 22.4999 8.2998 20.5857 8.2998 18.314C8.2998 16.5638 9.19874 14.5287 10.0151 13.0181C10.4336 12.2439 10.8508 11.5706 11.1636 11.0911C11.3202 10.851 11.4515 10.6588 11.5439 10.5254C11.5902 10.4588 11.6264 10.4065 11.6519 10.3707C11.6645 10.3529 11.6747 10.3393 11.6816 10.3297C11.6851 10.3249 11.688 10.3207 11.6899 10.318C11.6908 10.3168 11.6914 10.3158 11.6919 10.3151L11.6929 10.3141V10.3136C11.693 10.3135 11.6933 10.3134 12.2998 10.7544L11.6934 10.3136C11.8345 10.1196 12.0599 10.0046 12.2998 10.0046C12.5398 10.0046 12.7651 10.1196 12.9062 10.3136L12.2998 10.7544C12.9064 10.3134 12.9066 10.3135 12.9067 10.3136V10.3141L12.9077 10.3151C12.9083 10.3158 12.9088 10.3168 12.9097 10.318C12.9116 10.3207 12.9145 10.3249 12.918 10.3297C12.9249 10.3393 12.9351 10.3529 12.9478 10.3707C12.9732 10.4065 13.0094 10.4588 13.0557 10.5254C13.1481 10.6588 13.2794 10.851 13.436 11.0911C13.7488 11.5706 14.166 12.2439 14.5845 13.0181C15.4009 14.5287 16.2998 16.5638 16.2998 18.314Z" fill="#77AA00"/>
<path d="M14.7998 18.314C14.7998 16.9716 14.0737 15.2269 13.2651 13.7308C12.9226 13.097 12.5785 12.5334 12.2998 12.0981C12.0211 12.5334 11.677 13.097 11.3345 13.7308C10.5259 15.2269 9.7998 16.9716 9.7998 18.314C9.7998 19.8377 10.9587 21.0005 12.2998 21.0005C13.6409 21.0005 14.7998 19.8377 14.7998 18.314ZM16.2998 18.314C16.2998 20.5857 14.5473 22.4999 12.2998 22.4999C10.0523 22.4999 8.2998 20.5857 8.2998 18.314C8.2998 16.5638 9.19874 14.5287 10.0151 13.0181C10.4336 12.2439 10.8508 11.5706 11.1636 11.0911C11.3202 10.851 11.4515 10.6588 11.5439 10.5254C11.5902 10.4588 11.6264 10.4065 11.6519 10.3707C11.6645 10.3529 11.6747 10.3393 11.6816 10.3297C11.6851 10.3249 11.688 10.3207 11.6899 10.318C11.6908 10.3168 11.6914 10.3158 11.6919 10.3151L11.6929 10.3141V10.3136C11.693 10.3135 11.6933 10.3134 12.2998 10.7544L11.6934 10.3136C11.8345 10.1196 12.0599 10.0046 12.2998 10.0046C12.5398 10.0046 12.7651 10.1196 12.9062 10.3136L12.2998 10.7544C12.9064 10.3134 12.9066 10.3135 12.9067 10.3136V10.3141L12.9077 10.3151C12.9083 10.3158 12.9088 10.3168 12.9097 10.318C12.9116 10.3207 12.9145 10.3249 12.918 10.3297C12.9249 10.3393 12.9351 10.3529 12.9478 10.3707C12.9732 10.4065 13.0094 10.4588 13.0557 10.5254C13.1481 10.6588 13.2794 10.851 13.436 11.0911C13.7488 11.5706 14.166 12.2439 14.5845 13.0181C15.4009 14.5287 16.2998 16.5638 16.2998 18.314Z" fill="#77AA00"/>
<path d="M18.7998 14.7866C18.7997 11.9115 17.1198 8.94562 15.3306 6.62513C14.448 5.48058 13.5638 4.52486 12.8999 3.85518C12.67 3.62327 12.4664 3.42662 12.2998 3.26849C12.1332 3.42662 11.9296 3.62327 11.6997 3.85518C11.0358 4.52486 10.1516 5.48058 9.26904 6.62513C7.47982 8.94562 5.79987 11.9115 5.7998 14.7866C5.7998 18.1897 8.68044 21.0006 12.2998 21.0006C15.9192 21.0006 18.7998 18.1897 18.7998 14.7866ZM20.2998 14.7866C20.2998 19.0734 16.6909 22.5 12.2998 22.5C7.90875 22.5 4.2998 19.0734 4.2998 14.7866C4.29987 11.3934 6.24487 8.09073 8.08057 5.70995C9.01043 4.50399 9.93884 3.50094 10.6343 2.79943C10.9824 2.44826 11.2734 2.17141 11.4785 1.98138C11.5811 1.88638 11.6625 1.81298 11.7188 1.76271C11.7467 1.73775 11.7685 1.71848 11.7837 1.70512C11.7913 1.69846 11.7975 1.69318 11.8018 1.6895C11.8038 1.68773 11.8054 1.68617 11.8066 1.68511L11.8086 1.68315C11.8088 1.68299 11.8092 1.6828 12.2998 2.24983L11.8091 1.68267C12.0908 1.43911 12.5088 1.43911 12.7905 1.68267L12.2998 2.24983C12.7904 1.6828 12.7908 1.68299 12.791 1.68315L12.793 1.68511C12.7942 1.68617 12.7958 1.68773 12.7979 1.6895C12.8021 1.69318 12.8083 1.69846 12.8159 1.70512C12.8311 1.71848 12.8529 1.73775 12.8809 1.76271C12.9371 1.81298 13.0185 1.88638 13.1211 1.98138C13.3262 2.17141 13.6172 2.44826 13.9653 2.79943C14.6608 3.50094 15.5892 4.50399 16.519 5.70995C18.3547 8.09073 20.2997 11.3934 20.2998 14.7866Z" fill="#77AA00"/>
</svg>
