<svg width="20" height="20" viewBox="0 0 20 20" fill="none" xmlns="http://www.w3.org/2000/svg">
<path fill-rule="evenodd" clip-rule="evenodd" d="M9.69948 1.67379C13.2866 1.50504 16.2501 4.36491 16.2501 7.91659V11.1031L17.3545 13.3241C17.3565 13.3281 17.3584 13.3322 17.3603 13.3362C17.816 14.3045 17.1093 15.4166 16.0396 15.4166H3.95845C2.88958 15.4166 2.18481 14.3033 2.6399 13.3362C2.64182 13.3322 2.64378 13.3281 2.64578 13.3241L3.75012 11.1031V8.07501C3.75012 4.73719 6.3181 1.83388 9.69929 1.6738L9.69948 1.67379ZM9.75822 2.92241C7.08916 3.04888 5.00012 5.3582 5.00012 8.07501V11.2499C5.00012 11.3465 4.97775 11.4417 4.93475 11.5282L3.76902 13.8726C3.70722 14.0113 3.8092 14.1666 3.95845 14.1666H16.0396C16.1923 14.1666 16.2925 14.0102 16.2312 13.8726L15.0655 11.5282C15.0225 11.4417 15.0001 11.3465 15.0001 11.2499V7.91659C15.0001 5.0751 12.6295 2.78744 9.75841 2.9224" fill="#1C2024"/>
<path fill-rule="evenodd" clip-rule="evenodd" d="M8.125 14.7916C8.47018 14.7916 8.75 15.0714 8.75 15.4166C8.75 16.1065 9.31002 16.6666 10 16.6666C10.69 16.6666 11.25 16.1065 11.25 15.4166C11.25 15.0714 11.5298 14.7916 11.875 14.7916C12.2202 14.7916 12.5 15.0714 12.5 15.4166C12.5 16.7969 11.3803 17.9166 10 17.9166C8.61967 17.9166 7.5 16.7969 7.5 15.4166C7.5 15.0714 7.77982 14.7916 8.125 14.7916Z" fill="#1C2024"/>
</svg>
