<svg width="20" height="20" viewBox="0 0 20 20" fill="none" xmlns="http://www.w3.org/2000/svg">
<path d="M17.9862 5.15495C17.7952 4.4388 17.2266 3.87023 16.5105 3.67925C15.2128 3.33203 10.0001 3.33203 10.0001 3.33203C10.0001 3.33203 4.78741 3.33203 3.48966 3.67925C2.76918 3.87023 2.20494 4.4388 2.01397 5.15495C1.66675 6.45269 1.66675 9.9987 1.66675 9.9987C1.66675 9.9987 1.66675 13.5447 2.01397 14.8424C2.20494 15.5629 2.77352 16.1272 3.48966 16.3181C4.78741 16.6654 10.0001 16.6654 10.0001 16.6654C10.0001 16.6654 15.2128 16.6654 16.5105 16.3181C17.2266 16.1272 17.7952 15.5586 17.9862 14.8424C18.3334 13.5447 18.3334 9.9987 18.3334 9.9987C18.3334 9.9987 18.3334 6.45269 17.9862 5.15495ZM16.3759 14.4128C16.3369 14.5516 16.2197 14.6688 16.0808 14.7079C15.4081 14.8859 12.4003 14.9987 10.0001 14.9987C7.59991 14.9987 4.59209 14.8859 3.91935 14.7079C3.78046 14.6688 3.66328 14.5516 3.62421 14.4128C3.42456 13.6619 3.33341 11.3789 3.33341 9.9987C3.33341 8.61849 3.42456 6.3355 3.62421 5.58464C3.66328 5.44575 3.78046 5.32856 3.91935 5.2895C4.59209 5.11154 7.59991 4.9987 10.0001 4.9987C12.4003 4.9987 15.4081 5.11154 16.0808 5.2895C16.2197 5.32856 16.3369 5.44575 16.3759 5.58464C16.5756 6.3355 16.6667 8.61849 16.6667 9.9987C16.6667 11.3789 16.5756 13.6619 16.3759 14.4128Z" fill="#77AA00"/>
<path d="M8.3335 12.8859V7.11328L13.3335 9.99957L8.3335 12.8859Z" fill="#77AA00"/>
</svg>
