<svg width="24" height="24" viewBox="0 0 24 24" fill="none" xmlns="http://www.w3.org/2000/svg">
<path d="M8.66667 8.66667H5.33333C3.49305 8.66667 2 7.17361 2 5.33333C2 3.49305 3.49305 2 5.33333 2H20.8889V4.22222H5.33333C4.71991 4.22222 4.22222 4.71991 4.22222 5.33333C4.22222 5.94676 4.71991 6.44444 5.33333 6.44444H8.66667V8.66667Z" fill="#F3F3F3"/>
<path d="M19.7778 21.9997H4.22222C2.99537 21.9997 2 21.0043 2 19.7775V5.33301H4.22222V19.7775H19.7778V8.66634H7.55556V6.44412H19.7778C21.0046 6.44412 22 7.43949 22 8.66634V19.7775C22 21.0043 21.0046 21.9997 19.7778 21.9997Z" fill="#F3F3F3"/>
<path d="M9.36948 10.8887L10.546 12.1008L9.36948 13.3129H12.8009V15.1311H9.36948L10.546 16.3432L9.36948 17.5553L6.13419 14.2217L9.36948 10.8887Z" fill="#F3F3F3"/>
<path d="M14.01 9.77734L12.8335 10.9895L15.1211 13.3127H11.6897V15.1309H15.1211L12.8335 17.4541L14.01 18.6662L18.3564 14.2215L14.01 9.77734Z" fill="#F3F3F3"/>
</svg>
