<svg width="21" height="20" viewBox="0 0 21 20" fill="none" xmlns="http://www.w3.org/2000/svg">
<path fill-rule="evenodd" clip-rule="evenodd" d="M10.5 2.91699C6.58733 2.91699 3.41663 6.08769 3.41663 10.0003C3.41663 13.913 6.58733 17.0837 10.5 17.0837C14.4126 17.0837 17.5833 13.913 17.5833 10.0003C17.5833 6.08769 14.4126 2.91699 10.5 2.91699ZM2.16663 10.0003C2.16663 5.39734 5.89697 1.66699 10.5 1.66699C15.103 1.66699 18.8333 5.39734 18.8333 10.0003C18.8333 14.6033 15.103 18.3337 10.5 18.3337C5.89697 18.3337 2.16663 14.6033 2.16663 10.0003Z" fill="#7E808A"/>
<path fill-rule="evenodd" clip-rule="evenodd" d="M10.5 5.83398C10.8452 5.83398 11.125 6.11381 11.125 6.45898V13.5423C11.125 13.8875 10.8452 14.1673 10.5 14.1673C10.1548 14.1673 9.875 13.8875 9.875 13.5423V6.45898C9.875 6.11381 10.1548 5.83398 10.5 5.83398Z" fill="#7E808A"/>
<path fill-rule="evenodd" clip-rule="evenodd" d="M6.33325 10C6.33325 9.65482 6.61307 9.375 6.95825 9.375H14.0416C14.3868 9.375 14.6666 9.65482 14.6666 10C14.6666 10.3452 14.3868 10.625 14.0416 10.625H6.95825C6.61307 10.625 6.33325 10.3452 6.33325 10Z" fill="#7E808A"/>
</svg>
