<svg width="20" height="20" viewBox="0 0 20 20" fill="none" xmlns="http://www.w3.org/2000/svg">
<path fill-rule="evenodd" clip-rule="evenodd" d="M6.04102 2.91699C5.69609 2.91699 5.41602 3.19707 5.41602 3.54199V16.4587C5.41602 16.8036 5.69609 17.0837 6.04102 17.0837H12.291C12.6359 17.0837 12.916 16.8036 12.916 16.4587V14.167H14.166V16.4587C14.166 17.4939 13.3263 18.3337 12.291 18.3337H6.04102C5.00573 18.3337 4.16602 17.4939 4.16602 16.4587V3.54199C4.16602 2.50671 5.00573 1.66699 6.04102 1.66699H12.291C13.3263 1.66699 14.166 2.50671 14.166 3.54199V5.41699H12.916V3.54199C12.916 3.19707 12.6359 2.91699 12.291 2.91699H6.04102Z" fill="#1C2024"/>
<path fill-rule="evenodd" clip-rule="evenodd" d="M7.5 15.209C7.5 14.8638 7.77982 14.584 8.125 14.584H10.2083C10.5535 14.584 10.8333 14.8638 10.8333 15.209C10.8333 15.5542 10.5535 15.834 10.2083 15.834H8.125C7.77982 15.834 7.5 15.5542 7.5 15.209Z" fill="#1C2024"/>
<path d="M9.79102 4.79199C9.79102 5.13704 9.51107 5.41699 9.16602 5.41699C8.82096 5.41699 8.54102 5.13704 8.54102 4.79199C8.54102 4.44694 8.82096 4.16699 9.16602 4.16699C9.51107 4.16699 9.79102 4.44694 9.79102 4.79199Z" fill="#1C2024"/>
<path d="M12.082 9.375C12.082 9.72005 11.8021 10 11.457 10C11.112 10 10.832 9.72005 10.832 9.375C10.832 9.02995 11.112 8.75 11.457 8.75C11.8021 8.75 12.082 9.02995 12.082 9.375Z" fill="#1C2024"/>
<path d="M14.166 9.375C14.166 9.72005 13.8861 10 13.541 10C13.196 10 12.916 9.72005 12.916 9.375C12.916 9.02995 13.196 8.75 13.541 8.75C13.8861 8.75 14.166 9.02995 14.166 9.375Z" fill="#1C2024"/>
<path d="M16.25 9.375C16.25 9.72005 15.9701 10 15.625 10C15.2799 10 15 9.72005 15 9.375C15 9.02995 15.2799 8.75 15.625 8.75C15.9701 8.75 16.25 9.02995 16.25 9.375Z" fill="#1C2024"/>
<path fill-rule="evenodd" clip-rule="evenodd" d="M8.75 8.125C8.75 7.08972 9.58972 6.25 10.625 6.25H16.4583C17.4936 6.25 18.3333 7.08972 18.3333 8.125V10.625C18.3333 11.6603 17.4936 12.5 16.4583 12.5H11.6314L9.69656 13.6609C9.50348 13.7768 9.26301 13.7798 9.06706 13.6689C8.87112 13.5579 8.75 13.3502 8.75 13.125V8.125ZM10.625 7.5C10.2801 7.5 10 7.78007 10 8.125V12.0211L11.1368 11.3391C11.2339 11.2808 11.3451 11.25 11.4583 11.25H16.4583C16.8033 11.25 17.0833 10.9699 17.0833 10.625V8.125C17.0833 7.78007 16.8033 7.5 16.4583 7.5H10.625Z" fill="#1C2024"/>
</svg>
