<svg width="25" height="24" viewBox="0 0 25 24" fill="none" xmlns="http://www.w3.org/2000/svg">
	<path fill-rule="evenodd" clip-rule="evenodd" d="M4.5 4.25C4.5 3.00766 5.50766 2 6.75 2H13.25C13.6642 2 14 2.33579 14 2.75V7.75C14 8.16391 14.3361 8.5 14.75 8.5H19.75C20.1642 8.5 20.5 8.83579 20.5 9.25V19.75C20.5 20.9923 19.4923 22 18.25 22H6.75C5.50766 22 4.5 20.9923 4.5 19.75V4.25ZM6.75 3.5C6.33609 3.5 6 3.83609 6 4.25V19.75C6 20.1639 6.33609 20.5 6.75 20.5H18.25C18.6639 20.5 19 20.1639 19 19.75V10H14.75C13.5077 10 12.5 8.99234 12.5 7.75V3.5H6.75Z" fill="#1C2024" />
	<path fill-rule="evenodd" clip-rule="evenodd" d="M13.7794 2.21973L20.2794 8.71973L19.2188 9.78039L12.7188 3.28039L13.7794 2.21973Z" fill="#1C2024" />
	<path fill-rule="evenodd" clip-rule="evenodd" d="M8 12.75C8 12.3358 8.33579 12 8.75 12H11.25C11.6642 12 12 12.3358 12 12.75C12 13.1642 11.6642 13.5 11.25 13.5H8.75C8.33579 13.5 8 13.1642 8 12.75Z" fill="#1C2024" />
	<path fill-rule="evenodd" clip-rule="evenodd" d="M8 17.75C8 17.3358 8.33579 17 8.75 17H11.25C11.6642 17 12 17.3358 12 17.75C12 18.1642 11.6642 18.5 11.25 18.5H8.75C8.33579 18.5 8 18.1642 8 17.75Z" fill="#1C2024" />
	<path fill-rule="evenodd" clip-rule="evenodd" d="M13 17.75C13 17.3358 13.3358 17 13.75 17H16.25C16.6642 17 17 17.3358 17 17.75C17 18.1642 16.6642 18.5 16.25 18.5H13.75C13.3358 18.5 13 18.1642 13 17.75Z" fill="#1C2024" />
	<path fill-rule="evenodd" clip-rule="evenodd" d="M13 12.75C13 12.3358 13.3358 12 13.75 12H16.25C16.6642 12 17 12.3358 17 12.75C17 13.1642 16.6642 13.5 16.25 13.5H13.75C13.3358 13.5 13 13.1642 13 12.75Z" fill="#1C2024" />
	<path fill-rule="evenodd" clip-rule="evenodd" d="M13 15.25C13 14.8358 13.3358 14.5 13.75 14.5H16.25C16.6642 14.5 17 14.8358 17 15.25C17 15.6642 16.6642 16 16.25 16H13.75C13.3358 16 13 15.6642 13 15.25Z" fill="#1C2024" />
	<path fill-rule="evenodd" clip-rule="evenodd" d="M8 15.25C8 14.8358 8.33579 14.5 8.75 14.5H11.25C11.6642 14.5 12 14.8358 12 15.25C12 15.6642 11.6642 16 11.25 16H8.75C8.33579 16 8 15.6642 8 15.25Z" fill="#1C2024" />
</svg>
