<svg width="20" height="20" viewBox="0 0 20 20" fill="none" xmlns="http://www.w3.org/2000/svg">
<path d="M6.15857 13.7824C5.00145 12.9664 4.13419 11.8032 3.68243 10.4613C3.23067 9.1194 3.21787 7.66853 3.6459 6.31887C4.07392 4.96922 4.92054 3.7909 6.06308 2.95462C7.20563 2.11834 8.58475 1.66754 10.0007 1.66754C11.4165 1.66754 12.7957 2.11834 13.9382 2.95462C15.0808 3.7909 15.9274 4.96922 16.3554 6.31887C16.7834 7.66853 16.7706 9.1194 16.3189 10.4613C15.8671 11.8032 14.9998 12.9664 13.8427 13.7824L15.5786 17.7491C15.6064 17.8126 15.618 17.882 15.6123 17.9511C15.6065 18.0202 15.5836 18.0868 15.5456 18.1448C15.5077 18.2028 15.4558 18.2505 15.3947 18.2834C15.3337 18.3163 15.2654 18.3334 15.1961 18.3332H4.8044C4.73516 18.3333 4.66699 18.3162 4.60605 18.2833C4.5451 18.2505 4.49331 18.2029 4.45534 18.145C4.41738 18.0871 4.39444 18.0207 4.3886 17.9517C4.38276 17.8827 4.39421 17.8134 4.4219 17.7499L6.15857 13.7824ZM11.7711 13.2049L12.8811 12.4207C13.7492 11.8089 14.3999 10.9366 14.739 9.9301C15.0781 8.92363 15.0878 7.83535 14.7669 6.82295C14.446 5.81055 13.8111 4.92664 12.9541 4.2993C12.0972 3.67196 11.0627 3.33378 10.0007 3.33378C8.93861 3.33378 7.90415 3.67196 7.04719 4.2993C6.19023 4.92664 5.55529 5.81055 5.23437 6.82295C4.91346 7.83535 4.92325 8.92363 5.26232 9.9301C5.60139 10.9366 6.25213 11.8089 7.12023 12.4207L8.2294 13.2049L6.71523 16.6666H13.2852L11.7711 13.2049ZM6.76607 9.14157L8.38273 8.7374C8.47245 9.09854 8.68044 9.41927 8.97358 9.64849C9.26671 9.87771 9.62812 10.0022 10.0002 10.0022C10.3723 10.0022 10.7338 9.87771 11.0269 9.64849C11.32 9.41927 11.528 9.09854 11.6177 8.7374L13.2344 9.14157C13.0531 9.86198 12.6365 10.5012 12.0506 10.958C11.4647 11.4147 10.7431 11.6627 10.0002 11.6627C9.25736 11.6627 8.53576 11.4147 7.94987 10.958C7.36399 10.5012 6.94736 9.86198 6.76607 9.14157Z" fill="#1C2024"/>
</svg>
