<svg width="21" height="20" viewBox="0 0 21 20" fill="none" xmlns="http://www.w3.org/2000/svg">
<path fill-rule="evenodd" clip-rule="evenodd" d="M10.4996 7.49805C9.81176 7.49805 9.25391 8.0559 9.25391 8.74371C9.25391 9.43246 9.8127 9.99154 10.4996 9.99154C11.1864 9.99154 11.7452 9.43246 11.7452 8.74371C11.7452 8.0559 11.1874 7.49805 10.4996 7.49805ZM8.00391 8.74371C8.00391 7.36554 9.1214 6.24805 10.4996 6.24805C11.8777 6.24805 12.9952 7.36554 12.9952 8.74371C12.9952 10.1209 11.8787 11.2415 10.4996 11.2415C9.12046 11.2415 8.00391 10.1209 8.00391 8.74371Z" fill="#1C2024"/>
<path fill-rule="evenodd" clip-rule="evenodd" d="M7.90603 13.3252C7.836 13.3252 7.79102 13.3802 7.79102 13.4315V14.356C7.79102 14.6212 7.89752 14.8708 8.08386 15.0458C8.44137 15.3802 9.15894 15.8317 10.4993 15.8317C11.8397 15.8317 12.5573 15.3802 12.9148 15.0458C13.1012 14.8708 13.2077 14.6212 13.2077 14.356V13.4315C13.2077 13.3802 13.1627 13.3252 13.0927 13.3252H7.90603ZM6.54102 13.4315C6.54102 12.6755 7.16009 12.0752 7.90603 12.0752H13.0927C13.8386 12.0752 14.4577 12.6755 14.4577 13.4315V14.356C14.4577 14.9544 14.2171 15.538 13.7699 15.9576L13.7693 15.9582C13.1805 16.5092 12.1576 17.0817 10.4993 17.0817C8.84106 17.0817 7.81821 16.5092 7.22942 15.9582L7.2288 15.9576C6.78163 15.538 6.54102 14.9544 6.54102 14.356V13.4315Z" fill="#1C2024"/>
<path d="M7.22168 9.08203C7.26763 9.53136 7.40299 9.95419 7.61133 10.332H3.53125C3.46122 10.332 3.41602 10.3872 3.41602 10.4385V11.3633C3.41613 11.6283 3.52274 11.8778 3.70898 12.0527C4.03913 12.3615 4.6763 12.7683 5.82715 12.8291C5.77168 13.0197 5.74121 13.2217 5.74121 13.4316V14.0762C4.30641 13.9959 3.39651 13.4721 2.85449 12.9648C2.40747 12.5454 2.16613 11.9615 2.16602 11.3633V10.4385C2.16602 9.68247 2.78531 9.08203 3.53125 9.08203H7.22168Z" fill="#1C2024"/>
<path fill-rule="evenodd" clip-rule="evenodd" d="M6.12402 3.24121C7.50217 3.24121 8.62009 4.35917 8.62012 5.7373C8.62012 5.84425 8.60975 5.94929 8.59668 6.05273C7.96441 6.5005 7.49609 7.16514 7.30176 7.93848C6.95089 8.12706 6.55026 8.23535 6.12402 8.23535C4.74494 8.23532 3.62891 7.11451 3.62891 5.7373C3.62894 4.35918 4.7459 3.24124 6.12402 3.24121ZM6.12402 4.49121C5.43626 4.49124 4.87894 5.04954 4.87891 5.7373C4.87891 6.42604 5.43718 6.98532 6.12402 6.98535C6.81089 6.98535 7.37012 6.42606 7.37012 5.7373C7.37009 5.04952 6.81181 4.49121 6.12402 4.49121Z" fill="#1C2024"/>
<path d="M17.4678 9.08203C18.2137 9.08209 18.833 9.68251 18.833 10.4385V11.3633C18.8329 11.9615 18.5916 12.5453 18.1445 12.9648C17.6025 13.4719 16.6922 13.9958 15.2578 14.0762V13.4316C15.2578 13.2216 15.2264 13.0198 15.1709 12.8291C16.3223 12.7684 16.9599 12.3616 17.29 12.0527C17.4762 11.8778 17.5829 11.6283 17.583 11.3633V10.4385C17.583 10.3872 17.5377 10.3321 17.4678 10.332H13.3867C13.5949 9.95411 13.7305 9.53137 13.7764 9.08203H17.4678Z" fill="#1C2024"/>
<path fill-rule="evenodd" clip-rule="evenodd" d="M14.874 3.24219C16.2522 3.24219 17.3701 4.35917 17.3701 5.7373C17.3701 7.11452 16.2531 8.23535 14.874 8.23535C14.4475 8.23534 14.0464 8.12733 13.6953 7.93848C13.5009 7.16496 13.0329 6.50046 12.4004 6.05273C12.3873 5.94933 12.3789 5.8442 12.3789 5.7373C12.3789 4.35918 13.4959 3.24222 14.874 3.24219ZM14.874 4.49121C14.1863 4.49124 13.6289 5.04954 13.6289 5.7373C13.6289 6.42604 14.1872 6.98532 14.874 6.98535C15.5609 6.98535 16.1201 6.42606 16.1201 5.7373C16.1201 5.04952 15.5618 4.49121 14.874 4.49121Z" fill="#1C2024"/>
</svg>
