<svg width="20" height="20" viewBox="0 0 20 20" fill="none" xmlns="http://www.w3.org/2000/svg">
<path fill-rule="evenodd" clip-rule="evenodd" d="M3.95833 5C3.15334 5 2.5 5.65334 2.5 6.45833V13.5417C2.5 14.3467 3.15334 15 3.95833 15H16.0417C16.8467 15 17.5 14.3467 17.5 13.5417V6.45833C17.5 5.65334 16.8467 5 16.0417 5H3.95833ZM1.25 6.45833C1.25 4.96298 2.46298 3.75 3.95833 3.75H16.0417C17.537 3.75 18.75 4.96298 18.75 6.45833V13.5417C18.75 15.037 17.537 16.25 16.0417 16.25H3.95833C2.46298 16.25 1.25 15.037 1.25 13.5417V6.45833Z" fill="#7E808A"/>
<path d="M6.25 10H4.58333C4.12326 10 3.75 9.62674 3.75 9.16667V8.33333C3.75 7.87326 4.12326 7.5 4.58333 7.5H6.25C6.71007 7.5 7.08333 7.87326 7.08333 8.33333V9.16667C7.08333 9.62674 6.71007 10 6.25 10Z" fill="#7E808A"/>
<path fill-rule="evenodd" clip-rule="evenodd" d="M3.75 12.2917C3.75 11.9466 4.02982 11.6667 4.375 11.6667H5.625C5.97018 11.6667 6.25 11.9466 6.25 12.2917C6.25 12.6369 5.97018 12.9167 5.625 12.9167H4.375C4.02982 12.9167 3.75 12.6369 3.75 12.2917Z" fill="#7E808A"/>
<path fill-rule="evenodd" clip-rule="evenodd" d="M7.08594 12.2917C7.08594 11.9466 7.36576 11.6667 7.71094 11.6667H8.96094C9.30612 11.6667 9.58594 11.9466 9.58594 12.2917C9.58594 12.6369 9.30612 12.9167 8.96094 12.9167H7.71094C7.36576 12.9167 7.08594 12.6369 7.08594 12.2917Z" fill="#7E808A"/>
<path fill-rule="evenodd" clip-rule="evenodd" d="M10.4141 12.2917C10.4141 11.9466 10.6939 11.6667 11.0391 11.6667H12.2891C12.6342 11.6667 12.9141 11.9466 12.9141 12.2917C12.9141 12.6369 12.6342 12.9167 12.2891 12.9167H11.0391C10.6939 12.9167 10.4141 12.6369 10.4141 12.2917Z" fill="#7E808A"/>
<path fill-rule="evenodd" clip-rule="evenodd" d="M13.75 12.2917C13.75 11.9466 14.0298 11.6667 14.375 11.6667H15.625C15.9702 11.6667 16.25 11.9466 16.25 12.2917C16.25 12.6369 15.9702 12.9167 15.625 12.9167H14.375C14.0298 12.9167 13.75 12.6369 13.75 12.2917Z" fill="#7E808A"/>
</svg>
