<svg width="20" height="20" viewBox="0 0 20 20" fill="none" xmlns="http://www.w3.org/2000/svg">
<g clip-path="url(#clip0_2617_36155)">
<path fill-rule="evenodd" clip-rule="evenodd" d="M2.12192 12.8323C2.89868 11.902 4.13409 10.8359 5.76167 10.8359C6.43264 10.8359 6.84618 10.9272 7.25295 11.017C7.31544 11.0307 7.37778 11.0445 7.44086 11.0579C7.89043 11.1533 8.466 11.2526 9.62885 11.2526H11.4583C12.4936 11.2526 13.3333 12.0923 13.3333 13.1276C13.3333 14.1629 12.4936 15.0026 11.4583 15.0026H8.54162C8.19644 15.0026 7.91662 14.7228 7.91662 14.3776C7.91662 14.0324 8.19644 13.7526 8.54162 13.7526H11.4583C11.8032 13.7526 12.0833 13.4725 12.0833 13.1276C12.0833 12.7827 11.8032 12.5026 11.4583 12.5026H9.62885C8.37635 12.5026 7.71385 12.3936 7.18144 12.2807C7.10957 12.2654 7.04198 12.2506 6.97714 12.2364C6.58342 12.15 6.29144 12.0859 5.76167 12.0859C4.70045 12.0859 3.78417 12.7918 3.08143 13.6334C2.74007 14.0423 2.47386 14.4543 2.29274 14.7655C2.20258 14.9203 2.13453 15.0485 2.08973 15.1364C2.06735 15.1803 2.05084 15.214 2.04033 15.2358C2.03507 15.2468 2.03133 15.2547 2.02911 15.2595L2.02703 15.2639C1.88382 15.5778 1.51317 15.7166 1.19916 15.5735C0.885044 15.4304 0.746419 15.0598 0.88953 14.7456L1.43825 14.9956C0.889532 14.7456 0.889617 14.7455 0.889708 14.7453L0.890468 14.7436L0.892007 14.7403L0.896887 14.7298C0.900938 14.7211 0.906587 14.7091 0.913816 14.6941C0.928272 14.664 0.949072 14.6216 0.976093 14.5686C1.03009 14.4627 1.10919 14.314 1.21241 14.1366C1.41805 13.7834 1.72353 13.3094 2.12192 12.8323Z" fill="#1C2024"/>
<path fill-rule="evenodd" clip-rule="evenodd" d="M17.3387 10.0079C17.8213 10.004 18.2637 10.1967 18.6168 10.5498C19.3321 11.265 19.3488 12.4127 18.6669 13.1481C18.6579 13.1585 18.6484 13.1686 18.6385 13.1785L18.6176 13.1994C18.6173 13.1997 18.6171 13.1999 18.6168 13.2002C18.5897 13.2273 18.5608 13.2513 18.5304 13.2724C17.5828 14.0691 16.7838 14.7542 16.104 15.3372C15.1978 16.1142 14.5033 16.7097 13.951 17.146C12.9819 17.9115 12.2829 18.3333 11.4583 18.3333C10.6128 18.3333 9.75966 18.2269 8.94444 18.1253L8.90375 18.1202C8.06235 18.0153 7.25738 17.9167 6.45828 17.9167C5.87049 17.9167 5.51881 18.1971 5.29162 18.5C5.17417 18.6566 5.09378 18.8165 5.04302 18.9383C5.01798 18.9984 5.00111 19.0469 4.99113 19.078C4.98616 19.0934 4.98296 19.1044 4.98136 19.11L4.98026 19.114C4.89483 19.4464 4.55688 19.648 4.22336 19.5647C3.88849 19.4809 3.68489 19.1416 3.76861 18.8067L4.37495 18.9583C3.76861 18.8067 3.76868 18.8064 3.76876 18.8062L3.76891 18.8055L3.76925 18.8042L3.77007 18.801L3.77222 18.7928C3.77389 18.7865 3.77604 18.7786 3.77871 18.7692C3.78403 18.7504 3.79141 18.7256 3.80109 18.6954C3.8204 18.6354 3.8491 18.5537 3.88917 18.4575C3.96862 18.2668 4.09656 18.0101 4.29162 17.75C4.68942 17.2196 5.37941 16.6667 6.45828 16.6667C7.34755 16.6667 8.22879 16.7764 9.05839 16.8798L9.06046 16.88C9.90319 16.9851 10.6909 17.0833 11.4583 17.0833C11.812 17.0833 12.2079 16.93 13.1762 16.1651C13.7138 15.7404 14.3761 15.1723 15.2578 14.4161C15.9444 13.8271 16.764 13.1241 17.7616 12.2857C17.9767 12.0402 17.9672 11.6679 17.7329 11.4337C17.5978 11.2985 17.4705 11.2568 17.3488 11.2578C17.2134 11.2589 17.0201 11.3148 16.7825 11.4924L16.7806 11.4938C16.467 11.7263 15.421 12.5067 14.4521 13.23C13.9679 13.5915 13.5034 13.9383 13.1599 14.1948L12.5947 14.617L12.5942 14.6173C12.5942 14.6174 12.594 14.6175 12.22 14.1167C11.846 13.616 11.846 13.616 11.846 13.616L12.412 13.1933C12.7555 12.9368 13.2201 12.5899 13.7043 12.2284C14.6713 11.5065 15.7185 10.7252 16.0353 10.4903C16.4246 10.1996 16.87 10.0117 17.3387 10.0079ZM12.22 14.1167L11.846 13.616C11.5695 13.8225 11.5127 14.2142 11.7193 14.4908C11.9258 14.7673 12.3176 14.8239 12.5942 14.6173L12.22 14.1167Z" fill="#1C2024"/>
<path fill-rule="evenodd" clip-rule="evenodd" d="M11.875 5.41797C10.8399 5.41797 9.99995 6.25794 9.99995 7.29297C9.99995 8.328 10.8399 9.16797 11.875 9.16797C12.91 9.16797 13.75 8.328 13.75 7.29297C13.75 6.25794 12.91 5.41797 11.875 5.41797ZM8.74995 7.29297C8.74995 5.56758 10.1496 4.16797 11.875 4.16797C13.6003 4.16797 15 5.56758 15 7.29297C15 9.01835 13.6003 10.418 11.875 10.418C10.1496 10.418 8.74995 9.01835 8.74995 7.29297Z" fill="#1C2024"/>
<path fill-rule="evenodd" clip-rule="evenodd" d="M9.37495 1.25C9.72013 1.25 9.99995 1.52982 9.99995 1.875V3.54167C9.99995 3.88685 9.72013 4.16667 9.37495 4.16667C9.02977 4.16667 8.74995 3.88685 8.74995 3.54167V1.875C8.74995 1.52982 9.02977 1.25 9.37495 1.25Z" fill="#1C2024"/>
<path fill-rule="evenodd" clip-rule="evenodd" d="M11.875 0.417969C12.2201 0.417969 12.5 0.697791 12.5 1.04297V2.70964C12.5 3.05481 12.2201 3.33464 11.875 3.33464C11.5298 3.33464 11.25 3.05481 11.25 2.70964V1.04297C11.25 0.697791 11.5298 0.417969 11.875 0.417969Z" fill="#1C2024"/>
<path fill-rule="evenodd" clip-rule="evenodd" d="M14.375 1.25C14.7201 1.25 15 1.52982 15 1.875V3.54167C15 3.88685 14.7201 4.16667 14.375 4.16667C14.0298 4.16667 13.75 3.88685 13.75 3.54167V1.875C13.75 1.52982 14.0298 1.25 14.375 1.25Z" fill="#1C2024"/>
</g>
<defs>
<clipPath id="clip0_2617_36155">
<rect width="20" height="20" fill="white"/>
</clipPath>
</defs>
</svg>
