<svg width="129" height="128" viewBox="0 0 129 128" fill="none" xmlns="http://www.w3.org/2000/svg">
<path d="M30.0626 77.5626C32.1454 75.4798 35.5215 75.4798 37.6043 77.5626C39.687 79.6454 39.687 83.0215 37.6043 85.1043L25.3751 97.3334L37.6043 109.563L37.9714 109.966C39.6802 112.061 39.557 115.152 37.6043 117.104C35.6515 119.057 32.561 119.18 30.4662 117.471L30.0626 117.104L14.0626 101.104C11.9798 99.0215 11.9798 95.6454 14.0626 93.5626L30.0626 77.5626Z" fill="#1C2024"/>
<path d="M91.3958 10.8963C93.4786 8.81353 96.8547 8.81353 98.9375 10.8963L114.938 26.8963C117.02 28.9791 117.02 32.3552 114.938 34.438L98.9375 50.438C96.8547 52.5208 93.4786 52.5208 91.3958 50.438C89.313 48.3552 89.313 44.9791 91.3958 42.8963L103.625 30.6672L91.3958 18.438C89.313 16.3552 89.313 12.9791 91.3958 10.8963Z" fill="#1C2024"/>
<path d="M59.1775 80.0001V48.0001C59.1775 45.0546 61.5653 42.6667 64.5108 42.6667C67.4563 42.6667 69.8442 45.0546 69.8442 48.0001V80.0001C69.8442 82.9456 67.4563 85.3334 64.5108 85.3334C61.5653 85.3334 59.1775 82.9456 59.1775 80.0001Z" fill="url(#paint0_linear_203_82788)"/>
<path d="M80.4998 58.6667C83.4454 58.6667 85.8332 61.0546 85.8332 64.0001C85.8332 66.9456 83.4454 69.3334 80.4998 69.3334H48.4998C45.5543 69.3334 43.1665 66.9456 43.1665 64.0001C43.1665 61.0546 45.5543 58.6667 48.4998 58.6667H80.4998Z" fill="url(#paint1_linear_203_82788)"/>
<path d="M105.833 86.6667V68L116.5 57.3334V86.6667C116.5 95.5033 109.337 102.667 100.5 102.667H19.1667V92H100.5C103.446 92 105.833 89.6122 105.833 86.6667Z" fill="#1C2024"/>
<path d="M12.5 41.3334C12.5 32.4968 19.6634 25.3334 28.5 25.3334H111.167V36H28.5C25.5545 36 23.1667 38.3879 23.1667 41.3334V60L12.5 70.6667V41.3334Z" fill="#1C2024"/>
<defs>
<linearGradient id="paint0_linear_203_82788" x1="64.5108" y1="42.6667" x2="64.5108" y2="85.3334" gradientUnits="userSpaceOnUse">
<stop stop-color="#44AA11"/>
<stop offset="1" stop-color="#77AA00"/>
</linearGradient>
<linearGradient id="paint1_linear_203_82788" x1="64.4998" y1="58.6667" x2="64.4998" y2="69.3334" gradientUnits="userSpaceOnUse">
<stop stop-color="#44AA11"/>
<stop offset="1" stop-color="#77AA00"/>
</linearGradient>
</defs>
</svg>
