<svg width="20" height="20" viewBox="0 0 20 20" fill="none" xmlns="http://www.w3.org/2000/svg">
<path fill-rule="evenodd" clip-rule="evenodd" d="M4.79167 3.75C4.21671 3.75 3.75 4.21671 3.75 4.79167V15.2083C3.75 15.7833 4.21671 16.25 4.79167 16.25H15.2083C15.7833 16.25 16.25 15.7833 16.25 15.2083V4.79167C16.25 4.21671 15.7833 3.75 15.2083 3.75H4.79167ZM2.5 4.79167C2.5 3.52635 3.52635 2.5 4.79167 2.5H15.2083C16.4736 2.5 17.5 3.52635 17.5 4.79167V15.2083C17.5 16.4736 16.4736 17.5 15.2083 17.5H4.79167C3.52635 17.5 2.5 16.4736 2.5 15.2083V4.79167Z" fill="#1C2024"/>
<path d="M10.8327 6.66634C10.8327 7.12641 10.4594 7.49967 9.99935 7.49967C9.53928 7.49967 9.16602 7.12641 9.16602 6.66634C9.16602 6.20627 9.53928 5.83301 9.99935 5.83301C10.4594 5.83301 10.8327 6.20627 10.8327 6.66634Z" fill="#1C2024"/>
<path fill-rule="evenodd" clip-rule="evenodd" d="M10 8.75C10.3452 8.75 10.625 9.02982 10.625 9.375V13.9583C10.625 14.3035 10.3452 14.5833 10 14.5833C9.65482 14.5833 9.375 14.3035 9.375 13.9583V9.375C9.375 9.02982 9.65482 8.75 10 8.75Z" fill="#1C2024"/>
</svg>
