<svg width="21" height="20" viewBox="0 0 21 20" fill="none" xmlns="http://www.w3.org/2000/svg">
<path d="M2.375 7.08398H18.625V8.75065H2.375V7.08398Z" fill="#1C2024"/>
<path d="M6.95837 12.084C7.30355 12.084 7.58337 12.3638 7.58337 12.709C7.58337 13.0542 7.30355 13.334 6.95837 13.334H4.45837C4.1132 13.334 3.83337 13.0542 3.83337 12.709C3.83337 12.3638 4.1132 12.084 4.45837 12.084H6.95837Z" fill="#1C2024"/>
<path d="M17.5833 15.9434C17.5833 14.8474 16.6936 13.9577 15.5977 13.9577H14.9857C14.5799 13.9577 14.25 13.6278 14.25 13.2198C14.25 12.8205 14.5755 12.4907 14.9748 12.4842L15.3177 12.4798C15.5781 12.4798 15.8038 12.6469 15.8798 12.8943C15.9818 13.2242 16.3312 13.4108 16.661 13.3088C16.9909 13.209 17.1753 12.8596 17.0755 12.5297C16.8759 11.8809 16.3529 11.4164 15.7083 11.2776V11.041C15.7083 10.696 15.4284 10.416 15.0833 10.416C14.7383 10.416 14.4583 10.696 14.4583 11.041V11.3145C13.6207 11.5488 13 12.3149 13 13.222C13 14.3179 13.8898 15.2077 14.9857 15.2077H15.5977C16.0035 15.2077 16.3333 15.5375 16.3333 15.9434C16.3333 16.347 16.0056 16.6769 15.6042 16.679L14.8381 16.6855C14.5799 16.6855 14.3542 16.5206 14.276 16.2754C14.174 15.9477 13.8225 15.7632 13.4926 15.8674C13.1649 15.9716 12.9805 16.3231 13.0846 16.6508C13.2886 17.2954 13.816 17.7576 14.4583 17.8921V18.1243C14.4583 18.4694 14.7383 18.7493 15.0833 18.7493C15.4284 18.7493 15.7083 18.4694 15.7083 18.1243V17.9182C16.75 17.8596 17.5833 16.9959 17.5833 15.9434Z" fill="#1C2024"/>
<path d="M10.9384 15H4.45833C3.65321 15 3 14.3468 3 13.5417V6.45833C3 5.65321 3.65321 5 4.45833 5H16.5417C17.3468 5 18 5.65321 18 6.45833V11.1567C18.4926 11.543 18.9158 12.0117 19.25 12.5434V6.45833C19.25 4.96528 18.0347 3.75 16.5417 3.75H4.45833C2.96528 3.75 1.75 4.96528 1.75 6.45833V13.5417C1.75 15.0347 2.96528 16.25 4.45833 16.25H11.1814C11.0534 15.8507 10.9709 15.4319 10.9384 15Z" fill="#1C2024"/>
</svg>
