<svg width="24" height="24" viewBox="0 0 24 24" fill="none" xmlns="http://www.w3.org/2000/svg">
<path d="M16.9998 14.2499C16.9998 13.8736 16.941 13.508 16.8338 13.16L16.7845 13.0121C16.7011 12.7751 16.7422 12.512 16.8933 12.3114C17.0446 12.1109 17.2862 11.9996 17.5369 12.0145L17.7684 12.034C20.1469 12.292 21.9997 14.3007 21.9998 16.7499C21.9998 19.3724 19.8723 21.4999 17.2498 21.4999C15.5315 21.4998 14.027 20.5842 13.1961 19.2211L13.118 19.0882C12.9942 18.8695 12.9885 18.6028 13.1023 18.3788C13.2162 18.1549 13.4348 18.003 13.6844 17.974C15.5514 17.7568 16.9998 16.1733 16.9998 14.2499ZM18.4998 14.2499C18.4998 16.5068 17.0769 18.4248 15.0813 19.1683C15.6564 19.6854 16.4171 19.9998 17.2498 19.9999C19.0439 19.9999 20.4998 18.544 20.4998 16.7499C20.4997 15.3889 19.6623 14.2255 18.4734 13.7435C18.49 13.91 18.4998 14.0788 18.4998 14.2499Z" fill="#77AA00"/>
<path d="M9.5 21.75V19.75C9.5 19.3358 9.83579 19 10.25 19C10.6642 19 11 19.3358 11 19.75V21.75C11 22.1642 10.6642 22.5 10.25 22.5C9.83579 22.5 9.5 22.1642 9.5 21.75Z" fill="#77AA00"/>
<path d="M11.25 20C11.6642 20 12 20.3358 12 20.75C12 21.1642 11.6642 21.5 11.25 21.5H9.25C8.83579 21.5 8.5 21.1642 8.5 20.75C8.5 20.3358 8.83579 20 9.25 20H11.25Z" fill="#77AA00"/>
<path d="M20 10.75V8.75C20 8.33579 20.3358 8 20.75 8C21.1642 8 21.5 8.33579 21.5 8.75V10.75C21.5 11.1642 21.1642 11.5 20.75 11.5C20.3358 11.5 20 11.1642 20 10.75Z" fill="#77AA00"/>
<path d="M21.75 9C22.1642 9 22.5 9.33579 22.5 9.75C22.5 10.1642 22.1642 10.5 21.75 10.5H19.75C19.3358 10.5 19 10.1642 19 9.75C19 9.33579 19.3358 9 19.75 9H21.75Z" fill="#77AA00"/>
<path d="M9 3.75V2.75C9 2.33579 9.33579 2 9.75 2C10.1642 2 10.5 2.33579 10.5 2.75V3.75C10.5 4.16421 10.1642 4.5 9.75 4.5C9.33579 4.5 9 4.16421 9 3.75Z" fill="#77AA00"/>
<path d="M4.26921 4.26903C4.54372 3.99452 4.97805 3.97721 5.27263 4.21727L5.32976 4.26903L6.03825 4.97752L6.08952 5.03417C6.32989 5.32875 6.31288 5.76345 6.03825 6.03807C5.76363 6.31269 5.32893 6.3297 5.03435 6.08934L4.97771 6.03807L4.26921 5.32958L4.21745 5.27245C3.9774 4.97787 3.9947 4.54354 4.26921 4.26903Z" fill="#77AA00"/>
<path d="M3.75 9C4.16421 9 4.5 9.33579 4.5 9.75C4.5 10.1642 4.16421 10.5 3.75 10.5H2.75C2.33579 10.5 2 10.1642 2 9.75C2 9.33579 2.33579 9 2.75 9H3.75Z" fill="#77AA00"/>
<path d="M5.03433 13.4102C5.32891 13.17 5.76366 13.1874 6.03823 13.462C6.33102 13.7549 6.33102 14.2297 6.03823 14.5225L5.32974 15.231C5.03686 15.5238 4.56206 15.5238 4.26919 15.231C3.97632 14.9382 3.97638 14.4634 4.26919 14.1705L4.97769 13.462L5.03433 13.4102Z" fill="#77AA00"/>
<path d="M14.2271 4.21736C14.5217 3.97713 14.9564 3.99454 15.231 4.26912C15.5055 4.54368 15.5224 4.97798 15.2823 5.27253L15.231 5.32966L14.5225 6.03816C14.2296 6.33094 13.7548 6.33094 13.4619 6.03816C13.1691 5.74529 13.1691 5.27051 13.4619 4.97761L14.1704 4.26912L14.2271 4.21736Z" fill="#77AA00"/>
<path d="M5.5 9.75C5.5 7.40349 7.40349 5.5 9.75 5.5C10.8966 5.5 11.9312 5.95737 12.6934 6.68799L12.7461 6.74365C12.9925 7.03308 12.9845 7.46772 12.7158 7.74805C12.4292 8.04705 11.9543 8.05716 11.6553 7.77051L11.5601 7.68311C11.0733 7.25733 10.4426 7 9.75 7C8.23192 7 7 8.23192 7 9.75C7 10.4888 7.29287 11.157 7.77051 11.6553L7.8208 11.7134C8.05487 12.013 8.02839 12.4471 7.74805 12.7158C7.44905 13.0024 6.97463 12.9923 6.68799 12.6934L6.5542 12.5474C5.90194 11.8015 5.5 10.8249 5.5 9.75Z" fill="#77AA00"/>
<path d="M20.7768 3.16795C21.0714 2.9279 21.5057 2.9452 21.7802 3.21971C22.0547 3.49422 22.072 3.92855 21.832 4.22313L21.7802 4.28026L4.28022 21.7803C3.98732 22.0732 3.51256 22.0732 3.21967 21.7803C2.92678 21.4874 2.92678 21.0126 3.21967 20.7197L20.7197 3.21971L20.7768 3.16795Z" fill="#77AA00"/>
</svg>
