<svg width="24" height="24" viewBox="0 0 24 24" fill="none" xmlns="http://www.w3.org/2000/svg">
<path d="M8 16C7.44792 16 7 16.4479 7 17C7 17.5521 7.44792 18 8 18C8.55208 18 9 17.5521 9 17C9 16.4479 8.55208 16 8 16Z" fill="#F3F3F3"/>
<path d="M8 6C7.44792 6 7 6.44792 7 7C7 7.55208 7.44792 8 8 8C8.55208 8 9 7.55208 9 7C9 6.44792 8.55208 6 8 6Z" fill="#F3F3F3"/>
<path d="M6 4C6 5.10417 5.10417 6 4 6C2.89583 6 2 5.10417 2 4C2 2.89583 2.89583 2 4 2C5.10417 2 6 2.89583 6 4Z" fill="#F3F3F3"/>
<path d="M14 4C14 5.10417 13.1042 6 12 6C10.8958 6 10 5.10417 10 4C10 2.89583 10.8958 2 12 2C13.1042 2 14 2.89583 14 4Z" fill="#F3F3F3"/>
<path d="M6 20C6 21.1042 5.10417 22 4 22C2.89583 22 2 21.1042 2 20C2 18.8958 2.89583 18 4 18C5.10417 18 6 18.8958 6 20Z" fill="#F3F3F3"/>
<path d="M10 20H4V4H12V6.55729C12.5885 6.21354 13.2656 6 14 6V4C14 2.89583 13.1042 2 12 2H4C2.89583 2 2 2.89583 2 4V20C2 21.1042 2.89583 22 4 22H10.5573C10.2135 21.4115 10 20.7344 10 20Z" fill="#F3F3F3"/>
<path d="M10 9.78125C9.46875 9.30208 8.77083 9 8 9C6.34375 9 5 10.3437 5 12C5 13.6563 6.34375 15 8 15C8.77083 15 9.46875 14.6979 10 14.2187V9.78125Z" fill="#F3F3F3"/>
<path d="M20.75 12.8V11.6C20.75 9.5625 19.1224 8 17 8C14.8776 8 13.25 9.5625 13.25 11.6V12.8C12.5013 12.8 12 13.2813 12 14V18.8C12 19.5187 12.5013 20 13.25 20H20.75C21.4987 20 22 19.5187 22 18.8V14C22 13.2813 21.4987 12.8 20.75 12.8ZM18.875 12.8H15.125V11.6C15.125 10.6375 15.9974 9.8 17 9.8C18.0026 9.8 18.875 10.6375 18.875 11.6V12.8Z" fill="#F3F3F3"/>
</svg>
