<svg width="20" height="20" viewBox="0 0 20 20" fill="none" xmlns="http://www.w3.org/2000/svg">
<path d="M5 6.66699H7.5V9.16699H5V6.66699Z" fill="#77AA00"/>
<path d="M16.6665 3.3335H3.33317C2.41303 3.3335 1.6665 4.08002 1.6665 5.00016V15.0002C1.6665 15.9203 2.41303 16.6668 3.33317 16.6668H16.6665C17.5866 16.6668 18.3332 15.9203 18.3332 15.0002V5.00016C18.3332 4.08002 17.5866 3.3335 16.6665 3.3335ZM16.6665 15.0002H3.33317V5.00016H16.6665V15.0002Z" fill="#77AA00"/>
<path d="M5 11.667H6.66667V13.3337H5V11.667Z" fill="#77AA00"/>
<path d="M7.5 11.667H9.16667V13.3337H7.5V11.667Z" fill="#77AA00"/>
<path d="M10 7.5H15V9.16667H10V7.5Z" fill="#77AA00"/>
<path d="M12.5 11.667H14.1667V13.3337H12.5V11.667Z" fill="#77AA00"/>
<path d="M10 11.667H11.6667V13.3337H10V11.667Z" fill="#77AA00"/>
</svg>
