<svg width="20" height="20" viewBox="0 0 20 20" fill="none" xmlns="http://www.w3.org/2000/svg">
<g id="icon/securitypadlock">
<path id="Vector" d="M5 7.50008V6.66675C5 3.90532 7.23857 1.66675 10 1.66675C12.7614 1.66675 15 3.90532 15 6.66675V7.50008H16.6667C17.1269 7.50008 17.5 7.87318 17.5 8.33341V18.3334C17.5 18.7937 17.1269 19.1667 16.6667 19.1667H3.33333C2.8731 19.1667 2.5 18.7937 2.5 18.3334V8.33341C2.5 7.87318 2.8731 7.50008 3.33333 7.50008H5ZM15.8333 9.16675H4.16667V17.5001H15.8333V9.16675ZM9.16667 13.9437C8.6685 13.6556 8.33333 13.117 8.33333 12.5001C8.33333 11.5796 9.0795 10.8334 10 10.8334C10.9205 10.8334 11.6667 11.5796 11.6667 12.5001C11.6667 13.117 11.3315 13.6556 10.8333 13.9437V15.8334H9.16667V13.9437ZM6.66667 7.50008H13.3333V6.66675C13.3333 4.8258 11.8409 3.33341 10 3.33341C8.15905 3.33341 6.66667 4.8258 6.66667 6.66675V7.50008Z" fill="#AAEE11"/>
</g>
</svg>
