<svg width="24" height="24" viewBox="0 0 24 24" fill="none" xmlns="http://www.w3.org/2000/svg">
<path d="M14.003 15.252V23H3C3 18.5817 6.58172 15 11 15C11.6906 15 13.3638 15.0875 14.003 15.252ZM11 14C7.685 14 5 11.315 5 8C5 4.685 7.685 2 11 2C14.315 2 17 4.685 17 8C17 11.315 14.315 14 11 14Z" fill="#1C2024"/>
<path d="M18 21H20V23H18V21Z" fill="#1C2024"/>
<path d="M19 15C19.9896 15 20 15.9896 20 16C20 17.0521 18 19.026 18 20H20C20 19.0156 22 17.4219 22 16C22 14.526 20.8802 13 19 13C16.9531 13 16 14.7917 16 16H18C18 15.8333 18.1719 15 19 15Z" fill="#1C2024"/>
</svg>
