<svg width="24" height="24" viewBox="0 0 24 24" fill="none" xmlns="http://www.w3.org/2000/svg">
<path fill-rule="evenodd" clip-rule="evenodd" d="M12 2.5C12.5523 2.5 13 2.94772 13 3.5V19C13 19.5523 12.5523 20 12 20C11.4477 20 11 19.5523 11 19V3.5C11 2.94772 11.4477 2.5 12 2.5Z" fill="#1C2024"/>
<path fill-rule="evenodd" clip-rule="evenodd" d="M19.7071 12.2929C20.0976 12.6834 20.0976 13.3166 19.7071 13.7071L12.7071 20.7071C12.3166 21.0976 11.6834 21.0976 11.2929 20.7071L4.29289 13.7071C3.90237 13.3166 3.90237 12.6834 4.29289 12.2929C4.68342 11.9024 5.31658 11.9024 5.70711 12.2929L12 18.5858L18.2929 12.2929C18.6834 11.9024 19.3166 11.9024 19.7071 12.2929Z" fill="#1C2024"/>
</svg>
