<svg width="20" height="20" viewBox="0 0 20 20" fill="none" xmlns="http://www.w3.org/2000/svg">
<path fill-rule="evenodd" clip-rule="evenodd" d="M8.75004 2.91663C7.13992 2.91663 5.83337 4.22318 5.83337 5.83329C5.83337 7.44341 7.13992 8.74996 8.75004 8.74996C10.3602 8.74996 11.6667 7.44341 11.6667 5.83329C11.6667 4.22318 10.3602 2.91663 8.75004 2.91663ZM4.58337 5.83329C4.58337 3.53282 6.44957 1.66663 8.75004 1.66663C11.0505 1.66663 12.9167 3.53282 12.9167 5.83329C12.9167 8.13377 11.0505 9.99996 8.75004 9.99996C6.44957 9.99996 4.58337 8.13377 4.58337 5.83329Z" fill="#77AA00"/>
<path fill-rule="evenodd" clip-rule="evenodd" d="M11.0546 13.7631C10.7025 13.7631 10.4166 14.0482 10.4166 14.4011V17.2787C10.4166 17.6308 10.7017 17.9167 11.0546 17.9167H17.2786C17.6307 17.9167 17.9166 17.6316 17.9166 17.2787V14.4011C17.9166 14.0475 17.6322 13.7631 17.2786 13.7631H11.0546ZM9.16663 14.4011C9.16663 13.3564 10.0136 12.5131 11.0546 12.5131H17.2786C18.3226 12.5131 19.1666 13.3571 19.1666 14.4011V17.2787C19.1666 18.3233 18.3197 19.1667 17.2786 19.1667H11.0546C10.01 19.1667 9.16663 18.3198 9.16663 17.2787V14.4011Z" fill="#77AA00"/>
<path fill-rule="evenodd" clip-rule="evenodd" d="M18.5416 16.4648H9.79163V15.2148H18.5416V16.4648Z" fill="#77AA00"/>
<path fill-rule="evenodd" clip-rule="evenodd" d="M14.7787 11.6666V18.5416H13.5287V11.6666H14.7787Z" fill="#77AA00"/>
<path fill-rule="evenodd" clip-rule="evenodd" d="M12.7083 10.8334C12.2484 10.8334 11.875 11.2068 11.875 11.6667C11.875 12.1267 12.2484 12.5 12.7083 12.5V13.75C11.558 13.75 10.625 12.817 10.625 11.6667C10.625 10.5164 11.558 9.58337 12.7083 9.58337C13.8586 9.58337 14.7917 10.5164 14.7917 11.6667H13.5417C13.5417 11.2068 13.1683 10.8334 12.7083 10.8334Z" fill="#77AA00"/>
<path fill-rule="evenodd" clip-rule="evenodd" d="M15.625 10.8334C15.165 10.8334 14.7916 11.2068 14.7916 11.6667H13.5416C13.5416 10.5164 14.4747 9.58337 15.625 9.58337C16.7753 9.58337 17.7083 10.5164 17.7083 11.6667C17.7083 12.817 16.7753 13.75 15.625 13.75V12.5C16.0849 12.5 16.4583 12.1267 16.4583 11.6667C16.4583 11.2068 16.0849 10.8334 15.625 10.8334Z" fill="#77AA00"/>
<path d="M7.91671 17.0478C5.92263 16.8846 4.72581 16.156 4.05603 15.5316C3.59596 15.1041 3.33337 14.4943 3.33337 13.8585V13.5416C3.33337 13.1966 3.61332 12.9166 3.95837 12.9166H7.91671H7.74093C7.88415 12.4717 8.08598 12.0529 8.33337 11.6666H3.95837C2.92539 11.6666 2.08337 12.5086 2.08337 13.5416V13.8585C2.08337 14.8394 2.49136 15.7834 3.20317 16.4453C4.03568 17.2211 5.50702 18.1307 7.91671 18.304V17.0478Z" fill="#77AA00"/>
</svg>
