<svg width="24" height="24" viewBox="0 0 24 24" fill="none" xmlns="http://www.w3.org/2000/svg">
<path fill-rule="evenodd" clip-rule="evenodd" d="M4.84115 18.5C4.33519 18.5 4 18.8774 4 19.25C4 19.6226 4.33519 20 4.84115 20H19.1589C19.6648 20 20 19.6226 20 19.25C20 18.8774 19.6648 18.5 19.1589 18.5H4.84115ZM2.5 19.25C2.5 17.9663 3.59189 17 4.84115 17H19.1589C20.4081 17 21.5 17.9663 21.5 19.25C21.5 20.5337 20.4081 21.5 19.1589 21.5H4.84115C3.59189 21.5 2.5 20.5337 2.5 19.25Z" fill="#1C2024"/>
<path d="M5.5171 8L11.1941 3.78221C11.6734 3.42709 12.3267 3.42724 12.806 3.78221C13.3824 4.20898 14.0022 4.67092 14.0022 4.67092V2.79267L13.6993 2.57717C12.6892 1.82844 11.3109 1.82844 10.3008 2.57717L2.80276 8.14797C2.54313 8.34087 2.43641 8.67848 2.538 8.98556C2.63959 9.29264 2.9266 9.5 3.25005 9.5H14V8H5.5171Z" fill="#1C2024"/>
<path fill-rule="evenodd" clip-rule="evenodd" d="M10.75 10.5V17.75H9.25V10.5H10.75Z" fill="#1C2024"/>
<path fill-rule="evenodd" clip-rule="evenodd" d="M6.75 10.5V17.75H5.25V10.5H6.75Z" fill="#1C2024"/>
<path fill-rule="evenodd" clip-rule="evenodd" d="M14.75 10.5V17.75H13.25V10.5H14.75Z" fill="#1C2024"/>
<path fill-rule="evenodd" clip-rule="evenodd" d="M18.75 10.5V17.75H17.25V10.5H18.75Z" fill="#1C2024"/>
<path d="M13 6C13 6.55208 12.5521 7 12 7C11.4479 7 11 6.55208 11 6C11 5.44792 11.4479 5 12 5C12.5521 5 13 5.44792 13 6Z" fill="#1C2024"/>
<path fill-rule="evenodd" clip-rule="evenodd" d="M19.5 1C19.9142 1 20.25 1.33579 20.25 1.75V7.25C20.25 7.66421 19.9142 8 19.5 8C19.0858 8 18.75 7.66421 18.75 7.25V1.75C18.75 1.33579 19.0858 1 19.5 1Z" fill="#1C2024"/>
<path fill-rule="evenodd" clip-rule="evenodd" d="M16 4.5C16 4.08579 16.3358 3.75 16.75 3.75H22.25C22.6642 3.75 23 4.08579 23 4.5C23 4.91421 22.6642 5.25 22.25 5.25H16.75C16.3358 5.25 16 4.91421 16 4.5Z" fill="#1C2024"/>
</svg>
