<svg width="25" height="24" viewBox="0 0 25 24" fill="none" xmlns="http://www.w3.org/2000/svg">
<path d="M6.61957 14.7197C6.91247 14.4268 7.38723 14.4268 7.68012 14.7197C7.97301 15.0126 7.97301 15.4873 7.68012 15.7802L5.21039 18.2499L7.68012 20.7197L7.73188 20.7768C7.97194 21.0714 7.95463 21.5057 7.68012 21.7802C7.40561 22.0547 6.97128 22.072 6.6767 21.832L6.61957 21.7802L3.61957 18.7802C3.32668 18.4873 3.32668 18.0126 3.61957 17.7197L6.61957 14.7197Z" fill="#77AA00"/>
<path d="M22.3999 10.1797V16.25C22.3999 17.7656 21.1655 19 19.6499 19H4.6499C4.23584 19 3.8999 18.6641 3.8999 18.25C3.8999 17.8359 4.23584 17.5 4.6499 17.5H19.6499C20.34 17.5 20.8999 16.9401 20.8999 16.25V11.6797L22.3999 10.1797Z" fill="#77AA00"/>
<path d="M21.8999 5.75C21.8999 6.16406 21.564 6.5 21.1499 6.5H6.1499C5.4598 6.5 4.8999 7.0599 4.8999 7.75V12.3203L3.3999 13.8203V7.75C3.3999 6.23437 4.63428 5 6.1499 5H21.1499C21.564 5 21.8999 5.33594 21.8999 5.75Z" fill="#77AA00"/>
<path d="M18.1196 2.21979C18.4125 1.9269 18.8872 1.9269 19.1801 2.21979L22.1801 5.21979C22.473 5.51269 22.473 5.98745 22.1801 6.28034L19.1801 9.28034C18.8872 9.57323 18.4125 9.57323 18.1196 9.28034C17.8267 8.98745 17.8267 8.51269 18.1196 8.21979L20.5893 5.75007L18.1196 3.28034C17.8267 2.98745 17.8267 2.51269 18.1196 2.21979Z" fill="#77AA00"/>
<path fill-rule="evenodd" clip-rule="evenodd" d="M12.8999 8.5C13.3141 8.5 13.6499 8.83579 13.6499 9.25V14.75C13.6499 15.1642 13.3141 15.5 12.8999 15.5C12.4857 15.5 12.1499 15.1642 12.1499 14.75V9.25C12.1499 8.83579 12.4857 8.5 12.8999 8.5Z" fill="#77AA00"/>
<path fill-rule="evenodd" clip-rule="evenodd" d="M9.3999 12C9.3999 11.5858 9.73569 11.25 10.1499 11.25H15.6499C16.0641 11.25 16.3999 11.5858 16.3999 12C16.3999 12.4142 16.0641 12.75 15.6499 12.75H10.1499C9.73569 12.75 9.3999 12.4142 9.3999 12Z" fill="#77AA00"/>
</svg>
