<svg width="24" height="24" viewBox="0 0 24 24" fill="none" xmlns="http://www.w3.org/2000/svg">
<path fill-rule="evenodd" clip-rule="evenodd" d="M13 17V21H11V17H13Z" fill="#1C2024"/>
<path fill-rule="evenodd" clip-rule="evenodd" d="M22 22H2V20H22V22Z" fill="#1C2024"/>
<path d="M14.974 9C14.7501 4.69792 13.1355 2 12.0001 2C10.8647 2 9.25008 4.69792 9.02612 9H14.974Z" fill="#1C2024"/>
<path d="M19.9271 9C19.5885 6.30208 17.901 4.01563 15.5625 2.84375C16.3542 4.42188 16.8646 6.55729 16.974 9H19.9271Z" fill="#1C2024"/>
<path d="M7.02612 9C7.1355 6.55729 7.64591 4.42188 8.43758 2.84375C6.09904 4.01563 4.41154 6.30208 4.073 9H7.02612Z" fill="#1C2024"/>
<path d="M16.974 11C16.8646 13.4427 16.3542 15.5781 15.5625 17.1563C17.901 15.9844 19.5885 13.6979 19.9271 11H16.974Z" fill="#1C2024"/>
<path d="M4.073 11C4.41154 13.6979 6.09904 15.9844 8.43758 17.1563C7.64591 15.5781 7.1355 13.4427 7.02612 11H4.073Z" fill="#1C2024"/>
<path d="M9.02612 11C9.25008 15.3021 10.8647 18 12.0001 18C13.1355 18 14.7501 15.3021 14.974 11H9.02612Z" fill="#1C2024"/>
</svg>
