<svg width="24" height="24" viewBox="0 0 24 24" fill="none" xmlns="http://www.w3.org/2000/svg">
<path d="M22 6V5C22 3.89583 21.1042 3 20 3H4C2.89583 3 2 3.89583 2 5V6H22Z" fill="#444444"/>
<path d="M2 9V17C2 18.1042 2.89583 19 4 19H7.78646L8.19271 18.1406C8.22396 18.0781 8.45313 17.6146 8.91146 17C10.0208 15.4896 12.5313 13 17 13C18.1198 13 19.1146 13.1615 20 13.4219C20.75 13.6406 21.4115 13.9323 22 14.2656V9H2Z" fill="#444444"/>
<path d="M17 15C11.9115 15 10 19 10 19C10 19 11.9115 23 17 23C22.0885 23 24 19 24 19C24 19 22.0885 15 17 15ZM17 21C15.8958 21 15 20.1042 15 19C15 17.8958 15.8958 17 17 17C18.1042 17 19 17.8958 19 19C19 20.1042 18.1042 21 17 21Z" fill="#444444"/>
</svg>
