<svg width="24" height="24" viewBox="0 0 24 24" fill="none" xmlns="http://www.w3.org/2000/svg">
<path d="M11.6649 3L20.7081 4.29189L22 13.3352L13.6027 21.7324C13.246 22.0892 12.6676 22.0892 12.3108 21.7324L3.26756 12.6892C2.91081 12.3324 2.91081 11.7541 3.26756 11.3973L11.6649 3ZM12.3108 4.93784L5.20541 12.0432L12.9567 19.7946L20.0622 12.6892L19.0933 5.90676L12.3108 4.93784ZM14.2487 10.7513C13.5352 10.0379 13.5352 8.88106 14.2487 8.16756C14.9622 7.45408 16.1189 7.45408 16.8325 8.16756C17.5459 8.88106 17.5459 10.0379 16.8325 10.7513C16.1189 11.4649 14.9622 11.4649 14.2487 10.7513Z" fill="black"/>
</svg>
