<svg width="20" height="20" viewBox="0 0 20 20" fill="none" xmlns="http://www.w3.org/2000/svg">
<path fill-rule="evenodd" clip-rule="evenodd" d="M1.25 5.625C1.25 5.27982 1.52982 5 1.875 5H10.625C11.6603 5 12.5 5.83972 12.5 6.875V8.64583C12.5 8.99101 12.2202 9.27083 11.875 9.27083C11.5298 9.27083 11.25 8.99101 11.25 8.64583V6.875C11.25 6.53007 10.9699 6.25 10.625 6.25H2.5V15.625C2.5 15.9699 2.78007 16.25 3.125 16.25H10.625C10.9699 16.25 11.25 15.9699 11.25 15.625V13.8542C11.25 13.509 11.5298 13.2292 11.875 13.2292C12.2202 13.2292 12.5 13.509 12.5 13.8542V15.625C12.5 16.6603 11.6603 17.5 10.625 17.5H3.125C2.08972 17.5 1.25 16.6603 1.25 15.625V5.625Z" fill="#77AA00"/>
<path fill-rule="evenodd" clip-rule="evenodd" d="M1.25 4.375C1.25 3.33972 2.08972 2.5 3.125 2.5H9.375C9.72018 2.5 10 2.77982 10 3.125C10 3.47018 9.72018 3.75 9.375 3.75H3.125C2.78007 3.75 2.5 4.03007 2.5 4.375C2.5 4.71993 2.78007 5 3.125 5C3.47018 5 3.75 5.27982 3.75 5.625C3.75 5.97018 3.47018 6.25 3.125 6.25C2.08972 6.25 1.25 5.41028 1.25 4.375Z" fill="#77AA00"/>
<path fill-rule="evenodd" clip-rule="evenodd" d="M1.875 3.75C2.22018 3.75 2.5 4.02982 2.5 4.375V6.25C2.5 6.59518 2.22018 6.875 1.875 6.875C1.52982 6.875 1.25 6.59518 1.25 6.25V4.375C1.25 4.02982 1.52982 3.75 1.875 3.75Z" fill="#77AA00"/>
<path fill-rule="evenodd" clip-rule="evenodd" d="M5.625 11.25C5.625 10.9048 5.90482 10.625 6.25 10.625H17.9167C18.2618 10.625 18.5417 10.9048 18.5417 11.25C18.5417 11.5952 18.2618 11.875 17.9167 11.875H6.25C5.90482 11.875 5.625 11.5952 5.625 11.25Z" fill="#77AA00"/>
<path fill-rule="evenodd" clip-rule="evenodd" d="M14.5581 7.05806C14.8021 6.81398 15.1979 6.81398 15.4419 7.05806L19.1919 10.8081C19.436 11.0521 19.436 11.4479 19.1919 11.6919L15.4419 15.4419C15.1979 15.686 14.8021 15.686 14.5581 15.4419C14.314 15.1979 14.314 14.8021 14.5581 14.5581L17.8661 11.25L14.5581 7.94194C14.314 7.69786 14.314 7.30214 14.5581 7.05806Z" fill="#77AA00"/>
<path fill-rule="evenodd" clip-rule="evenodd" d="M8.77523 7.89137C9.01931 8.13545 9.01931 8.53118 8.77523 8.77525L6.30051 11.25L8.77523 13.7247C9.01931 13.9688 9.01931 14.3645 8.77523 14.6086C8.53116 14.8527 8.13543 14.8527 7.89135 14.6086L4.97468 11.6919C4.73061 11.4478 4.73061 11.0521 4.97468 10.808L7.89135 7.89137C8.13543 7.64729 8.53116 7.64729 8.77523 7.89137Z" fill="#77AA00"/>
</svg>
