<svg width="20" height="20" viewBox="0 0 20 20" fill="none" xmlns="http://www.w3.org/2000/svg">
<path d="M4.48173 3.76111C6.0039 2.41046 7.96923 1.66608 10.0042 1.66944C14.6067 1.66944 18.3376 5.40028 18.3376 10.0028C18.3405 11.7061 17.8188 13.3689 16.8434 14.7653L14.5876 10.0028H16.6709C16.6711 8.67717 16.2761 7.3816 15.5363 6.28159C14.7966 5.18158 13.7457 4.32707 12.518 3.82723C11.2902 3.3274 9.94131 3.20493 8.6436 3.47548C7.3459 3.74603 6.15831 4.39731 5.23256 5.34611L4.48173 3.76111ZM15.5259 16.2444C14.0039 17.5949 12.039 18.3393 10.0042 18.3361C5.40173 18.3361 1.6709 14.6053 1.6709 10.0028C1.6709 8.23195 2.2234 6.59028 3.16507 5.24028L5.4209 10.0028H3.33757C3.33771 11.3281 3.7329 12.6234 4.47266 13.7231C5.21241 14.8228 6.26317 15.677 7.49072 16.1767C8.71827 16.6764 10.0669 16.7989 11.3644 16.5285C12.6619 16.2581 13.8493 15.6071 14.7751 14.6586L15.5259 16.2444ZM11.1834 12.3586L8.82673 10.0019L6.46923 12.3586L5.2909 11.1803L8.82673 7.64444L11.1834 10.0019L13.5401 7.64444L14.7192 8.82361L11.1834 12.3586Z" fill="#1C2024"/>
</svg>
