<svg width="20" height="20" viewBox="0 0 20 20" fill="none" xmlns="http://www.w3.org/2000/svg">
<path d="M15.0007 10.4193C15.0007 10.8793 14.6274 11.2526 14.1673 11.2526C13.7072 11.2526 13.334 10.8793 13.334 10.4193C13.334 9.9592 13.7072 9.58594 14.1673 9.58594C14.6274 9.58594 15.0007 9.9592 15.0007 10.4193Z" fill="#1C2024"/>
<path fill-rule="evenodd" clip-rule="evenodd" d="M2.99567 7.01611C3.29868 6.85935 3.42041 6.48768 3.26735 6.18157C3.11298 5.87283 2.73756 5.74769 2.42882 5.90206L2.70833 6.46107C2.42882 5.90206 2.42855 5.9022 2.42827 5.90234L2.42769 5.90263L2.42648 5.90324L2.42381 5.90459L2.41753 5.90783C2.41292 5.91022 2.4075 5.91309 2.4013 5.91645C2.38891 5.92316 2.3734 5.93184 2.35522 5.94255C2.31893 5.96393 2.27156 5.99369 2.21686 6.03244C2.10815 6.10945 1.96631 6.2249 1.82454 6.38439C1.53632 6.70863 1.25 7.21558 1.25 7.91941C1.25 9.06971 2.18303 10.0027 3.33333 10.0027H3.45703C3.80221 10.0027 4.08203 9.72292 4.08203 9.37774C4.08203 9.03256 3.80221 8.75274 3.45703 8.75274H3.33333C2.87339 8.75274 2.5 8.37935 2.5 7.91941C2.5 7.58157 2.63035 7.35935 2.7588 7.21484C2.82536 7.13996 2.89185 7.08614 2.93939 7.05247C2.96281 7.03588 2.98055 7.02495 2.98983 7.01947C2.99261 7.01784 2.99458 7.01672 2.99567 7.01611Z" fill="#1C2024"/>
<path d="M5.8622 5.08377C5.84918 4.98828 5.83398 4.8928 5.83398 4.79297C5.83398 3.75998 6.676 2.91797 7.70898 2.91797C8.53147 2.91797 9.22374 3.45182 9.47548 4.18967C9.65126 4.18099 9.8227 4.16797 10.0007 4.16797C10.2611 4.16797 10.5193 4.18099 10.7754 4.20052C10.4976 2.75955 9.23025 1.66797 7.70898 1.66797C5.98589 1.66797 4.58398 3.06988 4.58398 4.79297C4.58398 5.11849 4.6339 5.43099 4.72504 5.72613C5.08095 5.48524 5.46289 5.27257 5.8622 5.08377Z" fill="#1C2024"/>
<path fill-rule="evenodd" clip-rule="evenodd" d="M14.7899 3.33594C14.9797 3.3354 15.1596 3.42118 15.2786 3.5691C15.3976 3.71701 15.443 3.91102 15.4018 4.09637L14.8771 6.4603C15.8932 7.16304 16.6874 8.09078 17.1236 9.16927H17.7083C18.2835 9.16927 18.75 9.63572 18.75 10.2109V12.7109C18.75 13.2861 18.2835 13.7526 17.7083 13.7526H16.7016C16.3912 14.2503 16.0006 14.7054 15.5472 15.1085L15.7032 15.5276C16.1032 16.6066 15.5538 17.8029 14.4765 18.2053L14.4714 18.2072C14.238 18.2921 13.9943 18.3359 13.75 18.3359C12.9063 18.3359 12.1079 17.8201 11.7966 16.9773C11.7966 16.9771 11.7965 16.9769 11.7965 16.9768L11.7728 16.913C11.204 17.0254 10.6111 17.0859 10 17.0859C9.38503 17.0859 8.78824 17.024 8.21755 16.9099L8.19172 16.9794C7.87888 17.8157 7.08566 18.3359 6.23915 18.3359C5.9948 18.3359 5.75118 18.292 5.51775 18.2072L5.51261 18.2053C4.43544 17.8029 3.88581 16.6044 4.28601 15.5273L4.44437 15.1006C3.25824 14.0479 2.5 12.6323 2.5 11.0443C2.5 7.5824 6.01057 5.0026 10 5.0026C10.4372 5.0026 10.8639 5.0358 11.2768 5.09414C11.85 4.25764 12.6696 3.82266 13.3429 3.59787C13.7321 3.46795 14.0862 3.40302 14.3436 3.37027C14.4729 3.35381 14.5795 3.34526 14.656 3.34081C14.6943 3.33858 14.7252 3.33737 14.7478 3.33672C14.7591 3.33639 14.7683 3.3362 14.7754 3.33609L14.7843 3.33598L14.7875 3.33595L14.7888 3.33594L14.7894 3.33594C14.7896 3.33594 14.7899 3.33594 14.7917 3.96094L14.7899 3.33594ZM13.9851 4.71036C13.9057 4.73115 13.8232 4.75536 13.7388 4.78353C13.1457 4.98155 12.514 5.35519 12.1515 6.06408C12.0255 6.31045 11.7525 6.44464 11.4805 6.39393C11.0016 6.30463 10.5062 6.2526 10 6.2526C6.40696 6.2526 3.75 8.53392 3.75 11.0443C3.75 12.3228 4.41718 13.5181 5.56712 14.4086C5.78314 14.5759 5.86547 14.8641 5.77041 15.1202L5.45791 15.9623C5.29876 16.3904 5.51607 16.8706 5.94753 17.0334C6.04741 17.0694 6.14577 17.0859 6.23915 17.0859C6.5774 17.0859 6.89516 16.8772 7.02079 16.5419C7.02085 16.5417 7.0209 16.5416 7.02095 16.5414L7.23752 15.9589C7.34977 15.6569 7.67313 15.4897 7.98439 15.5728C8.61689 15.7414 9.29412 15.8359 10 15.8359C10.7023 15.8359 11.3758 15.7434 12.0087 15.5766C12.3197 15.4947 12.6422 15.6621 12.754 15.9637L12.9692 16.5441C13.0921 16.8771 13.409 17.0859 13.75 17.0859C13.8433 17.0859 13.9416 17.0694 14.0414 17.0335C14.4729 16.8709 14.6907 16.3929 14.5313 15.9624C14.5312 15.9623 14.5313 15.9625 14.5313 15.9624L14.2212 15.1296C14.1258 14.8736 14.2078 14.5854 14.4235 14.4178C15.013 13.96 15.4773 13.4204 15.7894 12.8339C15.898 12.63 16.1101 12.5026 16.3411 12.5026H17.5V10.4193H16.6819C16.4062 10.4193 16.1631 10.2387 16.0835 9.97473C15.7651 8.91912 14.9783 7.96657 13.8474 7.28208C13.6074 7.13685 13.4936 6.84956 13.569 6.5794C13.5706 6.57363 13.5723 6.5679 13.5741 6.5622L13.9851 4.71036Z" fill="#1C2024"/>
</svg>
