<svg width="24" height="24" viewBox="0 0 24 24" fill="none" xmlns="http://www.w3.org/2000/svg">
<path d="M12 14.252V16.3414C11.3744 16.1203 10.7013 16 10 16C6.68629 16 4 18.6863 4 22H2C2 17.5817 5.58172 14 10 14C10.6906 14 11.3608 14.0875 12 14.252ZM10 13C6.685 13 4 10.315 4 7C4 3.685 6.685 1 10 1C13.315 1 16 3.685 16 7C16 10.315 13.315 13 10 13ZM10 11C12.21 11 14 9.21 14 7C14 4.79 12.21 3 10 3C7.79 3 6 4.79 6 7C6 9.21 7.79 11 10 11ZM17.4184 17H21.0042V19H17.4184L19.2469 20.8284L17.8326 22.2426L13.59 18L17.8326 13.7574L19.2469 15.1716L17.4184 17Z" fill="black"/>
</svg>
