<svg width="24" height="24" viewBox="0 0 24 24" fill="none" xmlns="http://www.w3.org/2000/svg">
<path d="M12 4C7.58333 4 4 7.58333 4 12C4 16.4167 7.58333 20 12 20C16.4167 20 20 16.4167 20 12C20 7.58333 16.4167 4 12 4ZM12 16C9.79167 16 8 14.2083 8 12C8 9.79167 9.79167 8 12 8C14.2083 8 16 9.79167 16 12C16 14.2083 14.2083 16 12 16Z" fill="#444444"/>
<path d="M14.9166 5L14.4895 2.80729C14.401 2.33854 13.9895 2 13.5103 2H10.4895C10.0103 2 9.59888 2.33854 9.51033 2.80729L9.08325 5H14.9166Z" fill="#444444"/>
<path d="M9.08325 19L9.51033 21.1927C9.59888 21.6615 10.0103 22 10.4895 22H13.5103C13.9895 22 14.401 21.6615 14.4895 21.1927L14.9166 19H9.08325Z" fill="#444444"/>
<path d="M7.39581 5.97396L5.28644 5.25C4.83331 5.09375 4.33332 5.28125 4.09373 5.69271L2.58331 8.30729C2.34373 8.72396 2.43227 9.25 2.79686 9.5625L4.47915 11.026L7.39581 5.97396Z" fill="#444444"/>
<path d="M16.6042 18.026L18.7136 18.75C19.1667 18.9062 19.6667 18.7187 19.9063 18.3073L21.4167 15.6927C21.6563 15.276 21.5678 14.75 21.2032 14.4375L19.5209 12.974L16.6042 18.026Z" fill="#444444"/>
<path d="M4.47915 12.974L2.79686 14.4375C2.43227 14.75 2.34373 15.276 2.58331 15.6927L4.09373 18.3073C4.33332 18.724 4.83331 18.9062 5.28644 18.7552L7.39581 18.026L4.47915 12.974Z" fill="#444444"/>
<path d="M19.5209 11.026L21.2032 9.5625C21.5678 9.25 21.6563 8.72396 21.4167 8.30729L19.9063 5.69271C19.6667 5.27604 19.1667 5.09375 18.7136 5.24479L16.6042 5.97396L19.5209 11.026Z" fill="#444444"/>
</svg>
