<svg width="20" height="20" viewBox="0 0 20 20" fill="none" xmlns="http://www.w3.org/2000/svg">
<path d="M14.9993 11.8757C14.9993 12.4507 14.5328 12.9173 13.9577 12.9173C13.3826 12.9173 12.916 12.4507 12.916 11.8757C12.916 11.3006 13.3826 10.834 13.9577 10.834C14.5328 10.834 14.9993 11.3006 14.9993 11.8757Z" fill="#1C2024"/>
<path fill-rule="evenodd" clip-rule="evenodd" d="M5.83398 4.79199C5.83398 3.06661 7.2336 1.66699 8.95898 1.66699C10.2596 1.66699 11.3739 2.46282 11.8429 3.59063L10.6888 4.07061C10.4069 3.39286 9.73737 2.91699 8.95898 2.91699C7.92395 2.91699 7.08398 3.75696 7.08398 4.79199C7.08398 5.27071 7.26508 5.70763 7.56441 6.04131L6.63394 6.87601C6.139 6.32427 5.83398 5.59366 5.83398 4.79199Z" fill="#1C2024"/>
<path fill-rule="evenodd" clip-rule="evenodd" d="M3.75 6.83468V14.792C3.75 15.9701 4.86353 17.0837 6.04167 17.0837H13.9583C15.1365 17.0837 16.25 15.9701 16.25 14.792V9.37533C16.25 8.19719 15.1365 7.08366 13.9583 7.08366H5.01085C4.59528 7.08366 4.15093 7.02558 3.75 6.83468ZM5.01085 4.37533C5.01085 4.30397 5.01188 4.23655 5.01389 4.17262C5.03301 3.56219 5.14047 3.27059 5.27995 2.91699C4.77767 2.91699 4.3099 2.96419 3.90674 3.07599C3.06135 3.31043 2.5 3.82893 2.5 4.79199V14.792C2.5 16.6605 4.17318 18.3337 6.04167 18.3337H13.9583C15.8268 18.3337 17.5 16.6605 17.5 14.792V9.37533C17.5 7.50684 15.8268 5.83366 13.9583 5.83366H5.01085C4.16775 5.83366 3.91108 5.50378 3.91108 5.10449C3.91108 4.70521 4.17081 4.37533 5.01085 4.37533Z" fill="#1C2024"/>
<path fill-rule="evenodd" clip-rule="evenodd" d="M10 5.41667C10 3.8063 11.3063 2.5 12.9167 2.5C14.527 2.5 15.8333 3.8063 15.8333 5.41667C15.8333 5.89453 15.7171 6.34589 15.5125 6.744L14.4007 6.17267C14.5173 5.94577 14.5833 5.68967 14.5833 5.41667C14.5833 4.49665 13.8367 3.75 12.9167 3.75C11.9967 3.75 11.25 4.49665 11.25 5.41667C11.25 5.68967 11.316 5.94577 11.4326 6.17267L10.3208 6.744C10.1163 6.34589 10 5.89453 10 5.41667Z" fill="#1C2024"/>
</svg>
