<svg width="24" height="24" viewBox="0 0 24 24" fill="none" xmlns="http://www.w3.org/2000/svg">
<path d="M20.0049 13V20C20.0049 20.5523 19.5572 21 19.0049 21H5.00488C4.4526 21 4.00488 20.5523 4.00488 20V13H20.0049ZM14.5049 2C16.4379 2 18.0049 3.567 18.0049 5.5C18.0049 6.0372 17.8839 6.54614 17.6676 7.00104L21.0049 7C21.5572 7 22.0049 7.44771 22.0049 8V11C22.0049 11.5523 21.5572 12 21.0049 12H3.00488C2.4526 12 2.00488 11.5523 2.00488 11V8C2.00488 7.44771 2.4526 7 3.00488 7L6.34219 7.00104C6.12591 6.54614 6.00488 6.0372 6.00488 5.5C6.00488 3.567 7.57189 2 9.50488 2C10.4849 2 11.3708 2.40276 12.0061 3.05178C12.639 2.40276 13.5249 2 14.5049 2ZM9.50488 4C8.67646 4 8.00488 4.67157 8.00488 5.5C8.00488 6.27969 8.59977 6.92045 9.36042 6.99313L9.50488 7H11.0049V5.5C11.0049 4.7203 10.41 4.07955 9.64934 4.00686L9.50488 4ZM14.5049 4L14.3604 4.00686C13.6473 4.07501 13.0799 4.64243 13.0117 5.35554L13.0049 5.5V7H14.5049L14.6493 6.99313C15.41 6.92045 16.0049 6.27969 16.0049 5.5C16.0049 4.7203 15.41 4.07955 14.6493 4.00686L14.5049 4Z" fill="#1C2024"/>
</svg>
