<svg width="21" height="20" viewBox="0 0 21 20" fill="none" xmlns="http://www.w3.org/2000/svg">
<path d="M16.75 6.875C16.75 6.53007 16.4699 6.25 16.125 6.25H4.25V15.625C4.25 15.9699 4.53007 16.25 4.875 16.25H16.125C16.4699 16.25 16.75 15.9699 16.75 15.625V6.875ZM18 15.625C18 16.6603 17.1603 17.5 16.125 17.5H4.875C3.83972 17.5 3 16.6603 3 15.625V5.625L3.00326 5.56112C3.03525 5.24595 3.30139 5 3.625 5H16.125C17.1603 5 18 5.83972 18 6.875V15.625Z" fill="#1C2024"/>
<path d="M3 4.375C3 3.33972 3.83972 2.5 4.875 2.5H15.2917C15.6368 2.5 15.9167 2.77982 15.9167 3.125C15.9167 3.47018 15.6368 3.75 15.2917 3.75H4.875C4.53007 3.75 4.25 4.03007 4.25 4.375C4.25 4.69836 4.49615 4.9647 4.81112 4.99674L4.93888 5.00326C5.25405 5.03525 5.5 5.30139 5.5 5.625C5.5 5.97018 5.22018 6.25 4.875 6.25C3.83972 6.25 3 5.41028 3 4.375Z" fill="#1C2024"/>
<path d="M3 6.25V4.375C3 4.02982 3.27982 3.75 3.625 3.75C3.97018 3.75 4.25 4.02982 4.25 4.375V6.25C4.25 6.59518 3.97018 6.875 3.625 6.875C3.27982 6.875 3 6.59518 3 6.25Z" fill="#1C2024"/>
<path d="M7.37446 7.20117C7.67546 7.17668 7.94182 7.38533 7.99549 7.67604L8.00328 7.73536L8.15074 9.54707L9.83096 10.0701L9.88677 10.0906C10.1588 10.2064 10.3043 10.5119 10.2147 10.8003C10.125 11.0887 9.8319 11.2579 9.54216 11.1991L9.48452 11.184L7.42802 10.5448C7.21496 10.4785 7.05948 10.2969 7.02495 10.0791L7.01981 10.0347L6.84027 7.82999L6.83838 7.77008C6.8444 7.47458 7.0735 7.22566 7.37446 7.20117Z" fill="#1C2024"/>
<path d="M12.8332 11.2502C12.8332 9.9544 11.7985 8.9171 10.5367 8.91699C9.66706 8.91699 8.90617 9.40808 8.5148 10.1414C8.36309 10.4255 8.00961 10.5327 7.72542 10.381C7.4413 10.2293 7.33379 9.87621 7.48534 9.59204C8.06866 8.49912 9.21372 7.75 10.5367 7.75C12.4566 7.75011 14.0002 9.32393 14.0002 11.2502C14.0002 13.1764 12.4566 14.7502 10.5367 14.7503C9.26897 14.7503 8.16409 14.0625 7.56144 13.0434L7.50488 12.9437L7.47883 12.89C7.36369 12.6177 7.47113 12.297 7.736 12.1519C8.0008 12.0068 8.32892 12.0886 8.49649 12.3321L8.52783 12.383L8.60595 12.5152C9.01682 13.161 9.72998 13.5833 10.5367 13.5833C11.7985 13.5832 12.8332 12.5459 12.8332 11.2502Z" fill="#1C2024"/>
</svg>
