<svg width="20" height="20" viewBox="0 0 20 20" fill="none" xmlns="http://www.w3.org/2000/svg">
<path fill-rule="evenodd" clip-rule="evenodd" d="M9.26395 1.75476C9.46084 1.63771 9.70598 1.63774 9.90284 1.75483L16.9967 5.97428C16.9972 5.97456 16.9977 5.97484 16.9981 5.97513C17.5698 6.31227 17.9167 6.92795 17.9167 7.58713C17.9167 7.93231 17.6368 8.21213 17.2917 8.21213C16.9465 8.21213 16.6667 7.93231 16.6667 7.58713C16.6667 7.36579 16.5497 7.16163 16.3627 7.05154L16.3602 7.05007L9.58325 3.01915L2.80636 7.04798C2.61628 7.16094 2.5 7.36471 2.5 7.58713V13.9587C2.5 14.7637 3.15334 15.417 3.95833 15.417H9.58333C9.92851 15.417 10.2083 15.6968 10.2083 16.042C10.2083 16.3872 9.92851 16.667 9.58333 16.667H3.95833C2.46298 16.667 1.25 15.454 1.25 13.9587V7.58713C1.25 6.92417 1.59817 6.31195 2.1676 5.97351C2.16757 5.97352 2.16762 5.97349 2.1676 5.97351L9.26395 1.75476Z" fill="#1C2024"/>
<path fill-rule="evenodd" clip-rule="evenodd" d="M2.16087 6.73605C2.0752 6.69191 1.97801 6.66699 1.875 6.66699C1.52982 6.66699 1.25 6.94681 1.25 7.29199V13.9587C1.25 15.454 2.46298 16.667 3.95833 16.667H9.58333C9.92851 16.667 10.2083 16.3872 10.2083 16.042C10.2083 15.6968 9.92851 15.417 9.58333 15.417H3.95833C3.15334 15.417 2.5 14.7636 2.5 13.9587V8.29111L9.30992 11.604C9.48252 11.688 9.68414 11.688 9.85675 11.604L11.7838 10.6665C12.0942 10.5155 12.2234 10.1415 12.0724 9.8311C11.9214 9.52071 11.5474 9.39149 11.237 9.5425L9.58333 10.347L2.16087 6.73605Z" fill="#1C2024"/>
<path fill-rule="evenodd" clip-rule="evenodd" d="M7.08398 6.66699C7.08398 6.32181 7.36381 6.04199 7.70898 6.04199H11.459C11.8042 6.04199 12.084 6.32181 12.084 6.66699C12.084 7.01217 11.8042 7.29199 11.459 7.29199H7.70898C7.36381 7.29199 7.08398 7.01217 7.08398 6.66699Z" fill="#1C2024"/>
<path fill-rule="evenodd" clip-rule="evenodd" d="M9.58398 4.16699C9.92916 4.16699 10.209 4.44681 10.209 4.79199V8.54199C10.209 8.88717 9.92916 9.16699 9.58398 9.16699C9.23881 9.16699 8.95898 8.88717 8.95898 8.54199V4.79199C8.95898 4.44681 9.23881 4.16699 9.58398 4.16699Z" fill="#1C2024"/>
<path fill-rule="evenodd" clip-rule="evenodd" d="M15.416 10C14.726 10 14.166 10.56 14.166 11.25C14.166 11.94 14.726 12.5 15.416 12.5C16.106 12.5 16.666 11.94 16.666 11.25C16.666 10.56 16.106 10 15.416 10ZM12.916 11.25C12.916 9.86967 14.0357 8.75 15.416 8.75C16.7963 8.75 17.916 9.86967 17.916 11.25C17.916 12.6303 16.7963 13.75 15.416 13.75C14.0357 13.75 12.916 12.6303 12.916 11.25Z" fill="#1C2024"/>
<path fill-rule="evenodd" clip-rule="evenodd" d="M13.1243 15.833C13.0095 15.833 12.916 15.9264 12.916 16.0413V17.083C12.916 17.2947 13.0625 17.5934 13.5281 17.8728C13.9812 18.1446 14.6473 18.333 15.416 18.333C16.1848 18.333 16.8509 18.1446 17.3039 17.8728C17.7696 17.5934 17.916 17.2947 17.916 17.083V16.0413C17.916 15.9264 17.8226 15.833 17.7077 15.833H13.1243ZM11.666 16.0413C11.666 15.2361 12.3191 14.583 13.1243 14.583H17.7077C18.5129 14.583 19.166 15.2361 19.166 16.0413V17.083C19.166 17.9065 18.6126 18.5453 17.947 18.9446C17.2689 19.3515 16.3725 19.583 15.416 19.583C14.4595 19.583 13.5631 19.3515 12.885 18.9446C12.2194 18.5453 11.666 17.9065 11.666 17.083V16.0413Z" fill="#1C2024"/>
</svg>
