<svg width="24" height="24" viewBox="0 0 24 24" fill="none" xmlns="http://www.w3.org/2000/svg">
<path d="M14 10C13.8229 10 13.651 10.0313 13.4844 10.0729C13.8021 10.651 14 11.2969 14 12C14 12.7031 13.8021 13.349 13.4844 13.9271C13.651 13.9687 13.8229 14 14 14C15.1042 14 16 13.1042 16 12C16 10.8958 15.1042 10 14 10Z" fill="#1C2024"/>
<path d="M20 4H4C2.89583 4 2 4.89583 2 6V18C2 19.1042 2.89583 20 4 20H20C21.1042 20 22 19.1042 22 18V6C22 4.89583 21.1042 4 20 4ZM14 16C13.2708 16 12.5938 15.7865 12 15.4427C11.4115 15.7865 10.7344 16 10 16C7.79167 16 6 14.2083 6 12C6 9.79167 7.79167 8 10 8C10.7344 8 11.4115 8.21354 12 8.55729C12.5938 8.21354 13.2708 8 14 8C16.2083 8 18 9.79167 18 12C18 14.2083 16.2083 16 14 16Z" fill="#1C2024"/>
</svg>
