<svg width="32" height="32" viewBox="0 0 32 32" fill="none" xmlns="http://www.w3.org/2000/svg">
<path d="M20 24.25V12C20 11.5858 20.3358 11.25 20.75 11.25C21.1642 11.25 21.5 11.5858 21.5 12V24.25C21.5 24.6642 21.1642 25 20.75 25C20.3358 25 20 24.6642 20 24.25Z" fill="#1C2024"/>
<path d="M23.7197 20.7197C24.0126 20.4268 24.4874 20.4268 24.7803 20.7197C25.0732 21.0126 25.0732 21.4874 24.7803 21.7803L21.2803 25.2803C20.9874 25.5732 20.5126 25.5732 20.2197 25.2803L16.7197 21.7803L16.668 21.7231C16.4279 21.4286 16.4452 20.9942 16.7197 20.7197C16.9942 20.4452 17.4286 20.4279 17.7231 20.668L17.7803 20.7197L20.75 23.6894L23.7197 20.7197Z" fill="#1C2024"/>
<path d="M17.25 7.5C17.6642 7.5 18 7.83579 18 8.25C18 8.66421 17.6642 9 17.25 9H7.75C7.33579 9 7 8.66421 7 8.25C7 7.83579 7.33579 7.5 7.75 7.5H17.25Z" fill="#1C2024"/>
<path d="M15.25 11.5C15.6642 11.5 16 11.8358 16 12.25C16 12.6642 15.6642 13 15.25 13H7.75C7.33579 13 7 12.6642 7 12.25C7 11.8358 7.33579 11.5 7.75 11.5H15.25Z" fill="#1C2024"/>
<path d="M13.25 15.5C13.6642 15.5 14 15.8358 14 16.25C14 16.6642 13.6642 17 13.25 17H7.75C7.33579 17 7 16.6642 7 16.25C7 15.8358 7.33579 15.5 7.75 15.5H13.25Z" fill="#1C2024"/>
<path d="M11.25 19.5C11.6642 19.5 12 19.8358 12 20.25C12 20.6642 11.6642 21 11.25 21H7.75C7.33579 21 7 20.6642 7 20.25C7 19.8358 7.33579 19.5 7.75 19.5H11.25Z" fill="#1C2024"/>
<path d="M9.25 23.5C9.66421 23.5 10 23.8358 10 24.25C10 24.6642 9.66421 25 9.25 25H7.75C7.33579 25 7 24.6642 7 24.25C7 23.8358 7.33579 23.5 7.75 23.5H9.25Z" fill="#1C2024"/>
</svg>
