<svg width="24" height="24" viewBox="0 0 24 24" fill="none" xmlns="http://www.w3.org/2000/svg">
<path d="M19.5 16.25C19.5 15.56 18.94 15 18.25 15C17.56 15 17 15.56 17 16.25C17 16.94 17.56 17.5 18.25 17.5C18.94 17.5 19.5 16.94 19.5 16.25ZM21 16.25C21 17.7684 19.7684 19 18.25 19C16.7316 19 15.5 17.7684 15.5 16.25C15.5 14.7316 16.7316 13.5 18.25 13.5C19.7684 13.5 21 14.7316 21 16.25Z" fill="#7E808A"/>
<path d="M17.5 21.25V18.25C17.5 17.8358 17.8358 17.5 18.25 17.5C18.6642 17.5 19 17.8358 19 18.25V21.25C19 21.6642 18.6642 22 18.25 22C17.8358 22 17.5 21.6642 17.5 21.25Z" fill="#7E808A"/>
<path d="M17.5 14.25V2.75C17.5 2.33579 17.8358 2 18.25 2C18.6642 2 19 2.33579 19 2.75V14.25C19 14.6642 18.6642 15 18.25 15C17.8358 15 17.5 14.6642 17.5 14.25Z" fill="#7E808A"/>
<path d="M7 15.25C7 14.56 6.43995 14 5.75 14C5.06005 14 4.5 14.56 4.5 15.25C4.5 15.94 5.06005 16.5 5.75 16.5C6.43995 16.5 7 15.94 7 15.25ZM8.5 15.25C8.5 16.7684 7.26838 18 5.75 18C4.23162 18 3 16.7684 3 15.25C3 13.7316 4.23162 12.5 5.75 12.5C7.26838 12.5 8.5 13.7316 8.5 15.25Z" fill="#7E808A"/>
<path d="M5 13.25V2.75C5 2.33579 5.33579 2 5.75 2C6.16421 2 6.5 2.33579 6.5 2.75V13.25C6.5 13.6642 6.16421 14 5.75 14C5.33579 14 5 13.6642 5 13.25Z" fill="#7E808A"/>
<path d="M5 21.25V17.25C5 16.8358 5.33579 16.5 5.75 16.5C6.16421 16.5 6.5 16.8358 6.5 17.25V21.25C6.5 21.6642 6.16421 22 5.75 22C5.33579 22 5 21.6642 5 21.25Z" fill="#7E808A"/>
<path d="M13.25 7.75C13.25 7.06005 12.69 6.5 12 6.5C11.31 6.5 10.75 7.06005 10.75 7.75C10.75 8.43995 11.31 9 12 9C12.69 9 13.25 8.43995 13.25 7.75ZM14.75 7.75C14.75 9.26838 13.5184 10.5 12 10.5C10.4816 10.5 9.25 9.26838 9.25 7.75C9.25 6.23162 10.4816 5 12 5C13.5184 5 14.75 6.23162 14.75 7.75Z" fill="#7E808A"/>
<path d="M11.25 5.75V2.75C11.25 2.33579 11.5858 2 12 2C12.4142 2 12.75 2.33579 12.75 2.75V5.75C12.75 6.16421 12.4142 6.5 12 6.5C11.5858 6.5 11.25 6.16421 11.25 5.75Z" fill="#7E808A"/>
<path d="M11.25 21.25V10.25C11.25 9.83579 11.5858 9.5 12 9.5C12.4142 9.5 12.75 9.83579 12.75 10.25V21.25C12.75 21.6642 12.4142 22 12 22C11.5858 22 11.25 21.6642 11.25 21.25Z" fill="#7E808A"/>
</svg>
