<svg width="20" height="20" viewBox="0 0 20 20" fill="none" xmlns="http://www.w3.org/2000/svg">
<g id="surface24521">
<path id="Vector" d="M6 14C5.44792 14 5 14.4479 5 15C5 15.5521 5.44792 16 6 16C6.55208 16 7 15.5521 7 15C7 14.4479 6.55208 14 6 14Z" fill="#444444"/>
<path id="Vector_2" d="M6 4C5.44792 4 5 4.44792 5 5C5 5.55208 5.44792 6 6 6C6.55208 6 7 5.55208 7 5C7 4.44792 6.55208 4 6 4Z" fill="#444444"/>
<path id="Vector_3" d="M4 2C4 3.10417 3.10417 4 2 4C0.895833 4 0 3.10417 0 2C0 0.895833 0.895833 0 2 0C3.10417 0 4 0.895833 4 2Z" fill="#444444"/>
<path id="Vector_4" d="M12 2C12 3.10417 11.1042 4 10 4C8.89583 4 8 3.10417 8 2C8 0.895833 8.89583 0 10 0C11.1042 0 12 0.895833 12 2Z" fill="#444444"/>
<path id="Vector_5" d="M4 18C4 19.1042 3.10417 20 2 20C0.895833 20 0 19.1042 0 18C0 16.8958 0.895833 16 2 16C3.10417 16 4 16.8958 4 18Z" fill="#444444"/>
<path id="Vector_6" d="M20 8V18C20 19.1042 19.1042 20 18 20V6C19.1042 6 20 6.89583 20 8Z" fill="#444444"/>
<path id="Vector_7" d="M8 18H2V2H10V4.55729C10.5885 4.21354 11.2656 4 12 4V2C12 0.895833 11.1042 0 10 0H2C0.895833 0 0 0.895833 0 2V18C0 19.1042 0.895833 20 2 20H8.55729C8.21354 19.4115 8 18.7344 8 18Z" fill="#444444"/>
<path id="Vector_8" d="M16 20H12C10.8958 20 10 19.1042 10 18V8C10 6.89583 10.8958 6 12 6H16V20Z" fill="#444444"/>
<path id="Vector_9" d="M8 7.78125C7.46875 7.30208 6.77083 7 6 7C4.34375 7 3 8.34375 3 10C3 11.6563 4.34375 13 6 13C6.77083 13 7.46875 12.6979 8 12.2187V7.78125Z" fill="#444444"/>
</g>
</svg>
