<svg width="17" height="15" viewBox="0 0 17 15" fill="none" xmlns="http://www.w3.org/2000/svg">
<path fill-rule="evenodd" clip-rule="evenodd" d="M14.4237 0.412505C15.626 0.0541144 16.8332 0.95637 16.8332 2.20938V11.7753C16.8332 13.0282 15.6262 13.9304 14.4241 13.5723C14.424 13.5723 14.4242 13.5724 14.4241 13.5723L1.50872 9.73157C1.50853 9.73151 1.50834 9.73145 1.50815 9.7314C0.712524 9.49635 0.166504 8.76371 0.166504 7.9342V6.05052C0.166504 5.22104 0.712476 4.48844 1.50804 4.25336C1.50827 4.25329 1.50849 4.25322 1.50872 4.25316L14.4237 0.412505ZM15.5832 2.20938C15.5832 1.79137 15.1801 1.49137 14.7808 1.61041L1.86375 5.45168L1.86249 5.45205C1.59939 5.52969 1.4165 5.77346 1.4165 6.05052V7.9342C1.4165 8.21126 1.59939 8.45504 1.86249 8.53267L1.86375 8.53305L14.7804 12.3742C15.1797 12.4932 15.5832 12.1934 15.5832 11.7753V2.20938Z" fill="#EDEEF0"/>
<path fill-rule="evenodd" clip-rule="evenodd" d="M4.83467 10.1511C4.50909 11.2547 5.13836 12.4133 6.2419 12.7408C7.34554 13.0661 8.50405 12.4366 8.83131 11.333L10.0297 11.6883C9.50634 13.4535 7.65295 14.4603 5.88779 13.9396L5.88696 13.9393C4.12183 13.4159 3.11502 11.5625 3.63575 9.79736L4.83467 10.1511Z" fill="#EDEEF0"/>
</svg>
