<svg width="21" height="20" viewBox="0 0 21 20" fill="none" xmlns="http://www.w3.org/2000/svg">
<path d="M10.4999 18.3157C6.21972 18.3157 2.71777 14.8137 2.71777 10.5336C2.71777 6.25341 6.21972 2.75146 10.4999 2.75146C10.7222 2.75146 10.889 2.86264 11.0001 3.08498C11.1113 3.30733 11.0557 3.47409 10.9446 3.64085C10.6666 3.97437 10.5555 4.41906 10.5555 4.86375C10.5555 5.97548 11.4448 6.86486 12.5566 6.86486C12.7233 6.86486 12.8345 6.86486 13.0013 6.80927C13.168 6.75369 13.2792 6.80927 13.4459 6.86486C13.6127 6.92045 13.6683 7.0872 13.6683 7.25396C13.8351 8.19893 14.6688 8.92156 15.6694 8.92156C16.2253 8.92156 16.7255 8.69921 17.1147 8.31011C17.2814 8.14335 17.4482 8.08776 17.6705 8.14335C17.8373 8.19893 18.004 8.36569 18.0596 8.53245C18.2264 9.1439 18.282 9.81094 18.282 10.478C18.282 14.8693 14.78 18.3157 10.4999 18.3157ZM9.5549 3.91878C6.33089 4.36347 3.8295 7.14279 3.8295 10.5336C3.8295 14.2023 6.83117 17.2039 10.4999 17.2039C14.1686 17.2039 17.1702 14.2023 17.1702 10.5336C17.1702 10.2556 17.1702 9.9777 17.1147 9.69977C16.67 9.92211 16.1697 10.0333 15.6694 10.0333C14.3353 10.0333 13.168 9.19949 12.7233 7.97659C10.9446 8.03217 9.44373 6.64251 9.44373 4.86375C9.44373 4.53023 9.49931 4.2523 9.5549 3.91878Z" fill="#1C2024"/>
<path d="M6.2832 8.14044C6.2832 8.33935 6.36222 8.53012 6.50287 8.67077C6.64353 8.81142 6.83429 8.89044 7.0332 8.89044C7.23212 8.89044 7.42288 8.81142 7.56353 8.67077C7.70419 8.53012 7.7832 8.33935 7.7832 8.14044C7.7832 7.94153 7.70419 7.75076 7.56353 7.61011C7.42288 7.46946 7.23212 7.39044 7.0332 7.39044C6.83429 7.39044 6.64353 7.46946 6.50287 7.61011C6.36222 7.75076 6.2832 7.94153 6.2832 8.14044Z" fill="#1C2024"/>
<path d="M6.2832 13.4668C6.2832 13.6657 6.36222 13.8565 6.50287 13.9971C6.64353 14.1378 6.83429 14.2168 7.0332 14.2168C7.23212 14.2168 7.42288 14.1378 7.56353 13.9971C7.70419 13.8565 7.7832 13.6657 7.7832 13.4668C7.7832 13.2679 7.70419 13.0771 7.56353 12.9365C7.42288 12.7958 7.23212 12.7168 7.0332 12.7168C6.83429 12.7168 6.64353 12.7958 6.50287 12.9365C6.36222 13.0771 6.2832 13.2679 6.2832 13.4668Z" fill="#1C2024"/>
<path d="M9.75 10.75C9.75 10.9489 9.82902 11.1397 9.96967 11.2803C10.1103 11.421 10.3011 11.5 10.5 11.5C10.6989 11.5 10.8897 11.421 11.0303 11.2803C11.171 11.1397 11.25 10.9489 11.25 10.75C11.25 10.5511 11.171 10.3603 11.0303 10.2197C10.8897 10.079 10.6989 10 10.5 10C10.3011 10 10.1103 10.079 9.96967 10.2197C9.82902 10.3603 9.75 10.5511 9.75 10.75Z" fill="#1C2024"/>
<path d="M9.75 14.8639C9.75 15.0628 9.82902 15.2536 9.96967 15.3942C10.1103 15.5349 10.3011 15.6139 10.5 15.6139C10.6989 15.6139 10.8897 15.5349 11.0303 15.3942C11.171 15.2536 11.25 15.0628 11.25 14.8639C11.25 14.665 11.171 14.4742 11.0303 14.3336C10.8897 14.1929 10.6989 14.1139 10.5 14.1139C10.3011 14.1139 10.1103 14.1929 9.96967 14.3336C9.82902 14.4742 9.75 14.665 9.75 14.8639Z" fill="#1C2024"/>
<path d="M14.0771 12.7168C14.0771 12.9157 14.1562 13.1065 14.2968 13.2471C14.4375 13.3878 14.6282 13.4668 14.8271 13.4668C15.0261 13.4668 15.2168 13.3878 15.3575 13.2471C15.4981 13.1065 15.5771 12.9157 15.5771 12.7168C15.5771 12.5179 15.4981 12.3271 15.3575 12.1865C15.2168 12.0458 15.0261 11.9668 14.8271 11.9668C14.6282 11.9668 14.4375 12.0458 14.2968 12.1865C14.1562 12.3271 14.0771 12.5179 14.0771 12.7168Z" fill="#1C2024"/>
<path d="M14.0121 4.47332C13.952 4.47332 13.8919 4.47332 13.8318 4.41323C13.5313 4.29304 13.3511 3.93249 13.4712 3.63203L14.0722 2.00953C14.1923 1.70907 14.5529 1.52879 14.8534 1.64897C15.1538 1.76916 15.3341 2.12971 15.2139 2.43018L14.613 4.05267C14.4928 4.29304 14.2524 4.47332 14.0121 4.47332ZM16.4158 6.75684C16.1754 6.75684 15.935 6.63665 15.8749 6.39628C15.7548 6.09582 15.8749 5.73526 16.1754 5.61508L17.4373 5.07425C17.7378 4.95406 18.0984 5.07425 18.2185 5.37471C18.3387 5.67517 18.2185 6.03573 17.9181 6.15591L16.6561 6.69674C16.596 6.75684 16.4759 6.75684 16.4158 6.75684Z" fill="#1C2024"/>
</svg>
