<svg width="24" height="24" viewBox="0 0 24 24" fill="none" xmlns="http://www.w3.org/2000/svg">
<path d="M5.49202 8.70029C5.49202 8.53461 5.35771 8.40029 5.19202 8.40029H3.89949C3.7338 8.40029 3.59949 8.53461 3.59949 8.70029V20.8503C3.59949 21.2645 3.93527 21.6003 4.34949 21.6003H20.0995C20.2652 21.6003 20.3995 21.466 20.3995 21.3003V20.0236C20.3995 19.8579 20.2652 19.7236 20.0995 19.7236L5.49202 19.7236V8.70029Z" fill="#1C2024"/>
<path fill-rule="evenodd" clip-rule="evenodd" d="M9.72092 15.4029V17.9493H7.96033V15.4029H9.72092ZM12.2853 11.4712V17.9493H14.0459V11.4712H12.2853ZM16.611 17.9493V14.3688H18.3716V17.9493H16.611Z" fill="#1C2024"/>
<path d="M21.0967 6.49756C21.0965 6.82148 20.6951 6.97253 20.4814 6.729L19.3095 5.39404L15.6328 9.0708L13.5937 7.03174L11.8564 8.76807C11.6508 8.61739 11.3993 8.50629 11.1025 8.45264C10.9779 8.42957 10.8626 8.36887 10.7715 8.28076C10.6802 8.19246 10.6169 8.07863 10.5898 7.95459L10.5879 7.94873L10.5869 7.94287L10.5683 7.86377C10.5547 7.80387 10.5386 7.74592 10.5205 7.68994L12.9902 5.22119L13.5937 4.6167L14.1972 5.22119L15.6328 6.65576L18.1025 4.18701L16.7988 2.8833C16.6208 2.70517 16.7473 2.4002 16.999 2.3999H21.0967V6.49756Z" fill="#1C2024"/>
<path fill-rule="evenodd" clip-rule="evenodd" d="M9.39949 8.13239C9.26475 7.53125 8.41279 7.5354 8.28289 8.13723L8.26907 8.20425C8.19479 8.56066 8.01595 8.88683 7.7554 9.14111C7.49485 9.39539 7.16441 9.56622 6.8063 9.63179C6.18719 9.74165 6.18719 10.6358 6.8063 10.7456C7.16453 10.8111 7.49512 10.9818 7.75581 11.2361C8.01649 11.4904 8.19543 11.8167 8.26976 12.1732L8.28358 12.2402C8.41348 12.8413 9.26475 12.8462 9.40018 12.245L9.41745 12.1669C9.49508 11.8117 9.67592 11.4874 9.93728 11.2346C10.1986 10.9819 10.5288 10.812 10.8864 10.7463C11.5069 10.6364 11.5069 9.74096 10.8864 9.63109C10.5288 9.5654 10.1986 9.39551 9.93728 9.14276C9.67592 8.89001 9.49508 8.56567 9.41745 8.21047L9.39949 8.13239Z" fill="#1C2024"/>
</svg>
