<svg width="24" height="24" viewBox="0 0 24 24" fill="none" xmlns="http://www.w3.org/2000/svg">
<path d="M5.25 18.4896H12.752V16.9863H5.25C4.01042 16.9863 3 17.999 3 19.2413C3 20.4836 4.01042 21.4963 5.25 21.4963H12.752V19.9929H5.25C4.83594 19.9929 4.5 19.6563 4.5 19.2413C4.5 18.8263 4.83594 18.4896 5.25 18.4896Z" fill="#1C2024"/>
<path fill-rule="evenodd" clip-rule="evenodd" d="M11.2266 3.77127C11.2264 3.77138 11.2263 3.77149 11.2262 3.77159L5.91365 7.96691H18.0864L12.7729 3.77078C12.3218 3.41464 11.6817 3.4135 11.2266 3.77127ZM10.3 2.58907C11.2979 1.80403 12.7044 1.80299 13.7011 2.58988L20.7142 8.12817C20.9652 8.32637 21.0633 8.66217 20.9587 8.96475C20.854 9.26732 20.5696 9.47022 20.25 9.47022H3.75004C3.43051 9.47022 3.14607 9.26732 3.04141 8.96475C2.93676 8.66217 3.03488 8.32637 3.28586 8.12817L10.3 2.58907Z" fill="#1C2024"/>
<path fill-rule="evenodd" clip-rule="evenodd" d="M18.5 15C18.9142 15 19.25 15.3358 19.25 15.75V21.25C19.25 21.6642 18.9142 22 18.5 22C18.0858 22 17.75 21.6642 17.75 21.25V15.75C17.75 15.3358 18.0858 15 18.5 15Z" fill="#1C2024"/>
<path fill-rule="evenodd" clip-rule="evenodd" d="M15 18.5C15 18.0858 15.3358 17.75 15.75 17.75H21.25C21.6642 17.75 22 18.0858 22 18.5C22 18.9142 21.6642 19.25 21.25 19.25H15.75C15.3358 19.25 15 18.9142 15 18.5Z" fill="#1C2024"/>
<path d="M12.75 10.4727V16.9804H11.25V10.4727H12.75Z" fill="#1C2024"/>
<path fill-rule="evenodd" clip-rule="evenodd" d="M9.5 10.4727V17.7386H8V10.4727H9.5Z" fill="#1C2024"/>
<path fill-rule="evenodd" clip-rule="evenodd" d="M6.25 10.4727V17.7386H4.75V10.4727H6.25Z" fill="#1C2024"/>
<path d="M14.5 10.4727H16V12.9804L14.5 13.9804V10.4727Z" fill="#1C2024"/>
<path d="M17.75 10.4727H19.25V12.9804H17.75V10.4727Z" fill="#1C2024"/>
<path d="M13 5.96217C13 6.51547 12.5521 6.96437 12 6.96437C11.4479 6.96437 11 6.51547 11 5.96217C11 5.40887 11.4479 4.95996 12 4.95996C12.5521 4.95996 13 5.40887 13 5.96217Z" fill="#1C2024"/>
</svg>
