<svg width="24" height="24" viewBox="0 0 24 24" fill="none" xmlns="http://www.w3.org/2000/svg">
<path d="M3.08535 7.50914C4.76438 4.24092 8.21514 2 12.2041 2C14.9545 2 17.2643 2.99095 19.0315 4.60455L16.1048 7.47274C15.0473 6.48185 13.7021 5.97727 12.2041 5.97727C9.54635 5.97727 7.29678 7.73637 6.49444 10.1C6.29031 10.7 6.17435 11.3409 6.17435 12C6.17435 12.6591 6.29031 13.3 6.49444 13.9C7.29678 16.2636 9.54635 18.0227 12.2041 18.0227C13.5769 18.0227 14.7458 17.6682 15.6596 17.0682C16.7402 16.3591 17.4592 15.3 17.6957 14.05H12.2041V10.1818H21.8144C21.9351 10.8363 22 11.5182 22 12.2273C22 15.2727 20.8868 17.8363 18.9572 19.5773C17.269 21.1046 14.9592 22 12.2041 22C8.21514 22 4.76438 19.7591 3.08535 16.4909C2.39427 15.1409 2 13.6136 2 12C2 10.3864 2.39427 8.85911 3.08535 7.50914Z" fill="black"/>
</svg>
