<svg width="20" height="20" viewBox="0 0 20 20" fill="none" xmlns="http://www.w3.org/2000/svg">
<path d="M3.71528 11.7646L17.0486 15.8401C17.5846 16.0029 18.125 15.6014 18.125 15.0415V4.79413C18.125 4.23424 17.5846 3.83276 17.0486 3.99552L3.71528 8.07104C3.36372 8.17738 3.125 8.50073 3.125 8.86748V10.9682C3.125 11.3349 3.36372 11.6583 3.71528 11.7646Z" fill="#1C2024"/>
<path fill-rule="evenodd" clip-rule="evenodd" d="M7.16865 12.8678C6.84307 13.9715 7.47234 15.1301 8.57588 15.4576C9.67953 15.7829 10.838 15.1534 11.1653 14.0498L12.3637 14.4051C11.8403 16.1703 9.98693 17.1771 8.22177 16.6563L8.22094 16.6561C6.45582 16.1327 5.449 14.2793 5.96973 12.5142L7.16865 12.8678Z" fill="#1C2024"/>
<path fill-rule="evenodd" clip-rule="evenodd" d="M16.867 3.39744C17.8052 3.11256 18.75 3.81542 18.75 4.79409V15.0415C18.75 16.0202 17.8052 16.723 16.867 16.4381L16.8659 16.4378L3.53433 12.3628C3.53401 12.3627 3.53369 12.3626 3.53336 12.3625C2.91739 12.1757 2.5 11.6087 2.5 10.9681V8.86744C2.5 8.22686 2.91739 7.65983 3.53336 7.47306C3.53369 7.47296 3.53401 7.47286 3.53433 7.47276L16.867 3.39744ZM17.2302 4.59352C17.2301 4.59355 17.2303 4.59348 17.2302 4.59352L3.89797 8.6687L3.89623 8.66923C3.8096 8.69543 3.75 8.77485 3.75 8.86744V10.9681C3.75 11.0607 3.8096 11.1401 3.89623 11.1663L3.89797 11.1669L17.2302 15.2421C17.2304 15.2421 17.2305 15.2422 17.2307 15.2422C17.3644 15.2825 17.5 15.1824 17.5 15.0415V4.79409C17.5 4.65308 17.364 4.55313 17.2302 4.59352Z" fill="#1C2024"/>
</svg>
