<svg width="24" height="24" viewBox="0 0 24 24" fill="none" xmlns="http://www.w3.org/2000/svg">
<path fill-rule="evenodd" clip-rule="evenodd" d="M9.5 7.75C9.5 6.50766 10.5077 5.5 11.75 5.5C12.9923 5.5 14 6.50766 14 7.75C14 8.99234 12.9923 10 11.75 10C10.5077 10 9.5 8.99234 9.5 7.75ZM11.75 7C11.3361 7 11 7.33609 11 7.75C11 8.16391 11.3361 8.5 11.75 8.5C12.1639 8.5 12.5 8.16391 12.5 7.75C12.5 7.33609 12.1639 7 11.75 7Z" fill="#1C2024"/>
<path d="M22.7812 21.7188L20.3073 19.2474C20.7448 18.6068 21 17.8333 21 17C21 14.7943 19.2057 13 17 13C14.7943 13 13 14.7943 13 17C13 19.2057 14.7943 21 17 21C17.8333 21 18.6068 20.7448 19.2474 20.3073L21.7188 22.7812C21.8672 22.9271 22.0573 23 22.25 23C22.4427 23 22.6328 22.9271 22.7812 22.7812C23.0729 22.487 23.0729 22.013 22.7812 21.7188ZM14.5 17C14.5 15.6224 15.6224 14.5 17 14.5C18.3776 14.5 19.5 15.6224 19.5 17C19.5 18.3776 18.3776 19.5 17 19.5C15.6224 19.5 14.5 18.3776 14.5 17Z" fill="#1C2024"/>
<path d="M11.75 14.5C10.3984 14.5 9.5 13.8984 9.5 13.5V12.5H14V13.0078C14.4479 12.6693 14.9505 12.4036 15.4974 12.2318C15.487 11.5495 14.9323 11 14.25 11H9.25C8.5599 11 8 11.5599 8 12.25V13.5C8 14.901 9.64583 16 11.75 16C11.8698 16 11.987 15.9948 12.1016 15.9896C12.2214 15.4062 12.4453 14.8672 12.7474 14.3776C12.4557 14.4531 12.1224 14.5 11.75 14.5Z" fill="#1C2024"/>
<path d="M13.4323 20.5H5.75C5.33594 20.5 5 20.1641 5 19.75V19.5H12.6745C12.4089 19.0417 12.2083 18.5365 12.1016 18H5V4.25C5 3.83594 5.33594 3.5 5.75 3.5H17.75C18.1641 3.5 18.5 3.83594 18.5 4.25V12.2292C19.0469 12.401 19.5521 12.6693 20 13.0052V4.25C20 3.01042 18.9896 2 17.75 2H5.75C4.51042 2 3.5 3.01042 3.5 4.25V19.75C3.5 20.9896 4.51042 22 5.75 22H17C15.6016 22 14.3385 21.4245 13.4323 20.5Z" fill="#1C2024"/>
</svg>
