<svg width="24" height="24" viewBox="0 0 24 24" fill="none" xmlns="http://www.w3.org/2000/svg">
<path d="M12.4727 0.902344C17.3125 1.14746 21.1638 5.13477 21.1944 10.0283C21.2039 10.2318 21.1339 10.4383 20.9785 10.5938L15.0489 16.5225C15.6414 17.22 16 18.1224 16 19.1094C16 21.3185 14.2092 23.1094 12 23.1094C9.79091 23.1094 8.00003 21.3185 8.00003 19.1094C8.00003 18.1224 8.35771 17.2191 8.95023 16.5215L3.0225 10.5938C2.88178 10.453 2.81023 10.2703 2.80472 10.0859L2.80375 10.0869C2.80375 10.0833 2.80374 10.0798 2.80375 10.0762C2.80354 10.0638 2.80432 10.0515 2.80472 10.0391C2.83049 4.9823 6.93725 0.890775 12 0.890625L12.4727 0.902344ZM12 16.6094C10.6193 16.6094 9.50003 17.7287 9.50003 19.1094C9.50003 20.4901 10.6193 21.6094 12 21.6094C13.3807 21.6094 14.5 20.4901 14.5 19.1094C14.5 17.7287 13.3807 16.6094 12 16.6094ZM6.4014 8.08691C5.35193 8.0873 4.13675 9.09766 4.13675 9.58691C4.13675 10.0762 10.125 15.5752 10.125 15.5752C10.2883 15.4884 10.4581 15.4125 10.6338 15.3486C10.6338 15.3486 8.26172 9.27344 8.08402 9.02441C7.90632 8.77539 7.24696 8.16984 6.59964 8.09766L6.4014 8.08691ZM17.5977 8.08691C16.8565 8.08711 16.0857 8.66505 15.92 9.01465C15.7542 9.36425 13.3653 15.3486 13.3653 15.3486C13.5413 15.4125 13.7115 15.4883 13.875 15.5752C13.875 15.5752 19.8633 10.0283 19.8633 9.58691C19.8633 9.14551 18.6928 8.1706 17.7403 8.09277L17.5977 8.08691ZM12 7.08691C10.9793 7.08706 9.55375 8.29395 9.55375 8.65918C9.55375 9.02441 11.9991 14.7236 11.9991 14.7236C11.9991 14.7236 14.4453 9.01465 14.4453 8.65918C14.4453 8.30371 13.0978 7.16028 12.1397 7.0918L12 7.08691ZM12 2.39062C8.87685 2.39074 6.18881 4.25169 4.98246 6.9248C5.37671 6.72709 5.848 6.58703 6.4014 6.58691C7.32517 6.58691 8.05509 6.9678 8.57914 7.39648L8.67679 7.35645C8.77805 7.2378 8.8846 7.11973 8.99711 7.00488C9.63833 6.35039 10.6592 5.58702 12 5.58691C13.3409 5.58698 14.3617 6.35041 15.003 7.00488C15.1151 7.11938 15.2205 7.23806 15.3213 7.35645L15.42 7.39648C15.9439 6.96766 16.6738 6.58705 17.5977 6.58691C18.1505 6.58691 18.6216 6.72653 19.0157 6.92383C17.809 4.25149 15.1227 2.3907 12 2.39062Z" fill="black"/>
</svg>
