<svg width="28" height="28" viewBox="0 0 28 28" fill="none" xmlns="http://www.w3.org/2000/svg">
<path d="M15.8271 0.118164C17.0621 0.279128 18.2463 0.601391 19.3584 1.0625L19.168 1.52441C20.265 1.9794 21.2898 2.57518 22.2188 3.28906L22.5225 2.89355C23.4918 3.63847 24.3605 4.50731 25.1055 5.47656L24.7109 5.78125C25.4248 6.71023 26.0206 7.73497 26.4756 8.83203L26.9365 8.64062C27.3978 9.75271 27.7198 10.9369 27.8809 12.1719H27.8818L27.3857 12.2363C27.461 12.8133 27.5 13.402 27.5 14C27.5 14.598 27.461 15.1867 27.3857 15.7637L27.8809 15.8271C27.7199 17.0622 27.3977 18.2463 26.9365 19.3584L26.4756 19.168C26.0206 20.265 25.4248 21.2898 24.7109 22.2188L25.1055 22.5225C24.3605 23.4918 23.4918 24.3605 22.5225 25.1055L22.2188 24.7109C21.2898 25.4248 20.265 26.0206 19.168 26.4756L19.3584 26.9365C18.2463 27.3977 17.0622 27.7199 15.8271 27.8809L15.7637 27.3857C15.1867 27.461 14.598 27.5 14 27.5C13.402 27.5 12.8133 27.461 12.2363 27.3857L12.1719 27.8809C10.9369 27.7198 9.75271 27.3978 8.64062 26.9365L8.83203 26.4756C7.73497 26.0206 6.71023 25.4248 5.78125 24.7109L5.47656 25.1055C4.50731 24.3605 3.63847 23.4918 2.89355 22.5225L3.28906 22.2188C2.57518 21.2898 1.9794 20.265 1.52441 19.168L1.0625 19.3584C0.601391 18.2463 0.279128 17.0621 0.118164 15.8271L0.614258 15.7637C0.538998 15.1867 0.5 14.598 0.5 14C0.5 13.402 0.538998 12.8133 0.614258 12.2363L0.118164 12.1719C0.27921 10.937 0.601326 9.75265 1.0625 8.64062L1.52441 8.83203C1.9794 7.73497 2.57518 6.71023 3.28906 5.78125L2.89355 5.47656C3.63849 4.50733 4.50733 3.63849 5.47656 2.89355L5.78125 3.28906C6.71023 2.57518 7.73497 1.9794 8.83203 1.52441L8.64062 1.0625C9.75265 0.601326 10.937 0.27921 12.1719 0.118164L12.2363 0.614258C12.8133 0.538998 13.402 0.5 14 0.5C14.598 0.5 15.1867 0.538998 15.7637 0.614258L15.8271 0.118164Z" stroke="#DDDDE3" stroke-dasharray="4 4"/>
<path fill-rule="evenodd" clip-rule="evenodd" d="M14.0013 6.08301C14.4615 6.08301 14.8346 6.4561 14.8346 6.91634V21.083C14.8346 21.5432 14.4615 21.9163 14.0013 21.9163C13.5411 21.9163 13.168 21.5432 13.168 21.083V6.91634C13.168 6.4561 13.5411 6.08301 14.0013 6.08301Z" fill="#1C2024"/>
<path fill-rule="evenodd" clip-rule="evenodd" d="M6.08398 13.9993C6.08398 13.5391 6.45708 13.166 6.91732 13.166H21.084C21.5442 13.166 21.9173 13.5391 21.9173 13.9993C21.9173 14.4596 21.5442 14.8327 21.084 14.8327H6.91732C6.45708 14.8327 6.08398 14.4596 6.08398 13.9993Z" fill="#1C2024"/>
</svg>
