<svg width="24" height="24" viewBox="0 0 24 24" fill="none" xmlns="http://www.w3.org/2000/svg">
<path fill-rule="evenodd" clip-rule="evenodd" d="M11.339 1.00845C11.2993 1.01388 11.1641 1.02976 11.0385 1.04374C8.17148 1.36271 5.63255 3.31737 4.54969 6.03929C4.37505 6.47823 4.21551 7.0252 4.12923 7.48071C4.00935 8.11364 4.01288 8.01997 3.99824 10.9641L3.98447 13.7389C3.98447 13.7389 3.98455 13.7389 2.74228 16.3584C2.30376 17.2831 1.40739 18.9737 2.74229 18.979C8.00012 19 15.9947 18.979 21.2577 18.979C22.5 18.979 21.6961 17.2835 21.2577 16.3589C20.0153 13.7389 20.0153 13.7389 20.0153 13.7389L20.0015 10.9641C19.9867 8.02113 19.9902 8.11208 19.8706 7.48071C19.3667 4.82043 17.4886 2.5525 14.9574 1.54769C14.3635 1.31192 13.7557 1.15322 13.0574 1.05165C12.8177 1.01676 11.517 0.984068 11.339 1.00845ZM8.00506 22.003V23H11.9999H15.9947V22.003V21.006H11.9999H8.00506V22.003Z" fill="black"/>
</svg>
