<svg width="20" height="20" viewBox="0 0 20 20" fill="none" xmlns="http://www.w3.org/2000/svg">
<path d="M17.2917 5H10.5664C10.701 5.39931 10.7834 5.81597 10.816 6.25H17.2917C17.4089 6.25 17.5 6.34115 17.5 6.45833V8.95833C17.5 9.07552 17.4089 9.16667 17.2917 9.16667H10.2214C9.98264 9.62023 9.67882 10.0412 9.31641 10.4123C9.33811 10.4167 9.3533 10.4167 9.375 10.4167H17.2917C18.0968 10.4167 18.75 9.76346 18.75 8.95833V6.45833C18.75 5.65321 18.0968 5 17.2917 5Z" fill="#77AA00"/>
<path d="M17.2917 11.6641H8.84549C8.79991 11.74 8.74566 11.8051 8.68707 11.8724C8.95833 12.1719 9.11241 12.5343 9.15365 12.9141H17.2917C17.4089 12.9141 17.5 13.0052 17.5 13.1224V15.6224C17.5 15.7396 17.4089 15.8307 17.2917 15.8307H9.15365C9.10807 16.2431 8.93012 16.638 8.61762 16.9484L8.48307 17.0807H17.2917C18.0968 17.0807 18.75 16.4275 18.75 15.6224V13.1224C18.75 12.3173 18.0968 11.6641 17.2917 11.6641Z" fill="#77AA00"/>
<path d="M6.25 5.83333C6.25 6.2934 5.87674 6.66667 5.41667 6.66667C4.9566 6.66667 4.58333 6.2934 4.58333 5.83333C4.58333 5.37326 4.9566 5 5.41667 5C5.87674 5 6.25 5.37326 6.25 5.83333Z" fill="#77AA00"/>
<path d="M8.33333 6.66667C8.33333 5.05655 7.02678 3.75 5.41667 3.75C3.80655 3.75 2.5 5.05655 2.5 6.66667C2.5 7.70842 3.04658 8.62007 3.8737 9.13859C4.05595 9.2529 4.16667 9.45282 4.16667 9.66797V15.7829L5.20833 16.8245L6.40788 15.625L5.59977 14.8169C5.35569 14.5728 5.35569 14.1772 5.59977 13.9331L6.40788 13.125L5.59977 12.3169C5.35569 12.0728 5.35569 11.6772 5.59977 11.4331L6.66667 10.3662V9.65291C6.66667 9.43727 6.77792 9.23689 6.96086 9.12272C7.78668 8.60748 8.33333 7.70405 8.33333 6.66667ZM9.58333 6.66667C9.58333 8.03071 8.92339 9.22724 7.91667 9.98088V10.625C7.91667 10.7908 7.85077 10.9497 7.73356 11.0669L6.92546 11.875L7.73356 12.6831L7.77669 12.7307C7.96335 12.9598 7.96335 13.2902 7.77669 13.5193L7.73356 13.5669L6.92546 14.375L7.73356 15.1831L7.77669 15.2307C7.96335 15.4598 7.96335 15.7902 7.77669 16.0193L7.73356 16.0669L5.65023 18.1502C5.42147 18.379 5.05953 18.3934 4.81405 18.1934L4.76644 18.1502L3.09977 16.4836C2.98256 16.3664 2.91667 16.2074 2.91667 16.0417V9.99512C1.90724 9.23612 1.25 8.03146 1.25 6.66667C1.25 4.36619 3.11619 2.5 5.41667 2.5C7.71714 2.5 9.58333 4.36619 9.58333 6.66667Z" fill="#77AA00"/>
</svg>
