<svg width="20" height="20" viewBox="0 0 20 20" fill="none" xmlns="http://www.w3.org/2000/svg">
<path fill-rule="evenodd" clip-rule="evenodd" d="M2.35529 17.3558C2.16939 17.1351 2.08398 16.8602 2.08398 16.6663C2.08398 16.4725 2.16939 16.1976 2.35529 15.9769C2.52794 15.7719 2.77598 15.6247 3.12565 15.6247H4.79232C5.1375 15.6247 5.41732 15.3449 5.41732 14.9997C5.41732 14.6545 5.1375 14.3747 4.79232 14.3747H3.12565C2.36855 14.3747 1.78326 14.7157 1.39927 15.1716C1.02853 15.6117 0.833984 16.1701 0.833984 16.6663C0.833984 17.1626 1.02853 17.721 1.39927 18.1611C1.78326 18.617 2.36855 18.958 3.12565 18.958H16.8757C17.6328 18.958 18.218 18.617 18.602 18.1611C18.9728 17.721 19.1673 17.1626 19.1673 16.6663C19.1673 16.1701 18.9728 15.6117 18.602 15.1716C18.218 14.7157 17.6328 14.3747 16.8757 14.3747H15.209C14.8638 14.3747 14.584 14.6545 14.584 14.9997C14.584 15.3449 14.8638 15.6247 15.209 15.6247H16.8757C17.2253 15.6247 17.4734 15.7719 17.646 15.9769C17.8319 16.1976 17.9173 16.4725 17.9173 16.6663C17.9173 16.8602 17.8319 17.1351 17.646 17.3558C17.4734 17.5608 17.2253 17.708 16.8757 17.708H3.12565C2.77598 17.708 2.52794 17.5608 2.35529 17.3558Z" fill="#1C2024"/>
<path fill-rule="evenodd" clip-rule="evenodd" d="M8.4522 1.31451C8.58871 1.63154 8.44237 1.99922 8.12533 2.13573C7.98509 2.19611 7.79991 2.27615 7.63015 2.36587C7.54566 2.41052 7.47506 2.45236 7.42184 2.48935C7.37806 2.51977 7.36156 2.53629 7.36057 2.53688C7.33287 2.5722 7.28364 2.63241 7.21728 2.71355C6.98242 3.00077 6.53306 3.55029 6.06493 4.18685C5.76582 4.59358 5.47484 5.01547 5.25106 5.3935C5.0137 5.79447 4.89856 6.07053 4.877 6.20748C4.83508 6.47365 4.82588 7.21345 4.83597 8.1643C4.84195 8.72813 4.85384 9.33173 4.86515 9.90556C4.87243 10.2752 4.87947 10.6324 4.88453 10.9588L4.88461 10.9636L4.88461 10.9684C4.88461 10.9653 4.88467 10.9656 4.88535 10.969C4.88754 10.98 4.89617 11.0231 4.92992 11.0875C4.97012 11.1642 5.03023 11.2398 5.10605 11.2966C5.47493 11.5733 5.88562 11.8184 6.09245 11.9213C6.40149 12.075 6.52739 12.4502 6.37364 12.7592C6.21989 13.0683 5.84472 13.1942 5.53568 13.0404C5.25469 12.9007 4.77973 12.6144 4.35606 12.2966C3.89815 11.9532 3.63694 11.4127 3.63462 10.9743C3.62975 10.6606 3.62283 10.3091 3.61562 9.94247C3.60421 9.36224 3.59205 8.74406 3.58604 8.17756C3.57647 7.27551 3.58001 6.40803 3.64221 6.01303C3.7043 5.61874 3.93519 5.16254 4.17539 4.75676C4.42916 4.32806 4.74726 3.86872 5.05792 3.44629C5.56018 2.76331 6.0856 2.12187 6.29202 1.86987C6.33709 1.81485 6.36695 1.77839 6.37805 1.76412C6.559 1.53136 6.85559 1.36138 7.04611 1.2607C7.26308 1.14604 7.48884 1.04883 7.62536 0.990056L7.63098 0.987637C7.94801 0.851125 8.31569 0.99747 8.4522 1.31451Z" fill="#1C2024"/>
<path fill-rule="evenodd" clip-rule="evenodd" d="M18.543 2.08301C18.8881 2.08301 19.168 2.36283 19.168 2.70801C19.168 5.28645 18.5229 7.57956 18.1122 8.78049L18.1121 8.78076C17.8753 9.47224 17.4023 10.0528 16.785 10.4292L12.4791 13.0547C11.8189 13.4694 10.9627 13.3988 10.3815 12.875C10.3735 12.8677 10.3656 12.8603 10.358 12.8526C9.35834 11.853 9.35925 10.2295 10.3573 9.22851C10.3754 9.21039 10.3946 9.1934 10.4147 9.17763L12.4861 7.55643C12.4031 6.76542 11.9868 6.14867 11.444 5.80929C10.8451 5.43479 10.0601 5.37515 9.29321 5.84476C9.01346 6.01699 8.79459 6.21009 8.56104 6.44813C8.45689 6.55429 8.35358 6.6654 8.2382 6.7895C8.22103 6.80796 8.2036 6.82671 8.18586 6.84577C8.10226 6.93559 8.01344 7.03058 7.91797 7.12982V9.37468C7.91797 9.71985 7.63815 9.99968 7.29297 9.99968C6.94779 9.99968 6.66797 9.71985 6.66797 9.37468V6.87467C6.66797 6.70891 6.73382 6.54994 6.85103 6.43273C7.00219 6.28157 7.13786 6.13704 7.27084 5.99416C7.28779 5.97595 7.30477 5.95768 7.32179 5.93937C7.43607 5.81643 7.55192 5.69181 7.66878 5.5727C7.9429 5.29331 8.2415 5.02425 8.63858 4.77989L8.63961 4.77926C9.81705 4.05782 11.1119 4.12736 12.1067 4.74941C13.0927 5.36587 13.7513 6.50179 13.7513 7.84907C13.7513 8.04127 13.6629 8.22279 13.5115 8.34125L11.2183 10.136C10.7344 10.6472 10.7391 11.4524 11.2292 11.956C11.3929 12.095 11.6299 12.1129 11.8156 11.9954L11.8244 11.9899L16.1343 9.36189L16.1343 9.36186C16.5065 9.13497 16.7887 8.78681 16.9295 8.37598C17.3173 7.24184 17.918 5.09484 17.918 2.70801C17.918 2.36283 18.1978 2.08301 18.543 2.08301Z" fill="#1C2024"/>
<path fill-rule="evenodd" clip-rule="evenodd" d="M10.0137 8.95803C8.17369 8.95091 6.67531 10.4365 6.668 12.2787C6.66069 14.1188 8.14631 15.6174 9.98862 15.6247C11.8288 15.632 13.3274 14.1464 13.3347 12.3041C13.336 11.9589 13.617 11.6802 13.9621 11.6816C14.3073 11.6829 14.586 11.9639 14.5847 12.309C14.5746 14.8417 12.5142 16.8848 9.98366 16.8747C7.45098 16.8647 5.40795 14.8042 5.41801 12.2737C5.42806 9.74102 7.48851 7.69799 10.019 7.70804L10.0197 7.70805C10.515 7.71055 10.993 7.79066 11.4403 7.93977C11.7678 8.04892 11.9447 8.40287 11.8356 8.73034C11.7264 9.0578 11.3725 9.23478 11.045 9.12562C10.7242 9.01869 10.3777 8.95991 10.0137 8.95803Z" fill="#1C2024"/>
</svg>
