<svg width="24" height="24" viewBox="0 0 24 24" fill="none" xmlns="http://www.w3.org/2000/svg">
<path d="M9 7C9 11.4183 12.5817 15 17 15C18.4386 15 19.7885 14.6203 20.9549 13.9556C20.4738 19.0302 16.2005 23 11 23C5.47715 23 1 18.5228 1 13C1 7.79948 4.9698 3.52616 10.0444 3.04507C9.3797 4.21152 9 5.56142 9 7ZM3 13C3 17.4183 6.58172 21 11 21C13.9654 21 16.5757 19.3788 17.9571 16.9546C17.6407 16.9848 17.3214 17 17 17C11.4772 17 7 12.5228 7 7C7 6.67863 7.01524 6.35933 7.04536 6.04293C4.62119 7.42426 3 10.0346 3 13ZM17.1642 3.29104L18 3.5V4.5L17.1642 4.70896C16.4476 4.8881 15.8881 5.4476 15.709 6.16417L15.5 7H14.5L14.291 6.16417C14.1119 5.4476 13.5524 4.8881 12.8358 4.70896L12 4.5V3.5L12.8358 3.29104C13.5524 3.1119 14.1119 2.5524 14.291 1.83583L14.5 1H15.5L15.709 1.83583C15.8881 2.5524 16.4476 3.1119 17.1642 3.29104ZM22.1642 8.29104L23 8.5V9.5L22.1642 9.70896C21.4476 9.8881 20.8881 10.4476 20.709 11.1642L20.5 12H19.5L19.291 11.1642C19.1119 10.4476 18.5524 9.8881 17.8358 9.70896L17 9.5V8.5L17.8358 8.29104C18.5524 8.1119 19.1119 7.5524 19.291 6.83583L19.5 6H20.5L20.709 6.83583C20.8881 7.5524 21.4476 8.1119 22.1642 8.29104Z" fill="black"/>
</svg>
