<svg width="20" height="20" viewBox="0 0 20 20" fill="none" xmlns="http://www.w3.org/2000/svg">
<path d="M8.95829 10.0003C6.66012 10.0003 4.79163 8.13184 4.79163 5.83366C4.79163 3.53548 6.66012 1.66699 8.95829 1.66699C11.2565 1.66699 13.125 3.53548 13.125 5.83366C13.125 8.13184 11.2565 10.0003 8.95829 10.0003Z" fill="#1C2024"/>
<path d="M17.6875 9.1733C18.8261 10.3119 18.8261 12.1595 17.6875 13.2981C17.5417 13.4439 17.3852 13.5697 17.2195 13.6771L17.221 17.3723C17.221 17.4828 17.1765 17.5887 17.0982 17.667L15.9197 18.8455C15.7571 19.0081 15.4931 19.0081 15.3305 18.8455L14.152 17.667C13.9893 17.5043 13.9893 17.2404 14.152 17.0777L14.7412 16.4884L14.152 15.8992C13.9893 15.7365 13.9893 15.4726 14.152 15.3099L14.6476 14.8657V13.9809C14.2517 13.8398 13.8788 13.6142 13.5627 13.2981C12.4241 12.1595 12.4241 10.3119 13.5627 9.1733C14.7013 8.03468 16.5489 8.03468 17.6875 9.1733ZM15.0358 11.2357C15.3612 11.561 15.889 11.561 16.2144 11.2357C16.5397 10.9104 16.5397 10.3825 16.2144 10.0572C15.889 9.73186 15.3612 9.73186 15.0358 10.0572C14.7105 10.3825 14.7105 10.9104 15.0358 11.2357Z" fill="#1C2024"/>
<path d="M12.9102 16.8753C12.4154 16.4608 12.0769 16.2503 12.0769 15.6253C12.0769 15.0003 12.2852 14.792 12.7019 14.3753C12.1002 13.7651 11.2435 12.917 11.0352 11.667H3.94961C3.03598 11.667 2.29163 12.4114 2.29163 13.325V13.9587C2.29163 15.3389 3.07722 16.5324 4.503 17.318C5.69006 17.9734 7.27209 18.3337 8.95829 18.3337C10.4236 18.3337 11.7499 17.7486 12.9102 16.8753Z" fill="#1C2024"/>
</svg>
