<svg width="28" height="28" viewBox="0 0 28 28" fill="none" xmlns="http://www.w3.org/2000/svg">
<path d="M22.3854 11.0675L23.2766 20.5675C23.4734 21.8463 22.4839 22.9996 21.1901 22.9996H7.11156C5.81769 22.9996 4.82826 21.8463 5.025 20.5675L6.07408 11.0675C6.23253 10.0376 7.11867 9.27734 8.16065 9.27734H20.2989C21.3408 9.27734 22.227 10.0376 22.3854 11.0675Z" stroke="#1C2024" stroke-width="1.5"/>
<path d="M17.2613 12C17.2613 12 16.5706 7.1623 16.2613 6.11111C15.952 5.05992 15.3161 4 14.1502 4C12.9842 4 12.3302 4.92404 12.0283 6.11111C11.7265 7.29818 11.0391 12 11.0391 12" stroke="#1C2024" stroke-width="1.5"/>
<path d="M9.02238 20.1081C8.86653 20.184 8.72852 20.1937 8.60837 20.1372C8.48822 20.0808 8.39021 19.9746 8.31435 19.8188L7.29464 17.7238C7.18377 17.496 7.16352 17.2983 7.23388 17.1305C7.30724 16.9614 7.43084 16.8345 7.60468 16.7499C7.76952 16.6696 7.93515 16.6558 8.10156 16.7082C8.27096 16.7592 8.43954 16.8885 8.60727 17.096L9.69975 18.4494L9.81664 18.3925L9.4255 16.6977C9.36566 16.4377 9.36792 16.2253 9.4323 16.0605C9.49966 15.8942 9.61577 15.771 9.78061 15.6908C9.95445 15.6062 10.1291 15.5879 10.3045 15.636C10.4829 15.6826 10.6275 15.8198 10.7384 16.0476L11.7581 18.1426C11.8339 18.2985 11.8555 18.4418 11.8228 18.5726C11.7931 18.702 11.7003 18.8047 11.5445 18.8805C11.3946 18.9535 11.2566 18.9632 11.1305 18.9096C11.0043 18.8561 10.9033 18.7514 10.8275 18.5956L10.2388 17.3862C10.2242 17.3562 10.2066 17.3315 10.186 17.3119C10.1668 17.2878 10.1408 17.2838 10.1078 17.2998C10.0808 17.313 10.0679 17.3359 10.0691 17.3688C10.0688 17.3986 10.0729 17.4299 10.0815 17.4628L10.4621 18.6789C10.5009 18.812 10.5272 18.9308 10.541 19.0353C10.5564 19.1353 10.5457 19.2239 10.5091 19.301C10.4711 19.3752 10.3951 19.44 10.2812 19.4954C10.1703 19.5494 10.0724 19.5692 9.98761 19.5549C9.90432 19.5361 9.82654 19.4906 9.75427 19.4182C9.68353 19.3414 9.60926 19.246 9.53147 19.1319L8.8047 18.0843C8.78711 18.0558 8.76649 18.0324 8.74283 18.0143C8.71771 17.9931 8.69017 17.9899 8.6602 18.0045C8.63022 18.019 8.61731 18.042 8.62144 18.0734C8.62412 18.1017 8.63276 18.1309 8.64735 18.1609L9.23598 19.3702C9.31184 19.5261 9.33192 19.6701 9.29622 19.8024C9.26352 19.9333 9.17224 20.0352 9.02238 20.1081ZM12.5371 18.6268C12.3118 18.6112 12.1592 18.5214 12.0793 18.3572C11.9992 18.1897 11.9952 17.971 12.0674 17.7011L12.5769 15.7797C12.623 15.6022 12.6794 15.4489 12.7461 15.3199C12.8161 15.1906 12.9066 15.0881 13.0176 15.0124C13.132 14.9365 13.2772 14.8915 13.4533 14.8775C13.7191 14.8564 13.9243 14.9137 14.0688 15.0494C14.2167 15.1848 14.3457 15.3785 14.456 15.6306L15.2573 17.4479C15.3712 17.703 15.4051 17.9193 15.359 18.0968C15.316 18.2708 15.1828 18.3833 14.9595 18.4345C14.7786 18.4723 14.6174 18.4633 14.4759 18.4077C14.3377 18.3518 14.2493 18.2501 14.2109 18.1027C14.183 18.0046 14.1731 17.9218 14.1811 17.8543C14.1925 17.7865 14.2032 17.7322 14.2133 17.6912C14.2207 17.6572 14.2182 17.6256 14.2058 17.5965C14.1965 17.5638 14.1703 17.5492 14.1271 17.5526L13.2 17.6262C13.1568 17.6296 13.1315 17.6484 13.1242 17.6824C13.1199 17.7128 13.1258 17.7441 13.1417 17.7763C13.1582 17.8151 13.1757 17.8672 13.1942 17.9326C13.2128 17.998 13.2177 18.0812 13.209 18.1822C13.1943 18.3339 13.1248 18.4481 13.0005 18.5248C12.8762 18.6016 12.7217 18.6356 12.5371 18.6268ZM13.977 16.8623L13.6533 16.0705C13.644 16.0378 13.6304 16.0138 13.6125 15.9985C13.5976 15.9796 13.5736 15.9715 13.5403 15.9741C13.5071 15.9767 13.483 15.9887 13.468 16.0099C13.456 16.0276 13.4463 16.0535 13.439 16.0875L13.2493 16.9201L13.977 16.8623ZM16.0375 15.3216C16.0635 15.1705 16.1295 15.0618 16.2356 14.9955C16.3456 14.9264 16.4745 14.9046 16.6223 14.93C16.7767 14.9566 16.8926 15.0205 16.9699 15.1217C17.0477 15.2196 17.0737 15.3442 17.0477 15.4953L16.6868 17.5945C16.6761 17.6569 16.6849 17.7041 16.7132 17.736C16.7421 17.7647 16.798 17.7641 16.8809 17.7344C17.0615 17.6674 17.2207 17.6169 17.3584 17.5831C17.4967 17.546 17.6431 17.5407 17.7975 17.5673C18.011 17.604 18.1624 17.6875 18.2516 17.8178C18.3408 17.9482 18.3699 18.1037 18.3388 18.2844C18.3055 18.4782 18.2207 18.6175 18.0843 18.7023C17.9513 18.7876 17.7566 18.8083 17.5004 18.7642L16.4853 18.5897C16.2685 18.5525 16.092 18.4968 15.9559 18.4226C15.8204 18.3452 15.7265 18.2327 15.6741 18.085C15.6249 17.9379 15.6224 17.7362 15.6665 17.48L16.0375 15.3216ZM19.7466 16.1729C19.8188 16.0376 19.9157 15.9552 20.0373 15.9257C20.1634 15.8947 20.2926 15.9146 20.4249 15.9852C20.5631 16.059 20.653 16.1561 20.6945 16.2765C20.7376 16.3939 20.7231 16.5203 20.6509 16.6556L19.6479 18.5346C19.6181 18.5905 19.6116 18.6381 19.6284 18.6773C19.6468 18.7136 19.7001 18.7306 19.7881 18.7285C19.9807 18.7217 20.1476 18.7239 20.289 18.7352C20.4319 18.7434 20.5725 18.7845 20.7107 18.8582C20.9019 18.9603 21.0193 19.0872 21.0629 19.2389C21.1066 19.3907 21.0853 19.5475 20.999 19.7092C20.9063 19.8827 20.782 19.9883 20.6259 20.0259C20.4728 20.065 20.2815 20.0234 20.0521 19.901L19.1435 19.4159C18.9494 19.3123 18.7994 19.204 18.6936 19.0908C18.5893 18.9747 18.5355 18.8383 18.5322 18.6816C18.5319 18.5265 18.593 18.3343 18.7154 18.1049L19.7466 16.1729Z" fill="#1C2024"/>
<circle cx="17.4092" cy="12.2627" r="1.2998" fill="#1C2024"/>
<circle cx="10.8936" cy="12.2627" r="1.2998" fill="#1C2024"/>
</svg>
