<svg width="20" height="20" viewBox="0 0 20 20" fill="none" xmlns="http://www.w3.org/2000/svg">
<path fill-rule="evenodd" clip-rule="evenodd" d="M10 8.54443C10.3452 8.54443 10.625 8.82417 10.625 9.16925V11.0582C10.2643 11.0582 9.72879 11.1809 9.375 11.4747V9.16925C9.375 8.82417 9.65482 8.54443 10 8.54443Z" fill="#77AA00"/>
<path fill-rule="evenodd" clip-rule="evenodd" d="M4.237 6.38209C4.39612 6.07586 4.77343 5.95657 5.07974 6.11564L8.76069 8.02718C9.53907 8.4321 10.4609 8.4321 11.2392 8.02718L14.9202 6.11564C15.2265 5.95657 15.6038 6.07586 15.7629 6.38209C15.9221 6.68831 15.8027 7.06551 15.4964 7.22458L11.8162 9.13571C11.8161 9.13577 11.8164 9.13565 11.8162 9.13571C11.8162 9.13572 11.8159 9.1359 11.8159 9.13592C10.6759 9.72876 9.32358 9.7287 8.18369 9.13571L4.50352 7.22458C4.19721 7.06551 4.07788 6.68831 4.237 6.38209Z" fill="#77AA00"/>
<path d="M12.5001 18.3333H11.6667C9.94366 18.3333 8.54175 16.9318 8.54175 15.2092C8.54175 13.4866 9.94366 12.0851 11.6667 12.0851H12.5001C12.8451 12.0851 13.1251 12.3649 13.1251 12.7099C13.1251 13.0549 12.8451 13.3347 12.5001 13.3347H11.6667C10.6338 13.3347 9.79175 14.1765 9.79175 15.2092C9.79175 16.2419 10.6338 17.0836 11.6667 17.0836H12.5001C12.8451 17.0836 13.1251 17.3635 13.1251 17.7084C13.1251 18.0534 12.8451 18.3333 12.5001 18.3333ZM19.3751 15.2092C19.3751 13.4866 17.9732 12.0851 16.2501 12.0851H15.4167C15.0717 12.0851 14.7917 12.3649 14.7917 12.7099C14.7917 13.0549 15.0717 13.3347 15.4167 13.3347H16.2501C17.2831 13.3347 18.1251 14.1765 18.1251 15.2092C18.1251 16.2419 17.2831 17.0836 16.2501 17.0836H15.4167C15.0717 17.0836 14.7917 17.3635 14.7917 17.7084C14.7917 18.0534 15.0717 18.3333 15.4167 18.3333H16.2501C17.9732 18.3333 19.3751 16.9318 19.3751 15.2092ZM16.8751 15.2092C16.8751 14.8642 16.5951 14.5844 16.2501 14.5844H11.6667C11.3217 14.5844 11.0417 14.8642 11.0417 15.2092C11.0417 15.5541 11.3217 15.834 11.6667 15.834H16.2501C16.5951 15.834 16.8751 15.5541 16.8751 15.2092Z" fill="#77AA00"/>
<path d="M7.24165 16.0396L3.89761 14.285C3.55039 14.1071 3.33337 13.7513 3.33337 13.3608V6.64401C3.33337 6.2535 3.55039 5.8977 3.89761 5.71763L8.76523 3.21402C9.15152 3.0166 9.57686 2.9168 10 2.9168C10.4232 2.9168 10.8486 3.0166 11.2327 3.21402L16.1003 5.7198C16.4497 5.8977 16.6667 6.2535 16.6667 6.64401V11.0577C17.111 11.0821 17.5066 11.1383 17.9167 11.2539V6.64401C17.9167 5.78272 17.4414 5.00169 16.6732 4.60901L11.8056 2.10324L11.8034 2.10107C10.675 1.52181 9.32513 1.52181 8.19449 2.10107L3.32686 4.60685C2.55863 5.0017 2.08337 5.78272 2.08337 6.64401V13.3608C2.08337 14.2221 2.55863 15.0031 3.32686 15.3958L8.03469 17.8246C7.69956 17.2796 7.38361 16.7154 7.24165 16.0396Z" fill="#77AA00"/>
</svg>
