<svg width="21" height="22" viewBox="0 0 21 22" fill="none" xmlns="http://www.w3.org/2000/svg">
<path d="M13.1686 1.69958C13.0303 1.69958 12.8896 1.73709 12.7607 1.8238L4.45215 7.25427H0.608398C0.402148 7.25427 0.233398 7.42302 0.233398 7.62927V14.3793C0.233398 14.5855 0.402148 14.7543 0.608398 14.7543H4.45215L12.7607 20.1847C12.8896 20.2691 13.0326 20.309 13.1686 20.309C13.56 20.309 13.9209 19.9972 13.9209 19.5566V2.45193C13.9209 2.0113 13.56 1.69958 13.1686 1.69958ZM12.2334 17.8246L5.37559 13.341L4.95371 13.0668H1.9209V8.94177H4.95371L5.37324 8.66755L12.2334 4.18396V17.8246ZM20.3896 10.1605H17.3896C17.1834 10.1605 17.0146 10.3293 17.0146 10.5355V11.473C17.0146 11.6793 17.1834 11.848 17.3896 11.848H20.3896C20.5959 11.848 20.7646 11.6793 20.7646 11.473V10.5355C20.7646 10.3293 20.5959 10.1605 20.3896 10.1605ZM19.4076 16.2965L16.8225 14.8035C16.78 14.7792 16.7331 14.7635 16.6846 14.7572C16.636 14.751 16.5868 14.7544 16.5395 14.7673C16.4923 14.7801 16.4481 14.8021 16.4093 14.8321C16.3706 14.862 16.3382 14.8993 16.3139 14.9418L15.8475 15.7504C15.7443 15.9285 15.8053 16.1582 15.9834 16.2613L18.5686 17.7543C18.611 17.7786 18.6579 17.7943 18.7064 17.8005C18.755 17.8067 18.8043 17.8033 18.8515 17.7905C18.8987 17.7776 18.943 17.7556 18.9817 17.7257C19.0204 17.6957 19.0528 17.6585 19.0771 17.616L19.5436 16.8074C19.6467 16.6293 19.5834 16.3996 19.4076 16.2965ZM16.3115 7.06677C16.3358 7.10925 16.3683 7.14652 16.407 7.17646C16.4457 7.2064 16.49 7.22842 16.5372 7.24126C16.5844 7.2541 16.6337 7.25751 16.6822 7.2513C16.7308 7.24509 16.7776 7.22937 16.8201 7.20505L19.4053 5.71209C19.5834 5.60896 19.6443 5.37927 19.5412 5.20115L19.0771 4.3949C19.0528 4.35242 19.0204 4.31515 18.9817 4.28521C18.943 4.25527 18.8987 4.23325 18.8515 4.22041C18.8043 4.20757 18.755 4.20416 18.7064 4.21037C18.6579 4.21658 18.611 4.2323 18.5686 4.25662L15.9834 5.74958C15.8978 5.79948 15.8354 5.88125 15.81 5.977C15.7845 6.07274 15.798 6.17469 15.8475 6.26052L16.3115 7.06677Z" fill="black" fill-opacity="0.85"/>
</svg>
