<svg width="32" height="32" viewBox="0 0 32 32" fill="none" xmlns="http://www.w3.org/2000/svg">
<path fill-rule="evenodd" clip-rule="evenodd" d="M12.6666 28.3333C11.9303 28.3333 11.3333 27.7363 11.3333 26.9999L11.3333 4.99992C11.3333 4.26354 11.9303 3.66658 12.6666 3.66658C13.403 3.66658 14 4.26354 14 4.99992L14 26.9999C14 27.7363 13.403 28.3333 12.6666 28.3333Z" fill="#1C2024"/>
<path fill-rule="evenodd" clip-rule="evenodd" d="M3.72382 13.9427C3.20312 13.422 3.20312 12.5778 3.72382 12.0571L11.7238 4.05711C12.2445 3.53641 13.0887 3.53641 13.6094 4.05711C14.1301 4.57781 14.1301 5.42203 13.6094 5.94273L5.60944 13.9427C5.08874 14.4634 4.24452 14.4634 3.72382 13.9427Z" fill="#1C2024"/>
<path fill-rule="evenodd" clip-rule="evenodd" d="M19.3333 3.6665C20.0697 3.6665 20.6666 4.26346 20.6666 4.99984L20.6666 26.9998C20.6666 27.7362 20.0697 28.3332 19.3333 28.3332C18.5969 28.3332 18 27.7362 18 26.9998V4.99984C18 4.26346 18.5969 3.6665 19.3333 3.6665Z" fill="#1C2024"/>
<path fill-rule="evenodd" clip-rule="evenodd" d="M28.2761 18.057C28.7968 18.5777 28.7968 19.4219 28.2761 19.9426L20.2761 27.9426C19.7554 28.4633 18.9112 28.4633 18.3905 27.9426C17.8698 27.4219 17.8698 26.5777 18.3905 26.057L26.3905 18.057C26.9112 17.5363 27.7554 17.5363 28.2761 18.057Z" fill="#1C2024"/>
</svg>
