<svg width="24" height="24" viewBox="0 0 24 24" fill="none" xmlns="http://www.w3.org/2000/svg">
<path d="M9 9H6C4.34375 9 3 7.65625 3 6C3 4.34375 4.34375 3 6 3H20V5H6C5.44792 5 5 5.44792 5 6C5 6.55208 5.44792 7 6 7H9V9Z" fill="black"/>
<path fill-rule="evenodd" clip-rule="evenodd" d="M20 8H4V20H20V8ZM15.0001 14C15.0001 14.5521 15.4481 15 16.0001 15C16.5522 15 17.0001 14.5521 17.0001 14C17.0001 13.4479 16.5522 13 16.0001 13C15.4481 13 15.0001 13.4479 15.0001 14Z" fill="black"/>
<path d="M19 21H5C3.89583 21 3 20.1042 3 19V6.00002H5V19H19V9.00002H8V7.00002H19C20.1042 7.00002 21 7.89585 21 9.00002V19C21 20.1042 20.1042 21 19 21Z" fill="black"/>
</svg>
