<svg width="20" height="20" viewBox="0 0 20 20" fill="none" xmlns="http://www.w3.org/2000/svg">
<path fill-rule="evenodd" clip-rule="evenodd" d="M8.54167 4.16667C6.12647 4.16667 4.16667 6.12647 4.16667 8.54167C4.16667 10.9569 6.12647 12.9167 8.54167 12.9167C10.9569 12.9167 12.9167 10.9569 12.9167 8.54167C12.9167 6.12647 10.9569 4.16667 8.54167 4.16667ZM2.5 8.54167C2.5 5.206 5.206 2.5 8.54167 2.5C11.8773 2.5 14.5833 5.206 14.5833 8.54167C14.5833 11.8773 11.8773 14.5833 8.54167 14.5833C5.206 14.5833 2.5 11.8773 2.5 8.54167Z" fill="#7E808A"/>
<path fill-rule="evenodd" clip-rule="evenodd" d="M11.6351 11.6351C11.9606 11.3097 12.4882 11.3097 12.8136 11.6351L17.2559 16.0774C17.5814 16.4028 17.5814 16.9305 17.2559 17.2559C16.9305 17.5814 16.4028 17.5814 16.0774 17.2559L11.6351 12.8136C11.3097 12.4882 11.3097 11.9606 11.6351 11.6351Z" fill="#7E808A"/>
</svg>
