<svg width="24" height="24" viewBox="0 0 24 24" fill="none" xmlns="http://www.w3.org/2000/svg">
<path d="M11 13C14.3137 13 17 10.3137 17 7C17 3.68629 14.3137 1 11 1C7.68629 1 5 3.68629 5 7C5 10.3137 7.68629 13 11 13ZM14 18C14 16.3431 15.3431 15 17 15C17.4631 15 17.9018 15.105 18.2934 15.2924L14.2924 19.2934C14.105 18.9018 14 18.4631 14 18ZM15.7066 20.7076L19.7076 16.7066C19.895 17.0982 20 17.5369 20 18C20 19.6569 18.6569 21 17 21C16.5369 21 16.0982 20.895 15.7066 20.7076ZM17 13C14.2386 13 12 15.2386 12 18C12 20.7614 14.2386 23 17 23C19.7614 23 22 20.7614 22 18C22 15.2386 19.7614 13 17 13ZM11 14C11.0843 14 11.1683 14.0013 11.252 14.0039C10.4628 15.137 10 16.5145 10 18C10 19.4872 10.4638 20.8662 11.2547 22H3C3 17.5817 6.58172 14 11 14Z" fill="#444444"/>
</svg>
